
<svg width="500" height="500" fill="none" xmlns="http://www.w3.org/2000/svg"><path d="M250 479.9c131.4 0 238-60.7 238-135.6 0-74.8-106.6-135.5-238-135.5S12 269.5 12 344.3C12 419.2 118.6 480 250 480Z" fill="#6C6C6C" fill-opacity=".2"/><path d="M391.5 406.9c35.3 0 64-16.6 64-37s-28.7-37-64-37c-35.4 0-64 16.6-64 37s28.6 37 64 37Z" fill="#1E1E1E" fill-opacity=".2"/><path d="M367.9 399.4 292.6 356a1 1 0 0 1 0-1.8l5.8-3.4a3.5 3.5 0 0 1 3.2 0l75.3 43.4a1 1 0 0 1 .4 1.5 1 1 0 0 1-.4.4l-5.8 3.3a3.5 3.5 0 0 1-3.2 0ZM54.8 410.9 82.7 427a17 17 0 0 0 15.3 0l161.1-93c4.3-2.4 4.3-6.4 0-8.9L231.2 309a17 17 0 0 0-15.3 0L54.8 402c-4.2 2.4-4.2 6.4 0 8.9Z" fill="#1E1E1E" fill-opacity=".2"/><path d="M70.6 399.9c.4-11.5.7-22.8-4.7-39.3-4.6-13.8-17.7-27.8-26.2-28-11.3-.5-12.6 7.5-6.8 15.8 4.3 6.1 18.3 14.2 24.8 29.1a66.8 66.8 0 0 1 5.2 26.8l7.7-4.4Z" fill="#5A81FA"/><path d="M67.1 396.9a.5.5 0 0 1-.4-.5c.6-25.9-14-48.6-27.2-56.5a.5.5 0 0 1-.2-.5.5.5 0 0 1 .4-.4.5.5 0 0 1 .4 0c13 7.2 27.7 30.2 27.6 57.4a.5.5 0 0 1-.4.5H67Z" fill="#fff"/><path d="M63.6 403.9a3.4 3.4 0 0 1-5-1.8 41.8 41.8 0 0 0-9.4-14.5c-7.3-7.4-17.4-12-19-17-2-6 3.3-9 12-6.9 10.2 2.5 21.8 15 23.1 39.2l-1.7 1Z" fill="#5A81FA"/><path d="M63.6 403.9a3.4 3.4 0 0 1-5-1.8 41.8 41.8 0 0 0-9.4-14.5c-7.3-7.4-17.4-12-19-17-2-6 3.3-9 12-6.9 10.2 2.5 21.8 15 23.1 39.2l-1.7 1Z" fill="#000" opacity=".1"/><path d="M63.6 402.3a.5.5 0 0 1-.4-.4 43 43 0 0 0-26-34.2.5.5 0 0 1 0-.5.5.5 0 0 1 .6-.2 43.4 43.4 0 0 1 26.3 35c0 .2-.2.3-.3.3h-.2Z" fill="#fff"/><path d="M99.4 418.4c-4.1 2.5-10 2.1-16.3-1.6L69 408.6a8.5 8.5 0 0 1-3.9-6.6V219.6a2.7 2.7 0 0 1 1.1-2.5l151.3-87.3a2.7 2.7 0 0 1 2.7.2l14.2 8.2a50.9 50.9 0 0 1 23 39.9v138.1c0 7.4-2.6 12.5-6.8 15L99.4 418.3Z" fill="#455A64"/><path d="M256.7 171a51.7 51.7 0 0 0-22.3-32.8l-14.2-8.2a2.7 2.7 0 0 0-2.7-.3L66.2 217.1a2.7 2.7 0 0 0-1 2.5V240l36 20.8L256.6 171Z" fill="#5A81FA"/><path opacity=".5" d="m251.7 157.3-165 95.3L65.1 240v-20.5a2.7 2.7 0 0 1 1.1-2.5l151.3-87.3a2.7 2.7 0 0 1 2.7.2l14.2 8.2c6.9 4 13 11 17.3 19.1Z" fill="#fff"/><path d="M257.4 316.2v-4.1l-156.3 90.2-36-20.8V402a8.5 8.5 0 0 0 3.9 6.6l14.2 8.2c6.3 3.7 12 4 16.3 1.6l151.2-87.3c4.1-2.4 6.7-7.5 6.7-14.9Z" fill="#5A81FA"/><path d="m117.5 262.4 57.3-33.1c1-.6 2-.1 2 1.1v45.5a4.3 4.3 0 0 1-2 3.3l-57.4 33.1c-1 .6-1.9.1-1.9-1v-45.6a4.2 4.2 0 0 1 2-3.3Z" fill="#263238"/><path d="M173 273.4v-43l-55.6 32a4.3 4.3 0 0 0-2 3.4v43l55.7-32a4.2 4.2 0 0 0 1.9-3.4Z" fill="#5A81FA"/><path d="M121 293.3c0-.2-.1-.5 0-.8v-19.3l.5-.5 5.6-3.2c.2-.1.3 0 .4 0l.1 1v.7l-.1 1a.8.8 0 0 1-.4.6l-3.7 2v5.2l3.3-1.9.4.1.1.9v.8l-.1 1c0 .2-.2.4-.4.5l-3.3 1.9v5.6l3.7-2.2.4.1.1.9v.8l-.1 1c0 .2-.2.3-.4.5l-5.5 3.2c-.3.2-.4.2-.5 0ZM129.6 287.8v-18.6l.1-1c.1-.2.3-.4.6-.5l3-1.8c2.6-1.5 3.8-.3 3.8 3.4a10 10 0 0 1-1.7 6c.5.2.9 1 1.3 2.5l1.1 5v.4c0 .4-.3.9-1 1.3l-.6.3c-.6.3-.9.3-1-.1l-1-5a2 2 0 0 0-.5-1.1c-.2-.1-.5-.1-1 .1l-.6.4v7.3a1.7 1.7 0 0 1-1 1.4l-.6.3c-.6.4-1 .3-1-.3Zm3.8-13c.5-.4.8-.8 1-1.3l.3-2.4c0-.6 0-1.3-.4-1.8-.2-.3-.5-.4-1-.1l-1.3.7v5.7l1.4-.8ZM139.4 282.2v-18.7l.1-.9.5-.6 3-1.8c2.6-1.4 3.9-.3 3.9 3.4a10 10 0 0 1-1.8 6v.1c.5.1 1 1 1.3 2.5l1.2 5V277.5c0 .5-.4.9-1 1.3l-.6.3c-.6.3-1 .3-1-.1l-1-5a2 2 0 0 0-.5-1c-.2-.2-.5-.2-1 0l-.6.5v7.2a1.7 1.7 0 0 1-1 1.4l-.6.3c-.6.4-1 .4-1-.2Zm3.8-13c.5-.4.8-.9 1-1.4a7 7 0 0 0 .3-2.3c0-.7 0-1.3-.4-1.9a.7.7 0 0 0-1 0l-1.3.7v5.6l1.4-.8ZM148.8 267.2c0-7 1.6-11.3 4.9-13.3 3.3-1.8 4.9.7 4.9 7.7s-1.7 11.4-5 13.3c-3.2 1.9-4.8-.7-4.8-7.7Zm6.6 1.8c.5-2 .7-4 .6-6 .1-1.7 0-3.5-.6-5.1a1 1 0 0 0-.7-.8 1 1 0 0 0-1 .1c-1 .7-1.5 1.6-1.8 2.7-.4 1.9-.6 3.9-.6 5.9 0 1.7.1 3.5.6 5.2.4.9 1 1 1.8.6.9-.6 1.5-1.5 1.7-2.6ZM160.6 270v-18.7l.1-1 .5-.5 3.1-1.8c2.5-1.5 3.8-.3 3.8 3.4a10 10 0 0 1-1.8 6c.5.2 1 1 1.3 2.5l1.2 5v.4c0 .4-.4.8-1 1.3l-.6.3c-.6.3-.9.3-1-.1l-1-5a2 2 0 0 0-.5-1.1c-.2-.1-.5-.1-1 .1l-.6.4v7.3a1.7 1.7 0 0 1-1 1.4l-.5.3c-.7.4-1 .3-1-.3Zm3.8-13.1c.5-.3.8-.8 1-1.3a7 7 0 0 0 .3-2.3c0-.7 0-1.3-.4-2a.7.7 0 0 0-1 0l-1.3.7v5.7l1.4-.8Z" fill="#FAFAFA"/><path d="M127.5 316.2a.8.8 0 0 0-.7.1L117 322a2.4 2.4 0 0 0-1 1.9v7.3a.8.8 0 0 0 .2.8 61 61 0 0 0 2.3 1.1l.4-.1 9.8-5.7a2.4 2.4 0 0 0 1-1.9V318a.8.8 0 0 0-.2-.7l-2-1Z" fill="#F0F0F0"/><path d="M116.2 331.9a61 61 0 0 0 2.3 1.2l.4-.2 7.4-4.3-10-5.8c-.3.3-.4.7-.4 1v7.4a.8.8 0 0 0 .3.7Z" fill="#E0E0E0"/><path d="M117.8 325v7.3c0 .7.5 1 1 .6l9.9-5.6a2.4 2.4 0 0 0 1-2V318c0-.7-.4-1-1-.6l-9.8 5.6a2.4 2.4 0 0 0-1.1 2Z" fill="#FAFAFA"/><path d="M122.5 324.5V324.2l1.3-2v-.3l.2-.1.7-.4a.2.2 0 0 1 0 .2v5.7l-.7.4h-.1V324l-.7 1.1-.1.1h-.1l-.5-.6Z" fill="#455A64"/><path d="M143.8 306.9a.8.8 0 0 0-.8 0l-9.8 5.7a2.4 2.4 0 0 0-1.1 1.9v7.3a.8.8 0 0 0 .3.7l2 1.1a.7.7 0 0 0 .7 0l9.8-5.7a2.4 2.4 0 0 0 1.1-1.9v-7.4a.8.8 0 0 0-.3-.7l-2-1Z" fill="#F0F0F0"/><path d="m132.4 322.5 2 1.1a.7.7 0 0 0 .7 0l7.5-4.3-10.2-5.9c-.2.3-.3.7-.3 1v7.4a.8.8 0 0 0 .3.7Z" fill="#E0E0E0"/><path d="M134 315.6v7.3c0 .7.5 1 1.1.7l9.8-5.7a2.4 2.4 0 0 0 1.1-1.9v-7.4c0-.7-.5-1-1.1-.6l-9.8 5.7a2.4 2.4 0 0 0-1.1 1.9Z" fill="#FAFAFA"/><path d="M141.5 313.6v.5a3.3 3.3 0 0 1-.3 1l-.3.6-.8 1.4 1.3-.8h.1v1.3l-3 1.7v-1.5l1.7-2.7.3-.6a1.8 1.8 0 0 0 0-.5v-.2h-.4a1 1 0 0 0-.3.2l-.1.3-.1.2v.4l-.2.1-.7.4v-.8l.3-.9.5-.7.6-.6.7-.1.4.1c.2.1.3.3.3.5v.7Z" fill="#455A64"/><path d="M160 297.5a.8.8 0 0 0-.8 0l-9.8 5.7a2.4 2.4 0 0 0-1 2v7.3a.8.8 0 0 0 .3.7l1.9 1a.8.8 0 0 0 .7 0l9.8-5.6a2.4 2.4 0 0 0 1.1-2v-7.3a.8.8 0 0 0-.3-.7l-1.9-1Z" fill="#F0F0F0"/><path d="m148.6 313.2 2 1a.8.8 0 0 0 .7 0l7.5-4.3-10.2-5.8c-.2.3-.3.6-.3 1v7.4a.8.8 0 0 0 .3.7Z" fill="#E0E0E0"/><path d="M150.2 306.2v7.4c0 .7.5 1 1.1.6l9.8-5.6a2.4 2.4 0 0 0 1-2v-7.3c0-.7-.4-1-1-.6l-9.8 5.6a2.4 2.4 0 0 0-1 2Z" fill="#FAFAFA"/><path d="M157.5 302.5v1.4l-.7 1.4a.8.8 0 0 1 .7.1 1.2 1.2 0 0 1 .3 1c0 .5-.1 1.1-.4 1.6-.3.5-.7.9-1.2 1.2l-.7.2h-.5a.7.7 0 0 1-.3-.4l-.2-.5v-.2h.1l.7-.5h.1l.2.1h.5l.5-.4.2-.6c0-.2-.1-.3-.2-.3l-.4.1-.5.3h-.1v-1.2l.7-1.3-1.5.8a.2.2 0 0 1-.1-.1V304l.1-.1 2.7-1.5Z" fill="#455A64"/><path d="M176.2 288.1a.8.8 0 0 0-.8.1l-9.8 5.7a2.4 2.4 0 0 0-1 1.9v7.3a.8.8 0 0 0 .2.7l2 1.1a.8.8 0 0 0 .7 0l9.8-5.7a2.4 2.4 0 0 0 1-1.9V290a.8.8 0 0 0-.2-.7l-2-1.2Z" fill="#F0F0F0"/><path d="m164.8 303.8 2 1.1a.7.7 0 0 0 .7 0l7.5-4.3-10.2-5.9c-.2.3-.3.7-.3 1v7.4a.8.8 0 0 0 .3.7Z" fill="#E0E0E0"/><path d="M166.4 296.9v7.3c0 .7.5 1 1.1.7l9.8-5.7a2.4 2.4 0 0 0 1-1.9V290c0-.7-.4-1-1-.6l-9.8 5.6a2.4 2.4 0 0 0-1 1.9Z" fill="#FAFAFA"/><path d="M172.4 293.9h.1v1.2l-.1.1-1.7 1v1.2l1.6-1V297.9l-1.6.9v2.1l-.8.4h-.1V295.5l.1-.2 2.5-1.4ZM172.8 295.5a.2.2 0 0 1 0-.2v-.2l1.3-2v-.2l.2-.1.7-.4c.1 0 .1 0 0 .1v5.5c.1 0 .1.1 0 .2v.1l-.7.4h-.1V295l-.7 1.2h-.2l-.5-.6Z" fill="#455A64"/><path d="M127.5 332.5a.8.8 0 0 0-.7.1l-9.8 5.7a2.4 2.4 0 0 0-1 1.9v7.3a.8.8 0 0 0 .2.7l2 1.1a.8.8 0 0 0 .7 0l9.8-5.7a2.4 2.4 0 0 0 1-2v-7.3a.8.8 0 0 0-.2-.7l-2-1Z" fill="#F0F0F0"/><path d="m116.2 348.2 2 1.1a.7.7 0 0 0 .7 0l7.4-4.4-10-5.8c-.3.3-.4.7-.4 1v7.4a.8.8 0 0 0 .3.7Z" fill="#E0E0E0"/><path d="M117.8 341.3v7.3c0 .7.5 1 1 .6l9.9-5.6a2.4 2.4 0 0 0 1-2v-7.3c0-.7-.4-1-1-.6l-9.8 5.7a2.4 2.4 0 0 0-1.1 1.9Z" fill="#FAFAFA"/><path d="M124 344v-1l-1.8 1c-.1 0-.1-.1 0-.1v-1.3l1.6-4.2.1-.1.1-.1.8-.5h.2V341l.4-.3h.1V342.1l-.5.2v1.1l-.2.1-.8.5Zm0-2.4v-1.5l-.9 2 .8-.5Z" fill="#455A64"/><path d="M143.8 323.2a.8.8 0 0 0-.8 0l-9.8 5.7a2.4 2.4 0 0 0-1.1 1.9v7.3a.8.8 0 0 0 .3.8l2 1a.8.8 0 0 0 .7 0l9.8-5.7a2.4 2.4 0 0 0 1-1.9V325a.8.8 0 0 0-.3-.7l-1.8-1.1Z" fill="#F0F0F0"/><path d="m132.4 338.9 2 1a.8.8 0 0 0 .7 0l7.5-4.3-10.2-5.9c-.2.3-.3.7-.3 1.1v7.3a.8.8 0 0 0 .3.8Z" fill="#E0E0E0"/><path d="M134 331.9v7.4c0 .6.5 1 1.1.6l9.8-5.7a2.4 2.4 0 0 0 1-1.9V325c0-.7-.4-1-1-.6L135 330a2.4 2.4 0 0 0-1.1 1.9Z" fill="#FAFAFA"/><path d="m139.4 333.4.2.2h.2l.2-.1.2-.2.2-.3.1-.3v-.3a.4.4 0 0 0 0-.4h-.5l-.1.2-.2.1v.2h-.1l-.9.5h-.1a.2.2 0 0 1 0-.1l.2-3.1v-.2a.2.2 0 0 1 .1-.1l2.3-1.4h.1v1.3l-1.7 1v.8l.6-.5.6-.2h.4l.3.5.1.8a3.7 3.7 0 0 1-.4 1.9 3.2 3.2 0 0 1-1.1 1.2l-.7.2-.5-.1a.7.7 0 0 1-.3-.4l-.1-.6v-.2l.7-.5a.1.1 0 0 1 .2 0Z" fill="#455A64"/><path d="M160 313.8a.8.8 0 0 0-.8.1l-9.8 5.7a2.4 2.4 0 0 0-1 1.8v7.4a.8.8 0 0 0 .3.7l1.9 1.1a.8.8 0 0 0 .7 0l9.8-5.7a2.4 2.4 0 0 0 1.1-2v-7.3a.8.8 0 0 0-.3-.7l-1.9-1Z" fill="#F0F0F0"/><path d="m148.6 329.5 2 1.1a.8.8 0 0 0 .7 0l7.5-4.4-10.2-5.8c-.2.3-.3.7-.3 1v7.4a.7.7 0 0 0 .3.7Z" fill="#E0E0E0"/><path d="M150.2 322.5v7.4c0 .7.5 1 1.1.6l9.8-5.6a2.4 2.4 0 0 0 1-2v-7.3c0-.7-.4-1-1-.6l-9.8 5.6a2.4 2.4 0 0 0-1 2Z" fill="#FAFAFA"/><path d="M157.8 322.4v1a3.7 3.7 0 0 1-1 1.6l-.6.5-.6.2h-.5a1 1 0 0 1-.4-.5l-.1-.8v-1l.2-.4.1-.4 1-2.8.1-.1.1-.1.9-.6v.2l-.7 2 .6-.1.4.1c.2.2.3.3.3.5.2.2.2.5.2.7Zm-2.2 1.3v.3l.2.2h.2l.2-.1.2-.2.2-.3a1.3 1.3 0 0 0 .2-.6v-.3l-.2-.2h-.2l-.2.1-.2.2-.2.3-.2.3v.3Z" fill="#455A64"/><path d="M127.5 348.8a.8.8 0 0 0-.7 0l-9.8 5.7a2.4 2.4 0 0 0-1 2v7.3a.8.8 0 0 0 .2.7l2 1a.8.8 0 0 0 .7 0l9.8-5.6a2.4 2.4 0 0 0 1-2v-7.3a.8.8 0 0 0-.2-.7l-2-1Z" fill="#F0F0F0"/><path d="m116.2 364.5 2 1a.8.8 0 0 0 .7 0l7.4-4.3-10-5.8c-.3.3-.4.7-.4 1v7.4a.8.8 0 0 0 .3.7Z" fill="#E0E0E0"/><path d="M117.8 357.5v7.4c0 .7.5 1 1 .6l9.9-5.6a2.4 2.4 0 0 0 1-2v-7.3c0-.7-.4-1-1-.6l-9.8 5.6a2.4 2.4 0 0 0-1.1 2Z" fill="#FAFAFA"/><path d="M123 360.7v-.1l1-5-1.5 1h-.2V355.4l.2-.1 2.6-1.5v1.3l-1.1 5v.2h-.2l-.7.5h-.1v-.1Z" fill="#455A64"/><path d="M143.8 339.5a.8.8 0 0 0-.8 0l-9.8 5.7a2.4 2.4 0 0 0-1.1 1.9v7.3a.8.8 0 0 0 .3.7l2 1.1a.8.8 0 0 0 .7 0l9.8-5.7a2.4 2.4 0 0 0 1-1.9v-7.3a.8.8 0 0 0-.3-.8l-1.8-1Z" fill="#F0F0F0"/><path d="m132.4 355.1 2 1.1a.8.8 0 0 0 .7 0l7.5-4.3-10.2-5.9c-.2.3-.3.7-.3 1v7.4a.8.8 0 0 0 .3.7Z" fill="#E0E0E0"/><path d="M134 348.2v7.3c0 .7.5 1 1.1.7l9.8-5.7a2.4 2.4 0 0 0 1-1.9v-7.3c0-.7-.4-1-1-.7l-9.8 5.7a2.4 2.4 0 0 0-1.1 1.9Z" fill="#FAFAFA"/><path d="M138.4 347.8c0-.3 0-.6.2-.8 0-.3.2-.6.3-.8l.5-.7.6-.4.6-.2h.5l.3.5.1.6v.7l-.3.6c.2.1.3.3.3.4l.1.6-.1.9a3.5 3.5 0 0 1-1.5 2l-.7.2-.5-.1a.8.8 0 0 1-.3-.4l-.1-.7v-.7l.3-.7a1 1 0 0 1-.2-.4v-.6Zm1 1.8v.2l.1.2.5-.1a1.2 1.2 0 0 0 .6-1v-.1l-.2-.2-.4.1-.5.4-.1.5Zm0-2.4a.4.4 0 0 0 .2.3h.4l.4-.4.1-.5-.1-.3h-.4a1 1 0 0 0-.5.9Z" fill="#455A64"/><path d="M160 330.1a.8.8 0 0 0-.8 0l-9.8 5.7a2.4 2.4 0 0 0-1 2v7.3a.8.8 0 0 0 .3.7l1.9 1a.7.7 0 0 0 .7 0l9.8-5.7a2.4 2.4 0 0 0 1.1-1.8v-7.4a.8.8 0 0 0-.3-.7l-1.9-1.1Z" fill="#F0F0F0"/><path d="m148.6 345.8 2 1a.8.8 0 0 0 .7 0l7.5-4.3-10.2-5.9c-.2.4-.3.7-.3 1.1v7.4a.8.8 0 0 0 .3.7Z" fill="#E0E0E0"/><path d="M150.2 338.8v7.4c0 .7.5 1 1.1.6l9.8-5.7a2.4 2.4 0 0 0 1-1.8v-7.4c0-.7-.4-1-1-.6l-9.8 5.6a2.4 2.4 0 0 0-1 2Z" fill="#FAFAFA"/><path d="m154.6 338.7.1-1a4.2 4.2 0 0 1 .9-1.5l.6-.5.6-.2h.5l.4.5c0 .3.1.6 0 .8a2.3 2.3 0 0 1 0 1l-.1.4-.2.4-1 2.8v.1l-.1.2-1 .5v-.2l.7-2h-.5l-.4-.1a1 1 0 0 1-.3-.5l-.2-.7Zm2.2-1.2v-.3l-.2-.2h-.2l-.2.1-.2.2-.2.2-.2.4a1 1 0 0 0 0 .6l.2.1h.4a1.1 1.1 0 0 0 .4-.5 1.5 1.5 0 0 0 .2-.6Z" fill="#455A64"/><path d="M176.2 304.5a.7.7 0 0 0-.8 0l-9.8 5.7a2.4 2.4 0 0 0-1 1.9v7.3a.8.8 0 0 0 .2.8l2 1a.8.8 0 0 0 .7 0l9.8-5.7a2.4 2.4 0 0 0 1-1.9v-7.3a.8.8 0 0 0-.2-.7l-2-1.1Z" fill="#F0F0F0"/><path d="m164.8 320.1 2 1.1a.8.8 0 0 0 .7 0l7.5-4.3-10.2-5.9c-.2.3-.3.7-.3 1v7.4a.8.8 0 0 0 .3.8Z" fill="#E0E0E0"/><path d="M166.4 313.2v7.3c0 .7.5 1 1.1.7l9.8-5.7a2.4 2.4 0 0 0 1-1.9v-7.3c0-.7-.4-1-1-.7l-9.8 5.7a2.4 2.4 0 0 0-1 1.9Z" fill="#FAFAFA"/><path d="M172 310.4V311.8l-1.7 1v1.1l1.5-.9h.1v1.3l-1.6.9v2l-.1.1-.7.4h-.1V312l2.5-1.5ZM175.6 310.2v.5a3.2 3.2 0 0 1-.3 1l-.4.7-.7 1.3 1.4-.8v1.2a.2.2 0 0 1 0 .1l-3 1.7a.2.2 0 0 1 0-.1v-1.3l1.7-2.8.2-.5v-.7l-.2-.1h-.2l-.3.3-.1.2-.1.3v.4h-.2l-.7.5c-.1 0-.1-.1 0-.1v-.8c.1-.6.4-1 .8-1.5.1-.3.4-.4.6-.6l.7-.2c.1 0 .3 0 .4.2.2.1.3.3.3.4v.7Z" fill="#455A64"/><path d="M176.2 320.8a.8.8 0 0 0-.8 0l-9.8 5.7a2.4 2.4 0 0 0-1 1.9v7.3a.8.8 0 0 0 .2.7l2 1.1a.8.8 0 0 0 .7 0l9.8-5.7a2.4 2.4 0 0 0 1-1.9v-7.3a.8.8 0 0 0-.2-.7l-2-1.1Z" fill="#F0F0F0"/><path d="m164.8 336.4 2 1.1a.8.8 0 0 0 .7 0l7.5-4.3-10.2-5.9c-.2.3-.3.7-.3 1v7.4a.8.8 0 0 0 .3.7Z" fill="#E0E0E0"/><path d="M166.4 329.5v7.3c0 .7.5 1 1.1.7l9.8-5.7a2.4 2.4 0 0 0 1-1.9v-7.3c0-.7-.4-1-1-.7l-9.8 5.7a2.4 2.4 0 0 0-1 1.9Z" fill="#FAFAFA"/><path d="M171.9 326.8h.1v1.2h-.1l-1.6 1v1.2l1.5-.8c.1 0 .1 0 0 0v1c.1 0 .1.1 0 .2l-1.5 1v2l-.2.1-.7.4V328.2l2.5-1.4ZM175.4 324.8v1.3l-.7 1.4a.8.8 0 0 1 .7.2 1.2 1.2 0 0 1 .3 1 3.2 3.2 0 0 1-1.6 2.8 2 2 0 0 1-.7.2h-.5a.7.7 0 0 1-.4-.4V330.5l.7-.4H173.5l.2.1h.3l.5-.5.1-.5-.1-.3-.5.1-.4.3h-.1V328l.6-1.2-1.4.8h-.1a.2.2 0 0 1 0-.1v-1l.1-.2 2.7-1.6Z" fill="#455A64"/><path d="M127.5 365.1a.8.8 0 0 0-.7.1L117 371a2.4 2.4 0 0 0-1 1.9v7.3a.8.8 0 0 0 .2.7l2 1.1a.8.8 0 0 0 .7 0l9.8-5.7a2.4 2.4 0 0 0 1-1.9V367a.8.8 0 0 0-.2-.7l-2-1.2Z" fill="#F0F0F0"/><path d="m116.2 380.8 2 1.1a.8.8 0 0 0 .7 0l7.4-4.4-10-5.8c-.3.3-.4.7-.4 1v7.4a.8.8 0 0 0 .3.7Z" fill="#E0E0E0"/><path d="M117.8 373.9v7.3c0 .7.5 1 1 .7l9.9-5.7a2.4 2.4 0 0 0 1-1.9V367c0-.7-.4-1-1-.6l-9.8 5.6a2.4 2.4 0 0 0-1.1 1.9Z" fill="#FAFAFA"/><path d="m124 373.6.4-.6h.1l.3.8-.1.2-.5.3.4.3V374.9l-.4.7h-.2l-.2-.5-.1.7-.1.2h-.1l-.5-.2V375.4l.4-.7-.5.2v-.2l.1-.9.1-.1h.5l-.1-.5V373l.6-.4v1Z" fill="#455A64"/><path d="M143.8 355.8a.8.8 0 0 0-.8 0l-9.8 5.7a2.4 2.4 0 0 0-1.1 2v7.3a.8.8 0 0 0 .3.7l2 1a.8.8 0 0 0 .7 0l9.8-5.7a2.4 2.4 0 0 0 1.1-1.8v-7.4a.8.8 0 0 0-.3-.7l-2-1.1Z" fill="#F0F0F0"/><path d="m132.4 371.5 2 1a.8.8 0 0 0 .7 0l7.5-4.3-10.2-5.9c-.2.4-.3.7-.3 1.1v7.4a.8.8 0 0 0 .3.7Z" fill="#E0E0E0"/><path d="M134 364.5v7.4c0 .7.5 1 1.1.6l9.8-5.7a2.4 2.4 0 0 0 1.1-1.8v-7.4c0-.7-.5-1-1.1-.6l-9.8 5.6a2.4 2.4 0 0 0-1.1 2Z" fill="#FAFAFA"/><path d="m140 361.4.7-.2c.2 0 .4 0 .5.2l.3.6.1.8v1.5a4.9 4.9 0 0 1-.4 1.8l-.5.8-.7.6-.7.2-.5-.2-.3-.6-.1-.8v-1.5l.1-1 .3-.8.5-.8.7-.6Zm.6 3.4V363l-.1-.2-.2-.1h-.3a1 1 0 0 0-.4.6l-.1.3V366.1h.2v.1h.3l.3-.3.2-.3v-.8Z" fill="#455A64"/><path d="M160 346.4a.8.8 0 0 0-.8.1l-9.8 5.7a2.4 2.4 0 0 0-1 1.9v7.3a.8.8 0 0 0 .3.7l1.9 1.1a.8.8 0 0 0 .7 0l9.8-5.7a2.4 2.4 0 0 0 1.1-2v-7.7l-.3-.3-1.9-1Z" fill="#F0F0F0"/><path d="m148.6 362.1 2 1.1a.8.8 0 0 0 .7 0l7.5-4.4-10.2-5.8c-.2.3-.3.7-.3 1v7.4a.8.8 0 0 0 .3.7Z" fill="#E0E0E0"/><path d="M150.2 355.1v7.4c0 .7.5 1 1.1.6l9.8-5.6a2.4 2.4 0 0 0 1-2v-7.3c0-.7-.4-1-1-.6l-9.8 5.7a2.4 2.4 0 0 0-1 1.8Z" fill="#FAFAFA"/><path d="m157.4 352.7.3-.2a.2.2 0 0 1 .1.2v1h-.1l-.4.3-.1 1 .3-.3h.1a.2.2 0 0 1 0 .2v1.1l-.5.3-.1.7v.2h-.1l-.6.4h-.1v-.8l-.3.2-.1.8v.1l-.1.1-.6.4v-.9l-.3.2a.2.2 0 0 1-.1-.1v-.9a.5.5 0 0 1 .1-.3l.4-.2.1-1-.3.3h-.1v-1.2l.5-.4.1-.7v-.2h.1l.6-.4h.1V353.4l.3-.2.1-.8v-.1l.1-.1.6-.3h.1l-.1.8Zm-1.5 3 .5-.2v-1l-.4.3v.9Z" fill="#455A64"/><path d="M176.2 337a.8.8 0 0 0-.8.2l-9.8 5.6a2.4 2.4 0 0 0-1 1.9v7.4a.8.8 0 0 0 .2.7l2 1a.8.8 0 0 0 .7 0l9.8-5.7a2.4 2.4 0 0 0 1-1.9V339a.7.7 0 0 0-.2-.7l-2-1.1Z" fill="#F0F0F0"/><path d="m164.8 352.8 2 1a.8.8 0 0 0 .7 0l7.5-4.3-10.2-5.9c-.2.3-.3.7-.3 1.1v7.4a.8.8 0 0 0 .3.7Z" fill="#E0E0E0"/><path d="M166.4 345.8v7.3c0 .7.5 1 1.1.7l9.8-5.7a2.4 2.4 0 0 0 1-1.9V339c0-.7-.4-1-1-.6l-9.8 5.6a2.4 2.4 0 0 0-1 1.9Z" fill="#FAFAFA"/><path d="M171.8 343.1h.1V344.4l-1.7 1v1.1l1.5-.8h.1v1.3l-1.6.9v2l-.1.1-.7.4h-.1V344.5l2.5-1.4ZM174.3 347.5v-1l-1.8 1V346l1.5-4.1v-.2h.2l.8-.5h.1v3.3l.6-.3v.1h.1v1.2h-.2l-.4.4v1l-.2.1-.7.4Zm0-2.3v-1.6l-.9 2 .8-.4Z" fill="#455A64"/><path d="M106.2 265.4v138.1c0 14.7-10.4 20.7-23 13.3L69 408.6a8.5 8.5 0 0 1-3.9-6.6V219.6c0-2.5 1.7-3.5 3.9-2.3l14.1 8.2a50.9 50.9 0 0 1 23 40Z" fill="#37474F"/><path d="M93.4 410.2c-2-.1-4.1-.8-5.8-2l-12.2-7a2.8 2.8 0 0 1-1.4-2.4V237a2.8 2.8 0 0 1 4.2-2.4 39.2 39.2 0 0 1 19 31.3v136.6c0 3-.5 5.4-1.5 6.6a2.6 2.6 0 0 1-2.3 1Zm-15.9-11.8 11.8 6.8c1.2.7 2.5 1.2 3.8 1.5.5-1.3.7-2.7.6-4V266a36 36 0 0 0-16.2-27.6v160Z" fill="#263238"/><path d="m68.7 221.3 12.7 7.3a47 47 0 0 1 21.2 36.8v138.1c0 8.1-3.4 13-9.2 13-3-.2-6-1.1-8.5-2.7l-14.2-8.2a5 5 0 0 1-2-3.6V221.3Zm-1.5-4.5c-1.2 0-2 1-2 2.8V402a8.5 8.5 0 0 0 3.8 6.6l14.2 8.2c3 2 6.6 3 10.2 3.2 7.6 0 12.8-6 12.8-16.4V265.4a51 51 0 0 0-23-39.9L69 217.3c-.5-.3-1.1-.5-1.7-.5Z" fill="#5A81FA"/><path opacity=".3" d="m68.7 221.3 12.7 7.3a47 47 0 0 1 21.2 36.8v138.1c0 8.1-3.4 13-9.2 13-3-.2-6-1.1-8.5-2.7l-14.2-8.2a5 5 0 0 1-2-3.6V221.3Zm-1.5-4.5c-1.2 0-2 1-2 2.8V402a8.5 8.5 0 0 0 3.8 6.6l14.2 8.2c3 2 6.6 3 10.2 3.2 7.6 0 12.8-6 12.8-16.4V265.4a51 51 0 0 0-23-39.9L69 217.3c-.5-.3-1.1-.5-1.7-.5Z" fill="#000"/><path d="M194.6 335.3c-1.2 0-2.4-.3-3.4-.9-2.5-1.4-3.8-4.3-3.8-8.2v-89.9c0-7.6 5.3-16.9 12-20.7l34.6-20c3.3-2 6.5-2.2 9-.8 2.4 1.4 3.8 4.4 3.8 8.2V293c0 7.6-5.4 16.9-12 20.7l-34.6 20c-1.7 1-3.6 1.6-5.6 1.7Zm45-139.6c-1.8.1-3.4.6-4.8 1.5l-34.6 20a24.5 24.5 0 0 0-11 19.2v89.8c0 3.2 1 5.6 2.9 6.7 2 1 4.5.8 7.2-.8l34.6-20c6.1-3.5 11.1-12.1 11.1-19.2v-89.8c0-3.3-1-5.6-3-6.7a5 5 0 0 0-2.5-.7Z" fill="#37474F"/><path d="M217.7 240.5c-3 1.8-5.5 6.2-6.8 11-.3 1-.1 1.6.3 2 .6.3 1.6 0 2-1 1.2-3.3 2.6-7 4.6-8.5 2.2-1.6 4-1.4 5.1 1.3.3.8 1.2 1 1.8 0a2.7 2.7 0 0 0 .2-2.3c-1.4-3.2-4.1-4.3-7.2-2.5Z" fill="#F0F0F0"/><path d="M216.8 233.2a28.6 28.6 0 0 0-11 15.5c-.3 1-.2 2 .3 2.4.6.3 1.6 0 2-1.1 1.9-5.7 5-11 8.7-13.1 3.7-2.2 7-1 8.9 2.4.4.7 1.2.4 1.8-.6a3 3 0 0 0 .2-2.6c-2.3-4.2-6.3-5.6-11-3Z" fill="#F0F0F0"/><path d="M231.5 230.6c0 .4-.2.7-.4 1-.6 1-1.4 1.2-1.8.5a8.7 8.7 0 0 0-5.8-4.5c-6.6-1.2-15.2 6.4-19.5 18.1l-.2.6c-.4 1.1-1 1.8-2 1.5-1-.3-.9-1.6-.5-2.7l.3-.7c5-13.7 15.3-22.4 23-21a10.1 10.1 0 0 1 6.8 5.2c.3.7.3 1.4.1 2Z" fill="#F0F0F0"/><path d="M210 265.3v1.4a3.6 3.6 0 0 0 0 .8l.2.3h.6a1.6 1.6 0 0 0 .6-.7l.2-.3v-.3l.1-.3.2-.2.9-.5v.2l-.1 1a4.9 4.9 0 0 1-1 2l-.9.7-.9.3a1 1 0 0 1-.6-.3c-.2-.1-.3-.4-.4-.6l-.2-1v-1.9a5.5 5.5 0 0 1 1.2-3.2c.3-.3.6-.6.9-.7.2-.2.5-.3.8-.3l.7.1.4.6.2.9v.2h-.1l-1 .6-.1-.2-.1-.2s0-.2-.2-.2H210.8l-.3.4-.3.4-.1.5-.1.5ZM216 259.1h.2l.1.2 1.4 5.6a.4.4 0 0 1 0 .3v.2l-.9.5h-.2v-.2l-.3-.7-1.7 1-.2 1v.2l-.3.2-.8.5h-.1a.2.2 0 0 1 0-.2v-.1l1.4-7.3.1-.3.2-.2 1.1-.7Zm-1 5.1 1-.6-.5-2.1-.6 2.7ZM220.3 256.7c.2-.2.5-.3.8-.3h.6c.1.2.3.3.3.6l.2 1c0 .4 0 1-.2 1.4l-.6 1 .8 2V262.8l-.1.2-1 .5h-.1v-.1l-.8-1.8-.6.4V264.2l-.2.2-.8.5h-.1l-.1-.2V258l.2-.2 1.7-1Zm-.8 3.5.8-.4.4-.5c.2-.2.3-.4.2-.7 0-.3 0-.4-.2-.5l-.4.1-.8.5v1.5ZM224.9 254c.2-.2.5-.3.8-.3.2 0 .5 0 .7.2l.4.7.2 1V257a5.9 5.9 0 0 1-.6 2.4l-.7 1c-.2.3-.5.6-.8.7l-1.8 1h-.1v-7l.1-.1 1.8-1Zm.8 2.3c0-.8-.3-1-.9-.7l-.6.4v4l.7-.4a1.8 1.8 0 0 0 .8-1.7v-1.6Z" fill="#FAFAFA"/><path d="M237.3 202.3a7.4 7.4 0 0 0-3.4 5.8c0 2 1.5 3 3.4 1.9a7.4 7.4 0 0 0 3.3-5.8c0-2.1-1.5-3-3.3-2Z" fill="#F28F8F"/><path d="M365 162.1c-4.6 10.2-8.4 21-11.8 25.4a174.3 174.3 0 0 1-30.6 14.3 5 5 0 0 1-3.4-.4c-2.8-1.4-4.9-1.4-7.7-2-2.3-.6-3.3-1.5-3.7-1-.3.4-.8 1.7.7 3 1.1 1 2.4 1.8 3.6 2.5-2.8 1-5.9 1.5-9 1.2-5.9-.9-8.3 2.2-3.7 8 1.7 2 7.6 5 18.6 2.8 3.9-.7 7.8-1.6 11.6-2.8 10.4-3.5 22-7 29-10 2.6-1.3 4.9-3.2 6.5-5.7 7.7-12.8 13.5-22.3 17.9-32l-.7-20.6c-10.8-.5-13.6 8.8-17.4 17.3Z" fill="#FFA8A7"/><path d="M353 187.2s10.7-27.5 16-36.5c3.8-6.4 8.3-6.8 16-6.9 5 8.2-1.4 22.2-1.4 22.2s-9 18.4-15.5 29.3c-4.2 7.1-5.5 7.6-11.6 10l-18.7 7.3c.6-4.9-1.4-12-4.8-15l20-10.4Z" fill="#37474F"/><path d="M400.6 387.7c.1 1.3.3 5 7 5.9 6.6 1 10.8-1.3 12.6-4.5 1.8-3.2 1.4-5.8 1.7-8.8.2-3 2.7-4.5 3.4-6 1-2.3-.5-5.8-.5-5.8l-24.2 19.2ZM352 366.2a4 4 0 0 0 .4 3.2 14 14 0 0 0 10.6 2.9c4-.6 8-2 11.3-4.4a15 15 0 0 1 8.7-2.5c3.2-.2 5.6-.9 5.8-1.7.5-1.5.5-2.4-.3-2.4l-36.6 5Z" fill="#263238"/><path d="M423.3 363.3c-.9 6-12.7 5.6-11.7.7l-2.1-14.7 13.3.4.5 13.6Z" fill="#FFA8A7"/><path d="m401 384.7 3.1-3.7a33 33 0 0 0 6.9-17.7c0-.3 0-1 .4-1.3.4-.2.7.1 1.1.3l2 .6c2.5.2 5-.4 5.7-.3.5.1.6 1.5.5 3 .9-.5 1.1-1.6 1.9-2.2.4-.3.6-.3.6-.9v-1c.6-.1 1 2.2 1.6 4 .6 2 1.3 4.3.5 6.4-.6 1.2-1.2 2.2-2 3.2-1.2 1.8-2 3.8-2.3 5.9l-.1 2.8a8.3 8.3 0 0 1-5.9 6.8c-4 1.3-10.1 1-13.7-1.8-1.3-1-.9-3-.3-4.1Z" fill="#37474F"/><path d="M385.9 351.3c-3.3 2.5-7.2 4-11.1 2.1l-1-24.8 13.4 2.4-1.3 20.3Z" fill="#FFA8A7"/><path d="M354.6 362a43.4 43.4 0 0 0 12.5-6.4c1-.6 2-1.4 2.9-2.2l1.3-1.4c.8-1 1.5-2.1 2-3.3.1-.3.3-.5.5-.6a1 1 0 0 1 1 .1l.7.5.8.4c.8.3 1.7.5 2.6.6 3.4.3 3.5-.4 3.7.7v1.3c1.8-.3 3.2-1 3.2-1.6l.3-2.2c1.7-.1 1.8 3 2.4 6.6.5 3 1.2 5 .4 7.2-2.7 2.3-7.4 1.7-10.1 2.2-3.9.6-5.7 3.5-11 5.3-8.6 3-14-.5-15.6-2-1-1.9-1.2-4.1 2.4-5.3Z" fill="#37474F"/><path d="M419.5 206.2c.7 10.6 2 26 2.3 38.2.8 22.8.5 54.4.5 54.4a79 79 0 0 1 2.5 14.7c.5 14.6.4 51.1.4 51.1s-6 6.1-15 1.3l-10.4-64c-2.1-13.8-6.3-46.8-6.3-46.8l-1.9 32.5s2.2 12.6 1.4 23.4c-.5 6.7-4.3 39.8-4.3 39.8-3.5 3.2-13.6 1.4-15.9-1.2l-4-60.5c-.8-15.2-3-65.7-2-74.5 1.2-8.8 52.7-8.4 52.7-8.4Z" fill="#263238"/><path d="m393.5 255-2.6-17.5s-7.4-1.4-12.7-5.4c0 0 2 4.7 10.2 8l2.6 16.5.6 31 2-32.5Z" fill="#000"/><path d="M365.1 217.8c.7-23 .7-29.3 2.8-46 2-16.7 5.3-21.3 9.2-24a129 129 0 0 1 14.3-6.7v4.2c8-.8 17-5.9 17-5.9l3.6.8c8.3 4.2 20 8.1 21.3 10.3 0 0-3.6 17.7-6.5 25.8-3 8.6-5.6 29-5.6 29 4 17.8 4 24.1 5 37.9.7 11 .5 27.7.5 27.7s-12.3 5.7-33.2 5c-20.8-.7-29.1-4.7-29.1-4.7s0-31.3.7-53.4Z" fill="#455A64"/><path d="M378.8 172.8s-3.6 9.9-4.9 35.3c-1 20.7-.8 53.8-.6 65.7l2.8.5c-.7-19-2.4-81 2.7-101.5ZM380.5 196a1.8 1.8 0 1 0 0-3.7 1.8 1.8 0 0 0 0 3.7ZM390.7 196.5a1.8 1.8 0 1 0 0-3.7 1.8 1.8 0 0 0 0 3.7ZM380 208.6a1.8 1.8 0 1 0 0-3.7 1.8 1.8 0 0 0 0 3.7ZM392.1 207.2a1.9 1.9 0 0 1-3.6.3 1.9 1.9 0 1 1 3.6-.3ZM379.6 221.1a1.8 1.8 0 1 0 0-3.7 1.8 1.8 0 0 0 0 3.7ZM391.7 219.7a1.9 1.9 0 1 1-3.7 0 1.9 1.9 0 0 1 3.7 0Z" fill="#37474F"/><path d="M382.3 160.3c1.6-3.8-1.6-14-5.6-20.9a70 70 0 0 1-6.9-16.2s9.5-1.4 19.8-3.8c10.3-2.5 32.4-6.2 30.8 0a53 53 0 0 1-19 22 122.7 122.7 0 0 0-19 18.9Z" fill="#263238"/><path d="m410.8 98.5.6.2a2.9 2.9 0 0 1 1.5-3.3 3 3 0 0 1 4 1.7l-4.3 2a6 6 0 0 1 3.3 2.8c1.2 2.4-.4 7.6-2 14-1 4.1-2 8.1-3.5 12-.7 1.8-2 2-2 2v-6.5l-2.4-7c-.5-2.3-1-4.5-1.1-6.8-.5-5 .5-7 .5-7l5.4-4ZM387.2 93a10.8 10.8 0 1 1 0 21.6 10.8 10.8 0 0 1 0-21.6Z" fill="#263238"/><path d="M407.6 117c1.3 1.1 2.5-2 3.8-2.9 1.4-1 4.8-1.6 5.8 1.7 1.2 3.7-1.6 7-3.7 8.1a4.3 4.3 0 0 1-5.1-.5v16a97 97 0 0 1-20.6 9.4c1-2.5 2.1-5 3.6-7.2v-6.5c-1.8.3-3.5.4-5.3.2-3.5-.5-5.4-3.4-6.4-7.2-1.7-6-2-16.3.3-28.2 3.9-3 17.1-2.5 25.4 2.7-.6 10.6 1 13.3 2.2 14.4Z" fill="#FFA8A7"/><path d="M391.4 135.1s7.8-1.5 10.6-3a9 9 0 0 0 3.8-3.7c-.5 1.6-1.2 3-2.2 4.4-2 2.5-12.2 4.4-12.2 4.4V135Z" fill="#F28F8F"/><path d="M374.6 110.9c.1.6.4 1.2.8 1.7l.2.6c.2 1.5.6 3 1 4.5a5 5 0 0 0 4.8 3.3 6.6 6.6 0 0 0 3.1-.6h.1l.1-.1.2-.1.1-.1.2-.1.1-.2.3-.2c.4-.5.8-1 1-1.7.8-1.6.7-3.8 1.8-4H388.7c1.6 0 1.4 2.4 2.2 4.2a5.9 5.9 0 0 0 5.7 3.5h1.6l.2-.1.3-.1h.1l1-.4.3-.2.5-.5c.5-.4.8-1 1-1.5.5-1.5.9-3 1-4.5l.3-.6c.4-.5.7-1 .8-1.6a1.4 1.4 0 0 0-.9-1.5l-.8-.1c-2.7-.4-6.2-.6-8.3 0-2.6.6-3.6 1.4-5 1.4s-2.2-1-4.7-1.8c-2.5-.7-5.1-.8-7.7-.6h-.8c-.4 0-.9.7-.9 1.4Zm17.2 2a2.3 2.3 0 0 1 1-.7l.4-.1.3-.2a10.8 10.8 0 0 1 2.7-.6h.3c2.5-.1 4.1.5 4.6 1 .6.6.3 3 0 4v.7l-.2.3a7.1 7.1 0 0 1-.3.9v.1l-.2.2v.1l-.2.2a4 4 0 0 1-3.5 1.6 5 5 0 0 1-3.7-1.5c-.6-.7-1-1.5-1.2-2.4-.3-1.4-.5-3 0-3.6Zm-14.8-1.6a2.1 2.1 0 0 1 .7-.3l.3-.1h.4a3.4 3.4 0 0 1 1-.1h1l1.2.1c1.8.3 3.6 1.2 4 2 .5.7.4 2.2.2 3.5a8.4 8.4 0 0 1-.3 1v.4l-.2.2v.2h-.1a4 4 0 0 1-3.8 1.7c-.7 0-1.3-.2-1.9-.5-1.8-1-2.2-3-2.4-3.9-.3-1.3-.6-3.7-.1-4.2Z" fill="#263238"/><path d="m402.6 110.6 11.6 2.7a4.3 4.3 0 0 0-3.4 1.4l-8.2-1.5v-2.6Z" fill="#263238"/><path d="M377 115.4c.2 1 .6 3 2.4 3.9.6.3 1.2.5 1.9.5a4 4 0 0 0 3.8-1.8l.1-.1v-.2l.2-.2V117.2l.2-1c.3-1.2.4-2.8 0-3.5-.5-.7-2.4-1.6-4.2-2H377.8l-.2.1-.7.4c-.4.6-.1 3 .1 4.2ZM391.8 116.5c.1.9.5 1.7 1.1 2.4a5 5 0 0 0 3.7 1.5 4 4 0 0 0 3.6-1.6v-.2l.2-.2v-.1l.2-.2v-.2l.1-.1.2-.5.1-.3.1-.5v-.2c.3-1.1.6-3.5 0-4s-2.1-1.1-4.6-1h-.3a10.9 10.9 0 0 0-2.7.6l-.4.1-.3.2h-.2l-.8.7c-.5.7-.3 2.2 0 3.6Z" fill="#37474F"/><path d="M377.3 91.6v-.4l.3-.7c.6-.5 1.6.9 2 1.2a13.5 13.5 0 0 0 2.2 1.5c-.3-1.3-.3-2.6 0-4 .1-.8.4-2.8 1.4-3 .7-.1 1.2.4 1.7.8 4.3 4 9.9 2.2 15 2.3 4.3.2 9.5 2 11.5 6.1.8 2 1 4-.8 5.3-1.1.9-2.2.8-2.9 2.2-.1.3-1 4.4-.5 4.4a4.5 4.5 0 0 1-4.8-3.3l-.5-1.7a1 1 0 0 0-.8-.8 1 1 0 0 0-.4 0c-1.3.3-2.1.8-3.4 1.2a25 25 0 0 1-10.9.6c-2.5-.5-5-1.8-6.8-3.7a10.2 10.2 0 0 1-2.3-8ZM394.2 108.5l3.8.5a2 2 0 0 0-1.7-2.2 1.8 1.8 0 0 0-2 1l-.1.7ZM379.8 108.7l3.8-.5a1.9 1.9 0 0 0-2-1.7 2 2 0 0 0-1.8 2.2Z" fill="#263238"/><path d="m389.1 114-.5 8.9-5-1.3 5-7.8.5.1Z" fill="#F28F8F"/><path d="M391.5 127.7a1.5 1.5 0 1 0 0-3 1.5 1.5 0 0 0 0 3Z" fill="#B16668"/><path d="M378.8 172.8c1.4-10 8.6-24.5 12.2-28.5a37.7 37.7 0 0 0 9-16.6s14.8 1.1 20.4-8.3a39.4 39.4 0 0 1-8.4 20.8s-14.6 5.3-20 10.4c-7.3 7-13.2 22.2-13.2 22.2Z" fill="#37474F"/><path d="M444 193.4c-5.7-31.3-3.8-38.8-11.4-43.8a41 41 0 0 0-7.6-3.5c-2.7 3.3-6.4 11-2.3 22.3l6 26.6a88 88 0 0 1-10 22.2 4.8 4.8 0 0 1-3.1 1.8l-3.9 7-1.6 1.6a13.4 13.4 0 0 0 7.9 10.3c1.9-1.5 4.4-3 6.7-5.8 2.6-3.5 4.8-7 6.9-10.9 3.8-6.8 8-14 10.6-19.7 1.9-4.3 2.2-6.1 1.8-8.1Z" fill="#FFA8A7"/><path d="M409.8 216.5c0 7 3 18 13.5 21v3.7s-8-.8-12.3-6.6a28 28 0 0 1-5.4-18.1h4.2Z" fill="#37474F"/><path d="M408.3 222.4c2.8-1.2 4-2.8 7.3-3.4l-3.9 7c-1.3.3-2.6.5-4 .4a3.3 3.3 0 0 1-3.1-2.6c-.1-.6 1.4-.4 3.7-1.4Z" fill="#FFA8A7"/><path d="M422.8 145a38.2 38.2 0 0 1 13.3 5.3c2 1.7 4 10.6 5 16.3 1 5.6 4 27 4.2 29.4 0 2.4-12.9 26.7-12.9 26.7s-4.8-6.5-12.2-8.8l7.3-19.3-7.7-27.8s-4.3-9 3-21.8Z" fill="#37474F"/><path d="M363.5 85v-.8l.7-.4 4.3-1.3a1 1 0 0 1 1.2.6l1.1 3.5a1 1 0 0 1 0 .7 1 1 0 0 1-.7.5l-4.3 1.3a1 1 0 0 1-1.2-.6l-1-3.5Zm-5.7-18.9a1 1 0 0 1 .7-1.2l4.3-1.3a1 1 0 0 1 1 .3l.2.3 4.6 15a1 1 0 0 1-.7 1.2l-4.4 1.3a1 1 0 0 1-.7 0 1 1 0 0 1-.5-.7l-4.5-14.9ZM357.6 100.6a1 1 0 0 1-.3-.6c0-.3 0-.6.3-.8l3-3.3a1 1 0 0 1 1.4 0l2.7 2.4a1 1 0 0 1 .3.7 1 1 0 0 1-.2.7l-3 3.3a1 1 0 0 1-1.5 0l-2.7-2.4ZM343 87.4a1 1 0 0 1 0-1.4l3-3.4a1 1 0 0 1 1.4 0L359 93a1 1 0 0 1 0 1.4l-3 3.4a1 1 0 0 1-.7.3 1 1 0 0 1-.7-.2L343 87.4Z" fill="#5A81FA"/><path d="M357.6 100.6a1 1 0 0 1-.3-.6c0-.3 0-.6.3-.8l3-3.3a1 1 0 0 1 1.4 0l2.7 2.4a1 1 0 0 1 .3.7 1 1 0 0 1-.2.7l-3 3.3a1 1 0 0 1-1.5 0l-2.7-2.4ZM343 87.4a1 1 0 0 1 0-1.4l3-3.4a1 1 0 0 1 1.4 0L359 93a1 1 0 0 1 0 1.4l-3 3.4a1 1 0 0 1-.7.3 1 1 0 0 1-.7-.2L343 87.4Z" fill="#fff" opacity=".6"/><path d="m369.7 237-65.5-37.7a2.7 2.7 0 0 0-2.8-.3l-4.1 2.4-.2.1-.5.4-.4.5v.2l-.2.5v144.3a8.5 8.5 0 0 0 3.8 6.7l65.5 37.9 1.4.5c.4 0 .8 0 1.2-.2h.2l4.3-2.6a2.7 2.7 0 0 0 1.2-2.5V244a8.7 8.7 0 0 0-4-6.8Zm-28.9 6.5-16.6-9.6a9.8 9.8 0 0 1-4.6-7.6c0-2.7 2-3.8 4.6-2.3l2 1.1 14.6 8.5a9.8 9.8 0 0 1 4.6 7.7c0 2.7-2 3.7-4.6 2.2Z" fill="#5A81FA"/><path opacity=".1" d="m369.7 237-65.5-37.7a2.7 2.7 0 0 0-2.8-.3l-4.1 2.4-.2.1-.5.4-.4.5v.2l-.2.5v144.3a8.5 8.5 0 0 0 3.8 6.7l65.5 37.9 1.4.5c.4 0 .8 0 1.2-.2h.2l4.3-2.6a2.7 2.7 0 0 0 1.2-2.5V244a8.7 8.7 0 0 0-4-6.8Zm-28.9 6.5-16.6-9.6a9.8 9.8 0 0 1-4.6-7.6c0-2.7 2-3.8 4.6-2.3l2 1.1 14.6 8.5a9.8 9.8 0 0 1 4.6 7.7c0 2.7-2 3.7-4.6 2.2Z" fill="#000"/><path d="m368 392.3.1-.1 4.3-2.5a2.7 2.7 0 0 0 1.2-2.5V243.9c0-1.4-.5-2.7-1.2-3.9l-4.3 2.5a7.9 7.9 0 0 1 1.1 3.9v143.3a2.6 2.6 0 0 1-1.3 2.6Z" fill="#5A81FA"/><path opacity=".3" d="m368 392.3.1-.1 4.3-2.5a2.7 2.7 0 0 0 1.2-2.5V243.9c0-1.4-.5-2.7-1.2-3.9l-4.3 2.5a7.9 7.9 0 0 1 1.1 3.9v143.3a2.6 2.6 0 0 1-1.3 2.6Z" fill="#000"/><path d="M365.3 239.6 347 229l-16.6-9.6-30.5-17.6a2.9 2.9 0 0 0-2.5-.4l-.2.1-.5.4-.4.5v.2l-.2.5v144.3a8.5 8.5 0 0 0 3.8 6.7l65.5 37.9 1.4.5c.4 0 .8 0 1.2-.2a2.7 2.7 0 0 0 1.3-2.6V246.4a8.8 8.8 0 0 0-3.9-6.8Zm-24.5 4-16.6-9.6a9.8 9.8 0 0 1-4.6-7.6c0-2.8 2-3.8 4.6-2.3l2 1 14.6 8.6a9.8 9.8 0 0 1 4.6 7.6c0 2.7-2 3.7-4.6 2.2Z" fill="#5A81FA"/><path d="m355.9 259.4-46.6-27c-.9-.4-1.5 0-1.5 1v71.8a3.3 3.3 0 0 0 1.5 2.6l46.6 26.9c.8.4 1.5 0 1.5-1V262a3.3 3.3 0 0 0-1.5-2.6Z" fill="#FAFAFA"/><path d="M342.3 269.3 322.8 258c.7-2.3 2-7.9 3.9-9.5 1.8-1.7 3.7 3.6 5.9 4.8 2.2 1.3 4.2-1.5 5.8 2 1.9 3.7 3.2 11 4 14ZM344.6 275.8l-24-14a2.6 2.6 0 0 1-1.2-2v-1c0-.8.5-1.1 1.1-.8l24.1 14a2.6 2.6 0 0 1 1 2v1c0 .7-.4 1.1-1 .8ZM342.4 276.4l-9.3-5.4-.5-.3-9.9-5.7c-.6-.4-1 0-1 .8v1.4c0 .9.4 1.6 1 2.3.6.7 2.7 3.6 4.4 4.8a4 4 0 0 0 2 .6h2.5c.3 0 .7 0 1 .3l1 .8 2.4 2.9a5.8 5.8 0 0 0 6.5 2c.6-.1 1-.2 1-1v-1.4a2.6 2.6 0 0 0-1-2.1Z" fill="#455A64"/><path d="M339 276c.1 1.5-.6 2.3-1.7 2a4.6 4.6 0 0 1-2.4-3.6l4.2 1.6ZM326 268.5a5.1 5.1 0 0 0 1.9 4c1 .8 2 .4 2.3-.8l-4.1-3.2Z" fill="#5A81FA"/><path d="m343.8 298 8.4-2.5c-1.9-3.4-9.6-13.8-9.6-13.8-1.3 10.3-6 10.1-10 7.8-3.9-2.3-8.8-7.6-10-19.3 0 0-7.7 1.4-9.6 2.6l8.4 12.1s-4.3-.8-5.2 1c-.8 1.9-2.3 24.5-2.3 24.5l18.8 10.8 18.7 10.9s-1.5-24.4-2.3-27.2c-.9-2.9-5.3-7-5.3-7ZM348 336.4l-30.8-17.7c-1.1-.7-2-.2-2 1.1v.8a4.5 4.5 0 0 0 2 3.5L348 342c1.1.6 2 0 2-1.2v-.8a4.5 4.5 0 0 0-2-3.5ZM355.4 356l-11-6.4c-.4-.2-.8 0-.8.5a1.8 1.8 0 0 0 .8 1.4l11 6.3c.5.3.8.1.8-.4a1.8 1.8 0 0 0-.8-1.4ZM336.5 345l-26.8-15.4c-.4-.2-.8 0-.8.4a1.8 1.8 0 0 0 .8 1.4l26.8 15.5c.4.3.8 0 .8-.4a1.8 1.8 0 0 0-.8-1.4ZM355.4 359.7l-11-6.4c-.4-.3-.8 0-.8.4a1.8 1.8 0 0 0 .8 1.4l11 6.4c.5.3.8 0 .8-.4a1.8 1.8 0 0 0-.8-1.4ZM336.5 348.7l-26.8-15.4c-.4-.3-.8-.1-.8.4a1.8 1.8 0 0 0 .8 1.4l26.8 15.4c.4.3.8.1.8-.4a1.8 1.8 0 0 0-.8-1.4ZM351.5 365.1v11.5l-3.3-2v-11.4l3.3 2ZM341.6 359.4V371l-3.3-2v-11.4l3.3 2ZM328.4 351.8v11.4l-3.3-1.9V350l3.3 2ZM317 345.1v11.5l-3.4-2v-11.4l3.3 2ZM346.6 362.3v11.4l-1.7-1v-11.4l1.7 1ZM323.5 349v11.4l-1.6-1V348l1.6 1ZM333.4 354.7V366l-1.6-1v-11.4l1.6 1ZM343.3 360.4v11.4l-.8-.5V360l.8.5ZM330.6 353v11.5l-.8-.5v-11.4l.8.5ZM335.9 356.1v11.4l-.9-.4v-11.5l.9.5ZM319.4 346.6V358l-.8-.5v-11.4l.8.5ZM337.5 357v11.5l-.8-.5v-11.4l.8.4ZM321 347.5V359l-.8-.5V347l.8.4Z" fill="#455A64"/><path opacity=".3" d="m346 344-26.8-15.5c-.5-.3-.8 0-.8.4a1.8 1.8 0 0 0 .8 1.4l26.8 15.5c.5.2.8 0 .8-.5a1.8 1.8 0 0 0-.8-1.4Z" fill="#000"/><path d="M345.3 242.2c-.4 2-2.3 2.6-4.5 1.3l-16.6-9.6a9.9 9.9 0 0 1-4.6-7.6c0-2.3 1.5-3.4 3.5-2.8l-.1 1a10 10 0 0 0 4.6 7.6l16.6 9.6 1.1.5Z" fill="#5A81FA"/><path opacity=".1" d="M345.3 242.2c-.4 2-2.3 2.6-4.5 1.3l-16.6-9.6a9.9 9.9 0 0 1-4.6-7.6c0-2.3 1.5-3.4 3.5-2.8l-.1 1a10 10 0 0 0 4.6 7.6l16.6 9.6 1.1.5Z" fill="#000"/><path d="M103 131.1a.8.8 0 0 1-1 0 1.8 1.8 0 0 1-.4-1.3v-8.1L85.3 131a.7.7 0 0 1-1 0 1.7 1.7 0 0 1-.4-1.4v-8.4c0-1.3.2-2.6.7-3.8l15.4-39 .9-1.6c.3-.4.7-.7 1.1-.9l7.8-4.5a.7.7 0 0 1 1 0 1.7 1.7 0 0 1 .4 1.3v30.6l4.5-2.6a.7.7 0 0 1 1 0 1.7 1.7 0 0 1 .4 1.4v8.4a4 4 0 0 1-.4 1.8c-.2.4-.6.9-1 1.1l-4.5 2.6v8.1c0 .6-.1 1.2-.4 1.8-.2.5-.6.9-1 1.2l-6.8 4Zm-1.1-22.3V94.2l-7.6 19 7.6-4.4ZM136.4 55.3c2.6-1.4 4.8-2.1 6.7-2 1.7 0 3.4.7 4.6 2 1.4 1.5 2.3 3.3 2.8 5.2.6 2.5 1 5.1 1 7.7l.1 7v7.1a52.9 52.9 0 0 1-3.9 17.3 33.4 33.4 0 0 1-4.6 7.4 24.5 24.5 0 0 1-6.7 5.6 12.6 12.6 0 0 1-6.6 2.1c-1.8 0-3.4-.7-4.7-2a11.7 11.7 0 0 1-2.7-5.3c-.6-2.5-1-5-1-7.6l-.2-7 .1-7.2a53.1 53.1 0 0 1 3.8-17.3c1.2-2.6 2.8-5 4.7-7.3 1.8-2.3 4-4.2 6.6-5.7Zm5.6 32.2a212.8 212.8 0 0 0-.4-16.8c-.1-.9-.4-1.7-.9-2.4a2.2 2.2 0 0 0-1.6-1c-1 0-1.9.3-2.6.8-1 .5-1.9 1.3-2.6 2.2-.7.9-1.3 1.8-1.7 2.9a26.4 26.4 0 0 0-1.3 7.3 165.3 165.3 0 0 0 .4 16.8c.1.9.4 1.7 1 2.4a2.4 2.4 0 0 0 1.6 1c1 0 1.8-.3 2.6-.8a9 9 0 0 0 2.5-2.2c.7-.9 1.3-1.9 1.7-3 .4-1 .7-2.2 1-3.4.1-1.2.3-2.5.3-3.8ZM155.3 63.1a2 2 0 0 1-.3-1.4c.1-.6.3-1.2.6-1.7l11.1-19.5 1-1.7c.3-.6.8-1.1 1.4-1.5l6.3-3.6a.7.7 0 0 1 1 0 1.7 1.7 0 0 1 .4 1.3v51.4c0 .6-.1 1.2-.4 1.8-.2.5-.6.9-1 1.2l-6.8 3.9a.7.7 0 0 1-1 0 1.7 1.7 0 0 1-.4-1.3V57l-6.1 10.7c-.3.5-.6.8-1 1a.7.7 0 0 1-1-.3l-3.8-5.4Z" fill="#5A81FA"/><path d="M54 188.4a.2.2 0 0 1 .3 0 .5.5 0 0 1 .1.4v2.3l-.4.4-7 4.1a.2.2 0 0 1-.3 0 .5.5 0 0 1-.1-.4v-16.5l.4-.4 7-4a.2.2 0 0 1 .3 0 .5.5 0 0 1 0 .4v2.3l-.3.4-5.3 3v4l4.9-2.9a.2.2 0 0 1 .3 0l.1.4v1.8l-.1.5c0 .2-.2.3-.3.4l-4.9 2.8v4.1l5.3-3ZM61 170c1.4-.7 2.4-.8 3.1-.2.7.5 1 1.6 1 3.3 0 1.2-.2 2.4-.5 3.5-.4 1-.9 2-1.6 2.8l2.2 4.8v.7l-.3.3-1.4.8H63l-.2-.3-2.1-4.6-2.1 1.3v5.8l-.2.5-.3.4-1.3.7a.2.2 0 0 1-.3 0 .5.5 0 0 1-.1-.4v-16l.1-.5c0-.2.2-.3.3-.4l4.3-2.4Zm-2.4 9.3L61 178c.6-.3 1-.8 1.5-1.3.4-.7.6-1.5.5-2.2 0-1-.2-1.5-.5-1.6-.6 0-1 0-1.5.4l-2.3 1.3v4.7ZM71.8 163.8c1.4-.7 2.4-.8 3.1-.3.7.6 1 1.7 1 3.4 0 1.2-.2 2.3-.5 3.4-.4 1-.9 2-1.6 2.8l2.3 4.9v.2l-.1.5-.3.3-1.4.8c-.2.1-.3.1-.4 0l-.3-.3-2-4.6-2.2 1.3v5.8l-.1.6-.3.3-1.4.8a.2.2 0 0 1-.3 0 .5.5 0 0 1 0-.4v-16.6l.3-.3 4.3-2.6Zm-2.4 9.3 2.4-1.4c.6-.3 1-.8 1.4-1.3.4-.7.6-1.5.6-2.2 0-1-.2-1.5-.6-1.6-.5 0-1 0-1.4.4l-2.4 1.3v4.8ZM77.7 167a16.7 16.7 0 0 1 1.2-5.5l1.4-2.2c.6-.7 1.3-1.3 2.1-1.8a4 4 0 0 1 2-.6 2 2 0 0 1 1.5.6c.4.4.7 1 .8 1.6.3.8.4 1.6.4 2.4v4.4a15.9 15.9 0 0 1-1.2 5.5 10 10 0 0 1-1.5 2.3c-.6.7-1.3 1.2-2 1.7-.7.4-1.4.6-2.1.7a2 2 0 0 1-1.5-.6c-.4-.5-.7-1-.8-1.7-.2-.8-.4-1.6-.4-2.4V167Zm7.3-4.1c0-.9-.2-1.7-.8-2.4-.4-.3-1-.3-1.8.1-.8.5-1.4 1.2-1.8 2-.5 1-.7 2.1-.7 3.2v4.2a3.1 3.1 0 0 0 .7 2.3c.5.4 1 .4 1.8 0 .8-.5 1.5-1.2 1.8-2 .5-1 .8-2.1.8-3.3V163ZM93.9 151.1c1.3-.7 2.3-.8 3-.3.7.6 1 1.7 1 3.4 0 1.2-.1 2.3-.5 3.4-.3 1-.9 2-1.6 2.8l2.2 4.9V165.9l-.3.4-1.4.8h-.5l-.2-.4-2.1-4.5-2.1 1.2v5.8c0 .2 0 .4-.2.5 0 .2-.1.3-.3.4l-1.3.8a.2.2 0 0 1-.3 0 .5.5 0 0 1-.1-.4v-16l.1-.6.3-.3L94 151Zm-2.4 9.3 2.3-1.4c.6-.3 1-.8 1.5-1.3.4-.7.6-1.5.5-2.2 0-1-.2-1.5-.5-1.6-.6 0-1 0-1.5.4l-2.3 1.3v4.8ZM99.9 162.3c0-.3 0-.6.2-.8 0-.3.2-.5.5-.6l1.4-.8h.2a.5.5 0 0 1 .1.3v.2l-1 4.7-.3.7c0 .2-.2.4-.5.5l-.7.4a.2.2 0 0 1-.2 0 .4.4 0 0 1-.1-.3l.4-4.3ZM116.8 138a.2.2 0 0 1 .3 0 .5.5 0 0 1 .1.3v10.2a14.1 14.1 0 0 1-1.2 5.6 8.2 8.2 0 0 1-3.5 3.9c-.5.3-1.2.6-2 .6a2 2 0 0 1-1.3-.5c-.5-.5-.8-1-1-1.7l-.2-2.6v-10.1l.1-.6.3-.3 1.3-.8a.2.2 0 0 1 .3 0 .5.5 0 0 1 .2.4v10c0 .6 0 1.1.2 1.7 0 .3.2.6.5.9a1 1 0 0 0 .7.2c.4 0 .7-.2 1-.4a4.5 4.5 0 0 0 1.8-1.9 7 7 0 0 0 .7-3.3v-10l.1-.5c0-.2.2-.3.3-.4l1.3-.8ZM127 149.4c-.2.1-.3.1-.4 0l-.2-.2-4.6-7.7v10.7l-.4.4-1.3.8H119.8l-.1-.2V137l.1-.6.3-.3 1.1-.7h.5l.2.2 4.5 7.8V133l.1-.6.3-.4 1.3-.7a.2.2 0 0 1 .3 0 .5.5 0 0 1 .2.4v16c0 .2 0 .4-.2.5 0 .2-.1.3-.3.4l-1.1.7ZM136.3 126.6h.4l.3.5 4 13.4v.2l-.2.5c0 .2-.2.3-.3.4l-1.2.7c-.2.1-.3.1-.4 0l-.2-.3-.7-2.4-5 3-.8 3.1-.1.5-.5.5-1.2.7a.2.2 0 0 1-.3 0 .5.5 0 0 1 0-.4v-.2l3.9-18 .2-.8c0-.2.2-.3.4-.4l1.7-1Zm1 10.4-1.9-6-1.7 8.1 3.5-2ZM150.9 118.2a.2.2 0 0 1 .3 0 .5.5 0 0 1 .1.4v10.2a14.8 14.8 0 0 1-1.2 5.6c-.3.8-.8 1.5-1.4 2.2-.6.7-1.3 1.2-2 1.7-.6.3-1.3.6-2 .6a2 2 0 0 1-1.4-.5c-.5-.5-.8-1-1-1.6l-.2-2.7V124l.1-.5c0-.2.2-.3.3-.4l1.3-.8a.2.2 0 0 1 .3 0l.2.2v10.2c0 .6 0 1.1.2 1.7 0 .3.2.6.5.8a1 1 0 0 0 .7.3c.4 0 .7-.2 1-.4a4.6 4.6 0 0 0 1.8-1.9l.5-1.5c.2-.6.2-1.2.2-1.8v-10l.1-.6.3-.3 1.3-.8ZM161.3 112.2a.2.2 0 0 1 .3 0 .5.5 0 0 1 0 .4v2.3l-.3.4-3 1.7v14.2l-.4.3-1.3.8a.2.2 0 0 1-.3 0 .5.5 0 0 1-.1-.4v-13.6l-3 1.7a.2.2 0 0 1-.2 0 .5.5 0 0 1-.2-.4v-1.8c0-.2 0-.4.2-.5 0-.2.1-.3.3-.4l8-4.7ZM172 106a.2.2 0 0 1 .4 0 .5.5 0 0 1 .1.4v16l-.1.5c0 .2-.2.3-.3.4l-1.3.8a.2.2 0 0 1-.3 0 .5.5 0 0 1-.2-.4V117l-4.8 2.9v6.6c0 .1 0 .3-.2.5 0 .2-.1.3-.3.4l-1.3.7a.2.2 0 0 1-.3 0v-.2l-.1-.2v-16l.1-.5c0-.2.2-.3.3-.4l1.3-.8a.2.2 0 0 1 .3 0 .5.5 0 0 1 .2.4v6.4l4.8-2.8v-6.4c0-.2 0-.4.2-.5 0-.2.1-.3.3-.4l1.3-.8ZM174.6 111a15.7 15.7 0 0 1 1.3-5.5c.3-.8.8-1.5 1.4-2.2.6-.7 1.3-1.3 2-1.8.7-.4 1.4-.6 2.1-.6a2 2 0 0 1 1.5.6c.4.4.7 1 .9 1.6l.3 2.4v4.4a15.7 15.7 0 0 1-1.2 5.5c-.4.8-.9 1.6-1.5 2.3-.5.7-1.2 1.2-2 1.7a4 4 0 0 1-2 .6 2 2 0 0 1-1.5-.5c-.5-.5-.8-1-1-1.7l-.3-2.4V111Zm7.3-4c.1-1-.2-1.8-.7-2.4a1.5 1.5 0 0 0-1.8 0c-.8.5-1.4 1.2-1.8 2-.5 1-.8 2.1-.8 3.2v4.2a3.1 3.1 0 0 0 .8 2.4c.4.3 1 .3 1.8-.1.8-.5 1.4-1.2 1.8-2 .5-1 .7-2.1.7-3.2v-4.2ZM190.8 95.2c1.4-.8 2.4-1 3.1-.4.7.6 1 1.7 1 3.4 0 1.2-.2 2.3-.5 3.4-.4 1-1 2-1.6 2.8l2.2 4.9v.2l-.1.5-.3.3-1.3.8h-.5l-.2-.3-2.1-4.6-2.2 1.2V113.8l-.4.3-1.3.8a.2.2 0 0 1-.3 0l-.1-.2V97.9l.4-.3 4.2-2.4Zm-2.4 9.2 2.4-1.4c.5-.3 1-.8 1.4-1.3.4-.7.6-1.5.6-2.2 0-1-.2-1.5-.6-1.6-.5 0-1 0-1.4.4l-2.4 1.4v4.7ZM197.5 108.7a.2.2 0 0 1-.3 0 .5.5 0 0 1-.1-.4V91.7l.4-.3 1.3-.8a.2.2 0 0 1 .3 0l.1.4v16l-.1.5c0 .2-.2.3-.3.4l-1.3.8ZM209.6 98.6a.2.2 0 0 1 .3 0l.2.4v1.7c0 .2 0 .4-.2.6 0 .1-.1.3-.3.3l-8 4.7a.2.2 0 0 1-.3 0l-.1-.2v-2.5l.2-.5L207 89l-5.4 3.1a.2.2 0 0 1-.3 0 .5.5 0 0 1-.1-.4v-1.8l.1-.5c0-.2.2-.3.3-.4l7.8-4.5a.2.2 0 0 1 .3 0l.1.4v1.8c0 .3 0 .6-.2.9l-5.7 14.3 5.6-3.2ZM219.5 92.9a.2.2 0 0 1 .3 0l.1.4V95l-.1.5-.3.4-7 4a.2.2 0 0 1-.4 0 .5.5 0 0 1-.1-.3v-16l.1-.6.3-.4 7-4a.2.2 0 0 1 .3 0l.2.4V81l-.2.6-.3.3-5.2 3v4l4.9-2.8a.2.2 0 0 1 .3 0 .5.5 0 0 1 0 .4v2.3l-.3.4-4.9 2.8V96l5.3-3.1ZM226.3 74.7c.7-.4 1.4-.7 2.1-.7a2 2 0 0 1 1.5.5c.4.4.7 1 .9 1.6l.4 2.6v3.7a17.5 17.5 0 0 1-1.3 5.7c-.4.8-.9 1.5-1.5 2.2a8 8 0 0 1-2 1.6l-4 2.4a.2.2 0 0 1-.3 0l-.2-.4v-16l.2-.6.3-.3 4-2.3ZM229 80c0-.5 0-1-.2-1.4 0-.3-.3-.6-.5-.9a1.1 1.1 0 0 0-.8-.3c-.5 0-.9.2-1.2.4l-2.2 1.3v11.1l2.3-1.3c.4-.2.8-.6 1.1-1l.8-1.2.5-1.5.2-1.6V80Z" fill="#455A64"/></svg>