
<svg width="500" height="500" fill="none" xmlns="http://www.w3.org/2000/svg"><path d="M415.8 389.2h-19.2v.3h19.2v-.3ZM110.9 390.9h-6.3v.2h6.3v-.2Z" fill="#BCBCBC" fill-opacity=".4"/><path d="M334.3 153.7h-14v-27.1l13 1.4.2.4.3-.3 23.7 2.7.2.2.2-.2 47.8 5.4V222l10.3 5v9.5h2.9V117.6H317.6v36h-13.2v7h30v-7Zm71.4-20.2-7.3-.8 7.3-10v10.8Zm-1.5-13.3-7.7 10.6-8.9-10.6h16.6Zm-10 12-16.4-1.8 8-8.2 8.4 10Zm-10.2-12-8.4 8.7-7.8-8.7H384Zm-11 9.6-12.8-1.4 5.8-6.2 7 7.6Zm-8.7-9.6-6.4 6.8-5.3-6.8h11.7Zm-9 7.6-8.4-.9 4-4.6 4.4 5.5Zm-6.1-7.5-4.3 4.9-4-5h8.3Zm-6.7 6.1-6.4-.7 3.1-3.4 3.3 4.1Zm-5-6.2-3.7 4.1-3.3-4h7Zm-6.5 5-4.4-.6 2.1-2.3 2.3 2.8Zm-4-5-2.4 2.6-1.8-2.5h4.2Zm-6.7 1.2 2 2.8-2-.3v-2.5Z" fill="silver" fill-opacity=".4"/><path d="M346.5 155.3H343v94.2h5V264h6v20.5h11v5.5h4.5v23h7v-61h2.5v21h9.8v40-163h-3.5v16.7h-17.6V158H365v8.8h-18.5v-11.4Zm21.2 15.8h17.6v9.8h-17.6V171Zm-21.2 0H365v9.8h-18.5V171Z" fill="silver" fill-opacity=".4"/><path d="M181.2 168v-68H77v205h5v-20.5h6V270h2.5V119.1l49.2-5.5.2.2.2-.3 24.4-2.7.3.3.3-.3 13.4-1.6V168H164v7.3h30.8V168h-13.6ZM111 104.7l8.2 8.5-16.9 1.8 8.7-10.3Zm-11 8.9-8-10.9h17.2l-9.2 10.9Zm12.8-10.9h16.7l-8 8.9-8.7-8.9Zm65.7 1.2v2.6l-2.2.3 2.2-3Zm-4.5 1.5-2.4-2.7h4.3l-2 2.7Zm-6-2.7-3.3 4.2-3.9-4.2h7.2Zm-10.8 0-4 5-4.4-5h8.4Zm-12 0-5.5 7-6.5-7h12Zm-54.6 2.6 7.5 10.2-7.5.9v-11.1Zm33.7 7.3 7-7.9 6 6.4-13 1.5Zm22.7-7.8 4.1 4.8-8.6 1 4.5-5.8Zm8.6 4.3 3.4-4.3 3.2 3.5-6.6.8Zm14.2-4.3 2.2 2.4-4.6.5 2.4-2.9Z" fill="#BCBCBC" fill-opacity=".4"/><path d="M148.5 179.5h-18.1v-8.2h-2.6v8.2h-17.3V164H107v120.2h4.5v20.3h11v6h4.5V334h1.5v-32.5h2.8v20.8h2.7V273h3v20.5h7V286h3.6v-28.2h2v-.7h2.4V169h-3.5v10.6Zm-20.7 13h-17.3v-9h17.3v9Zm20.7 0h-18.1v-9h18.1v9Z" fill="#BCBCBC" fill-opacity=".4"/><path d="M434 381.9v-46.4h-4v-22h-5.8v-77H416v-9.8l-18-8.4v-10h-2.4v28.3H392v76.8h-3.4V273H379v-20.8h-2.6v61.2h-7.1v-23.3h-4.7v-6h-11v-20.3h-6v-14.3h-7.3v-21h-2.6v21h-7.3v14.4h-6v20.3h-10.9v6H309v23.2h-5.6v-29.2h-10.9v-63H289v-7h-23.3v7h-5v45.6H241v4.5h-7.5v3.4h7.5v17.9H220v-59.5h-4.5v-12.6h-9.7v-44.9h-2.7v44.9h-7V233h-40.6V229H153v28.2h-3.5v.5h-2V286H144v7.6h-7.3v-20.8H134v49.6h-2.9v-20.8h-2.6V334H127v-23.3h-4.7v-6h-11v-20.2h-6V270h-7.2v-21h-2.7v21h-7.3v14.4h-6v20.3H71.2v6h-4.7v22.7h-.8v.5h-2.4V382H434Z" fill="#B3B3B3" fill-opacity=".4"/><path d="M181 235.9h-2.7v2.8h2.8V236ZM181 240.6h-2.7v2.8h2.8v-2.8ZM181 259.4h-2.7v2.9h2.8v-2.9ZM181 264.1h-2.7v2.9h2.8V264ZM181 268.9h-2.7v2.8h2.8v-2.8ZM181 283h-2.7v2.8h2.8V283ZM181 287.7h-2.7v2.8h2.8v-2.8ZM185.6 254.7h-2.9v2.8h2.9v-2.8ZM185.6 259.4h-2.9v2.9h2.9v-2.9ZM185.6 264.1h-2.9v2.9h2.9V264ZM185.6 268.9h-2.9v2.8h2.9v-2.8ZM185.6 273.6h-2.9v2.8h2.9v-2.8ZM185.6 283h-2.9v2.8h2.9V283ZM185.6 287.7h-2.9v2.8h2.9v-2.8ZM190 235.9h-2.8v2.8h2.8V236ZM190 240.6h-2.8v2.8h2.8v-2.8ZM190 245.3h-2.8v2.8h2.8v-2.8ZM190 250h-2.8v2.8h2.8V250ZM190 254.7h-2.8v2.8h2.8v-2.8ZM190 259.4h-2.8v2.9h2.8v-2.9ZM190 264.1h-2.8v2.9h2.8V264ZM190 268.9h-2.8v2.8h2.8v-2.8ZM190 273.6h-2.8v2.8h2.8v-2.8ZM190 278.3h-2.8v2.8h2.8v-2.8ZM190 287.7h-2.8v2.8h2.8v-2.8ZM194.5 235.9h-2.8v2.8h2.8V236ZM194.5 240.6h-2.8v2.8h2.8v-2.8ZM194.5 245.3h-2.8v2.8h2.8v-2.8ZM194.5 250h-2.8v2.8h2.8V250ZM194.5 254.7h-2.8v2.8h2.8v-2.8ZM194.5 259.4h-2.8v2.9h2.8v-2.9ZM194.5 264.1h-2.8v2.9h2.8V264ZM194.5 306.5h-2.8v2.8h2.8v-2.8ZM199 235.9H196v2.8h2.8V236ZM199 240.6H196v2.8h2.8v-2.8ZM199 245.3H196v2.8h2.8v-2.8ZM199 250H196v2.8h2.8V250ZM199 254.7H196v2.8h2.8v-2.8ZM199 259.4H196v2.9h2.8v-2.9ZM199 264.1H196v2.9h2.8V264ZM199 268.9H196v2.8h2.8v-2.8ZM199 297.1H196v2.8h2.8v-2.8ZM199 301.8H196v2.8h2.8v-2.8ZM199 306.5H196v2.8h2.8v-2.8ZM199 311.2H196v2.8h2.8v-2.8ZM199 330H196v2.9h2.8V330ZM203.4 235.9h-2.8v2.8h2.8V236ZM203.4 240.6h-2.8v2.8h2.8v-2.8ZM203.4 245.3h-2.8v2.8h2.8v-2.8ZM203.4 250h-2.8v2.8h2.8V250ZM203.4 254.7h-2.8v2.8h2.8v-2.8ZM203.4 259.4h-2.8v2.9h2.8v-2.9ZM203.4 264.1h-2.8v2.9h2.8V264ZM203.4 268.9h-2.8v2.8h2.8v-2.8ZM203.4 273.6h-2.8v2.8h2.8v-2.8ZM203.4 278.3h-2.8v2.8h2.8v-2.8ZM203.4 292.4h-2.8v2.8h2.8v-2.8ZM203.4 297.1h-2.8v2.8h2.8v-2.8ZM203.4 301.8h-2.8v2.8h2.8v-2.8ZM203.4 306.5h-2.8v2.8h2.8v-2.8ZM203.4 311.2h-2.8v2.8h2.8v-2.8ZM203.4 330h-2.8v2.9h2.8V330ZM207.9 235.9H205v2.8h2.8V236ZM207.9 240.6H205v2.8h2.8v-2.8ZM207.9 245.3H205v2.8h2.8v-2.8ZM207.9 250H205v2.8h2.8V250ZM207.9 254.7H205v2.8h2.8v-2.8ZM207.9 259.4H205v2.9h2.8v-2.9ZM207.9 264.1H205v2.9h2.8V264ZM207.9 268.9H205v2.8h2.8v-2.8ZM207.9 273.6H205v2.8h2.8v-2.8ZM207.9 278.3H205v2.8h2.8v-2.8ZM207.9 283H205v2.8h2.8V283ZM207.9 287.7H205v2.8h2.8v-2.8ZM207.9 292.4H205v2.8h2.8v-2.8ZM207.9 297.1H205v2.8h2.8v-2.8ZM207.9 301.8H205v2.8h2.8v-2.8ZM207.9 306.5H205v2.8h2.8v-2.8ZM207.9 311.2H205v2.8h2.8v-2.8ZM207.9 316H205v2.8h2.8v-2.9ZM212.3 235.9h-2.8v2.8h2.8V236ZM212.3 240.6h-2.8v2.8h2.8v-2.8ZM212.3 245.3h-2.8v2.8h2.8v-2.8ZM212.3 250h-2.8v2.8h2.8V250ZM212.3 254.7h-2.8v2.8h2.8v-2.8ZM212.3 259.4h-2.8v2.9h2.8v-2.9ZM212.3 264.1h-2.8v2.9h2.8V264ZM212.3 268.9h-2.8v2.8h2.8v-2.8ZM212.3 273.6h-2.8v2.8h2.8v-2.8ZM212.3 278.3h-2.8v2.8h2.8v-2.8ZM212.3 292.4h-2.8v2.8h2.8v-2.8ZM212.3 297.1h-2.8v2.8h2.8v-2.8ZM212.3 301.8h-2.8v2.8h2.8v-2.8ZM212.3 306.5h-2.8v2.8h2.8v-2.8ZM216.8 235.9H214v2.8h2.8V236ZM216.8 240.6H214v2.8h2.8v-2.8ZM216.8 245.3H214v2.8h2.8v-2.8ZM216.8 250H214v2.8h2.8V250ZM216.8 254.7H214v2.8h2.8v-2.8ZM216.8 259.4H214v2.9h2.8v-2.9ZM216.8 264.1H214v2.9h2.8V264ZM216.8 268.9H214v2.8h2.8v-2.8ZM216.8 273.6H214v2.8h2.8v-2.8ZM216.8 278.3H214v2.8h2.8v-2.8ZM216.8 292.4H214v2.8h2.8v-2.8ZM216.8 297.1H214v2.8h2.8v-2.8ZM216.8 301.8H214v2.8h2.8v-2.8ZM267 223.7h-2.8v2.8h2.8v-2.8ZM267 228.4h-2.8v2.8h2.8v-2.8ZM267 233h-2.8v2.9h2.8v-2.8ZM267 237.8h-2.8v2.8h2.8v-2.8ZM267 242.5h-2.8v2.8h2.8v-2.8ZM267 247.2h-2.8v2.8h2.8v-2.8ZM267 252h-2.8v2.7h2.8V252ZM267 256.6h-2.8v2.8h2.8v-2.8ZM267 270.8h-2.8v2.8h2.8v-2.8ZM267 275.5h-2.8v2.8h2.8v-2.8ZM271.5 223.7h-2.9v2.8h2.9v-2.8ZM271.5 228.4h-2.9v2.8h2.9v-2.8ZM271.5 233h-2.9v2.9h2.9v-2.8ZM271.5 237.8h-2.9v2.8h2.9v-2.8ZM271.5 242.5h-2.9v2.8h2.9v-2.8ZM271.5 247.2h-2.9v2.8h2.9v-2.8ZM271.5 252h-2.9v2.7h2.9V252ZM271.5 256.6h-2.9v2.8h2.9v-2.8ZM271.5 275.5h-2.9v2.8h2.9v-2.8ZM276 223.7H273v2.8h2.8v-2.8ZM276 228.4H273v2.8h2.8v-2.8ZM276 233H273v2.9h2.8v-2.8ZM276 237.8H273v2.8h2.8v-2.8ZM276 242.5H273v2.8h2.8v-2.8ZM276 247.2H273v2.8h2.8v-2.8ZM276 252H273v2.7h2.8V252ZM276 256.6H273v2.8h2.8v-2.8ZM280.4 223.7h-2.8v2.8h2.8v-2.8ZM280.4 228.4h-2.8v2.8h2.8v-2.8ZM280.4 233h-2.8v2.9h2.8v-2.8ZM280.4 237.8h-2.8v2.8h2.8v-2.8ZM280.4 242.5h-2.8v2.8h2.8v-2.8ZM280.4 247.2h-2.8v2.8h2.8v-2.8ZM280.4 256.6h-2.8v2.8h2.8v-2.8ZM280.4 261.3h-2.8v2.8h2.8v-2.8ZM280.4 275.5h-2.8v2.8h2.8v-2.8ZM280.4 280.2h-2.8v2.8h2.8v-2.8ZM280.4 284.9h-2.8v2.8h2.8v-2.8ZM280.4 289.6h-2.8v2.8h2.8v-2.8ZM280.4 294.3h-2.8v2.8h2.8v-2.8ZM280.4 299h-2.8v2.8h2.8V299ZM280.4 303.7h-2.8v2.8h2.8v-2.8ZM284.8 223.7H282v2.8h2.8v-2.8ZM284.8 228.4H282v2.8h2.8v-2.8ZM284.8 233H282v2.9h2.8v-2.8ZM284.8 237.8H282v2.8h2.8v-2.8ZM284.8 242.5H282v2.8h2.8v-2.8ZM284.8 247.2H282v2.8h2.8v-2.8ZM284.8 261.3H282v2.8h2.8v-2.8ZM284.8 266H282v2.9h2.8V266ZM284.8 270.8H282v2.8h2.8v-2.8ZM284.8 275.5H282v2.8h2.8v-2.8ZM284.8 280.2H282v2.8h2.8v-2.8ZM284.8 284.9H282v2.8h2.8v-2.8ZM284.8 289.6H282v2.8h2.8v-2.8ZM284.8 294.3H282v2.8h2.8v-2.8ZM284.8 299H282v2.8h2.8V299ZM284.8 303.7H282v2.8h2.8v-2.8ZM284.8 308.4H282v2.8h2.8v-2.8ZM284.8 317.8H282v2.8h2.8v-2.8ZM289.3 223.7h-2.8v2.8h2.8v-2.8ZM289.3 228.4h-2.8v2.8h2.8v-2.8ZM289.3 233h-2.8v2.9h2.8v-2.8ZM289.3 237.8h-2.8v2.8h2.8v-2.8ZM289.3 242.5h-2.8v2.8h2.8v-2.8ZM289.3 247.2h-2.8v2.8h2.8v-2.8ZM289.3 261.3h-2.8v2.8h2.8v-2.8ZM289.3 266h-2.8v2.9h2.8V266ZM289.3 270.8h-2.8v2.8h2.8v-2.8ZM289.3 275.5h-2.8v2.8h2.8v-2.8ZM289.3 289.6h-2.8v2.8h2.8v-2.8ZM289.3 294.3h-2.8v2.8h2.8v-2.8ZM289.3 299h-2.8v2.8h2.8V299ZM289.3 303.7h-2.8v2.8h2.8v-2.8ZM289.3 308.4h-2.8v2.8h2.8v-2.8ZM289.3 317.8h-2.8v2.8h2.8v-2.8ZM289.3 322.6h-2.8v2.8h2.8v-2.8ZM329.8 267.4H327v2.9h2.8v-2.9ZM329.8 272.2H327v2.8h2.8v-2.8ZM329.8 276.9H327v2.8h2.8v-2.8ZM329.8 281.6H327v2.8h2.8v-2.8ZM329.8 286.3H327v2.8h2.8v-2.8ZM329.8 291H327v2.8h2.8V291ZM329.8 295.7H327v2.8h2.8v-2.8ZM329.8 309.8H327v2.8h2.8v-2.8ZM329.8 314.5H327v2.9h2.8v-2.9ZM329.8 319.3H327v2.8h2.8v-2.9ZM334.2 267.4h-2.8v2.9h2.8v-2.9ZM334.2 272.2h-2.8v2.8h2.8v-2.8ZM334.2 276.9h-2.8v2.8h2.8v-2.8ZM334.2 281.6h-2.8v2.8h2.8v-2.8ZM334.2 286.3h-2.8v2.8h2.8v-2.8ZM334.2 291h-2.8v2.8h2.8V291ZM334.2 295.7h-2.8v2.8h2.8v-2.8ZM338.7 267.4h-2.8v2.9h2.8v-2.9ZM338.7 272.2h-2.8v2.8h2.8v-2.8ZM338.7 276.9h-2.8v2.8h2.8v-2.8ZM338.7 281.6h-2.8v2.8h2.8v-2.8ZM338.7 286.3h-2.8v2.8h2.8v-2.8ZM338.7 291h-2.8v2.8h2.8V291ZM338.7 295.7h-2.8v2.8h2.8v-2.8ZM343.2 267.4h-2.8v2.9h2.8v-2.9ZM343.2 272.2h-2.8v2.8h2.8v-2.8ZM343.2 276.9h-2.8v2.8h2.8v-2.8ZM343.2 281.6h-2.8v2.8h2.8v-2.8ZM343.2 286.3h-2.8v2.8h2.8v-2.8ZM343.2 291h-2.8v2.8h2.8V291ZM343.2 295.7h-2.8v2.8h2.8v-2.8ZM343.2 300.4h-2.8v2.8h2.8v-2.8ZM343.2 305.1h-2.8v2.8h2.8v-2.8ZM343.2 309.8h-2.8v2.8h2.8v-2.8ZM343.2 314.5h-2.8v2.9h2.8v-2.9ZM347.6 267.4h-2.8v2.9h2.8v-2.9ZM347.6 272.2h-2.8v2.8h2.8v-2.8ZM347.6 276.9h-2.8v2.8h2.8v-2.8ZM347.6 281.6h-2.8v2.8h2.8v-2.8ZM347.6 286.3h-2.8v2.8h2.8v-2.8ZM347.6 291h-2.8v2.8h2.8V291ZM347.6 295.7h-2.8v2.8h2.8v-2.8ZM347.6 300.4h-2.8v2.8h2.8v-2.8ZM347.6 305.1h-2.8v2.8h2.8v-2.8ZM347.6 309.8h-2.8v2.8h2.8v-2.8ZM347.6 314.5h-2.8v2.9h2.8v-2.9ZM347.6 319.3h-2.8v2.8h2.8v-2.9ZM347.6 333.4h-2.8v2.8h2.8v-2.8ZM347.6 338h-2.8v2.9h2.8V338ZM352 267.4h-2.7v2.9h2.8v-2.9ZM352 272.2h-2.7v2.8h2.8v-2.8ZM352 276.9h-2.7v2.8h2.8v-2.8ZM352 291h-2.7v2.8h2.8V291ZM352 295.7h-2.7v2.8h2.8v-2.8ZM352 300.4h-2.7v2.8h2.8v-2.8ZM352 305.1h-2.7v2.8h2.8v-2.8ZM352 309.8h-2.7v2.8h2.8v-2.8ZM352 314.5h-2.7v2.9h2.8v-2.9ZM352 319.3h-2.7v2.8h2.8v-2.9ZM352 333.4h-2.7v2.8h2.8v-2.8ZM352 338h-2.7v2.9h2.8V338ZM352 342.8h-2.7v2.8h2.8v-2.8ZM398.8 239.2H396v2.8h2.8v-2.8ZM398.8 244H396v2.7h2.8V244ZM398.8 248.6H396v2.8h2.8v-2.8ZM398.8 253.3H396v2.8h2.8v-2.8ZM398.8 258H396v2.9h2.8V258ZM398.8 262.8H396v2.8h2.8v-2.9ZM398.8 267.4H396v2.9h2.8v-2.9ZM398.8 272.2H396v2.8h2.8v-2.8ZM398.8 276.9H396v2.8h2.8v-2.8ZM398.8 281.6H396v2.8h2.8v-2.8ZM398.8 286.3H396v2.8h2.8v-2.8ZM398.8 291H396v2.8h2.8V291ZM398.8 295.7H396v2.8h2.8v-2.8ZM398.8 300.4H396v2.8h2.8v-2.8ZM398.8 305.1H396v2.8h2.8v-2.8ZM398.8 309.8H396v2.8h2.8v-2.8ZM398.8 314.5H396v2.9h2.8v-2.9ZM398.8 319.3H396v2.8h2.8v-2.9ZM398.8 324H396v2.8h2.8V324ZM398.8 328.7H396v2.8h2.8v-2.8ZM398.8 333.4H396v2.8h2.8v-2.8ZM398.8 338H396v2.9h2.8V338ZM398.8 342.8H396v2.8h2.8v-2.8ZM403.3 239.2h-2.8v2.8h2.8v-2.8ZM403.3 244h-2.8v2.7h2.8V244ZM403.3 248.6h-2.8v2.8h2.8v-2.8ZM403.3 253.3h-2.8v2.8h2.8v-2.8ZM403.3 258h-2.8v2.9h2.8V258ZM403.3 262.8h-2.8v2.8h2.8v-2.9ZM403.3 267.4h-2.8v2.9h2.8v-2.9ZM403.3 272.2h-2.8v2.8h2.8v-2.8ZM403.3 276.9h-2.8v2.8h2.8v-2.8ZM403.3 281.6h-2.8v2.8h2.8v-2.8ZM403.3 286.3h-2.8v2.8h2.8v-2.8ZM403.3 291h-2.8v2.8h2.8V291ZM403.3 295.7h-2.8v2.8h2.8v-2.8ZM403.3 300.4h-2.8v2.8h2.8v-2.8ZM403.3 305.1h-2.8v2.8h2.8v-2.8ZM403.3 309.8h-2.8v2.8h2.8v-2.8ZM403.3 314.5h-2.8v2.9h2.8v-2.9ZM403.3 319.3h-2.8v2.8h2.8v-2.9ZM403.3 324h-2.8v2.8h2.8V324ZM407.8 239.2h-2.9v2.8h2.9v-2.8ZM407.8 244h-2.9v2.7h2.9V244ZM407.8 248.6h-2.9v2.8h2.9v-2.8ZM407.8 253.3h-2.9v2.8h2.9v-2.8ZM407.8 258h-2.9v2.9h2.9V258ZM407.8 262.8h-2.9v2.8h2.9v-2.9ZM407.8 267.4h-2.9v2.9h2.9v-2.9ZM407.8 272.2h-2.9v2.8h2.9v-2.8ZM407.8 276.9h-2.9v2.8h2.9v-2.8ZM407.8 281.6h-2.9v2.8h2.9v-2.8ZM407.8 286.3h-2.9v2.8h2.9v-2.8ZM407.8 291h-2.9v2.8h2.9V291ZM407.8 295.7h-2.9v2.8h2.9v-2.8ZM407.8 300.4h-2.9v2.8h2.9v-2.8ZM407.8 305.1h-2.9v2.8h2.9v-2.8ZM407.8 309.8h-2.9v2.8h2.9v-2.8ZM407.8 314.5h-2.9v2.9h2.9v-2.9ZM407.8 319.3h-2.9v2.8h2.9v-2.9ZM407.8 324h-2.9v2.8h2.9V324ZM412.2 239.2h-2.8v2.8h2.8v-2.8ZM412.2 244h-2.8v2.7h2.8V244ZM412.2 248.6h-2.8v2.8h2.8v-2.8ZM412.2 253.3h-2.8v2.8h2.8v-2.8ZM412.2 258h-2.8v2.9h2.8V258ZM412.2 262.8h-2.8v2.8h2.8v-2.9ZM412.2 267.4h-2.8v2.9h2.8v-2.9ZM412.2 272.2h-2.8v2.8h2.8v-2.8ZM412.2 276.9h-2.8v2.8h2.8v-2.8ZM412.2 281.6h-2.8v2.8h2.8v-2.8ZM412.2 286.3h-2.8v2.8h2.8v-2.8ZM412.2 291h-2.8v2.8h2.8V291ZM412.2 295.7h-2.8v2.8h2.8v-2.8ZM412.2 300.4h-2.8v2.8h2.8v-2.8ZM412.2 305.1h-2.8v2.8h2.8v-2.8ZM416.7 239.2h-2.8v2.8h2.8v-2.8ZM416.7 244h-2.8v2.7h2.8V244ZM416.7 248.6h-2.8v2.8h2.8v-2.8ZM416.7 253.3h-2.8v2.8h2.8v-2.8ZM416.7 258h-2.8v2.9h2.8V258ZM416.7 262.8h-2.8v2.8h2.8v-2.9ZM416.7 267.4h-2.8v2.9h2.8v-2.9ZM416.7 272.2h-2.8v2.8h2.8v-2.8ZM416.7 276.9h-2.8v2.8h2.8v-2.8ZM416.7 281.6h-2.8v2.8h2.8v-2.8ZM416.7 286.3h-2.8v2.8h2.8v-2.8ZM416.7 291h-2.8v2.8h2.8V291ZM416.7 295.7h-2.8v2.8h2.8v-2.8ZM421.1 239.2h-2.8v2.8h2.8v-2.8ZM421.1 244h-2.8v2.7h2.8V244ZM421.1 248.6h-2.8v2.8h2.8v-2.8ZM421.1 253.3h-2.8v2.8h2.8v-2.8ZM421.1 258h-2.8v2.9h2.8V258ZM421.1 262.8h-2.8v2.8h2.8v-2.9ZM421.1 267.4h-2.8v2.9h2.8v-2.9ZM421.1 272.2h-2.8v2.8h2.8v-2.8ZM421.1 276.9h-2.8v2.8h2.8v-2.8ZM421.1 281.6h-2.8v2.8h2.8v-2.8ZM421.1 286.3h-2.8v2.8h2.8v-2.8ZM421.1 291h-2.8v2.8h2.8V291ZM93.4 273.6h-2.8v2.8h2.8v-2.8ZM93.4 278.3h-2.8v2.8h2.8v-2.8ZM93.4 283h-2.8v2.8h2.8V283ZM93.4 287.7h-2.8v2.8h2.8v-2.8ZM93.4 292.4h-2.8v2.8h2.8v-2.8ZM93.4 297.1h-2.8v2.8h2.8v-2.8ZM93.4 301.8h-2.8v2.8h2.8v-2.8ZM93.4 306.5h-2.8v2.8h2.8v-2.8ZM93.4 311.2h-2.8v2.8h2.8v-2.8ZM93.4 316h-2.8v2.8h2.8v-2.9ZM93.4 320.6h-2.8v2.9h2.8v-2.9ZM93.4 325.4h-2.8v2.8h2.8v-2.8ZM93.4 330h-2.8v2.9h2.8V330ZM93.4 334.8h-2.8v2.8h2.8v-2.8ZM93.4 339.5h-2.8v2.8h2.8v-2.8ZM93.4 344.2h-2.8v2.8h2.8v-2.8ZM93.4 348.9h-2.8v2.8h2.8V349ZM93.4 353.6h-2.8v2.8h2.8v-2.8ZM93.4 358.3h-2.8v2.8h2.8v-2.8ZM93.4 363h-2.8v2.8h2.8V363ZM97.8 273.6H95v2.8h2.8v-2.8ZM97.8 278.3H95v2.8h2.8v-2.8ZM97.8 283H95v2.8h2.8V283ZM97.8 287.7H95v2.8h2.8v-2.8ZM97.8 292.4H95v2.8h2.8v-2.8ZM97.8 297.1H95v2.8h2.8v-2.8ZM97.8 301.8H95v2.8h2.8v-2.8ZM97.8 306.5H95v2.8h2.8v-2.8ZM97.8 311.2H95v2.8h2.8v-2.8ZM97.8 316H95v2.8h2.8v-2.9ZM97.8 320.6H95v2.9h2.8v-2.9ZM97.8 325.4H95v2.8h2.8v-2.8ZM97.8 330H95v2.9h2.8V330ZM97.8 334.8H95v2.8h2.8v-2.8ZM97.8 339.5H95v2.8h2.8v-2.8ZM97.8 344.2H95v2.8h2.8v-2.8ZM97.8 348.9H95v2.8h2.8V349ZM97.8 353.6H95v2.8h2.8v-2.8ZM102.3 273.6h-2.8v2.8h2.8v-2.8ZM102.3 278.3h-2.8v2.8h2.8v-2.8ZM102.3 283h-2.8v2.8h2.8V283ZM102.3 287.7h-2.8v2.8h2.8v-2.8ZM102.3 292.4h-2.8v2.8h2.8v-2.8ZM102.3 297.1h-2.8v2.8h2.8v-2.8ZM102.3 301.8h-2.8v2.8h2.8v-2.8ZM102.3 306.5h-2.8v2.8h2.8v-2.8ZM102.3 311.2h-2.8v2.8h2.8v-2.8ZM102.3 316h-2.8v2.8h2.8v-2.9ZM102.3 320.6h-2.8v2.9h2.8v-2.9ZM102.3 325.4h-2.8v2.8h2.8v-2.8ZM102.3 330h-2.8v2.9h2.8V330ZM102.3 334.8h-2.8v2.8h2.8v-2.8ZM102.3 339.5h-2.8v2.8h2.8v-2.8ZM102.3 344.2h-2.8v2.8h2.8v-2.8ZM102.3 348.9h-2.8v2.8h2.8V349ZM102.3 353.6h-2.8v2.8h2.8v-2.8ZM76.7 308h-2.8v2.7h2.8V308ZM76.7 312.6h-2.8v2.8h2.8v-2.8ZM76.7 317.4h-2.8v2.8h2.8v-2.8ZM76.7 322h-2.8v2.9h2.8V322ZM76.7 326.8h-2.8v2.8h2.8v-2.8ZM76.7 331.5h-2.8v2.8h2.8v-2.8ZM76.7 336.2h-2.8v2.8h2.8v-2.8ZM76.7 340.9h-2.8v2.8h2.8v-2.8ZM76.7 345.6h-2.8v2.8h2.8v-2.8ZM76.7 350.3h-2.8v2.8h2.8v-2.8ZM76.7 355h-2.8v2.8h2.8V355ZM76.7 359.7h-2.8v2.8h2.8v-2.8ZM76.7 364.4h-2.8v2.8h2.8v-2.8ZM81.1 308h-2.8v2.7h2.8V308ZM81.1 312.6h-2.8v2.8h2.8v-2.8ZM81.1 317.4h-2.8v2.8h2.8v-2.8ZM81.1 322h-2.8v2.9h2.8V322ZM81.1 326.8h-2.8v2.8h2.8v-2.8ZM81.1 331.5h-2.8v2.8h2.8v-2.8ZM81.1 336.2h-2.8v2.8h2.8v-2.8ZM81.1 340.9h-2.8v2.8h2.8v-2.8ZM81.1 345.6h-2.8v2.8h2.8v-2.8ZM81.1 350.3h-2.8v2.8h2.8v-2.8ZM81.1 355h-2.8v2.8h2.8V355ZM81.1 359.7h-2.8v2.8h2.8v-2.8ZM81.1 364.4h-2.8v2.8h2.8v-2.8ZM85.6 308h-2.8v2.7h2.8V308ZM85.6 312.6h-2.8v2.8h2.8v-2.8ZM85.6 317.4h-2.8v2.8h2.8v-2.8ZM85.6 322h-2.8v2.9h2.8V322ZM85.6 326.8h-2.8v2.8h2.8v-2.8ZM85.6 331.5h-2.8v2.8h2.8v-2.8ZM85.6 336.2h-2.8v2.8h2.8v-2.8ZM85.6 340.9h-2.8v2.8h2.8v-2.8ZM85.6 345.6h-2.8v2.8h2.8v-2.8ZM85.6 350.3h-2.8v2.8h2.8v-2.8ZM85.6 355h-2.8v2.8h2.8V355ZM85.6 359.7h-2.8v2.8h2.8v-2.8ZM85.6 364.4h-2.8v2.8h2.8v-2.8ZM85.6 369.1h-2.8v2.8h2.8v-2.8ZM110.4 309.3h-2.8v2.8h2.8v-2.8ZM110.4 314h-2.8v2.9h2.8V314ZM110.4 318.8h-2.8v2.8h2.8v-2.9ZM110.4 323.5h-2.8v2.8h2.8v-2.8ZM110.4 328.2h-2.8v2.8h2.8v-2.8ZM110.4 332.9h-2.8v2.8h2.8v-2.8ZM110.4 337.6h-2.8v2.8h2.8v-2.8ZM110.4 342.3h-2.8v2.8h2.8v-2.8ZM110.4 347h-2.8v2.8h2.8V347ZM110.4 351.7h-2.8v2.8h2.8v-2.8ZM110.4 365.8h-2.8v2.8h2.8v-2.8ZM114.8 309.3H112v2.8h2.8v-2.8ZM114.8 314H112v2.9h2.8V314ZM114.8 318.8H112v2.8h2.8v-2.9ZM114.8 323.5H112v2.8h2.8v-2.8ZM114.8 328.2H112v2.8h2.8v-2.8ZM114.8 332.9H112v2.8h2.8v-2.8ZM114.8 337.6H112v2.8h2.8v-2.8ZM114.8 342.3H112v2.8h2.8v-2.8ZM114.8 347H112v2.8h2.8V347ZM114.8 361.1H112v2.8h2.8v-2.8ZM114.8 365.8H112v2.8h2.8v-2.8ZM119.3 309.3h-2.8v2.8h2.8v-2.8ZM119.3 314h-2.8v2.9h2.8V314ZM119.3 318.8h-2.8v2.8h2.8v-2.9ZM119.3 323.5h-2.8v2.8h2.8v-2.8ZM119.3 328.2h-2.8v2.8h2.8v-2.8ZM119.3 332.9h-2.8v2.8h2.8v-2.8ZM119.3 337.6h-2.8v2.8h2.8v-2.8ZM119.3 342.3h-2.8v2.8h2.8v-2.8ZM119.3 356.4h-2.8v2.8h2.8v-2.8ZM119.3 361.1h-2.8v2.8h2.8v-2.8ZM119.3 365.8h-2.8v2.8h2.8v-2.8ZM160.8 237.8H158v2.8h2.8v-2.8ZM160.8 242.5H158v2.8h2.8v-2.8ZM160.8 247.2H158v2.8h2.8v-2.8ZM160.8 252H158v2.7h2.8V252ZM160.8 256.6H158v2.8h2.8v-2.8ZM160.8 261.3H158v2.8h2.8v-2.8ZM160.8 266H158v2.9h2.8V266ZM160.8 270.8H158v2.8h2.8v-2.8ZM160.8 275.5H158v2.8h2.8v-2.8ZM160.8 280.2H158v2.8h2.8v-2.8ZM160.8 284.9H158v2.8h2.8v-2.8ZM160.8 289.6H158v2.8h2.8v-2.8ZM160.8 294.3H158v2.8h2.8v-2.8ZM160.8 299H158v2.8h2.8V299ZM160.8 303.7H158v2.8h2.8v-2.8ZM160.8 308.4H158v2.8h2.8v-2.8ZM160.8 313.1H158v2.8h2.8v-2.8ZM160.8 322.6H158v2.8h2.8v-2.8ZM160.8 327.3H158v2.8h2.8v-2.8ZM160.8 332H158v2.8h2.8V332ZM160.8 336.7H158v2.8h2.8v-2.8ZM160.8 341.4H158v2.8h2.8v-2.8ZM165.2 237.8h-2.8v2.8h2.8v-2.8ZM165.2 242.5h-2.8v2.8h2.8v-2.8ZM165.2 247.2h-2.8v2.8h2.8v-2.8ZM165.2 252h-2.8v2.7h2.8V252ZM165.2 256.6h-2.8v2.8h2.8v-2.8ZM165.2 261.3h-2.8v2.8h2.8v-2.8ZM165.2 266h-2.8v2.9h2.8V266ZM165.2 270.8h-2.8v2.8h2.8v-2.8ZM165.2 275.5h-2.8v2.8h2.8v-2.8ZM165.2 280.2h-2.8v2.8h2.8v-2.8ZM165.2 284.9h-2.8v2.8h2.8v-2.8ZM165.2 289.6h-2.8v2.8h2.8v-2.8ZM165.2 294.3h-2.8v2.8h2.8v-2.8ZM165.2 299h-2.8v2.8h2.8V299ZM165.2 303.7h-2.8v2.8h2.8v-2.8ZM165.2 308.4h-2.8v2.8h2.8v-2.8ZM165.2 336.7h-2.8v2.8h2.8v-2.8ZM165.2 341.4h-2.8v2.8h2.8v-2.8ZM169.7 237.8h-2.8v2.8h2.8v-2.8ZM169.7 242.5h-2.8v2.8h2.8v-2.8ZM169.7 247.2h-2.8v2.8h2.8v-2.8ZM169.7 252h-2.8v2.7h2.8V252ZM169.7 256.6h-2.8v2.8h2.8v-2.8ZM169.7 261.3h-2.8v2.8h2.8v-2.8ZM169.7 266h-2.8v2.9h2.8V266ZM169.7 270.8h-2.8v2.8h2.8v-2.8ZM169.7 275.5h-2.8v2.8h2.8v-2.8ZM169.7 280.2h-2.8v2.8h2.8v-2.8ZM169.7 284.9h-2.8v2.8h2.8v-2.8ZM169.7 289.6h-2.8v2.8h2.8v-2.8ZM169.7 294.3h-2.8v2.8h2.8v-2.8ZM169.7 299h-2.8v2.8h2.8V299ZM169.7 303.7h-2.8v2.8h2.8v-2.8ZM169.7 308.4h-2.8v2.8h2.8v-2.8ZM169.7 317.8h-2.8v2.8h2.8v-2.8ZM169.7 322.6h-2.8v2.8h2.8v-2.8ZM169.7 327.3h-2.8v2.8h2.8v-2.8ZM169.7 332h-2.8v2.8h2.8V332ZM169.7 341.4h-2.8v2.8h2.8v-2.8ZM144.6 297.1h-2.8v2.8h2.8v-2.8ZM144.6 301.8h-2.8v2.8h2.8v-2.8ZM144.6 306.5h-2.8v2.8h2.8v-2.8ZM144.6 311.2h-2.8v2.8h2.8v-2.8ZM144.6 316h-2.8v2.8h2.8v-2.9ZM144.6 320.6h-2.8v2.9h2.8v-2.9ZM144.6 325.4h-2.8v2.8h2.8v-2.8ZM144.6 334.8h-2.8v2.8h2.8v-2.8ZM144.6 339.5h-2.8v2.8h2.8v-2.8ZM144.6 344.2h-2.8v2.8h2.8v-2.8ZM144.6 348.9h-2.8v2.8h2.8V349ZM144.6 353.6h-2.8v2.8h2.8v-2.8ZM144.6 358.3h-2.8v2.8h2.8v-2.8ZM144.6 363h-2.8v2.8h2.8V363ZM144.6 367.7h-2.8v2.9h2.8v-2.9ZM149 297.1h-2.8v2.8h2.8v-2.8ZM149 301.8h-2.8v2.8h2.8v-2.8ZM149 306.5h-2.8v2.8h2.8v-2.8ZM149 311.2h-2.8v2.8h2.8v-2.8ZM149 316h-2.8v2.8h2.8v-2.9ZM149 320.6h-2.8v2.9h2.8v-2.9ZM149 334.8h-2.8v2.8h2.8v-2.8ZM149 339.5h-2.8v2.8h2.8v-2.8ZM149 344.2h-2.8v2.8h2.8v-2.8ZM149 348.9h-2.8v2.8h2.8V349ZM149 353.6h-2.8v2.8h2.8v-2.8ZM149 358.3h-2.8v2.8h2.8v-2.8ZM149 363h-2.8v2.8h2.8V363ZM149 367.7h-2.8v2.9h2.8v-2.9ZM153.5 297.1h-2.8v2.8h2.8v-2.8ZM153.5 301.8h-2.8v2.8h2.8v-2.8ZM153.5 306.5h-2.8v2.8h2.8v-2.8ZM153.5 311.2h-2.8v2.8h2.8v-2.8ZM153.5 316h-2.8v2.8h2.8v-2.9ZM153.5 320.6h-2.8v2.9h2.8v-2.9ZM153.5 330h-2.8v2.9h2.8V330ZM153.5 334.8h-2.8v2.8h2.8v-2.8ZM153.5 339.5h-2.8v2.8h2.8v-2.8ZM153.5 344.2h-2.8v2.8h2.8v-2.8ZM153.5 348.9h-2.8v2.8h2.8V349ZM153.5 353.6h-2.8v2.8h2.8v-2.8ZM153.5 358.3h-2.8v2.8h2.8v-2.8ZM153.5 363h-2.8v2.8h2.8V363ZM153.5 367.7h-2.8v2.9h2.8v-2.9ZM247.5 270.8h-2.8v2.8h2.8v-2.8ZM247.5 275.5h-2.8v2.8h2.8v-2.8ZM247.5 280.2h-2.8v2.8h2.8v-2.8ZM247.5 284.9h-2.8v2.8h2.8v-2.8ZM247.5 289.6h-2.8v2.8h2.8v-2.8ZM247.5 294.3h-2.8v2.8h2.8v-2.8ZM247.5 299h-2.8v2.8h2.8V299ZM247.5 303.7h-2.8v2.8h2.8v-2.8ZM247.5 308.4h-2.8v2.8h2.8v-2.8ZM247.5 313.1h-2.8v2.8h2.8v-2.8ZM247.5 317.8h-2.8v2.8h2.8v-2.8ZM247.5 322.6h-2.8v2.8h2.8v-2.8ZM247.5 327.3h-2.8v2.8h2.8v-2.8ZM247.5 336.7h-2.8v2.8h2.8v-2.8ZM247.5 341.4h-2.8v2.8h2.8v-2.8ZM247.5 346h-2.8v2.9h2.8v-2.8ZM247.5 350.8h-2.8v2.8h2.8v-2.8ZM247.5 360.2h-2.8v2.8h2.8v-2.8ZM247.5 365h-2.8v2.7h2.8V365ZM247.5 369.6h-2.8v2.8h2.8v-2.8ZM252 270.8h-2.8v2.8h2.8v-2.8ZM252 275.5h-2.8v2.8h2.8v-2.8ZM252 280.2h-2.8v2.8h2.8v-2.8ZM252 284.9h-2.8v2.8h2.8v-2.8ZM252 289.6h-2.8v2.8h2.8v-2.8ZM252 294.3h-2.8v2.8h2.8v-2.8ZM252 299h-2.8v2.8h2.8V299ZM252 303.7h-2.8v2.8h2.8v-2.8ZM252 308.4h-2.8v2.8h2.8v-2.8ZM252 313.1h-2.8v2.8h2.8v-2.8ZM252 317.8h-2.8v2.8h2.8v-2.8ZM252 322.6h-2.8v2.8h2.8v-2.8ZM252 327.3h-2.8v2.8h2.8v-2.8ZM252 341.4h-2.8v2.8h2.8v-2.8ZM252 346h-2.8v2.9h2.8v-2.8ZM252 355.5h-2.8v2.8h2.8v-2.8ZM252 360.2h-2.8v2.8h2.8v-2.8ZM252 365h-2.8v2.7h2.8V365ZM252 369.6h-2.8v2.8h2.8v-2.8ZM256.4 270.8h-2.8v2.8h2.8v-2.8ZM256.4 275.5h-2.8v2.8h2.8v-2.8ZM256.4 280.2h-2.8v2.8h2.8v-2.8ZM256.4 284.9h-2.8v2.8h2.8v-2.8ZM256.4 289.6h-2.8v2.8h2.8v-2.8ZM256.4 294.3h-2.8v2.8h2.8v-2.8ZM256.4 299h-2.8v2.8h2.8V299ZM256.4 303.7h-2.8v2.8h2.8v-2.8ZM256.4 308.4h-2.8v2.8h2.8v-2.8ZM256.4 313.1h-2.8v2.8h2.8v-2.8ZM256.4 317.8h-2.8v2.8h2.8v-2.8ZM256.4 322.6h-2.8v2.8h2.8v-2.8ZM256.4 327.3h-2.8v2.8h2.8v-2.8ZM256.4 332h-2.8v2.8h2.8V332ZM256.4 341.4h-2.8v2.8h2.8v-2.8ZM256.4 350.8h-2.8v2.8h2.8v-2.8ZM256.4 355.5h-2.8v2.8h2.8v-2.8ZM256.4 360.2h-2.8v2.8h2.8v-2.8ZM256.4 365h-2.8v2.7h2.8V365ZM256.4 369.6h-2.8v2.8h2.8v-2.8ZM229.3 297.6h-2.8v2.8h2.8v-2.8ZM229.3 302.3h-2.8v2.8h2.8v-2.8ZM229.3 307h-2.8v2.8h2.8V307ZM229.3 311.7h-2.8v2.8h2.8v-2.8ZM229.3 316.4h-2.8v2.9h2.8v-2.9ZM229.3 321.1h-2.8v2.9h2.8V321ZM229.3 335.3h-2.8v2.8h2.8v-2.8ZM229.3 340h-2.8v2.8h2.8V340ZM229.3 344.7h-2.8v2.8h2.8v-2.8ZM229.3 349.4h-2.8v2.8h2.8v-2.8ZM229.3 354.1h-2.8v2.8h2.8v-2.8ZM229.3 358.8h-2.8v2.8h2.8v-2.8ZM229.3 363.5h-2.8v2.8h2.8v-2.8ZM233.8 297.6H231v2.8h2.8v-2.8ZM233.8 302.3H231v2.8h2.8v-2.8ZM233.8 307H231v2.8h2.8V307ZM233.8 311.7H231v2.8h2.8v-2.8ZM233.8 316.4H231v2.9h2.8v-2.9ZM233.8 321.1H231v2.9h2.8V321ZM233.8 335.3H231v2.8h2.8v-2.8ZM233.8 340H231v2.8h2.8V340ZM233.8 344.7H231v2.8h2.8v-2.8ZM233.8 349.4H231v2.8h2.8v-2.8ZM233.8 354.1H231v2.8h2.8v-2.8ZM233.8 358.8H231v2.8h2.8v-2.8ZM233.8 368.2H231v2.8h2.8v-2.8ZM382 276.9h-2.8v2.8h2.8v-2.8ZM382 281.6h-2.8v2.8h2.8v-2.8ZM382 286.3h-2.8v2.8h2.8v-2.8ZM382 291h-2.8v2.8h2.8V291ZM382 295.7h-2.8v2.8h2.8v-2.8ZM382 300.4h-2.8v2.8h2.8v-2.8ZM382 305.1h-2.8v2.8h2.8v-2.8ZM382 309.8h-2.8v2.8h2.8v-2.8ZM382 314.5h-2.8v2.9h2.8v-2.9ZM382 319.3h-2.8v2.8h2.8v-2.9ZM382 324h-2.8v2.8h2.8V324ZM382 333.4h-2.8v2.8h2.8v-2.8ZM382 338h-2.8v2.9h2.8V338ZM382 342.8h-2.8v2.8h2.8v-2.8ZM382 347.5h-2.8v2.8h2.8v-2.8ZM382 352.2h-2.8v2.8h2.8v-2.8ZM382 357h-2.8v2.7h2.8V357ZM382 361.6h-2.8v2.8h2.8v-2.8ZM382 366.3h-2.8v2.8h2.8v-2.8ZM386.4 276.9h-2.8v2.8h2.8v-2.8ZM386.4 281.6h-2.8v2.8h2.8v-2.8ZM386.4 286.3h-2.8v2.8h2.8v-2.8ZM386.4 291h-2.8v2.8h2.8V291ZM386.4 295.7h-2.8v2.8h2.8v-2.8ZM386.4 300.4h-2.8v2.8h2.8v-2.8ZM386.4 305.1h-2.8v2.8h2.8v-2.8ZM386.4 309.8h-2.8v2.8h2.8v-2.8ZM386.4 314.5h-2.8v2.9h2.8v-2.9ZM386.4 319.3h-2.8v2.8h2.8v-2.9ZM386.4 324h-2.8v2.8h2.8V324ZM386.4 328.7h-2.8v2.8h2.8v-2.8ZM386.4 333.4h-2.8v2.8h2.8v-2.8ZM386.4 338h-2.8v2.9h2.8V338ZM386.4 342.8h-2.8v2.8h2.8v-2.8ZM386.4 347.5h-2.8v2.8h2.8v-2.8ZM386.4 352.2h-2.8v2.8h2.8v-2.8ZM386.4 357h-2.8v2.7h2.8V357ZM386.4 361.6h-2.8v2.8h2.8v-2.8ZM386.4 366.3h-2.8v2.8h2.8v-2.8ZM360 295.2h-2.8v2.8h2.8v-2.8ZM360 300h-2.8v2.7h2.8V300ZM360 304.6h-2.8v2.8h2.8v-2.8ZM360 309.3h-2.8v2.8h2.8v-2.8ZM360 314h-2.8v2.9h2.8V314ZM360 318.8h-2.8v2.8h2.8v-2.9ZM360 323.5h-2.8v2.8h2.8v-2.8ZM360 328.2h-2.8v2.8h2.8v-2.8ZM360 332.9h-2.8v2.8h2.8v-2.8ZM360 337.6h-2.8v2.8h2.8v-2.8ZM364.5 295.2h-2.8v2.8h2.8v-2.8ZM364.5 300h-2.8v2.7h2.8V300ZM364.5 304.6h-2.8v2.8h2.8v-2.8ZM364.5 309.3h-2.8v2.8h2.8v-2.8ZM364.5 314h-2.8v2.9h2.8V314ZM364.5 318.8h-2.8v2.8h2.8v-2.9ZM364.5 323.5h-2.8v2.8h2.8v-2.8ZM364.5 328.2h-2.8v2.8h2.8v-2.8ZM364.5 332.9h-2.8v2.8h2.8v-2.8Z" fill="#B0ABAB" fill-opacity=".5"/><path d="M250 427.6c107 0 193.9-5.1 193.9-11.4C443.9 410 357 405 250 405c-107 0-193.9 5-193.9 11.3 0 6.3 86.8 11.4 193.9 11.4Z" fill="#6C6C6C" fill-opacity=".2"/><path d="M419.3 409 406 343.4h-5L387.8 409l-9.7 5.9v1.7h50.4V415l-9.4-6Z" fill="#5A81FA"/><path opacity=".2" d="M428.6 414.9h-50.4v2.2h50.4v-2.2ZM406 343.4h-5l-13.3 65.4h31.4l-13-65.4Z" fill="#fff"/><path opacity=".6" d="m414.9 387.6-3-15.1H395l-3 15h22.8Z" fill="#fff"/><path d="m114.7 409-13.2-65.6h-5L83.3 409l-9.6 5.9v1.7H124V415l-9.4-6Z" fill="#5A81FA"/><path opacity=".2" d="M124 414.9H73.8v2.2H124v-2.2ZM101.5 343.4h-5l-13.3 65.4h31.4l-13-65.4Z" fill="#fff"/><path opacity=".6" d="m110.3 387.6-3-15.1H90.6l-3 15h22.7Z" fill="#fff"/><path d="m362.2 409 8.4.2a.6.6 0 0 1 .6.5l1.2 6.2a1 1 0 0 1-.1.7 1 1 0 0 1-.7.5h-.2l-8.1-.4h-11.4c-2.9 0-3.2-2.9-2-3.1 5.3-1.1 9.4-2.7 11.1-4.2.3-.2.7-.4 1.2-.3ZM291.3 409l8.4.2a.6.6 0 0 1 .6.5l1.3 6.2a1 1 0 0 1-.9 1.2h-.2l-8-.4H281c-3 0-3.3-2.9-2-3.1 5.3-1.1 9.3-2.7 11-4.2.4-.2.8-.4 1.2-.3Z" fill="#263238"/><path d="M372.5 409.5H361s-14.6-48-15.8-60.3c-1.3-12.3-1.7-43-1.7-43a1755.9 1755.9 0 0 0-25.6 36.7c-4.7 8-16.3 66.6-16.3 66.6h-11.5s2.9-52.5 8.8-69.8c5.9-17.3 31.3-55 32.4-57.1 1.4-2.6 4.9-10.8 4.9-10.8l34.3 4.8s.5 5.8.5 10.8c-.2 19.1-3.8 44.9-4.4 51.8-1 13.2 5.9 70.3 5.9 70.3Z" fill="#5A81FA"/><path d="M344.3 216.4s-10.3 18.3-8.1 55.4l34.3 4.8c1-5.3 1.2-31.4 9.7-55.5a91.4 91.4 0 0 0-36-4.7Z" fill="#263238"/><path opacity=".2" d="m336.2 271.8 34.3 4.8c.6-3.3 1-14.8 3.2-28.9a171 171 0 0 1 6.5-26.6A89.4 89.4 0 0 0 369 218a66.8 66.8 0 0 0-24.7-1.6s-10.3 18.3-8.1 55.4Z" fill="#fff"/><path d="M365.3 199.8c-.7 4.8-1.2 13.5 2.3 16.5-4.5 2.1-7.7 3.6-11.4 7.2L353 217c5.2-1.5 4.8-5.4 3.7-9l8.7-8.2Z" fill="#E4897B"/><path opacity=".2" d="m361.8 203.1-5.2 4.9c.3.8.5 1.7.6 2.6 2-.4 4.7-2.8 4.8-4.9a7 7 0 0 0-.2-2.6Z" fill="#000"/><path opacity=".5" d="M372.5 409.5H361s-14.6-48-15.8-60.3c-1.3-12.3-1.7-43-1.7-43a1755.9 1755.9 0 0 0-25.6 36.7c-4.7 8-16.3 66.6-16.3 66.6h-11.5s2.9-52.5 8.8-69.8c5.9-17.3 31.3-55 32.4-57.1 1.4-2.6 4.9-10.8 4.9-10.8l34.3 4.8s.5 5.8.5 10.8c-.2 19.1-3.8 44.9-4.4 51.8-1 13.2 5.9 70.3 5.9 70.3Z" fill="#fff"/><path d="m373.2 219-2.8-3.6-9.2 1.8-4.7 5.4-.6-6.2-1.8-2.1-3.7 1.6v4l2.7-1 2.3 5.4 7.4-3 1.6 2.1 8.8-4.4Z" fill="#263238"/><path opacity=".3" d="m373.2 219-2.8-3.6-9.2 1.8-4.7 5.4-.6-6.2-1.8-2.1-3.7 1.6v4l2.7-1 2.3 5.4 7.4-3 1.6 2.1 8.8-4.4Z" fill="#fff"/><path d="M348.4 225.6c-9.5 0-19-.7-28.4-2-8.2-2.2-15.6-13.4-19.7-20.4l3.9-2.7c5 5.2 10 11 16.2 14.4.5.3 1 .4 1.5.4 8.8.4 18 .4 26.8.8l-.3 9.5Z" fill="#DC897C"/><path d="M352.2 229.6c-5 3.7-24.4-1.8-24.4-1.8l2.4-12c5.5-.5 11-.4 16.5.4 8.3 1.4 11 9.3 5.5 13.4Z" fill="#263238"/><path opacity=".2" d="M352.2 229.6c-5 3.7-24.4-1.8-24.4-1.8l2.4-12c5.5-.5 11-.4 16.5.4 8.3 1.4 11 9.3 5.5 13.4Z" fill="#fff"/><path opacity=".1" d="M351.6 230c.4-2.8-1.4-5.2-6.8-6.5-5.3-1.1-10.7-1.4-16-.8l-1 5.1s18 5.2 23.8 2.2Z" fill="#000"/><path d="m307 204.3-3.8-8.4-6.7 4.4s1.8 6.3 7.1 6.8l3.4-2.8Z" fill="#E4897B"/><path d="m298 191.8-4.2 4.5 2.7 4 6.7-4.4-5.1-4Z" fill="#E4897B"/><path opacity=".1" d="m355.4 224.3-.9-6.4-4.1 2 2.7-1 2.3 5.4ZM355.4 224.3l6.8-5 2.2 4.1-1.6-2-7.4 3ZM373.7 247.8a171 171 0 0 1 2.2-11.7 7.2 7.2 0 0 0-4.4-2.6s-1 9 2.2 14.3Z" fill="#000"/><path opacity=".2" d="m343.5 306.2-9.8 13.9a19.6 19.6 0 0 1 9.6-19.5l.2 5.6Z" fill="#000"/><path d="m366.3 226.4-10.6 2.8-3.7-14.6-25.3 6.6-3.7 4.5 12.8-49-27.6 7.2-7 5.3-18.6 67.2 5.2 20.4 41.3-10.7 4.2 16.4 26-6.8 7-5.3-3.4-13 2.8-.7 7-5.4-6.4-24.9Zm-43.7 11.3-3 .8 1.7-6 1.3 5.2Z" fill="#5A81FA"/><path opacity=".2" d="m326.6 179.1-18.3 4.8 18.3-4.8ZM330.5 235.7l-3.8-14.5-3.7 4.5 5.7-21.9-7.6 29.2.2-.5 1.3 5.2-3 .8 10.9-2.8Z" fill="#000"/><path opacity=".2" d="m340.3 277-4.2-16.2-41.3 10.6-5.2-20.4 18.7-67.1-7 5.3-18.7 67.2 5.2 20.4 41.3-10.7 4.2 16.4 26-6.8 7-5.3-26 6.7ZM372.7 251.3l-10.5 2.8 2.8 10.8-2-7.5 2.7-.7 7-5.4-3.2-12.4 3.2 12.4Z" fill="#000"/><path d="M384.2 226.8c1 4.1 1.6 8.3 2.1 12.5.6 5.4 1.3 11.3.1 17-3.4 10.4-18.4 4.3-25 1l1.6-4.3c4.8.8 9.5 1.8 14 1.3.6 0 1.1-.2 1.6-.5h-.2l-.3.5v-1c0-8.2-1.8-16.6-3.2-24.7l9.3-1.9Z" fill="#DC897C"/><path d="M380.2 221c9.3 4 8.7 25.9 8.7 25.9l-12.6.9c-2.4-5.5-4.3-11.1-5.8-17-1.9-8.1 3.6-12.3 9.7-9.7Z" fill="#263238"/><path opacity=".2" d="M380.2 221c9.3 4 8.7 25.9 8.7 25.9l-12.6.9c-2.4-5.5-4.3-11.1-5.8-17-1.9-8.1 3.6-12.3 9.7-9.7Z" fill="#fff"/><path d="m365.6 253.6-7-6-4.2 7s4.3 4.8 9.4 3l1.8-4ZM352.1 246.2l-1.9 6 4.2 2.4 4.1-7-6.4-1.4Z" fill="#E4897B"/><path d="M350.6 184.5c-3 1.8-4 11 .2 12.6 4.3 1.5 5.6-15.9-.2-12.6Z" fill="#263238"/><path d="M366.2 193c-.8 6.5-1 10.3-4.5 13.5a8.5 8.5 0 0 1-14.2-4.8c-1-5.9.5-15.5 7-17.9a8.6 8.6 0 0 1 11.7 9.2Z" fill="#E4897B"/><path d="m359.5 185.8-.1-5.6c1.4.5 3 .6 4.5.2 6.5-2.1 11.8 1.7 9 5.6 3.3 1.1 2 5.5 0 8.4-2.5 4-5.4 6-7.7 4.5-2-.8-2.8-7.3-2.4-9.8.7-3.8-3.3-3.3-3.3-3.3Z" fill="#263238"/><path d="M368.2 199.5a7 7 0 0 1-3.8 2.7c-2 .6-2.6-1.3-1.7-3.1.8-1.7 2.7-4 4.6-3.7 1.8.3 2 2.4 1 4Z" fill="#E4897B"/><path d="M356.2 194.5c0 .6-.3 1-.7 1-.3 0-.6-.5-.5-1 0-.6.3-1 .7-1 .3 0 .6.5.5 1ZM350.3 194.4c0 .5-.4 1-.7.9-.4 0-.6-.4-.6-1s.3-1 .7-1c.3.1.6.5.6 1Z" fill="#263238"/><path d="M352.1 194.7c-.7 1.6-1.6 3-2.8 4.4a3 3 0 0 0 2.5.6l.3-5Z" fill="#DE5753"/><path d="m358.2 192.7.1-.1a.3.3 0 0 0 .1-.4 3 3 0 0 0-2.4-1.4.3.3 0 0 0-.2.1l-.1.1v.1a.3.3 0 0 0 .3.3 2.4 2.4 0 0 1 2 1.1v.1h.2ZM347.8 192.2a.3.3 0 0 0 .3-.1 2.6 2.6 0 0 1 1.8-1.4.3.3 0 0 0 .3-.2v-.2a.3.3 0 0 0-.2-.2h-.2a3.2 3.2 0 0 0-2.3 1.7V192.2h.1l.2.1ZM364.4 181s-5.8-8.1-14-5.1c.8 0 1.6.3 2.4.7 0 0-7.5.4-9.1 5.9l1.3-1s-1.3 4.6 1.3 7.1l.3-1.5s3.5 3.3 7.9 1.6l-1.7-.5s7.8-1.4 9.4-3.6c.9-1.1 1.6-2.3 2.2-3.5ZM350.8 201.6a42 42 0 0 1 7.8-2c-.4 1.9-1.4 3.5-4.4 4a2.8 2.8 0 0 1-3.4-2Z" fill="#263238"/><path d="M355.4 202c-1.2.2-2.3.7-3.1 1.5.6.3 1.3.4 2 .2 1.1-.1 2.2-.7 3-1.4-.6-.3-1.3-.4-2-.2Z" fill="#A02724"/><path d="M351 201.5a1.2 1.2 0 0 0 1 .7 31.8 31.8 0 0 0 5.8-1.8l.5-.7c-2.5.4-5 1-7.3 1.8Z" fill="#fff"/><path d="m248.7 417 8.6-.1 5 .2c1.6 0 1.6-1.6 1-3.4l-1-4.3-7.4-.6c-1 2-3.4 4.9-6.3 5.3-2.8.4-2 3 0 3ZM253.2 400c2.9-2.7 5.4-5.8 7.5-9.1 1.4-2 1.7-1.5 3.1-3.4a2.3 2.3 0 0 0-1.3-3.5c-1.3-.3-2.6-.7-3.8-1.2l-5 3.8c.9 2.3-.3 9-3 11.8-1.8 2 1 3 2.5 1.6Z" fill="#5A81FA"/><path d="M236.2 277s-14.6 41.7-16.5 57c-1.8 14.9 34.3 53.7 34.3 53.7.9.7 4.5-3.8 4.7-5-9-17.3-14.6-43-23.6-49.4 21.6-32 24.7-52.6 24.7-52.6l-23.6-3.7ZM274.4 206.7c5 7.6 4.5 11.3 2.9 26.3s3.7 21.3 1.1 28.2c-2.6 6.9-21.1 6.3-29.4-7.5-8.3-13.8 2.1-43.5 10-46.4 5-1.8 10.3-2 15.4-.6Z" fill="#263238"/><path opacity=".2" d="M246.5 291.7s-1.2 15.3-1.5 25.7c2.9-5 5.2-9.7 7-13.8l-5.5-12Z" fill="#000"/><path d="M243.3 278.1s5.4 42 8.5 62.2c3.3 21.3 3.7 55.3 2.9 69.2 1.2.7 5.5.2 7.8-.5 0 0 14.1-45.6 3.8-66.6 6.7-49-3-61.1-3-61.1l-20-3.2Z" fill="#263238"/><path d="M246.9 248.8c-4.3 5-9.4 9.3-15 12.6-10.7 6.2-13-11.6-13.4-18.5a2 2 0 0 1 4-.7c1 3 2.2 6.1 3.3 8.9.8 1.6 1.6 3.6 2.8 4.5 0-.3-1-.3-1.2-.2h-.2l1.4-1c4.3-3.3 8.3-7 12-11 3.6-3.8 9.4 1.3 6.2 5.4Z" fill="#E9B376"/><path d="M273.8 248.6a95.4 95.4 0 0 0-10.5 32.7l-27-4.3c.5-9 1-14.3 1.6-19.7.4-3.7 1-7.4 1.8-11 .8-3.9 3.8-7.8 7.5-9.1.9-.4 1.8-.5 2.7-.5a63.3 63.3 0 0 1 16.4 2.1 75 75 0 0 1 4 1 6.4 6.4 0 0 1 3.5 8.8Z" fill="#5A81FA"/><path d="M267.7 224.8c-1.7 3.8-4.2 10.8-2 13.9 0 0-3.7-1.2-12.4 2.5-1.8-3.7 0-4.5 0-4.5 4.7-.3 5.4-3.6 5.3-6.7l9-5.2Z" fill="#EBB376"/><path opacity=".2" d="m264 227-5.4 3-.1 2.2c1.7 0 4.5-1.4 5-3.1.3-.7.5-1.4.5-2.2Z" fill="#000"/><path opacity=".6" d="M273.8 248.6a224 224 0 0 0-7.2 17.4c-1.7 5-2.8 10-3.3 15.3l-27-4.3c.5-9 1-14.3 1.6-19.7.4-3.7 1-7.4 1.8-11 .8-3.9 3.8-7.8 7.5-9.1.9-.4 1.8-.5 2.7-.5a63.3 63.3 0 0 1 16.4 2.1 75 75 0 0 1 4 1 6.4 6.4 0 0 1 3.5 8.8Z" fill="#fff"/><path d="M272.3 217.4c-2.2 6.2-3 8.9-7.1 11.3-6.3 3.8-13.4.2-13-6.5.2-6 3.8-15 10.7-16.1a8.4 8.4 0 0 1 9.4 11.3Z" fill="#EBB376"/><path d="M265 203.1c-4.8 0-11.8 4.5-5.7 5.8-.1 2 3.5 2.1 6.1 1.2-.4 1.4 2 4.4 5.3 3.6-2 1-2.3 5.9 0 6.3 2.2.4 7 1.8 6.5-6.3-.4-8.1-7-10.6-12.2-10.6ZM264 217.2c-.2.5-.6.9-1 .8-.3 0-.4-.6-.2-1.1.1-.5.5-.9.9-.8.3 0 .4.6.3 1ZM257.4 215.4c-.2.5-.6 1-1 .8-.3 0-.4-.5-.3-1 .2-.6.6-1 1-.9.3.1.4.6.3 1.1Z" fill="#263238"/><path d="m257.2 214.4-1.2-.7s.4 1.2 1.2.7Z" fill="#263238"/><path d="M259 217c-.8 1.2-1.8 2.1-2.9 3a2.2 2.2 0 0 0 1.8.8l1.1-3.7Z" fill="#D58745"/><path d="M260.3 223.4a6 6 0 0 1-1-.1.2.2 0 0 1 0-.2l.2-.1a4.5 4.5 0 0 0 4-.9h.1v.2c-1 .8-2.1 1.2-3.3 1.1Z" fill="#263238"/><path d="M272.9 223c-1 1-2.3 1.7-3.7 1.7-1.8 0-2-1.9-1-3.4s2.9-3 4.4-2.3c1.5.8 1.5 2.8.3 4Z" fill="#EBB376"/><path d="M266 214.1a.3.3 0 0 1-.2-.1 2.3 2.3 0 0 0-2-1.1.3.3 0 0 1-.3-.3l.1-.3h.3a3 3 0 0 1 2.4 1.3.3.3 0 0 1 0 .5h-.3ZM255.7 211.3a.3.3 0 0 1-.2 0v-.2a.3.3 0 0 1 0-.2v-.1a3.3 3.3 0 0 1 2.8-1 .3.3 0 0 1 .2.1.3.3 0 0 1 0 .2.3.3 0 0 1-.3.3 2.7 2.7 0 0 0-2.3.8l-.2.1ZM263.8 216.2l-1.2-.7s.4 1.1 1.2.7Z" fill="#263238"/><path d="M251.5 237.4c-5.3-2-9.5.4-15.9 7.7.5 3.7 6.7 9.3 6.7 9.3s10.7-10.2 9.2-17Z" fill="#5A81FA"/><path d="M270.3 239.8a68.7 68.7 0 0 1-6.7 3l-1.8.6c-3.4 1.2-7 2-9.7 1.2a6.2 6.2 0 0 1-4.7-4.6c-.2-1-.3-2-.2-3 1-.2 1.8-.4 2.7-.4h2.1l2 .1c4.2.4 8.3 1 12.3 2h.3l.9.2 2.2.6.6.3Z" fill="#EBB376"/><path d="M267.5 239a22.6 22.6 0 0 0-3.9 3.8l-1.8.6c1.3-1.8 3-3.4 4.8-4.6l1 .2ZM252 236.7a25 25 0 0 0-4.2 4.5l-.4-1.2c1-1.2 2.1-2.3 3.4-3.3h1.2Z" fill="#263238"/><path opacity=".2" d="M267.5 239a22.6 22.6 0 0 0-3.9 3.8l-1.8.6c1.3-1.8 3-3.4 4.8-4.6l1 .2ZM252 236.7a25 25 0 0 0-4.2 4.5l-.4-1.2c1-1.2 2.1-2.3 3.4-3.3h1.2Z" fill="#fff"/><path opacity=".1" d="M271.4 253.8c-2 4.7-3.6 8.7-4.8 12.2-9.8-6-1.7-16.4-1.7-16.4 2.5.9 4.8 2.3 6.5 4.2Z" fill="#000"/><path d="M222 209.6c-23-1.4-40.7 16.5-42.5 49-.2 3-.2 5.9-.1 8.8-1 31.2 14.3 50 36.8 51.3 23.2 1.3 40.8-16.6 42.7-49 .1-3 .2-6 0-9 1-31-14.2-49.8-36.8-51.1Zm7.2 51.8c-1.1 19-5.7 24.6-11.5 24.3-4.6-.3-8.1-4.4-8.7-16l.2-2.9c1-19 5.6-24.6 11.4-24.2 4.7.2 8.1 4.3 8.7 16l-.1 2.8Z" fill="#5A81FA"/><path opacity=".2" d="M258.8 253.4v-1.5 1.5ZM179.4 266.4V265v1.3ZM179.5 258.8c1.8-32.6 19.4-50.4 42.6-49 19.5 1 33.5 15.2 36.4 39-2.8-24-16.9-38-36.4-39.2-23.2-1.3-40.8 16.5-42.6 49a75.2 75.2 0 0 0 0 .1ZM259 255.6v-.7.7ZM179.3 264.1V262v2.1ZM258.8 263.3c-1.8 32.5-19.4 50.3-42.6 49-21-1.2-35.6-17.5-36.8-44.8-1 31 14.3 49.9 36.8 51.1 23.2 1.4 40.8-16.5 42.7-49a83.2 83.2 0 0 0 0-6.3Z" fill="#000"/><path opacity=".2" d="M209.1 260.4c-1 19 2.9 25 8.6 25.4 5.8.3 10.4-5.3 11.5-24.2 1-19-2.9-25-8.6-25.4-5.8-.4-10.4 5.3-11.5 24.2Zm20.2-1.8-.1 2.8c-1.1 19-5.7 24.6-11.5 24.3-4.6-.3-8.1-4.4-8.7-16l.2-2.9c1-19 5.6-24.6 11.4-24.2 4.7.2 8.1 4.3 8.7 16Z" fill="#000"/><path d="m214.4 240 .3 1.8a2 2 0 0 0 1.1 1.5l2.8 1.4a3.9 3.9 0 0 0 3.6 0l.7-.4c-.3-3-2.8-6-2.8-6l-.6-1a1.7 1.7 0 0 0-2.4-.5l-1.8 1.2a2 2 0 0 0-.9 2ZM236.1 258.4l2-.5a2.4 2.4 0 0 1 2.1.6l2.7 2.4a4.4 4.4 0 0 1 1.4 3.8v.9c-3.3 1-7.6-.4-7.6-.4l-1.2-.3a2 2 0 0 1-1.6-2.3l.5-2.5a2.3 2.3 0 0 1 1.7-1.7Z" fill="#EBB376"/><path d="M274.2 253.5c-1.8 7.8-5.2 15-10 21.3-6.5 7-19.7-5.8-24.4-10.5a2 2 0 0 1 2.6-3.2c3.2 2 6.5 4.1 9.8 5.8 2.2 1.2 4.5 2.4 6.8 2.6.7 0 .2-.1-.3.2l-.5.6c1-1.4 1.7-2.8 2.5-4.3 2.2-4.6 4-9.5 5.4-14.5a4.2 4.2 0 0 1 8 2Z" fill="#E9B376"/><path d="M271.8 240.5c4.6 3.3 4.8 8.2 2.3 17.5-3.3 1.7-11.4-.4-11.4-.4s2.5-14.5 9-17Z" fill="#5A81FA"/><path opacity=".6" d="M271.8 240.5c4.6 3.3 4.8 8.2 2.3 17.5-3.3 1.7-11.4-.4-11.4-.4s2.5-14.5 9-17Z" fill="#fff"/><path d="m184.3 402.1 6.2-2.3-3.4-15-6.2 2.3 3.4 15ZM135.3 410.4h6.6l1.9-15.3h-6.6l-1.9 15.3Z" fill="#FFC3BD"/><path d="M142.8 409.6h-8a.6.6 0 0 0-.6.4L133 416a1 1 0 0 0 1 1.2l7.7-.2 10.8.2c2.8 0 3.2-2.8 2-3-5-1.1-8.9-2.7-10.5-4.1-.3-.3-.7-.4-1.1-.4ZM190.8 398.6l-7.1 1.5a.6.6 0 0 0-.5.5v6a1 1 0 0 0 .3.8 1 1 0 0 0 .8.2l9.4-2.2c3.7-.8 6-1.6 10.4-2.5 2.7-.6 2.9-3.4 1.7-3.4-5.3 0-8.5 1-13.4-.8a3 3 0 0 0-1.7-.1Z" fill="#263238"/><path opacity=".2" d="m187.1 384.9 1.8 7.7-6.3 2.3-1.7-7.8 6.2-2.2ZM137.2 395h6.6l-1 8h-6.6l1-8Z" fill="#000"/><path d="m190.7 390.3-10.5 3.8S172 358 167.6 338c-2-8-4.3-15.8-7.2-23.4-4-11.3-8.7-23.4-12.6-32.9-4-10-7-17-7-17l22.7-4.6s17.3 50 21.2 69.7c4 20.5 6 60.6 6 60.6Z" fill="#263238"/><path d="m190.7 390.3-10.5 3.8S172 358 167.6 338c-2-8-4.3-15.8-7.2-23.4-4-11.3-8.7-23.4-12.6-32.9-4-10-7-17-7-17l22.7-4.6s17.3 50 21.2 69.7c4 20.5 6 60.6 6 60.6Z" fill="#666986" opacity=".3"/><path opacity=".2" d="M160.4 314.5c-4-11.3-8.7-23.4-12.6-32.9l1.8-5.4c6.5 6 10.6 26.8 10.8 38.3Z" fill="#000"/><path d="M151.2 262.5s4 57 4.3 76.3c.3 21.1-9.6 62.6-9.6 62.6h-12s4.7-37.4 3.1-58.4c-1.8-23.5-8.1-76-8.1-76l22.3-4.5Z" fill="#263238"/><path d="M151.2 262.5s4 57 4.3 76.3c.3 21.1-9.6 62.6-9.6 62.6h-12s4.7-37.4 3.1-58.4c-1.8-23.5-8.1-76-8.1-76l22.3-4.5Z" fill="#666986" opacity=".3"/><path d="M147.3 401.7h-14.2v-4.3l14.9-.8-.7 5ZM192 390.2l-12.5 4.4-1.4-4.1 13.8-5 .2 4.7Z" fill="#263238"/><path d="M143.2 410.5a.2.2 0 0 1 0-.1v-.1c.2-.2 2.4-1.5 3-1.2a.5.5 0 0 1 .4.5 1 1 0 0 1-.4.8 2 2 0 0 1-1.3.3c-.5 0-1.1 0-1.7-.2Zm.5-.2c.7.2 1.6.2 2.3-.1a.6.6 0 0 0 .2-.6v-.2h-.3c-.8.2-1.5.5-2.2.9Z" fill="#5A81FA"/><path d="M143.2 410.5a.1.1 0 0 1 0-.2s0-2 1-2.6a.9.9 0 0 1 .6-.2.5.5 0 0 1 .5.4c.1.8-1.2 2.2-2 2.6a.1.1 0 0 1-.1 0Zm1-2.5c-.4.6-.7 1.3-.7 2 .6-.5 1.5-1.6 1.4-2l-.2-.1-.4.1Z" fill="#5A81FA"/><path d="m203.3 179.6 5.3-5.7 3.1 8s-5 4.8-7.3 2l-1.1-4.3Z" fill="#FFC3BD"/><path d="m216 171.8.3 7.8-4.6 2.3-3.1-8 7.4-2.1Z" fill="#FFC3BD"/><path d="M191.4 399.2v-.1c.3-.3 2.7-2.1 3.5-1.9a.5.5 0 0 1 .4.4.9.9 0 0 1-.2.8c-.5.8-2.4 1-3.5 1a.2.2 0 0 1-.2-.2Zm.7-.2c1.4 0 2.5-.4 2.8-.8a.6.6 0 0 0 0-.5v-.2h-.1c-.5 0-1.8.8-2.8 1.5Z" fill="#5A81FA"/><path d="M116 211.2c-5.6 2.2-23.6 17-24.3 23.4-.7 6.4 20.3 13.6 20.3 13.6l5.2-4.3s-12.8-9.8-12.8-11c0-1.2 16-9.6 16-9.6 1.1-2.8 1.3-5.8.4-8.7-1-3-4.7-3.4-4.7-3.4ZM152.3 204.2c8.5-.7 24-5.5 28.1-8.2 4.2-2.7 22.9-17.2 22.9-17.2l5.3 6.2s-14 16.4-22.2 21.7c-8 5.3-30 13.6-30 13.6l-4-16.1Z" fill="#263238"/><path d="M191.5 399.3a.2.2 0 0 1 0-.1c-.2-1 0-1.9.4-2.7a1.1 1.1 0 0 1 .8-.4c.5 0 .6.1.7.3.2.7-1 2.4-1.7 3h-.1Zm1.3-3a.8.8 0 0 0-.6.4c-.4.7-.6 1.4-.5 2.2.7-.7 1.5-2 1.4-2.4l-.2-.1h-.2Z" fill="#5A81FA"/><path d="M116 211.2a129.4 129.4 0 0 1 6.8 21l.4 1.8 1 4.3c.4 1.4.6 2.6.8 4l.8 4a339.7 339.7 0 0 1 1.9 12.3l1.2 8.5 34.6-7-.1-7.8a124 124 0 0 0-1.6-17.3 130.3 130.3 0 0 0-6-23.3c-.9-2.6-2-5-3.4-7.4-2.9-.2-5.7-.2-8.5 0l-1.8.2a128.4 128.4 0 0 0-26 6.7Z" fill="#263238"/><path d="M125 190.5c2 4.5 4.8 13 2 16.8a16.6 16.6 0 0 0 13 2.3c4.2-.9 3.8-3.8 2.6-5.2-6-.2-6.6-4.2-6.4-8l-11.2-6Z" fill="#FFC3BD"/><path opacity=".2" d="m126.8 193 9.4 3.3v2.8c-6.7 1.8-9.5-5.5-9.4-6.1Z" fill="#000"/><path d="m148.1 302 11.4-23-1.9-7.8-4.3-2 4-8.1-1.9-7.7-16.1-8 31-23.3-1.9-7.7-23-11.4-55 40.2L81 262l2 7.7 30 14.8-4.9 9.7 2 7.7 21.7 10.7 7.5-15 8.8 4.3Zm-20.5-45.6-1.8-.9 3.5-2.6-1.7 3.5Z" fill="#5A81FA"/><path opacity=".2" d="m153.3 269 4-8-1.9-7.7-16.1-7.9 31-23.4-2-7.7-23-11.3-55 40.1v.2l55-40.2 23 11.4-49.8 37.5 9 4.5v-.1l-1.7-.9 3.5-2.6 4.9-9.9 21.1 10.5-6.6 13.4 8.8 4.4-11.3 23-8.9-4.3-7.5 15-21.7-10.6 2 7.5 21.7 10.7 7.5-15 8.8 4.3 11.4-23-1.9-7.7-4.3-2.1Z" fill="#000"/><path opacity=".2" d="m115.5 279.2-34.5-17 1.9 7.5 30 14.8 2.6-5.3Z" fill="#000"/><path d="m115.8 244 7.3 2.4-6 6.2s-6.4-2.6-5-5.9l3.7-2.8ZM128 252.3l-6.9 3.5-4-3.2 6-6.2 5 5.9Z" fill="#FFC3BD"/><path d="M134.4 169.3c5.7.2 8 12.3 6.2 14.3-3.4 3.7-13.4-14.6-6.2-14.3Z" fill="#263238"/><path d="M121.8 184.9c2.9 6.4 4.3 10.3 8.8 12.4 7 3.3 14-2.8 13-10-.8-6.4-5.3-15.8-12.8-16a9.6 9.6 0 0 0-9 13.6Z" fill="#FFC3BD"/><path d="M115 182.8c2.1 4.2 9.3 11.4 11.8 10.2 2.6-1.2 1.2-7.5-2.2-12.4l-9.6 2.2Z" fill="#263238"/><path d="M121.6 193.3a6.6 6.6 0 0 0 5 1.3c2.2-.4 2.5-2.7 1-4.4-1.3-1.5-4-3.2-6-2a3 3 0 0 0 0 5Z" fill="#FFC3BD"/><path d="M132.5 183c.2.5.6.9 1 .7.3-.1.5-.6.3-1.2-.2-.5-.7-.8-1-.7-.4.1-.5.7-.3 1.2ZM138.5 180.7c.2.6.7.9 1 .8.4-.2.5-.7.3-1.3-.2-.5-.7-.8-1-.7-.4.1-.5.7-.3 1.2Z" fill="#263238"/><path d="M136.7 181.7c1.3 1.4 2.7 2.6 4.3 3.6a3.3 3.3 0 0 1-2.4 1.5l-1.9-5Z" fill="#ED847E"/><path d="M137.6 188.8h.1v-.2l-.1-.1h-.1a4.5 4.5 0 0 1-4.2-.4h-.1v.1a.2.2 0 0 0 0 .2 4.8 4.8 0 0 0 4.4.4ZM130 181.7h.1v-.2a2.7 2.7 0 0 1 1.7-1.8.3.3 0 0 0 .2-.4.3.3 0 0 0-.4-.2 3.4 3.4 0 0 0-2 2.2.3.3 0 0 0 .2.4h.2ZM140.4 177.6h.1a.3.3 0 0 0 .1-.4v-.1a3.3 3.3 0 0 0-3-1l-.1.1a.3.3 0 0 0-.1.4l.1.2h.3a2.7 2.7 0 0 1 2.3.8H140.4ZM119.8 189a14 14 0 0 1-6.3-9.3c-1-6.4 10.5-12.8 16.9-13.3 6.4-.5 5.4 6.6 5.4 6.6s-8.3 3-11.2 4.8c-2.9 1.7 0 2.8 0 2.8l-4.8 8.4ZM104.4 233l.1-.3H92.3c-.3.6-.5 1.3-.6 2-.6 6.4 20.3 13.6 20.3 13.6l5.2-4.3s-12.8-10-12.8-11Z" fill="#263238"/><path d="m262.8 168-50.7 9.7a12.2 12.2 0 1 1-4.6-24.1l50.7-9.6a12.3 12.3 0 0 1 12.4 19 12.3 12.3 0 0 1-7.8 5Z" fill="#5A81FA"/><path opacity=".6" d="m262.8 168-50.7 9.7a12.2 12.2 0 1 1-4.6-24.1l50.7-9.6a12.3 12.3 0 0 1 12.4 19 12.3 12.3 0 0 1-7.8 5Z" fill="#fff"/><path d="m220.8 166.5.3 1.3-6.2 1.2-1.6-8.2 6-1.2.3 1.3-4.5.8.4 2.2 4-.8.2 1.3-4 .8.5 2.2 4.6-1ZM228.2 166.4l-2.2-2h-.3l-1.9.4.5 2.4-1.6.3-1.5-8.3 3.4-.6c2.1-.5 3.7.4 4 2.2a2.7 2.7 0 0 1-1.2 3l2.4 2.3-1.6.3Zm-3.4-6.5-1.8.3.6 3.3 1.8-.3c1.3-.3 2-1 1.7-2-.2-1-1-1.6-2.3-1.3ZM236.8 164.8l-2.2-2.1h-.3l-1.8.4.4 2.4-1.5.3-1.6-8.2 3.4-.7c2.2-.4 3.8.5 4.1 2.3a2.7 2.7 0 0 1-1.3 3l2.4 2.3-1.6.3Zm-3.4-6.6-1.8.4.6 3.3 1.8-.4c1.4-.2 2-1 1.8-2-.3-1-1-1.5-2.4-1.3ZM238.7 160.2a4.5 4.5 0 1 1 5.2 3.4 4.3 4.3 0 0 1-5.3-3.4Zm7.3-1.4a3 3 0 1 0-2.4 3.4 2.9 2.9 0 0 0 2.4-3.4ZM255.3 161.3l-2.1-2.1h-.3l-1.9.4.5 2.4-1.6.3-1.5-8.3 3.4-.6c2.1-.5 3.7.4 4 2.2a2.7 2.7 0 0 1-1.2 3l2.4 2.3-1.7.3Zm-3.4-6.6-1.8.3.7 3.3 1.8-.3c1.3-.3 1.9-1 1.7-2-.2-1-1-1.6-2.4-1.3Z" fill="#000"/></svg>