
<svg width="598" height="500" fill="none" xmlns="http://www.w3.org/2000/svg"><path d="M530.6 154.8S480.6 40.5 307 27 121.6 193.5 89.5 251.6c-20.2 36.6-50 74.4-44.9 116C60.4 494 254.4 469.9 359.1 450.4c7.1-1.4 14.4-2.8 21.6-4 60.7-10.7 136.8 2.9 170-52.3 33.3-55.2 25-169.5-20.1-239.2Z" fill="#5A81FA"/><path opacity=".7" d="M530.6 154.8S480.6 40.5 307 27 121.6 193.5 89.5 251.6c-20.2 36.6-50 74.4-44.9 116C60.4 494 254.4 469.9 359.1 450.4c7.1-1.4 14.4-2.8 21.6-4 60.7-10.7 136.8 2.9 170-52.3 33.3-55.2 25-169.5-20.1-239.2Z" fill="#fff"/><path d="M399.5 374.4h-5.4V394h5.4v-19.5ZM400.5 374.4v5.4h4.3v8.8h-4.3v5.3h10.8v-19.5h-10.8Z" fill="#263238"/><path d="M403.3 380.6H394v7.2h9.2v-7.2ZM416.7 374.4h-5.4V394h5.4v-19.5ZM417.7 374.4v5.4h4.3v8.8h-4.3v5.3h10.8v-19.5h-10.8Z" fill="#263238"/><path d="M420.5 380.6h-9.2v7.2h9.2v-7.2ZM434 374.4h-5.5V394h5.4v-19.5ZM434.9 374.4v5.4h4.3v8.8h-4.3v5.3h10.8v-19.5h-10.8Z" fill="#263238"/><path d="M437.7 380.6h-9.2v7.2h9.2v-7.2ZM451.1 374.4h-5.4V394h5.4v-19.5ZM452.1 374.4v5.4h4.3v8.8H452v5.3h10.8v-19.5H452Z" fill="#263238"/><path d="M454.9 380.6h-9.2v7.2h9.2v-7.2ZM468.3 374.4H463V394h5.4v-19.5ZM469.3 374.4v5.4h4.3v8.8h-4.3v5.3H480v-19.5h-10.8Z" fill="#263238"/><path d="M472 380.6H463v7.2h9.2v-7.2ZM485.5 374.4h-5.4V394h5.4v-19.5ZM486.5 374.4v5.4h4.3v8.8h-4.3v5.3h10.8v-19.5h-10.8Z" fill="#263238"/><path d="M489.3 380.6H480v7.2h9.2v-7.2ZM502.7 374.4h-5.4V394h5.4v-19.5ZM503.7 374.4v5.4h4.3v8.8h-4.3v5.3h10.8v-19.5h-10.8Z" fill="#263238"/><path d="M506.4 380.6h-9.1v7.2h9.1v-7.2ZM521.4 393.6l-3.7.2-1.9.1h-1.3v-19.5h2.3l1.6-.1 3 19.3ZM519 374.2l1 5.3 3.5-.7 3 8.4-4.8 1 1 5.2a49 49 0 0 0 14-4l-11.4-17c-2 .9-4 1.5-6.3 1.8Z" fill="#263238"/><path d="M524.6 386.8c-1.7.4-3.4.6-5.1.8l-5 .2v-7.2l4.1-.2c1.3 0 2.6-.3 3.9-.5l2.1 7ZM542.9 385.9l-3 1.8c-1 .7-2.2 1.2-3.2 1.7l-11.4-17 1.5-.8 1.4-.8 14.7 15ZM528.6 370.4l4.2 4 1.3-1 1.2-1 8 5.7-1.8 1.6-1.8 1.4 4.2 4c3.7-2.7 6.8-6 9.2-9.6l-20.3-9.5c-1 1.7-2.5 3.2-4.2 4.4Z" fill="#263238"/><path d="M541.3 378.7a37 37 0 0 1-8.2 5.3l-4.2-6.3c2.3-1 4.4-2.4 6.3-4l6.1 5ZM556.2 369.9c-.8 2-1.8 3.9-3 5.7l-20.4-9.5c.6-.9 1-1.7 1.4-2.6l22 6.4ZM534.5 363l6 1.6.5-1.4.2-.8.1-.7 10.4 1.4-.2 1-.3 1-.6 2 6 1.6 1-3 .6-3 .3-3 .1-1.6V357h-23.2v1.1l-.1.7-.1 1.4-.3 1.4-.4 1.4Z" fill="#263238"/><path d="M550.5 364.4a28 28 0 0 1-3.7 8.2l-7.5-3.5c1.2-2 2.2-4 2.8-6.2l8.4 1.5ZM558.6 352.4h-23.2v4.6h23.2v-4.6ZM535.4 351.6h6.3v-3.5h10.6v3.5h6.3v-9h-23.2v9Z" fill="#263238"/><path d="M551.3 349.3h-8.6v7.7h8.6v-7.7ZM558.4 337.2l.2 3.1v2.3h-23.2v-2.2l-.1-1.5 23.1-1.7ZM535.2 338.4l6.3-.6-.2-1.5-.4-1.4 10.1-2.3.6 2 .4 2 6.3-.6c-.5-4-2-8-4.3-11.8l-20.7 8.8c1 1.7 1.7 3.5 2 5.4Z" fill="#263238"/><path d="m550.5 334.2.4 2.2.2 1v1.2l.2 2.1v2h-8.6v-4.5l-.2-.8-.4-1.7 8.4-1.5ZM550 319l1.2 1.2 1 1.3c.6 1 1.3 1.8 1.8 2.8l-20.8 8.8-.8-1.3-.4-.6-.6-.6 18.7-11.7ZM531 330.2l5-3.3-1.1-1.1c-.4-.4-.8-.8-1.2-1l7.2-6.5 1.8 1.5 1.6 1.6 5-3.3c-3.1-3.3-6.8-6-11-8.2L526 326.5c1.9 1 3.6 2.3 5 3.7Z" fill="#263238"/><path d="M541.5 320c2.4 2 4.4 4.4 6 7l-7.7 3.3c-1.2-2-2.8-3.8-4.6-5.4l6.3-5ZM531.5 307.1a36.5 36.5 0 0 1 6.7 2.8L526 326.5l-1.5-.7-1.5-.6 8.5-18ZM522.4 325l2.2-5-3.4-.8 2.1-8.6 4.8 1.2 2.2-5a51.5 51.5 0 0 0-14.5-2.2v19.5c2.2 0 4.5.4 6.6 1Z" fill="#263238"/><path d="M524.8 311.7c3.4.7 6.6 1.9 9.6 3.5l-4.5 6a32.2 32.2 0 0 0-7.3-2.5l2.2-7ZM512.4 304.3l1.7.2 1.7.1v19.5l-3.7-.2c-1.3 0-2.5-.2-3.7-.4l4-19.2ZM507 323.3l1.3-5.2a43 43 0 0 1-4.7-1.2l3.5-8.3 3.4.9 1.4-5.3c-2.2-.3-4.3-1-6.2-2l-12.3 16.5c4.2 2.2 8.8 3.8 13.6 4.6Z" fill="#263238"/><path d="M508 309.8c2.5.6 5.2 1 7.8 1v7.2c-3.5 0-7-.5-10.3-1.3l2.5-7ZM502.9 300.4l.6.5.7.4.7.5.7.3-12.2 16.6-1.6-.8-1.5-1-1.5-1-1.4-1 15.5-14.5ZM486.4 314.2l4.4-3.9-1.8-1.5-1.6-1.6 8.2-5.4 1.2 1 1.2 1.1 4.4-3.8c-1.6-1.3-3-2.8-4-4.5l-20.8 8.7a37 37 0 0 0 8.8 9.9Z" fill="#263238"/><path d="M495.8 303.1c1.7 1.7 3.7 3.1 6 4.3l-4.6 6c-3-1.4-5.6-3.3-8-5.5l6.6-4.8ZM497.2 293c.3.8.7 1.7 1.3 2.6l-20.9 8.7c-1-1.9-2-3.8-2.7-5.9l22.3-5.5ZM474.5 297.4l6.2-1.4a18 18 0 0 1-.6-2l-.3-2 10.4-1 .3 1.4c0 .5.3 1 .4 1.5l6.1-1.4-.3-1.4-.2-1.4-.1-1.4V286H473v2.3c0 1 0 2 .2 3 0 1 .3 2 .4 3l.8 3Z" fill="#263238"/><path d="M489.4 292c.5 2.2 1.3 4.4 2.5 6.3l-7.7 3.2a25.4 25.4 0 0 1-3.2-8.3l8.4-1.1ZM496.4 281.4H473v4.6h23.3v-4.6ZM473.1 280.6h6.4V277H490v3.6h6.4v-9H473v9Z" fill="#263238"/><path d="M489 278.3h-8.6v7.7h8.6v-7.7ZM496.4 267H473v4.6h23.3V267ZM473.1 266.2h6.4v-3.6H490v3.6h6.4v-9H473v9Z" fill="#263238"/><path d="M489 263.9h-8.6v7.7h8.6v-7.7Z" fill="#263238"/><path d="M483.5 252.6 460 232V203M485.2 252.6l23.6-20.7V203" stroke="#263238" stroke-width="9" stroke-linecap="round" stroke-linejoin="round"/><path d="M488.8 267.6c9.5-1.3 16-8.8 14.5-16.8-1.6-8-10.6-13.5-20.1-12.2-9.6 1.3-16 8.8-14.5 16.8s10.5 13.5 20 12.2Z" fill="#263238" stroke="#263238" stroke-miterlimit="10"/><path d="M495.2 256.4c2.2-4.3-.2-9.3-5.4-11-5.1-1.9-11 .2-13.2 4.5-2.1 4.3.3 9.2 5.4 11 5.2 1.8 11.1-.2 13.2-4.5Z" fill="#fff" stroke="#263238" stroke-miterlimit="10"/><path d="M244.3 370.9h-5.5v19.5h5.5v-19.5ZM237.9 390.4V385h-4.3v-8.8h4.3V371h-10.8v19.5h10.8Z" fill="#263238"/><path d="M244.3 377h-9.2v7.2h9.2V377ZM222.9 370.7l2 .1h2.2v19.5h-3.3l-3.5-.3 2.6-19.3ZM219.2 390l.8-5.4-2.4-.3c-.8 0-1.6-.2-2.4-.4l2.3-8.6c.6.2 1.3.3 1.9.3l1.9.3.8-5.3c-1.3-.1-2.7-.3-4-.6l-2-.4-1.8-.7-8.2 18.3 3.1 1 3.3.7c2.2.4 4.4.8 6.7 1Z" fill="#263238"/><path d="m218.7 376.4 4.2.5 4.2.1v7.2l-5-.2c-1.7 0-3.3-.4-5-.6l1.6-7ZM210.5 367.6l3.8 1.4-8.2 18.2c-2.1-.6-4.2-1.4-6.2-2.3l10.6-17.3ZM198.8 384.4l3-4.7-4-2 5.8-7.4 3.3 1.7 3-4.7-1.7-.9-1.7-.9-3.2-2.1-15.5 14.5a57 57 0 0 0 8.1 5.1l3 1.4Z" fill="#263238"/><path d="m204.3 371.6 1.8 1 1.8.7 2 .8 1.9.6-3 6.7-2.4-.7-2.3-1c-.8-.3-1.5-.5-2.2-.9l-2.2-1 4.6-6.2ZM200.4 361l1.3 1.2 1.6 1.2-15.5 14.5-2.5-1.9-2.3-2.1 17.4-13ZM182.2 373.2l4.8-3.5-1.5-1.6-1.4-1.6 8.6-5 1.2 1.2c.3.5.7.9 1.2 1.3l4.8-3.5-1.3-1.4-1.1-1.3-1.1-1.5-1-1.4-20.6 9 1.6 2.4 1.8 2.4 2 2.3 2 2.2Z" fill="#263238"/><path d="m192.7 362.8 1.3 1.4 1.4 1.3 1.5 1.3 1.5 1.2-5.7 5.4-1.9-1.5-1.7-1.5-1.7-1.5-1.5-1.7 6.8-4.4ZM193.6 351.7c.5 1 1 2.1 1.7 3.2l-20.6 9c-1-1.7-2-3.5-2.8-5.3l21.7-6.9ZM171.5 357.7l6-1.8-.8-1.9-.6-2 10.2-2.1.4 1.5.7 1.5 6-1.8a26 26 0 0 1-2-6.6l-23 2.2c.6 3.8 1.6 7.5 3 11Z" fill="#263238"/><path d="m185.7 351.2.6 1.7.8 1.6.8 1.6 1 1.6-7.7 3.3-1.1-1.9-1-2-.9-2c-.3-.6-.6-1.2-.8-2l8.3-1.9ZM191.3 341l.1 1.8.1 1.8-23 2.1c-.3-1.8-.3-3.8-.5-5.6h23.3ZM168 340.3h6.4v-3.6h10.5v3.6h6.4v-6.8l-.2-2.9-23.2 1.2.1 1.7v6.8Z" fill="#263238"/><path d="M184 338v3.7c0 1.2 0 2.4.2 3.5l-8.5.9c-.2-1.4-.2-2.9-.3-4.3V338h8.6ZM190.3 325c.5 1.9.7 3.8.8 5.7l-23.2 1.1c0-1.1-.2-2.3-.5-3.4l23-3.4ZM167.3 327.8l6.3-1-1-3.1 10.2-2.5 1.2 3.9 6.2-1-.8-2.8-.9-2.7-1.2-2.7-.6-1.3-.7-1.3-21.1 8 .4.8.3.8.7 1.6c.3.5.4 1 .6 1.6.2.6.4 1.1.4 1.7Z" fill="#263238"/><path d="m182.2 322.7.7 2 .4 2.1.3 2c.2.8.2 1.5.2 2.2l-8.6.4-.1-1.8-.3-1.6-.3-1.7-.6-1.7 8.3-1.9ZM182.8 308.2l1.7 2.5 1.5 2.6-21.1 8-1-1.5c-.2-.5-.6-1-1-1.5l19.9-10ZM162.5 317.8l5.4-2.9c-.6-.9-1.4-1.8-2.2-2.6l8.4-5.4c1 1 1.9 2.2 2.7 3.3l5.4-2.8-.9-1.2-1-1.2-2-2.2c-.6-.8-1.4-1.4-2.2-2.2l-2.3-2-16.3 13.8 1.3 1.3 1.4 1.3 1.2 1.4.6.6.5.8Z" fill="#263238"/><path d="M174.3 308.5c2 2.3 3.7 4.8 5 7.3l-7.8 3a35.2 35.2 0 0 0-4.2-6l7-4.3ZM168.7 294.8l1.3.9 1.3 1 2.5 2-16.3 13.8-1.6-1.2-.7-.6-.9-.5 14.4-15.4ZM153.8 309.8l3.8-4.3-1.5-1-1.7-.8 5.6-7.5 2 1 2 1.3 3.7-4.3-2.7-1.7-2.9-1.4-1.4-.8-1.5-.6-3-1.2-9.4 17.8 1.8.8 1 .3.8.5 1.7.9 1.7 1Z" fill="#263238"/><path d="M160.9 297.7c1.4.7 2.7 1.6 4 2.4 1.4.9 2.5 2 3.8 2.9l-6 5-3.2-2.3-3.4-2 4.8-6ZM149.7 286.5a41.1 41.1 0 0 1 6.4 2l-9.3 18a15 15 0 0 0-2-.7l-1.9-.6 6.8-18.7ZM142.2 305l1.8-5.1-1.9-.4-1.8-.4 1.9-8.6c.8 0 1.6.2 2.4.4l2.3.5 1.7-5.1a58 58 0 0 0-6.5-1.3l-3.4-.4-3.3-.1-1.1 19.4 2 .1 2 .3c1.3.1 2.6.4 4 .7Z" fill="#263238"/><path d="m143.6 291.6 4.9 1 4.7 1.6-3.5 6.6c-1.2-.6-2.6-.9-3.9-1.3l-4-1 1.8-7ZM129 284.4h6.3l-1 19.5H129.5l-.7-19.5ZM129 304l-.4-5.4h-2l-1.8.3-1.5-8.7 2.4-.3h2.4l-.3-5.4c-1.1 0-2.2 0-3.4.2l-3.3.4-6.6 1.2L121 305c1.3-.3 2.6-.6 4-.7l2-.3h2Z" fill="#263238"/><path d="m125.1 290.8 5-.3h2.4l2.5.1-.4 7.2h-4.3l-4.2.1-1-7.1ZM108 288.2l3.2-1 3.3-1L121 305l-2 .5-1.9.6-9-18ZM116.4 306.4l-2.6-4.9-3.4 1.4-5.1-7.7 4.2-1.7-2.5-5-6 2.7-2.9 1.4-2.7 1.7 14 15.6c.5-.4 1-.8 1.6-1l1.8-1a36 36 0 0 1 3.6-1.5Z" fill="#263238"/><path d="M107.2 295.3c3-1.3 6.1-2.3 9.3-3.1l2.4 7c-2.7.6-5.3 1.4-7.8 2.5l-3.9-6.4ZM90.2 298l2.5-2 2.7-1.7 14 15.6-1.6 1-1.6 1.2-16-14.1ZM105.7 312.5l-4.5-3.8-2.6 2.4-8-5.7 3.2-3-4.5-3.7-2.3 2-2.2 2.2c-1.4 1.4-2.7 3-3.9 4.6l19.8 10.3a28.5 28.5 0 0 1 5-5.3Z" fill="#263238"/><path d="m92.4 304.9 1.7-1.6 1.8-1.4 2-1.4c.5-.5 1.2-.9 1.9-1.3l5.2 5.8-1.7 1-1.5 1.2-1.6 1.2-1.4 1.3-6.4-4.8ZM77.7 312.5l1.5-2.6 1.8-2.4 19.7 10.3-1.1 1.5-1 1.5-21-8.3ZM98.3 321.4l-5.8-2.2-.4.7-.3.8-.7 1.4-9.9-2.8.9-1.9.4-1 .5-.8-5.8-2.2c-.5.8-1 1.7-1.3 2.6l-1.2 2.6-.9 2.8-.8 2.7 22.9 3.7c0-.5.3-1 .5-1.6 0-.6.3-1.1.5-1.7l.7-1.6.7-1.5Z" fill="#263238"/><path d="M82.7 318.2a32 32 0 0 1 4.5-7.5l7.2 3.9a25.9 25.9 0 0 0-3.7 6.2l-8-2.6ZM72.1 329.8c0-.5 0-1 .2-1.5l.2-1.4.5-2.8 22.9 3.7-.3 1.7-.2.9v.9l-23.3-1.5ZM95.3 331.9l-6.4-.3v3.3H78.2l.1-3.8-6.3-.4-.2 2.9v6.8h23.3v-6.8l.1-1.7Z" fill="#263238"/><path d="m79.3 333.6.2-4.2.7-4.1 8.5 1.3-.6 3.5-.2 3.5h-8.6ZM95.2 340.4H71.9v4.5h23.3v-4.5ZM95.2 345.7h-6.4v3.6H78.3v-3.6h-6.4v9h23.3v-9Z" fill="#263238"/><path d="M87.9 340.4h-8.6v7.7h8.6v-7.8ZM95.2 354.8H71.9v4.6h23.3v-4.6ZM95.2 360.2h-6.4v3.6H78.3v-3.6h-6.4v9h23.3v-9Z" fill="#263238"/><path d="M87.9 354.8h-8.6v7.7h8.6v-7.7ZM95.2 369.2H71.9v4.6h23.3v-4.6Z" fill="#263238"/><path d="M87.9 369.2h-8.6v7.7h8.6v-7.7Z" fill="#263238"/><path d="M95.2 373.8h-6.4v3.6H78.3v-3.6h-6.4v9h23.3v-9Z" fill="#263238"/><path d="M87.9 368.4h-8.6v7.7h8.6v-7.7Z" fill="#263238"/><path d="m86.6 381.3 23.5 20.8v28.8M85 381.3l-23.7 20.8v28.8" stroke="#263238" stroke-width="9" stroke-linecap="round" stroke-linejoin="round"/><path d="M87 395.3c9.5-1.3 16-8.8 14.5-16.8-1.6-8-10.6-13.5-20.1-12.2-9.6 1.3-16 8.9-14.5 16.9 1.5 8 10.5 13.4 20 12Z" fill="#263238" stroke="#263238" stroke-miterlimit="10"/><path d="M84.2 388.8c5.2 0 9.5-3.6 9.5-8s-4.3-8-9.5-8c-5.3 0-9.6 3.6-9.6 8s4.3 8 9.6 8Z" fill="#fff" stroke="#263238" stroke-miterlimit="10"/><path d="M188.2 174.2c5 1.1 10.3 1.6 15.5 1.4l-.4-3.7c-.2 0-26.3 1.5-46.3-18.5l-3.4 2.4c8.8 9 21 15.6 34.6 18.4ZM153.1 195.9c27-20.2 49-13.7 49.2-13.7l1.6-3.4c-1-.4-24.8-7.4-53.8 14.3l3 2.8ZM153.1 214c27.6-1.3 51.5-26.7 52.5-27.8L202 184c-.3.3-23.7 25.2-49.2 26.4l.2 3.8Z" fill="#263238"/><path d="m156.1 155.8-5.8-5.3M154.5 191.7l-6.9 6.8M157.2 211.7c-3.9 0-7.7-.3-11.5-1M141 197.4l-6.8 1M144.3 200.2l-8.5 6.7M147.7 201.2l-.4 5.4M142.5 164.6l-15-3.1M153.8 167.6l-23 .7M147.7 159.2l-13.3-4.5M185.7 209.4l-6.6 8.5M180.8 207.7l-15 12.6M179.5 198.2l-11.2.8" stroke="#263238" stroke-miterlimit="10"/><path d="m123.6 181.6 2.6 3.8-3.7 3.3 5.2-.9 2.6 3.9.6-4.4 5.2-.8-4.7-1.9.6-4.4-3.6 3.2-4.8-1.8ZM130.7 138l2.6 3.8-3.6 3.2 5.2-.8 2.5 3.9.7-4.4 5.2-.9-4.8-1.8.6-4.4-3.6 3.2-4.8-1.9Z" fill="#5A81FA" stroke="#263238" stroke-width=".5" stroke-linecap="round" stroke-linejoin="round"/><path d="M414.3 357.7a56 56 0 0 0-14.2 3l1.7 3a65 65 0 0 1 47.8 4l2.1-3a70.7 70.7 0 0 0-37.4-7ZM436.9 329.4c-16.1 24.9-38 25-38.1 25v3.5c1 0 24.5-.2 41.8-26.9l-3.7-1.6ZM430 313.4c-23.7 8.5-35 37.2-35.6 38.4l4 1c.1-.2 11.3-28.4 33.3-36.2l-1.6-3.2Z" fill="#263238"/><path d="m449.4 365.4 7.1 3.2M437.3 333.5l3.5-7.8M427.3 316.6c3.4-1.1 7-1.8 10.6-2.2M447 324.8l5.6-2.7M443 323.3l5-8.2M439.7 323.3l-1.7-4.9M458 354.1l14.5-1.3M447 354.4l20-6.7M455.5 360.3l13.5.3M403.2 326.1l2.6-9.2M408 326.3l8.6-15M412.8 334.3l9.6-3.6" stroke="#263238" stroke-miterlimit="10"/><path d="m468.3 334.2-3.7-2.8 2-3.8-4.3 2.2-3.7-2.8 1 4-4.2 2.2 5 .4 1 4 2-3.8 4.9.4ZM478.5 374.5l-3.7-2.8 2-3.8-4.3 2.1-3.7-2.7 1 4-4.2 2.1 5 .4 1 4 2-3.7 4.9.4ZM415.8 307.9l-3.7-2.8 2-3.8-4.3 2.2-3.7-2.8 1.1 4-4.2 2.2 4.9.4 1 4 2-3.8 5 .4Z" fill="#5A81FA" stroke="#263238" stroke-width=".5" stroke-linecap="round" stroke-linejoin="round"/><path d="M167.4 264.8v2.6M167.4 236.5v26M162.2 245.3v25.6M438.8 237.3v3.8M438.8 195.3v38.5M433.7 208.3v38M368.5 295H364M418.7 295h-46M403.2 290.6h-45.4M209.1 295h-4.6M259.3 295h-46M243.8 290.6h-45.5" stroke="#263238" stroke-linecap="round" stroke-linejoin="round"/><path d="M325.2 279h-49.3V320h49.3V279Z" fill="#fff" stroke="#263238" stroke-miterlimit="10"/><path d="M325.2 279h-49.3v10.8h49.3V279Z" fill="#263238" stroke="#263238" stroke-miterlimit="10"/><path d="M276.5 298.2h48.2M276.5 306h48.2M276.5 314h48.2M321.6 288.7v7.6M321.6 298.3v5.6M321.6 306.5v5.6" stroke="#263238" stroke-miterlimit="10"/><path d="M269.6 124.6h61.8c2.6 0 5 .8 6.9 2.4a7.5 7.5 0 0 1 2.8 5.7v19.7H260v-19.7c0-2.1 1-4.2 2.9-5.7 1.8-1.6 4.2-2.4 6.8-2.4Z" fill="#263238" stroke="#263238" stroke-miterlimit="10"/><path d="M422.2 134.3H178.8c-2.5 0-4.5 1.6-4.5 3.7v143.3c0 2 2 3.7 4.5 3.7h243.4c2.5 0 4.5-1.7 4.5-3.8V138c0-2-2-3.8-4.5-3.8Z" fill="#263238" stroke="#263238" stroke-miterlimit="10"/><path d="M413 141.2H188c-2.5 0-4.5 1.7-4.5 3.8v129.3c0 2 2 3.7 4.5 3.7H413c2.5 0 4.5-1.7 4.5-3.7V145c0-2-2-3.8-4.5-3.8Z" fill="#5A81FA" stroke="#263238" stroke-miterlimit="10"/><path d="M332.8 129.6c0-.5-.1-1-.5-1.4a3 3 0 0 0-1.3-1h-1.8c-.5 0-1 .3-1.5.6-.4.4-.7.8-.8 1.3-.1.5 0 1 .2 1.5.2.4.6.8 1 1.1a3.4 3.4 0 0 0 2.9.2 3 3 0 0 0 1-.5c.3-.2.5-.5.6-.8.2-.3.2-.7.2-1ZM321.5 129.6c0-.5-.1-1-.5-1.4a3 3 0 0 0-1.3-1c-.6-.1-1.2-.2-1.8 0-.6 0-1 .3-1.5.6-.4.4-.7.8-.8 1.3-.2.5-.1 1 .1 1.5.3.4.7.8 1.2 1.1a3.5 3.5 0 0 0 3.8-.3c.2-.2.5-.5.6-.8.2-.3.2-.7.2-1ZM310.2 129.6c0-.5-.1-1-.5-1.4a3 3 0 0 0-1.3-1c-.6-.1-1.2-.2-1.8 0-.6 0-1.1.3-1.5.6-.4.4-.7.8-.8 1.3-.2.5-.1 1 .1 1.5.3.4.7.8 1.2 1.1a3.5 3.5 0 0 0 2.8.2c.4 0 .7-.3 1-.5.2-.2.5-.5.6-.8.2-.3.2-.7.2-1Z" fill="#fff" stroke="#263238" stroke-miterlimit="10"/><path d="M321.6 314.6v5.7" stroke="#263238" stroke-miterlimit="10"/><path d="M93.5 437h414c3.6 0 7 1.2 9.6 3.3 2.5 2 3.9 5 3.9 8v21.5H80v-21.6c0-1.4.4-3 1-4.3.7-1.3 1.7-2.6 3-3.6 1.2-1 2.7-1.9 4.3-2.5 1.7-.5 3.4-.8 5.2-.8Z" fill="#fff" stroke="#263238" stroke-miterlimit="10"/><path d="M215.8 319.2h169.4c1.8 0 3.5.3 5.2.8 1.6.6 3 1.4 4.3 2.5 1.3 1 2.3 2.3 3 3.6.6 1.4 1 2.8 1 4.3v139.4H202.3V330.4c0-3 1.4-5.8 4-8 2.4-2 5.9-3.2 9.4-3.2Z" fill="#fff" stroke="#263238" stroke-miterlimit="10"/><path d="M361 350.6H240c-2.4 0-4.5 1.7-4.5 3.7v68.4c0 2.1 2 3.8 4.5 3.8H361c2.5 0 4.5-1.7 4.5-3.8v-68.4c0-2-2-3.7-4.5-3.7ZM250.7 437.3c0-1-.4-2.1-1-3a6.4 6.4 0 0 0-3-2 7.7 7.7 0 0 0-3.8-.4 7 7 0 0 0-3.3 1.5c-1 .8-1.6 1.8-1.8 2.8-.3 1-.1 2.2.4 3.2s1.3 1.8 2.4 2.4a7.5 7.5 0 0 0 8.2-.6 5 5 0 0 0 2-4ZM266.2 442.8c3.6 0 6.5-2.5 6.5-5.5s-2.9-5.5-6.5-5.5-6.5 2.5-6.5 5.5 3 5.4 6.5 5.4ZM288.2 442.8c3.6 0 6.6-2.5 6.6-5.5s-3-5.5-6.6-5.5c-3.6 0-6.5 2.5-6.5 5.5s3 5.4 6.5 5.4ZM305.5 442.3v7.5h9v-7.5h-9ZM305.5 432.4v7.5h9v-7.5h-9ZM317 442.3v7.5h8.9v-7.5h-9ZM317 432.4v7.5h8.9v-7.5h-9ZM328.3 442.3v7.5h9v-7.5h-9ZM328.3 432.4v7.5h9v-7.5h-9Z" fill="#263238" stroke="#263238" stroke-miterlimit="10"/><path d="M277.6 342.4h-37.5c-.8 0-1.7-.3-2.3-.8-.6-.5-1-1.2-1-2 0-.7.4-1.4 1-1.9s1.5-.8 2.3-.8h37.5c1 0 1.7.3 2.3.8.7.5 1 1.2 1 2 0 .3 0 .7-.2 1l-.8.9-1 .6-1.3.2Z" fill="#fff" stroke="#263238" stroke-miterlimit="10"/><path d="M251.5 344.4c3.6 0 6.6-2.4 6.6-5.4 0-3-3-5.5-6.6-5.5-3.6 0-6.5 2.4-6.5 5.5 0 3 3 5.4 6.5 5.4Z" fill="#263238" stroke="#263238" stroke-miterlimit="10"/><path d="M398 344.3 379.6 360v73l19 15.7M203.2 344.3l18.4 15.6v73l-19 15.7" stroke="#263238" stroke-miterlimit="10"/><path d="M238.5 388H268l18.7-23.3 18 23.4h13l11.7 14.6 10-14.4H358" stroke="#5A81FA" stroke-width="2" stroke-linecap="round" stroke-linejoin="round"/><path d="M30 469.8H571" stroke="#263238" stroke-width="2" stroke-miterlimit="10"/><path d="M188.9 408.6c-1.4-1.9-1-4 .7-5 1.8-1 4.3-.2 5.7 1.6 1.3 1.8 1 4-.7 5-1.8.9-4.3.2-5.7-1.6Z" fill="#fff" stroke="#263238" stroke-linecap="round" stroke-linejoin="round"/><path d="m180.5 409.2.3-.1 9.6-3.7h1.5c.5.2 1 .5 1.1.9.2.4.3.8 0 1.2-.1.4-.5.8-1 1l-9.6 3.6c-.5.1-1 .2-1.5 0-.5-.1-.9-.4-1.1-.7-.2-.4-.3-.8-.2-1.3.2-.4.5-.7 1-1Z" fill="#fff" stroke="#263238" stroke-miterlimit="10"/><path d="M60.6 220.1c-1.4-1.8-1-4 .7-5s4.3-.2 5.6 1.6c1.4 1.8 1 4-.7 5s-4.3.2-5.6-1.6Z" fill="#fff" stroke="#263238" stroke-linecap="round" stroke-linejoin="round"/><path d="M52.2 220.7h.3L62 217c.5-.2 1-.2 1.5 0 .5.1.9.4 1.1.8.2.4.2.9 0 1.3-.1.4-.5.7-1 .9l-9.7 3.6c-.4.2-.9.2-1.4 0-.4-.1-.8-.4-1-.7-.3-.4-.3-.8-.2-1.2.1-.4.4-.7.8-1Z" fill="#fff" stroke="#263238" stroke-miterlimit="10"/><path d="M535 268c-.5 2-2.6 3.5-4.6 3.1-2-.3-3.3-2.3-2.8-4.4.6-2 2.6-3.5 4.7-3.1 2 .3 3.2 2.3 2.7 4.4Z" fill="#fff" stroke="#263238" stroke-linecap="round" stroke-linejoin="round"/><path d="M541.5 272.5h-.3l-10-3.2c-.4-.1-.7-.4-1-.8v-1.2c.2-.4.6-.7 1-1 .5-.1 1-.2 1.5 0l9.9 3c.4.2.8.5 1 .8.2.4.3.8.2 1.2-.2.4-.5.8-.9 1-.4.2-1 .3-1.4.2Z" fill="#fff" stroke="#263238" stroke-miterlimit="10"/><path d="M471.9 424.8c-.5 2-2.6 3.4-4.7 3-2-.3-3.2-2.3-2.7-4.4.5-2 2.6-3.4 4.7-3 2 .3 3.2 2.3 2.7 4.4Z" fill="#fff" stroke="#263238" stroke-linecap="round" stroke-linejoin="round"/><path d="M478.4 429.2h-.3l-10-3.1c-.4-.2-.8-.5-1-.9V424c.2-.4.5-.7 1-.9.4-.2 1-.2 1.4-.1l10 3c.4.2.8.5 1 .9.2.3.3.8.1 1.2-.1.4-.4.7-.8 1-.5.1-1 .2-1.4.1Z" fill="#fff" stroke="#263238" stroke-miterlimit="10"/><path d="m426.8 416-5.5-2.3-5.4 2.2-1.4 5 3.8 4h6l3.8-4-1.3-5Zm-4 6.3h-3l-2-2 .7-2.5 2.8-1.2 2.8 1.2.7 2.5-2 2ZM519.2 174.3l-5.5-2.2-5.5 2.2-1.3 5 3.8 4h6l3.8-4-1.3-5Zm-4 6.4h-3l-2-2 .7-2.5 2.8-1.2 2.8 1.1.7 2.6-2 2ZM470.2 149.3l-5.5-2.2-5.4 2.2-1.4 5 3.8 4h6l3.8-4-1.3-5Zm-4 6.4h-3l-2-2 .8-2.5 2.7-1.2 2.8 1.1.7 2.6-2 2ZM181.9 456.2l-5.5-2.2-5.4 2.2-1.4 5 3.8 4h6l3.8-4-1.3-5Zm-3.9 6.4H175l-2-2 .8-2.6 2.7-1 2.8 1 .7 2.5-1.9 2ZM134.1 360.2l-5.5-2.2-5.4 2.2-1.4 5 3.8 4h6l3.8-4-1.3-5Zm-3.9 6.4h-3l-2-2 .7-2.6 2.7-1 2.8 1 .7 2.5-1.9 2ZM91.1 234.6l-5.4-2.2-5.5 2.2-1.3 5 3.7 4h6.1l3.8-4-1.4-5Zm-3.9 6.4h-3l-2-2 .7-2.5 2.8-1.2 2.7 1.1.7 2.6-1.9 2ZM280 301l-5.5-2.2-5.4 2.2-1.4 5 3.8 4h6l3.8-4-1.3-5Zm-4 6.4h-3l-2-2 .8-2.5 2.7-1.2 2.8 1.2.7 2.5-2 2Z" fill="#fff" stroke="#263238" stroke-linecap="round" stroke-linejoin="round"/><path d="M36 79.4h187v40" stroke="#8E8E8E" stroke-linecap="round" stroke-linejoin="round"/><path d="M34.5 92h122.7l18.4-12.6M194.6 79.4l-17-17H35.2M36.7 49.7h107L158 62.4" stroke="#8E8E8E" stroke-linecap="round" stroke-linejoin="round"/><path d="m149 79.2-9.9-6.8H36M227.5 114.6l-4.7 5.7-4-5.5M36 102.6h158.5v17" stroke="#8E8E8E" stroke-linecap="round" stroke-linejoin="round"/><path d="m199 114.9-4.6 5.7-4-5.5M150.3 55.6h93.6v64.3" stroke="#8E8E8E" stroke-linecap="round" stroke-linejoin="round"/><path d="m248.5 115.2-4.7 5.7-4-5.5M561.4 79.4h-187v40" stroke="#8E8E8E" stroke-linecap="round" stroke-linejoin="round"/><path d="M562.9 92H440l-18.4-12.6M402.7 79.4l17-17h142.4M560.6 49.7h-107l-14.4 12.7" stroke="#8E8E8E" stroke-linecap="round" stroke-linejoin="round"/><path d="m448.4 79.2 9.8-6.8h103.2M369.8 114.6l4.7 5.7 4-5.5M561.4 102.6H402.8v17" stroke="#8E8E8E" stroke-linecap="round" stroke-linejoin="round"/><path d="m398.3 114.9 4.6 5.7 4-5.5M447 55.6h-93.6v64.3" stroke="#8E8E8E" stroke-linecap="round" stroke-linejoin="round"/><path d="m348.8 115.2 4.7 5.7 4-5.5M299.4 15v104.8M314.4 13.7v61.7l-15 15.4M299.5 106.7 279 92.4v-78M264 15.6V64l15 12.1M299.2 68.4l-8.1-8.2V15M294.8 115l4.7 5.8 4-5.5M327.2 15v104.8M322.6 115l4.7 5.8 4-5.5M271 69.6v50.2M266.4 115l4.7 5.8 4-5.5" stroke="#8E8E8E" stroke-linecap="round" stroke-linejoin="round"/><path d="M217.7 210.2v3.6h-10.3v12.5h12.7v3.6h-17.4v-35.3h17.4v3.6h-12.7v12h10.3ZM233.8 194.6c6.6 0 9.4 2.8 9.4 8v3c0 3.8-1.6 6.2-5.2 7.2 3.8 1 5.3 3.6 5.3 7.4v5.5c-.2 1.4.1 2.9.8 4.2h-4.8a8 8 0 0 1-.7-4.3v-5.5c0-4-2.3-5.3-6.2-5.3h-3.3v15h-4.7v-35.2h9.4Zm-1.2 16.6c3.7 0 6-1 6-4.8V203c0-3.2-1.4-4.8-4.9-4.8h-4.6v13h3.5ZM257.5 194.6c6.7 0 9.4 2.8 9.4 8v3c0 3.8-1.6 6.2-5.2 7.2 3.9 1 5.3 3.6 5.3 7.4v5.5c-.1 1.4.2 2.9.9 4.2H263a8 8 0 0 1-.8-4.3v-5.5c0-4-2.2-5.3-6.2-5.3h-3.3v15h-4.7v-35.2h9.4Zm-1.1 16.6c3.7 0 6-1 6-4.8V203c0-3.2-1.5-4.8-5-4.8H253v13h3.5ZM271.5 203.1c0-5.4 3.2-8.9 9.7-8.9 6.4 0 9.7 3.5 9.7 9v18.2c0 5.3-3.2 8.8-9.7 8.8-6.5 0-9.7-3.5-9.7-8.8V203Zm4.7 18.5c0 3.2 1.6 5 5 5 3.3 0 5-1.8 5-5v-18.7c0-3.2-1.6-5-5-5-3.5 0-5 1.8-5 5v18.7ZM304.7 194.6c6.6 0 9.4 2.8 9.4 8v3c0 3.8-1.6 6.2-5.2 7.2 3.8 1 5.3 3.6 5.3 7.4v5.5c-.2 1.4.1 2.9.8 4.2h-4.8c-.6-1.4-.9-2.8-.7-4.3v-5.5c0-4-2.3-5.3-6.2-5.3H300v15h-4.7v-35.2h9.4Zm-1.2 16.6c3.8 0 6-1 6-4.8V203c0-3.2-1.4-4.8-4.9-4.8H300v13h3.5ZM345.5 222.8v7H341v-7h-13.6v-3.6l13.1-24.6h5.1v24.6h3.3v3.6h-3.3Zm-13.8-3.6h9.2V202l-9.2 17.2ZM371.5 203.2c0 10.6-14.3 14.4-14.4 22.6v.5H371v3.6h-18.5v-3c0-11.4 14.3-13.6 14.3-23.6 0-3.6-1.5-5.5-5-5.5s-4.9 2-4.9 5.2v3.1h-4.4v-2.9c0-5.3 3-9 9.4-9 6.5 0 9.6 3.6 9.6 9ZM394.7 203.1v18c0 5.6-3 9.1-9.7 9.1-6.5 0-9.6-3.4-9.6-8.8v-.7h4.5v1c0 3 1.6 5 5 5 3.6 0 5.2-2 5.2-5.7V213a6 6 0 0 1-2.7 2.8c-1.2.7-2.7 1-4.1 1-5.4 0-7.9-3.3-7.9-8.4v-5.4c0-5.4 3.2-8.9 9.7-8.9 6.5 0 9.6 3.5 9.6 9ZM380 203v5.3c0 3.2 1.6 5.1 5 5.1s5-2 5-5v-5.4c0-3.2-1.5-5-5-5-3.4 0-5 1.8-5 5ZM207 258.2V241h-4.4v-1H213v1h-4.5v17.3h-1.4ZM214.7 244.3c0-2.7 1.5-4.7 4.8-4.7s4.8 2 4.8 4.7v9.4c0 2.7-1.4 4.7-4.8 4.7s-4.8-2-4.8-4.7v-9.4Zm1.5 9.5c0 2 .9 3.5 3.3 3.5s3.4-1.5 3.4-3.5v-9.6c0-2-1-3.4-3.4-3.4s-3.3 1.4-3.3 3.4v9.6ZM226.7 244.3c0-2.7 1.5-4.7 4.8-4.7s4.8 2 4.8 4.7v9.4c0 2.7-1.5 4.7-4.8 4.7-3.4 0-4.8-2-4.8-4.7v-9.4Zm1.4 9.5c0 2 1 3.5 3.4 3.5s3.4-1.5 3.4-3.5v-9.6c0-2-1-3.4-3.4-3.4-2.5 0-3.4 1.4-3.4 3.4v9.6ZM251 258.2h-1.4l-4.7-16.3v16.3h-1.3v-18.4h2.1l4.6 16.3 4.6-16.3h2v18.4h-1.3V242l-4.6 16.3ZM261.6 254.2l-1 4h-1.4l4.8-18.4h2.1l4.9 18.4h-1.4l-1.1-4h-6.9Zm.2-1.1h6.5l-3.3-12-3.2 12ZM274.5 258.2h-1.3v-18.4h1.9l6.6 15.6v-15.6h1.3v18.4h-1.6l-6.9-16.4v16.4ZM290 251.2l-5-11.4h1.6l4.2 9.7 4.2-9.7h1.4l-4.9 11.3v7.1h-1.4l-.1-7ZM308 239.8c3.3 0 4.7 1.6 4.7 4.2v1.6c0 2.1-1 3.4-3.2 3.8 2.3.4 3.2 1.8 3.2 3.8v2.8c0 .8.1 1.5.5 2.2h-1.5c-.4-.7-.5-1.4-.5-2.2v-2.9c0-2.4-1.6-3.1-4-3.1h-2.4v8.2h-1.4v-18.4h4.6Zm-.8 9c2.5 0 4-.5 4-3v-1.7c0-2-.9-3.2-3.3-3.2h-3v8h2.3ZM323 248.3v1.1h-6v7.7h7.2v1.1h-8.7v-18.4h8.7v1.1H317v7.4h6ZM336.1 244.3v9.4c.1 1.2-.3 2.3-1 3.2.2.3.4.5.7.6.3.1.7.2 1 .1h.4v1.1h-.4c-.5 0-1 0-1.5-.2s-.8-.5-1.1-.9c-.9.5-1.9.8-2.9.8-3.4 0-4.9-2-4.9-4.7v-9.4c0-2.7 1.5-4.7 4.9-4.7 3.4 0 4.8 2 4.8 4.7Zm-8.2 0v9.5c0 2 1 3.5 3.4 3.5s3.4-1.5 3.4-3.5v-9.6c0-2-1-3.4-3.4-3.4s-3.4 1.4-3.4 3.4ZM340.1 253.8c0 2 1 3.5 3.4 3.5s3.3-1.6 3.3-3.5v-14h1.3v13.9c0 2.6-1.3 4.7-4.7 4.7-3.3 0-4.7-2-4.7-4.7v-13.9h1.4v14ZM358 248.3v1.1h-6v7.7h7.3v1.1h-8.7v-18.4h8.7v1.1H352v7.4h6ZM370.9 244.3v.3h-1.4v-.4c0-2-.9-3.4-3.3-3.4s-3.2 1.4-3.2 3.3c0 4.5 8 4.6 8 9.7 0 2.6-1.5 4.6-4.9 4.6-3.4 0-4.7-2-4.7-4.6v-1h1.3v1c0 2 1 3.4 3.4 3.4s3.3-1.4 3.3-3.4c0-4.4-8-4.5-8-9.6 0-2.8 1.5-4.5 4.7-4.6 3.3 0 4.8 2 4.8 4.7ZM377 258.2V241h-4.5v-1h10.4v1h-4.5v17.3h-1.5ZM394 244.3v.3h-1.4v-.4c0-2-1-3.4-3.3-3.4-2.4 0-3.3 1.4-3.3 3.3 0 4.5 8 4.6 8 9.7 0 2.6-1.4 4.6-4.8 4.6s-4.8-2-4.8-4.6v-1h1.5v1c0 2 .9 3.4 3.3 3.4s3.3-1.4 3.3-3.4c0-4.4-7.9-4.5-7.9-9.6 0-2.8 1.4-4.5 4.7-4.6 3.2 0 4.6 2 4.6 4.7Z" fill="#263238"/><path d="m301 149.1-20.8 30.3a1 1 0 0 0 0 1.2c0 .2.3.4.5.5l.7.2h41.8l.8-.2.5-.5a1 1 0 0 0 0-1.2l-21-30.3c0-.2-.2-.3-.4-.4a1.7 1.7 0 0 0-1.5 0c-.2 0-.4.2-.5.4Z" fill="#263238" stroke="#263238" stroke-miterlimit="10"/><path d="m301 152.8-17 24.8a1 1 0 0 0-.3.6l.2.6.6.5.7.1h34.2l.8-.1.5-.5.2-.6c0-.2 0-.4-.2-.6l-17.1-24.8-.5-.5a1.7 1.7 0 0 0-1.5 0l-.5.5Z" fill="#fff" stroke="#263238" stroke-miterlimit="10"/><path d="M301 166.8v-9.4h2.6v9.4l-.3 6.2h-2l-.4-6.2Zm2.5 7.9v2.8H301v-2.8h2.5Z" fill="#263238"/></svg>