
<svg width="500" height="500" fill="none" xmlns="http://www.w3.org/2000/svg"><path d="M250 490.9c127.4 0 230.7-50.2 230.7-112.1 0-62-103.3-112.1-230.7-112.1-127.4 0-230.7 50.2-230.7 112 0 62 103.3 112.2 230.7 112.2Z" fill="#6C6C6C" fill-opacity=".2"/><path d="M152.1 433.5a2 2 0 0 1-2-1.6l-.4-2.5-3-.7h-.1l-4.3 2a2.5 2.5 0 0 1-2.2-.1l-4.3-2.5a1.7 1.7 0 0 1-.1-2.9l2.6-1.8-.7-1-5.4-.3a2 2 0 0 1-1.8-2V417a2 2 0 0 1 1.8-2l5.4-.3.7-1-2.6-1.8a1.7 1.7 0 0 1-.8-1.5 1.7 1.7 0 0 1 1-1.4l4.2-2.4c.3-.2.8-.4 1.2-.4.3 0 .7.1 1 .3l4.3 2c1-.4 2-.6 3.1-.8l.5-2.4a2 2 0 0 1 2-1.7h6.2a2 2 0 0 1 2 1.7l.5 2.4c1 .2 2 .4 3 .8h.1l4.3-2c.3-.2.6-.3 1-.3s.8.1 1.2.4l4.2 2.4a1.7 1.7 0 0 1 .9 1.4 1.8 1.8 0 0 1-.7 1.5l-2.6 1.8.6 1 5.4.4a2 2 0 0 1 1.8 1.9v3.1a2 2 0 0 1-1.8 2l-5.4.3-.6 1 2.6 1.9a1.8 1.8 0 0 1 .7 1.4 1.7 1.7 0 0 1-.9 1.4l-4.2 2.5-1.2.3c-.4 0-.7 0-1-.2l-4.3-2-3.1.8-.5 2.4a2 2 0 0 1-2 1.6h-6.3Zm3.2-19.4c-2.3 0-4.5.5-6.5 1.5-1.5.9-2.3 2-2.3 3s.8 2 2.3 3a14.5 14.5 0 0 0 13 0c1.4-1 2.3-2 2.3-3s-.9-2.1-2.3-3c-2-1-4.3-1.6-6.5-1.5ZM200.6 405.6a2.2 2.2 0 0 1-1.6-.7l-1.7-1.8H195l-1.8 2a2 2 0 0 1-1.5.5h-.5l-4.2-1a1.8 1.8 0 0 1-1.3-1 1.6 1.6 0 0 1 0-1.5l.7-1.3-1-.6-4 .7h-.3a2.1 2.1 0 0 1-1.7-1l-1.6-2.1c-.2-.3-.3-.7-.3-1a1.6 1.6 0 0 1 1.1-1.6l3-1v-.1l-2.9-1a1.7 1.7 0 0 1-1.3-1.5v-.1l.3-1 1.8-2.3a2 2 0 0 1 1.6-.8h.4l3.9.7.9-.6h.1l-.6-1.3-.2-.7V385.2a1.6 1.6 0 0 1 1.2-1.4l4.4-1h.5a2.2 2.2 0 0 1 1.6.6l1.7 1.8h2.4l1.8-1.9a2 2 0 0 1 1.5-.6h.5l4.2 1a1.7 1.7 0 0 1 1.4 1.7l-.1.7-.7 1.4h.1l.9.6 4-.7h.3a2.2 2.2 0 0 1 1.7 1l1.6 2.1c.2.3.3.7.3 1V391.8a1.6 1.6 0 0 1-1 1.3l-3.2 1v.2l3 .9a1.7 1.7 0 0 1 1 2.5L213 400v.1a2 2 0 0 1-1.7.8h-.4l-3.9-.6-1 .6.7 1.2a1.7 1.7 0 0 1 0 1.5 1.6 1.6 0 0 1-1.2 1l-4.3 1a2 2 0 0 1-.6 0ZM190 395l.8.8.5.4 2.1.8a11.3 11.3 0 0 0 7.4-.8l.5-.3.8-.8a1.4 1.4 0 0 0 .1-1.6v-.1l-.2-.2c-1-.9-2-1.4-3.2-1.6-.9-.3-1.7-.4-2.6-.4-2.6 0-5.1 1-6 2.2a1.4 1.4 0 0 0-.3 1.4v.1l.2.2-.1-.1ZM257.8 424.3l35.9-20.7a1.2 1.2 0 0 0 0-2.2l-8.8-5a4.3 4.3 0 0 0-3.8 0L245 417a1.2 1.2 0 0 0-.5 1.8c.1.2.3.3.6.4l4.4 2.6-45 26c-1 .6-.6.8-.2 1 .5.4 1 .6 2 0l45-26 2.6 1.5a4.3 4.3 0 0 0 3.8 0ZM244.3 384.6a16.1 16.1 0 0 1-8.7-2.4l-1.3-1 11.2-1.6 1-2.2-3-1.8-10.8 1.6.4-1a7 7 0 0 1 3.3-3.5c2.4-1.3 5.1-2 7.9-2 1.2 0 2.4.2 3.6.4l36.8-21.2c-.4-1-.5-2-.3-3a6.7 6.7 0 0 1 3.4-4c2.5-1.3 5.2-2 8-1.9a16.1 16.1 0 0 1 8.7 2.5l1.3.9-11.3 1.7-1 2 3 1.9 10.8-1.6-.3 1a7 7 0 0 1-3.4 3.6 18.8 18.8 0 0 1-11.5 1.5l-36.8 21.2c.5 1 .6 2 .3 3a6.6 6.6 0 0 1-3.4 4c-2.4 1.3-5.2 2-8 1.9ZM387 433.9c31.5 0 57-14.8 57-33 0-18.1-25.5-32.9-57-32.9s-57 14.8-57 33c0 18.1 25.5 32.9 57 32.9Z" fill="#1E1E1E" fill-opacity=".2"/><path d="m205.1 353.4-58.7-34V317l54-31.2 58.7 34v2.5l-54 31.2Z" fill="#5A81FA"/><path d="m146.4 316.9 58.7 33.9 54-31.2-58.7-33.9-54 31.2Z" fill="#5A81FA"/><path opacity=".1" d="m146.4 316.9 58.7 33.9 54-31.2-58.7-33.9-54 31.2Z" fill="#000"/><path d="M219.7 331a4.3 4.3 0 0 0 4 0 1.2 1.2 0 0 0 .7-1.1 1.2 1.2 0 0 0-.8-1.2 4.3 4.3 0 0 0-4 0 1.2 1.2 0 0 0 0 2.3Z" fill="#37474F"/><path opacity=".3" d="M205.1 350.8v2.6l-58.7-34V317l58.7 33.9Z" fill="#000"/><path d="m128.3 115.9 65.5 37.8a4.8 4.8 0 0 1 2.2 3.8v198.8a4.8 4.8 0 0 1-2.2 3.8L123 401a4.8 4.8 0 0 1-4.4 0l-65.4-37.8a4.8 4.8 0 0 1-2.2-3.8V160.6a4.9 4.9 0 0 1 2.2-3.8l70.8-40.9a4.8 4.8 0 0 1 4.3 0Z" fill="#5A81FA"/><path d="M51 160.6v198.8a4.9 4.9 0 0 0 2.2 3.8l65.4 37.8c.7.4 1.4.5 2.2.5V197.6c-.8 0-1.5-.2-2.2-.5l-65.4-37.8-.6-.5-.8-.6c-.5.7-.8 1.5-.8 2.4Z" fill="#5A81FA"/><path opacity=".3" d="M51 160.6v198.8a4.9 4.9 0 0 0 2.2 3.8l65.4 37.8c.7.4 1.4.5 2.2.5V197.6c-.8 0-1.5-.2-2.2-.5l-65.4-37.8-.6-.5-.8-.6c-.5.7-.8 1.5-.8 2.4Z" fill="#000"/><path d="m53.2 156.8 70.8-40.9a4.8 4.8 0 0 1 4.4 0l65.4 37.8a1.3 1.3 0 0 1 1 1.3 1.3 1.3 0 0 1-1 1.2L123 197.1a4.9 4.9 0 0 1-4.4 0l-65.4-37.8a1.3 1.3 0 0 1-.7-2c.2-.3.4-.4.7-.5Z" fill="#5A81FA"/><path opacity=".1" d="m53.2 156.8 70.8-40.9a4.8 4.8 0 0 1 4.4 0l65.4 37.8a1.3 1.3 0 0 1 1 1.3 1.3 1.3 0 0 1-1 1.2L123 197.1a4.9 4.9 0 0 1-4.4 0l-65.4-37.8a1.3 1.3 0 0 1-.7-2c.2-.3.4-.4.7-.5Z" fill="#000"/><path d="m188.1 291.6-58.7 34v62.3l58.7-34v-62.3Z" fill="#455A64"/><path d="M159.3 336.2a.6.6 0 0 0-.7 0L134.8 350l-.7.6-1.6-.9.6-.6 23.4-13.5a1.8 1.8 0 0 1 1.8 0l1 .6Z" fill="#263238"/><path d="M133.9 351.5v26.7c0 .6.4.8.8.5l24-13.7a1.9 1.9 0 0 0 .8-1.5v-26.8c0-.5-.4-.8-.8-.5l-24 13.8a1.9 1.9 0 0 0-.8 1.5Z" fill="#37474F"/><path d="m134.1 378.8-1-.6a1.9 1.9 0 0 1-.8-1.5v-26.2c0-.3 0-.6.2-.8l1.6 1-.2.8v26.7a.7.7 0 0 0 .2.6Z" fill="#263238"/><path d="M135.8 376.3h-.2a.5.5 0 0 1-.2-.5V352a1.3 1.3 0 0 1 .6-1l21.3-12.3a.5.5 0 0 1 .5 0 .5.5 0 0 1 .2.5V363a1.3 1.3 0 0 1-.6 1l-21.3 12.3h-.3Zm21.8-37.4h-.2l-21.3 12.3a1 1 0 0 0-.5.8v23.8l.1.3a.3.3 0 0 0 .3 0l21.3-12.3a1 1 0 0 0 .5-.8V339l-.1-.2h-.1Z" fill="#5A81FA"/><path d="M137.5 373.2h-.1a.3.3 0 0 1-.2-.3v-20.2a.7.7 0 0 1 .3-.5l18.2-10.5a.3.3 0 0 1 .3 0 .3.3 0 0 1 .2.3v20.2a.6.6 0 0 1-.3.5l-18.2 10.5h-.2Zm18.4-31.3-18.2 10.6-.2.2V373l18.2-10.4.1-.2V342h.1ZM138.7 346.9h-.2v-6a.2.2 0 1 1 .4 0v5.9h-.2ZM142.7 344.6a.2.2 0 0 1-.2-.2v-5.8a.2.2 0 1 1 .4 0v5.8a.2.2 0 0 1-.2.2ZM146.7 342.3h-.1l-.1-.1v-6a.2.2 0 0 1 .4.2v5.7a.2.2 0 0 1-.2.2ZM150.7 340a.2.2 0 0 1-.3-.2V334h.1a.2.2 0 0 1 .4 0v5.8a.3.3 0 0 1-.2.2ZM154.7 337.7a.2.2 0 0 1-.3-.2v-5.7a.2.2 0 0 1 0-.2h.4v.1l.1.1v5.9h-.2Z" fill="#5A81FA"/><path d="M159.3 315.1a.6.6 0 0 0-.7 0L134.8 329l-.7.6-1.6-.9.6-.6 23.4-13.5a2 2 0 0 1 1.8 0l1 .6Z" fill="#263238"/><path d="M133.9 330.4v13.5c0 .5.4.8.8.5l24-13.8a1.9 1.9 0 0 0 .8-1.4v-13.6c0-.5-.4-.7-.8-.4l-24 13.7a1.9 1.9 0 0 0-.8 1.5Z" fill="#37474F"/><path d="m134.1 344.4-1-.5a1.9 1.9 0 0 1-.8-1.5v-13c0-.2 0-.5.2-.8l1.6 1-.2.8v13.5a.7.7 0 0 0 .2.5Z" fill="#263238"/><path d="M135.8 342h-.2a.5.5 0 0 1-.2-.5V331a1.3 1.3 0 0 1 .6-1l21.3-12.3a.5.5 0 0 1 .7.5v10.5a1.3 1.3 0 0 1-.6 1L136.1 342h-.3Zm21.8-24.2h-.2l-21.3 12.3a1 1 0 0 0-.5.9v10.5l.1.2a.3.3 0 0 0 .3 0l21.3-12.2a1 1 0 0 0 .5-.9V318h-.2Z" fill="#5A81FA"/><path d="M137.5 338.9h-.1a.3.3 0 0 1-.2-.3v-6.9a.8.8 0 0 1 .3-.5l18.2-10.5H156l.1.1v7.1a.6.6 0 0 1-.2.6l-18.2 10.4h-.2Zm18.4-18-18.2 10.5-.2.2v7l18.2-10.5h.1v-7.3ZM164 312.4a3.1 3.1 0 0 0-1.3 2.4c0 .9.6 1.3 1.4.8a3.1 3.1 0 0 0 1.4-2.4c0-1-.6-1.3-1.4-.8ZM164 336.4a3.1 3.1 0 0 0-1.3 2.4c0 .9.6 1.3 1.4.8a3.1 3.1 0 0 0 1.4-2.4c0-1-.6-1.3-1.4-.8ZM164 342.8a3.1 3.1 0 0 0-1.3 2.4c0 1 .6 1.3 1.4.9a3.1 3.1 0 0 0 1.4-2.5c0-.9-.6-1.2-1.4-.8ZM164 349.3a3.1 3.1 0 0 0-1.3 2.4c0 .9.6 1.3 1.4.8a3.1 3.1 0 0 0 1.4-2.4c0-1-.6-1.3-1.4-.8ZM164 355.7a3.1 3.1 0 0 0-1.3 2.5c0 .9.6 1.2 1.4.8a3.1 3.1 0 0 0 1.4-2.5c0-.9-.6-1.2-1.4-.8ZM164 318.2a3.1 3.1 0 0 0-1.3 2.4c0 1 .6 1.3 1.4.8a3.1 3.1 0 0 0 1.4-2.4c0-.9-.6-1.3-1.4-.8ZM164 324a3.1 3.1 0 0 0-1.3 2.4c0 1 .6 1.3 1.4.9a3.1 3.1 0 0 0 1.4-2.5c0-.9-.6-1.2-1.4-.8Z" fill="#5A81FA"/><path d="m179.5 315.4-.1-1.3v-.1a.1.1 0 0 0-.2 0 3 3 0 0 1-.6 0h-.2l-.1.2-.3.4 1.5.9v-.1Zm1.1-9.2v.3a5 5 0 0 1-2.3 4l-.2.2c.1 1.2 1 1.7 2.2 1a5 5 0 0 0 2.3-4c0-1.4-.8-2-2-1.5Zm5-1.1-1.6-1-.2.5a.3.3 0 0 0 0 .3 3 3 0 0 1 .3.7h.1l1.3-.5Zm-3-3.5-.9-.5h-.1l-.7 1.1-1-.5-.6-.4-1 .5-.4.3v.1l-.2 1.5v.1l-.1.2a8.1 8.1 0 0 0-.9.9h-.1l-.9-.3h-.1l-.5.7-.4.7-.2.3V306.6l.8.5V307.4a8.5 8.5 0 0 0-.4 1.2v.1l-1.3.9V311.6l1.5 1-.6 1v.2l.1.1 1.9 1.1a.2.2 0 0 1 0-.2l.8-1.6V312.8a3.3 3.3 0 0 1-.3-.7h-.2l-.6.2-.6.3h-.1v-1.8l.1-.1 1.3-.9.1-.2a8.5 8.5 0 0 1 .3-1.2v-.2l-.7-.6c-.1-.1-.1-.2 0-.2l.2-.5.3-.6.4-.6.2-.1 1 .3.2-.1.7-.8.1-.2.2-1.6.1-.2.3-.2.5-.3.6-.3h.1v.8l.2.6v.1a.1.1 0 0 0 .1 0 3 3 0 0 1 .8 0v-.1h.1l1-1.6H184l-1.4-.4Z" fill="#263238"/><path opacity=".1" d="m179.5 303.5-.1 1.5v.1l-2-1.1v-.1l.1-1.5 2 1ZM178.4 306.2h-.2l-.8-.3h-.1l-2-1.1.9.3h.2l2 1ZM177 308.7l-2-1.1v-.1h-.1l-.7-.7v-.1l2 1.1v.1l.7.7v.1ZM177 313.3l-.9 1.7v.1l-1.9-1a.2.2 0 0 1 0-.3l.5-1.1.5.2.7-.3 1 .7ZM179.5 315.4l-1.5-.8.3-.4v-.1h.2a3 3 0 0 0 .7-.1h.1l.2 1.4ZM183.6 302.3h-.2l-1 1.5v.1l-.6-.3-.5-.3-.1-.7v-.1l-.5-.2.7-1.1h.2l.8.5 1.2.6ZM176.5 310v.1l-1.3.9-2-1v-.2l1.2-.8.1-.1 2 1.1Z" fill="#000"/><path d="m185.5 305-1.2.6h-.2a3 3 0 0 0-.3-.7.3.3 0 0 1 0-.3l.8-1.6a.2.2 0 0 0 0-.2l-1-.5h-.2l-1 1.5v.1h-.2a3 3 0 0 0-.7.1h-.1a.1.1 0 0 1 0-.1l-.2-1.3v-.1h-.1l-1.4.8a.3.3 0 0 0-.2.2l-.1 1.5-.1.3-.8.8h-.1c0 .1-.1.1-.2 0l-.8-.2h-.2l-1 1.8-.1.1v.1l.7.7h.1v.2l-.3 1c0 .2-.1.3-.2.3l-1.2.9-.1.1v1.8l1.3-.5h.2c0 .3.2.5.3.7V313.4l-.8 1.6a.2.2 0 0 0 0 .2l.9.5h.2l1-1.5h.2l.1-.1a3 3 0 0 0 .7 0 .1.1 0 0 1 .1 0l.2 1.3c0 .1 0 .2.1.1l1.4-.8a.4.4 0 0 0 .1-.2l.2-1.5.1-.3.8-.8h.2l.9.3h.1l.1-.1 1-1.8v-.2l-.7-.6V309.2l.3-1c0-.1 0-.2.2-.3l1.2-.9a.3.3 0 0 0 .1-.2v-1.6a.1.1 0 0 0-.1-.1Zm-5.2 6.6c-1.2.8-2.2.2-2.2-1.3a5 5 0 0 1 2.3-4c1.2-.7 2.2 0 2.2 1.4a5 5 0 0 1-2.3 4Z" fill="#37474F"/><path d="m176.2 318.6-.4-.2-.9-.5h-1.1l-.5 1.3v.1l-.2.1-.3.1-.8-.5h-.1l-.7.7-.3.3v.1l.3 1v.2l-.4.7-.1.1h-.1l-.8.3h-.1l-.3 1-.1.4.5.4.4.2v.3a.3.3 0 0 1-.1.2l-.8 1v.2l.4.9 1.6 1v-.2l-.1-.4-.2-.3v-.2l.9-1V325.6a4 4 0 0 1 0-.7.1.1 0 0 0-.1 0h-.8v-.2l.1-.6.2-.7.2-.1.8-.2.2-.2.4-.7v-.2l-.3-1 .1-.1.6-.7.3-.3h.2l.4.7h.2a4.2 4.2 0 0 1 .6-.4v-.1l.6-1.3.3-.1h.7-.4Zm-3.6 9v-.1c-.2 0-.3-.2-.5-.3h-.2l-.8.8h-.1l.8.5.6.3.2-1.2Zm3.8-8.9-.3 1.3a.1.1 0 0 0 .1.1l.4.3h.2l.8-.8h.2l-1.4-.9Zm-1.1 9-.5-.7h-.2l-.2.2.9.5Zm.6-5.5a.8.8 0 0 0-.6-.5h-.7v.3a3.7 3.7 0 0 1-1.7 3h-.2v.5a.8.8 0 0 0 .9.6h.3c.4-.2.8-.4 1.1-.8a3.2 3.2 0 0 0 1-3.1Zm1.4 0v.4a.1.1 0 0 0 .1 0H178.2l-1-.4Z" fill="#263238"/><path opacity=".1" d="m175.3 327.7-1-.5.3-.2h.2l.5.7ZM172.3 328.9l-.5-.3-.9-.4h.1l.9-.8h.2l.4.2v.1l-.2 1.2ZM171.5 326h-.1l-.8 1v.2l-1.7-1v-.1l.8-1v-.1l1.8 1ZM171.5 325.2v.7l-1.8-1v-.4l.9.5H171.4l.1.1ZM172 323.1h-.1l-.8.3h-.2l-1.7-1h.1l.8-.1.1-.1 1.8 1ZM172.6 322v.2l-1.7-1v-.1l-.3-.9 1.7 1 .3.9ZM175.3 318.9l-.4 1.3h-.1l-1.7-1 .5-1.2 1.7.9Z" fill="#000"/><path d="M178.2 322.7h-.9v-1l.9-1a.2.2 0 0 0 0-.2l-.4-.9h-.1l-.9.8s-.2.1-.2 0a2 2 0 0 0-.4-.2v-.1l.2-1.3H175.4l-.2.1-.4 1.3v.1h-.2l-.5.4h-.2l-.4-.7h-.2l-.3.3-.6.7v.2l.2.9v.2a8 8 0 0 0-.4.7l-.1.1h-.1l-.8.3h-.2v.1l-.2.7-.2.7H171.6v.2a4 4 0 0 0 0 .8l-.8 1v.2l.1.4.1.2V328h.2l.8-.8h.2l.4.3v.1l-.2 1.2v.1h1a.3.3 0 0 0 .1-.2l.5-1.2a.3.3 0 0 1 .2-.2l.2-.2.3-.1h.2l.4.6h.1l1-1v-.2l-.2-.8v-.3a8 8 0 0 0 .6-.8l.9-.2.2-.2.3-1.3Zm-4.3 3.3h-.3a.8.8 0 0 1-.8-.5l-.1-.5v-.2c0-1 .4-1.8 1-2.4l.7-.5.2-.2h.7a.8.8 0 0 1 .7.4 3.2 3.2 0 0 1-1 3.1c-.2.4-.6.7-1 .8Z" fill="#37474F"/><path d="M175.3 341.7a6.4 6.4 0 0 0-3.6 3 6 6 0 0 0 .2 5.6c-.6 1-1 2.3-1 3.5a7.7 7.7 0 0 0 5.1 7h.3l.9-.5a8.3 8.3 0 0 1-4.7-4.3 5.8 5.8 0 0 1 .1-4.6c.5.6 1 1.2 1.7 1.6 1.7 1.1 5.1 2 6.7.2a2.8 2.8 0 0 0-.1-3.7 5.6 5.6 0 0 0-4-2 5.6 5.6 0 0 0-4.2 1.8c-.3-.8-.5-1.7-.4-2.5a5 5 0 0 1 3.5-4.2c1.5 2.3 4.7 4.3 7.1 2.4 2.5-2-1.5-3.6-3-3.8-1.2-.1-2.4 0-3.5.2-.2-.6-.3-1.3-.2-2 .2-1 .8-2 1.7-2.6a5.6 5.6 0 0 1 6.6-.4.4.4 0 0 0 .5 0 .4.4 0 0 0 0-.6c-4-3.6-11.7.8-9.7 5.9Zm-.6 7.4a4.2 4.2 0 0 1 3.7-.2c1 .5 2.2 1.5 2 2.7-.3 2.2-3.2 1.6-4.6 1-1-.5-2-1.2-2.6-2.2.4-.5 1-1 1.5-1.3Zm3-6.9c1-.1 2.1 0 3.1.2.5.2 1.8.6 1.7 1.3 0 .4-.6.8-1 .9-.5.2-1 .2-1.6 0-1-.3-2-1-2.8-2l-.2-.3h.8Z" fill="#5A81FA"/><path opacity=".7" d="M175.3 341.7a6.4 6.4 0 0 0-3.6 3 6 6 0 0 0 .2 5.6c-.6 1-1 2.3-1 3.5a7.7 7.7 0 0 0 5.1 7h.3l.9-.5a8.3 8.3 0 0 1-4.7-4.3 5.8 5.8 0 0 1 .1-4.6c.5.6 1 1.2 1.7 1.6 1.7 1.1 5.1 2 6.7.2a2.8 2.8 0 0 0-.1-3.7 5.6 5.6 0 0 0-4-2 5.6 5.6 0 0 0-4.2 1.8c-.3-.8-.5-1.7-.4-2.5a5 5 0 0 1 3.5-4.2c1.5 2.3 4.7 4.3 7.1 2.4 2.5-2-1.5-3.6-3-3.8-1.2-.1-2.4 0-3.5.2-.2-.6-.3-1.3-.2-2 .2-1 .8-2 1.7-2.6a5.6 5.6 0 0 1 6.6-.4.4.4 0 0 0 .5 0 .4.4 0 0 0 0-.6c-4-3.6-11.7.8-9.7 5.9Zm-.6 7.4a4.2 4.2 0 0 1 3.7-.2c1 .5 2.2 1.5 2 2.7-.3 2.2-3.2 1.6-4.6 1-1-.5-2-1.2-2.6-2.2.4-.5 1-1 1.5-1.3Zm3-6.9c1-.1 2.1 0 3.1.2.5.2 1.8.6 1.7 1.3 0 .4-.6.8-1 .9-.5.2-1 .2-1.6 0-1-.3-2-1-2.8-2l-.2-.3h.8Z" fill="#fff"/><path d="m172.3 352.4.3-1-.7-1a7 7 0 0 0-.5 1l.9 1ZM174.6 343.2l1.2-.6-.5-.9-1.3.6.6 1ZM176.3 360.8l.8-.5-1-.5-1 .5.9.4.3.1ZM199.5 344.7c-1.3-1-3-1.5-4.6-1.3a6 6 0 0 0-4.5 3.3 6.4 6.4 0 0 0-3.5 1.2 7.6 7.6 0 0 0-2.9 7.2l.2.9v.2l.8-.4v-.3c-.2-1.7.1-3.6 1-5a6 6 0 0 1 3.9-2.5c-.2.7-.3 1.4-.3 2.2 0 2.1 1.3 5.4 3.7 5.7a2.8 2.8 0 0 0 3-2.3 5.5 5.5 0 0 0-2.4-6c-.7-.4-1.4-.6-2.2-.8.5-.7 1.2-1.3 2-1.8a5 5 0 0 1 5.3.6c-1 2.4-.9 6.2 2 7.1 3 1 2.3-3.2 1.5-4.6-.6-1-1.3-2-2.1-2.7.4-.6.9-1 1.5-1.4 1-.4 2-.4 3.1 0a5.6 5.6 0 0 1 4.1 5.3v.1a.4.4 0 0 0 .7 0v-.2c.7-5.2-7.4-9-10.3-4.5Zm-6.5 3.7a4.2 4.2 0 0 1 2.2 3c.2 1 .1 2.5-1 3.1-2 1-3.1-1.8-3.4-3.2-.2-1.2-.1-2.4.4-3.4.6 0 1.2.2 1.8.5Zm7.4-1.5c.7.8 1.2 1.7 1.5 2.7.2.4.6 1.8 0 2.1-.4.2-1-.1-1.3-.3-.5-.3-.8-.8-1-1.3a5.4 5.4 0 0 1 .2-3.8l.6.6Z" fill="#5A81FA"/><path opacity=".7" d="M199.5 344.7c-1.3-1-3-1.5-4.6-1.3a6 6 0 0 0-4.5 3.3 6.4 6.4 0 0 0-3.5 1.2 7.6 7.6 0 0 0-2.9 7.2l.2.9v.2l.8-.4v-.3c-.2-1.7.1-3.6 1-5a6 6 0 0 1 3.9-2.5c-.2.7-.3 1.4-.3 2.2 0 2.1 1.3 5.4 3.7 5.7a2.8 2.8 0 0 0 3-2.3 5.5 5.5 0 0 0-2.4-6c-.7-.4-1.4-.6-2.2-.8.5-.7 1.2-1.3 2-1.8a5 5 0 0 1 5.3.6c-1 2.4-.9 6.2 2 7.1 3 1 2.3-3.2 1.5-4.6-.6-1-1.3-2-2.1-2.7.4-.6.9-1 1.5-1.4 1-.4 2-.4 3.1 0a5.6 5.6 0 0 1 4.1 5.3v.1a.4.4 0 0 0 .7 0v-.2c.7-5.2-7.4-9-10.3-4.5Zm-6.5 3.7a4.2 4.2 0 0 1 2.2 3c.2 1 .1 2.5-1 3.1-2 1-3.1-1.8-3.4-3.2-.2-1.2-.1-2.4.4-3.4.6 0 1.2.2 1.8.5Zm7.4-1.5c.7.8 1.2 1.7 1.5 2.7.2.4.6 1.8 0 2.1-.4.2-1-.1-1.3-.3-.5-.3-.8-.8-1-1.3a5.4 5.4 0 0 1 .2-3.8l.6.6Z" fill="#fff"/><path d="m189 348.2 1-.3c0-.4.2-.8.4-1.2l-1.2.2-.3 1.3ZM197.8 345l1.2.6.5-1-1.3-.7-.4 1ZM184.2 356.2v-.2l-.2-1 1 .5v.3l-.8.4Z" fill="#5A81FA"/><path d="m186 245-54.4 31.4a4.8 4.8 0 0 0-2.2 3.8v18.7c0 1.4 1 2 2.2 1.2l54.3-31.4a4.9 4.9 0 0 0 2.2-3.8v-18.6c0-1.4-1-2-2.2-1.3Z" fill="#455A64"/><path d="M184 253.2a4.7 4.7 0 0 1-2.2 3.7l-46.2 26.6c-1.2.7-2.1.2-2.1-1a4.7 4.7 0 0 1 2.2-3.7l46.1-26.7c1.2-.7 2.2-.2 2.2 1.1Z" fill="#5A81FA"/><path d="M184 262.7a4.7 4.7 0 0 1-2.2 3.7L135.7 293c-1.2.7-2.2.2-2.2-1.1a4.7 4.7 0 0 1 2.2-3.6l46.1-26.7c1.2-.7 2.2-.2 2.2 1.1Z" fill="#263238"/><path d="M181.8 261.6 162.2 273v4.8l19.6-11.3a4.7 4.7 0 0 0 2.2-3.7c0-1.3-1-1.8-2.2-1ZM110.5 201c-2.2-1.2-4 0-4 2.8V304a9.4 9.4 0 0 0 4 7.5c2.3 1.3 4.2 0 4.2-2.7V208.5a9.4 9.4 0 0 0-4.2-7.4Z" fill="#5A81FA"/><path opacity=".5" d="M110.5 201c-2.2-1.2-4 0-4 2.8V304a9.4 9.4 0 0 0 4 7.5c2.3 1.3 4.2 0 4.2-2.7V208.5a9.4 9.4 0 0 0-4.2-7.4Z" fill="#000"/><path d="M110.5 309.2a4.7 4.7 0 0 1-2-3.7V204.8c0-1.4 1-2 2-1.4a4.7 4.7 0 0 1 2 3.7v100.7c0 1.4-.8 2-2 1.4Z" fill="#37474F"/><path d="M110.5 309.2a4.7 4.7 0 0 1-2-3.7v-49.2l4 2.3v49.2c0 1.4-.8 2-2 1.4ZM98.2 194c-2.2-1.3-4-.1-4 2.7V297a9.4 9.4 0 0 0 4 7.4c2.3 1.4 4.1.2 4.1-2.6V201.4a9.4 9.4 0 0 0-4-7.4Z" fill="#5A81FA"/><path opacity=".5" d="M98.2 194c-2.2-1.3-4-.1-4 2.7V297a9.4 9.4 0 0 0 4 7.4c2.3 1.4 4.1.2 4.1-2.6V201.4a9.4 9.4 0 0 0-4-7.4Z" fill="#000"/><path d="M98.2 302a4.7 4.7 0 0 1-2-3.7V197.6c0-1.3.9-2 2-1.3a4.7 4.7 0 0 1 2 3.7v100.7c0 1.4-.9 2-2 1.4ZM85.9 186.8c-2.3-1.3-4.1 0-4.1 2.7V290a9.4 9.4 0 0 0 4 7.4c2.4 1.4 4.2.2 4.2-2.6V194.3a9.4 9.4 0 0 0-4.1-7.5Z" fill="#5A81FA"/><path opacity=".5" d="M85.9 186.8c-2.3-1.3-4.1 0-4.1 2.7V290a9.4 9.4 0 0 0 4 7.4c2.4 1.4 4.2.2 4.2-2.6V194.3a9.4 9.4 0 0 0-4.1-7.5Z" fill="#000"/><path d="M85.9 295a4.7 4.7 0 0 1-2-3.8V190.5c0-1.4 1-2 2-1.3a4.7 4.7 0 0 1 2.1 3.7v100.7c0 1.4-1 2-2.1 1.3Z" fill="#37474F"/><path d="M85.9 295a4.7 4.7 0 0 1-2-3.8v-73l4.1 2.3v73.1c0 1.4-1 2-2.1 1.3ZM73.6 179.7c-2.3-1.3-4.1 0-4.1 2.7v100.4a9.4 9.4 0 0 0 4 7.4c2.3 1.3 4.2.1 4.2-2.6V187.2a9.4 9.4 0 0 0-4.1-7.5Z" fill="#5A81FA"/><path opacity=".5" d="M73.6 179.7c-2.3-1.3-4.1 0-4.1 2.7v100.4a9.4 9.4 0 0 0 4 7.4c2.3 1.3 4.2.1 4.2-2.6V187.2a9.4 9.4 0 0 0-4.1-7.5Z" fill="#000"/><path d="M73.6 287.8a4.7 4.7 0 0 1-2-3.7V183.4c0-1.4.8-2 2-1.3a4.7 4.7 0 0 1 2 3.7v100.7c0 1.4-.9 2-2 1.3Z" fill="#37474F"/><path d="M73.6 287.8a4.7 4.7 0 0 1-2-3.7v-18.4l4 2.4v18.4c0 1.4-.9 2-2 1.3ZM61.2 172.6c-2.2-1.3-4-.1-4 2.7v100.4a9.4 9.4 0 0 0 4 7.4c2.3 1.3 4.1.1 4.1-2.7V180.1a9.4 9.4 0 0 0-4-7.5Z" fill="#5A81FA"/><path opacity=".5" d="M61.2 172.6c-2.2-1.3-4-.1-4 2.7v100.4a9.4 9.4 0 0 0 4 7.4c2.3 1.3 4.1.1 4.1-2.7V180.1a9.4 9.4 0 0 0-4-7.5Z" fill="#000"/><path d="M61.2 280.7a4.7 4.7 0 0 1-2-3.7V176.3c0-1.4 1-2 2-1.3a4.7 4.7 0 0 1 2.1 3.7v100.7c0 1.4-1 2-2 1.3Z" fill="#37474F"/><path d="M61.2 280.7a4.7 4.7 0 0 1-2-3.7v-54l4.1 2.4v54c0 1.4-1 2-2 1.3Z" fill="#5A81FA"/><path d="m186 169.3-54.4 31.4a4.8 4.8 0 0 0-2.2 3.8V267c0 1.4 1 2 2.2 1.3l54.3-31.4a4.9 4.9 0 0 0 2.2-3.8v-62.5c0-1.4-1-2-2.2-1.3Z" fill="#37474F"/><path d="M130 202.4c-.4.7-.6 1.4-.6 2.1V267c0 1.4 1 2 2.2 1.3l54.4-31.4c.6-.5 1.2-1 1.6-1.8L130 202.4Z" fill="#263238"/><path d="M131.6 200.7a4.8 4.8 0 0 0-2.2 3.8V267l54.3-31.4a4.9 4.9 0 0 0 2.2-3.8v-62.5l-54.3 31.4Z" fill="#455A64"/><path d="M149.5 217.1c-.3 0-.6 0-.8-.3l-7.2-7a1.1 1.1 0 0 1 .3-1.8 1.1 1.1 0 0 1 .9 0l.3.2 7.3 7a1.1 1.1 0 0 1-.8 1.9Z" fill="#5A81FA"/><path d="M142.2 221.3a1.1 1.1 0 0 1-1-1.6l7.2-15.3a1.1 1.1 0 0 1 1.1-.6h.4a1.1 1.1 0 0 1 .6 1.6l-7.2 15.3a1.1 1.1 0 0 1-1 .6ZM173 203.5c-.2 0-.5-.1-.7-.3l-7.2-7a1.1 1.1 0 0 1-.3-1.2 1.1 1.1 0 0 1 1-.7 1.1 1.1 0 0 1 .8.3l7.3 7a1.1 1.1 0 0 1-.8 2Z" fill="#5A81FA"/><path d="m165.8 207.7-.4-.1a1.1 1.1 0 0 1-.6-1.5l7.3-15.3a1.1 1.1 0 0 1 2 1l-7.2 15.2a1.1 1.1 0 0 1-1 .7ZM142 238.7a1.1 1.1 0 0 1-.7-2.2l31.5-18.1a1.1 1.1 0 0 1 1.5.4 1.1 1.1 0 0 1-.4 1.5l-31.4 18.2a1 1 0 0 1-.6.2Z" fill="#5A81FA"/><path d="M163.8 239.2c-.5 0-1-.2-1.5-.5a4.2 4.2 0 0 1-1.8-3.8v-8.7a1.1 1.1 0 0 1 1.9-.8c.2.2.3.5.3.8v8.8a2 2 0 0 0 .7 1.8 1.6 1.6 0 0 0 1.6-.2 7.9 7.9 0 0 0 3.3-6.2v-8.7a1.1 1.1 0 0 1 .7-1.2 1.1 1.1 0 0 1 1.3.3 1.1 1.1 0 0 1 .3.9v8.8a10 10 0 0 1-4.5 8c-.7.4-1.5.7-2.3.7Z" fill="#5A81FA"/><path d="M165.5 233.5a1.1 1.1 0 0 1-1.1-1.1v-8.5a1.1 1.1 0 1 1 2.3 0v8.5a1.1 1.1 0 0 1-.7 1l-.5.1Z" fill="#5A81FA"/><path d="M66.2 363.4a2.1 2.1 0 0 1 1 1.7c0 .6-.5.8-1 .5a2.2 2.2 0 0 1-1-1.6c0-.7.4-1 1-.6ZM74.2 368a2.1 2.1 0 0 1 1 1.7c0 .7-.4.9-1 .6a2.1 2.1 0 0 1-1-1.7c0-.6.5-.8 1-.5ZM82.2 372.6a2.1 2.1 0 0 1 1 1.7c0 .6-.5.9-1 .6a2.1 2.1 0 0 1-1-1.7c0-.6.4-.9 1-.6ZM90.2 377.3a2.1 2.1 0 0 1 1 1.6c0 .6-.5.9-1 .6a2.1 2.1 0 0 1-1-1.7c0-.6.4-.8 1-.5ZM56.7 316l8.3 4.6a5.2 5.2 0 0 1 2.3 4v4.7c0 1.5-1 2.1-2.3 1.4l-8.3-4.7a5.2 5.2 0 0 1-2.3-4v-4.7c0-1.5 1-2.1 2.3-1.4Z" fill="#37474F"/><path d="m59 321.2 1-.6a1.4 1.4 0 0 1 1.5.1 4.5 4.5 0 0 1 2 3.6 1.4 1.4 0 0 1-.6 1.3l-1 .5-.2-.3c-.2 0-.4 0-.6-.2a4.5 4.5 0 0 1-2-3.5l.1-.5-.2-.4Z" fill="#5A81FA"/><path opacity=".2" d="m59 321.2 1-.6a1.4 1.4 0 0 1 1.5.1 4.5 4.5 0 0 1 2 3.6 1.4 1.4 0 0 1-.6 1.3l-1 .5-.2-.3c-.2 0-.4 0-.6-.2a4.5 4.5 0 0 1-2-3.5l.1-.5-.2-.4Z" fill="#000"/><path d="M60.4 321.3a4.5 4.5 0 0 1 2 3.6c0 1.2-.9 1.8-2 1.1a4.5 4.5 0 0 1-2-3.5c0-1.3 1-1.8 2-1.2Z" fill="#5A81FA"/><path d="M56.7 293.3 65 298a5.1 5.1 0 0 1 2.3 4v4.7c0 1.5-1 2-2.3 1.4l-8.2-4.8a5.2 5.2 0 0 1-2.3-4v-4.7c0-1.5 1-2 2.2-1.4Z" fill="#455A64"/><path d="m59 298.6 1-.7a1.4 1.4 0 0 1 1.5.2 4.5 4.5 0 0 1 2 3.5 1.4 1.4 0 0 1-.6 1.3l-1 .6-.2-.3-.6-.3a4.5 4.5 0 0 1-2-3.5l.1-.5-.2-.3Z" fill="#5A81FA"/><path opacity=".2" d="m59 298.6 1-.7a1.4 1.4 0 0 1 1.5.2 4.5 4.5 0 0 1 2 3.5 1.4 1.4 0 0 1-.6 1.3l-1 .6-.2-.3-.6-.3a4.5 4.5 0 0 1-2-3.5l.1-.5-.2-.3Z" fill="#000"/><path d="M60.4 298.7a4.5 4.5 0 0 1 2 3.5c0 1.3-.9 1.8-2 1.2a4.5 4.5 0 0 1-2-3.6c0-1.3 1-1.8 2-1.1Z" fill="#5A81FA"/><path d="m185.6 276-38 22a5.7 5.7 0 0 0-2.6 4.4v5.2c0 1.6 1.2 2.3 2.6 1.5l38-22a5.7 5.7 0 0 0 2.5-4.4v-5.1c0-1.7-1.1-2.3-2.5-1.5Z" fill="#455A64"/><path d="M185.4 280.4v2.6a1.1 1.1 0 0 1-.5.9l-.6.3c-.2.2-.5 0-.5-.3v-2.5a1.1 1.1 0 0 1 .5-.9l.6-.3c.3-.2.5 0 .5.3ZM182.8 282v2.4a1.1 1.1 0 0 1-.5 1l-.5.3c-.3.1-.6 0-.6-.3v-2.5a1.1 1.1 0 0 1 .6-1l.5-.3c.3-.1.5 0 .5.3ZM180.3 283.4v2.5a1.2 1.2 0 0 1-.5 1l-.6.3c-.3.1-.5 0-.5-.3v-2.5a1.1 1.1 0 0 1 .5-1l.6-.3c.2-.1.5 0 .5.3ZM177.7 285v2.4a1.1 1.1 0 0 1-.5.9l-.6.3c-.3.2-.5 0-.5-.3v-2.5a1.1 1.1 0 0 1 .5-.9l.6-.3c.3-.2.5 0 .5.3Z" fill="#5A81FA"/><path d="M175.1 286.4v2.5a1.1 1.1 0 0 1-.5.9l-.6.3c-.3.2-.5 0-.5-.3v-2.5a1.1 1.1 0 0 1 .5-.9l.6-.3c.3-.2.5 0 .5.3ZM172.5 287.9v2.5a1.1 1.1 0 0 1-.5.9l-.6.3c-.3.2-.5 0-.5-.3v-2.5a1.1 1.1 0 0 1 .5-.9l.6-.3c.3-.2.5 0 .5.3Z" fill="#37474F"/><path d="M170 289.4v2.5a1.1 1.1 0 0 1-.6.9l-.6.3c-.2.2-.5 0-.5-.3v-2.5a1.1 1.1 0 0 1 .5-.9l.6-.3c.3-.2.5 0 .5.3ZM167.4 290.9v2.5a1.1 1.1 0 0 1-.6.9l-.5.3c-.3.1-.5 0-.5-.3v-2.5a1.1 1.1 0 0 1 .5-.9l.5-.3c.3-.2.6 0 .6.3ZM164.8 292.4v2.5a1.1 1.1 0 0 1-.5.9l-.6.3c-.3.1-.5 0-.5-.3v-2.5a1.1 1.1 0 0 1 .5-1l.6-.2c.3-.2.5-.1.5.3Z" fill="#5A81FA"/><path d="M162.2 293.8v2.6a1 1 0 0 1-.5.8l-.6.4c-.3.1-.5 0-.5-.3v-2.5a1.1 1.1 0 0 1 .5-1l.6-.3c.3-.1.5 0 .5.3Z" fill="#37474F"/><path d="M159.6 295.3v2.5a1.1 1.1 0 0 1-.5 1l-.6.3c-.3.1-.5 0-.5-.3v-2.6a1.1 1.1 0 0 1 .5-.8l.6-.4c.3-.1.5 0 .5.3ZM157 296.8v2.5a1.1 1.1 0 0 1-.5 1l-.6.2c-.3.2-.5 0-.5-.3v-2.5a1.1 1.1 0 0 1 .5-.8l.6-.4c.3-.1.5 0 .5.3Z" fill="#5A81FA"/><path d="M154.4 298.3v2.5a1.1 1.1 0 0 1-.5.9l-.5.3c-.3.2-.6 0-.6-.3v-2.5a1.1 1.1 0 0 1 .6-.9l.5-.3c.3-.1.5 0 .5.3Z" fill="#37474F"/><path d="M151.9 299.8v2.5a1.1 1.1 0 0 1-.5.9l-.6.3c-.3.2-.5 0-.5-.3v-2.5a1.1 1.1 0 0 1 .5-.9l.6-.3c.2-.2.5 0 .5.3Z" fill="#5A81FA"/><path d="M149.3 301.3v2.5a1.1 1.1 0 0 1-.5.9l-.6.3c-.3.2-.5 0-.5-.3v-2.5a1.1 1.1 0 0 1 .5-.9l.6-.3c.3-.2.5 0 .5.3Z" fill="#37474F"/><path d="m141.2 306.3-1.1-.6a1.4 1.4 0 0 0-1.4.1 4.5 4.5 0 0 0-2 3.5 1.4 1.4 0 0 0 .6 1.3l1 .6.1-.3.6-.2a4.5 4.5 0 0 0 2-3.5v-.5l.2-.4Z" fill="#455A64"/><path d="M139.7 306.4a4.5 4.5 0 0 0-2 3.5c0 1.3.9 1.8 2 1.2a4.5 4.5 0 0 0 2-3.5c0-1.3-.9-1.8-2-1.2Z" fill="#5A81FA"/><path opacity=".8" d="M139.7 306.4a4.5 4.5 0 0 0-2 3.5c0 1.3.9 1.8 2 1.2a4.5 4.5 0 0 0 2-3.5c0-1.3-.9-1.8-2-1.2Z" fill="#fff"/><path d="m132.4 311.4-1-.6a1.4 1.4 0 0 0-1.5.1 4.4 4.4 0 0 0-2 3.5 1.4 1.4 0 0 0 .6 1.3l1 .6.2-.3.5-.2a4.5 4.5 0 0 0 2-3.5v-.6l.2-.3Z" fill="#455A64"/><path d="M130.9 311.5a4.5 4.5 0 0 0-2 3.5c0 1.3 1 1.8 2 1.2a4.5 4.5 0 0 0 2-3.5c0-1.3-.9-1.9-2-1.2Z" fill="#5A81FA"/><path opacity=".8" d="M130.9 311.5a4.5 4.5 0 0 0-2 3.5c0 1.3 1 1.8 2 1.2a4.5 4.5 0 0 0 2-3.5c0-1.3-.9-1.9-2-1.2Z" fill="#fff"/><path d="m73.9 301.3 39.8 23a2.8 2.8 0 0 1 1.3 2.2v11c0 .9-.6 1.2-1.3.8l-39.8-23a2.8 2.8 0 0 1-1.3-2.3v-11c0-.8.5-1.1 1.3-.7Z" fill="#455A64"/><path d="M75 306.1a2.7 2.7 0 0 0 1.3 2.2l35 20.1c.7.5 1.2.2 1.2-.6a2.8 2.8 0 0 0-1.3-2.2l-35-20.1c-.6-.4-1.2-.1-1.2.6Z" fill="#5A81FA"/><path d="M75 311.7a2.7 2.7 0 0 0 1.3 2.2l35 20.1c.7.4 1.2.1 1.2-.6a2.8 2.8 0 0 0-1.3-2.2l-35-20.1c-.6-.4-1.2-.1-1.2.6Z" fill="#263238"/><path d="m76.3 311 19.3 11.2v2.8l-19.3-11.1a2.7 2.7 0 0 1-1.3-2.2c0-.7.6-1 1.3-.6Z" fill="#5A81FA"/><path d="M56.7 293.3 65 298a5.1 5.1 0 0 1 2.3 4v4.7c0 1.5-1 2-2.3 1.4l-8.2-4.8a5.2 5.2 0 0 1-2.3-4v-4.7c0-1.5 1-2 2.2-1.4Z" fill="#37474F"/><path d="m59 298.6 1-.7a1.4 1.4 0 0 1 1.5.2 4.5 4.5 0 0 1 2 3.5 1.4 1.4 0 0 1-.6 1.3l-1 .6-.2-.3-.6-.3a4.5 4.5 0 0 1-2-3.5l.1-.5-.2-.3Z" fill="#5A81FA"/><path opacity=".2" d="m59 298.6 1-.7a1.4 1.4 0 0 1 1.5.2 4.5 4.5 0 0 1 2 3.5 1.4 1.4 0 0 1-.6 1.3l-1 .6-.2-.3-.6-.3a4.5 4.5 0 0 1-2-3.5l.1-.5-.2-.3Z" fill="#000"/><path d="M60.4 298.7a4.5 4.5 0 0 1 2 3.5c0 1.3-.9 1.8-2 1.2a4.5 4.5 0 0 1-2-3.6c0-1.3 1-1.8 2-1.1Z" fill="#5A81FA"/><path d="m73.9 301.3 39.8 23a2.8 2.8 0 0 1 1.3 2.2v11c0 .9-.6 1.2-1.3.8l-39.8-23a2.8 2.8 0 0 1-1.3-2.3v-11c0-.8.5-1.1 1.3-.7Z" fill="#37474F"/><path d="M75 306.1a2.7 2.7 0 0 0 1.3 2.2l35 20.1c.7.5 1.2.2 1.2-.6a2.8 2.8 0 0 0-1.3-2.2l-35-20.1c-.6-.4-1.2-.1-1.2.6Z" fill="#5A81FA"/><path d="M75 311.7a2.7 2.7 0 0 0 1.3 2.2l35 20.1c.7.4 1.2.1 1.2-.6a2.8 2.8 0 0 0-1.3-2.2l-35-20.1c-.6-.4-1.2-.1-1.2.6Z" fill="#263238"/><path d="m76.3 311 19.3 11.2v2.8l-19.3-11.1a2.7 2.7 0 0 1-1.3-2.2c0-.7.6-1 1.3-.6Z" fill="#5A81FA"/><path d="m73.9 324 39.8 23a2.9 2.9 0 0 1 1.3 2.2v11c0 .9-.6 1.2-1.3.8l-39.8-23a2.8 2.8 0 0 1-1.3-2.2v-11c0-.8.5-1.2 1.3-.8Z" fill="#37474F"/><path d="M75 328.9a2.7 2.7 0 0 0 1.3 2.1l35 20.2c.7.4 1.2 0 1.2-.7a2.8 2.8 0 0 0-1.3-2.1l-35-20.2c-.6-.4-1.2-.1-1.2.7Z" fill="#5A81FA"/><path d="M75 334.5a2.7 2.7 0 0 0 1.3 2.1l35 20.2c.7.4 1.2 0 1.2-.7a2.8 2.8 0 0 0-1.3-2.1l-35-20.2c-.6-.4-1.2-.1-1.2.7Z" fill="#263238"/><path d="m76.3 333.8 24.1 14v2.7l-24.1-13.9a2.7 2.7 0 0 1-1.3-2.1c0-.8.6-1.1 1.3-.7Z" fill="#5A81FA"/><path d="m56.7 338.7 8.3 4.7a5.1 5.1 0 0 1 2.3 4v4.7c0 1.5-1 2.1-2.3 1.4l-8.2-4.7a5.2 5.2 0 0 1-2.3-4V340c0-1.5 1-2.1 2.2-1.4Z" fill="#455A64"/><path d="m59 344 1-.6a1.4 1.4 0 0 1 1.5.1 4.5 4.5 0 0 1 2 3.5 1.4 1.4 0 0 1-.6 1.3l-1 .6-.2-.3a2 2 0 0 1-.6-.2 4.5 4.5 0 0 1-2-3.5l.1-.5-.2-.4Z" fill="#5A81FA"/><path opacity=".2" d="m59 344 1-.6a1.4 1.4 0 0 1 1.5.1 4.5 4.5 0 0 1 2 3.5 1.4 1.4 0 0 1-.6 1.3l-1 .6-.2-.3a2 2 0 0 1-.6-.2 4.5 4.5 0 0 1-2-3.5l.1-.5-.2-.4Z" fill="#000"/><path d="M60.4 344.1a4.5 4.5 0 0 1 2 3.5c0 1.3-.9 1.8-2 1.2a4.5 4.5 0 0 1-2-3.5c0-1.3 1-1.8 2-1.2Z" fill="#5A81FA"/><path d="m56.7 338.7 8.3 4.7a5.1 5.1 0 0 1 2.3 4v4.7c0 1.5-1 2.1-2.3 1.4l-8.2-4.7a5.2 5.2 0 0 1-2.3-4V340c0-1.5 1-2.1 2.2-1.4Z" fill="#37474F"/><path d="m59 344 1-.6a1.4 1.4 0 0 1 1.5.1 4.5 4.5 0 0 1 2 3.5 1.4 1.4 0 0 1-.6 1.3l-1 .6-.2-.3a2 2 0 0 1-.6-.2 4.5 4.5 0 0 1-2-3.5l.1-.5-.2-.4Z" fill="#5A81FA"/><path opacity=".2" d="m59 344 1-.6a1.4 1.4 0 0 1 1.5.1 4.5 4.5 0 0 1 2 3.5 1.4 1.4 0 0 1-.6 1.3l-1 .6-.2-.3a2 2 0 0 1-.6-.2 4.5 4.5 0 0 1-2-3.5l.1-.5-.2-.4Z" fill="#000"/><path d="M60.4 344.1a4.5 4.5 0 0 1 2 3.5c0 1.3-.9 1.8-2 1.2a4.5 4.5 0 0 1-2-3.5c0-1.3 1-1.8 2-1.2Z" fill="#5A81FA"/><path d="m73.9 346.8 39.8 23a2.9 2.9 0 0 1 1.3 2.2v11c0 .8-.6 1.2-1.3.8l-39.8-23a2.8 2.8 0 0 1-1.3-2.3v-11c0-.8.6-1.1 1.3-.7Z" fill="#37474F"/><path d="M75 351.6a2.7 2.7 0 0 0 1.3 2.1l35 20.2c.7.4 1.2.1 1.2-.6a2.8 2.8 0 0 0-1.3-2.2l-35-20.1c-.6-.5-1.2-.2-1.2.6Z" fill="#5A81FA"/><path d="M75 357.2a2.8 2.8 0 0 0 1.3 2.1l35 20.2c.7.4 1.2.1 1.2-.6a2.8 2.8 0 0 0-1.3-2.2l-35-20.2c-.6-.4-1.2 0-1.2.7Z" fill="#263238"/><path d="m76.3 356.5 19.3 11.2v2.8l-19.3-11.2a2.8 2.8 0 0 1-1.3-2.1c0-.8.6-1 1.3-.7Z" fill="#5A81FA"/><path opacity=".1" d="m177.3 158.4-53 30.7a3 3 0 0 1-2.8 0l-53-30.7a.8.8 0 0 1-.7-.8.8.8 0 0 1 .6-.8l53-29.6a3 3 0 0 1 2.8 0l53 29.6a.8.8 0 0 1 0 1.6Z" fill="#000"/><path d="m124.2 187.4 50.7-29.3a3 3 0 0 0 1.4-2.3V154a3 3 0 0 0-1.4-2.3l-50.7-29.3a2.9 2.9 0 0 0-2.7 0l-50.7 29.3a3 3 0 0 0-1.4 2.3v1.7a2.9 2.9 0 0 0 1.4 2.3l50.7 29.3a2.9 2.9 0 0 0 2.7 0Z" fill="#5A81FA"/><path opacity=".5" d="m124.2 187.4 50.7-29.3a3 3 0 0 0 1.4-2.3V154a3 3 0 0 0-1.4-2.3l-50.7-29.3a2.9 2.9 0 0 0-2.7 0l-50.7 29.3a3 3 0 0 0-1.4 2.3v1.7a2.9 2.9 0 0 0 1.4 2.3l50.7 29.3a2.9 2.9 0 0 0 2.7 0Z" fill="#fff"/><path opacity=".1" d="m124.2 187.4 50.7-29.3a3 3 0 0 0 1.4-2.3V154a3 3 0 0 0-1.4-2.3l-50.7-29.3a2.9 2.9 0 0 0-2.7 0l-50.7 29.3a3 3 0 0 0-1.4 2.3v1.7a2.9 2.9 0 0 0 1.4 2.3l50.7 29.3a2.9 2.9 0 0 0 2.7 0Z" fill="#000"/><path d="m175 153.3-50.8 29.3a2.9 2.9 0 0 1-2.7 0l-50.7-29.3a.8.8 0 0 1 0-1.5l50.7-28.3a2.9 2.9 0 0 1 2.7 0l50.7 28.3a.8.8 0 0 1 0 1.5Z" fill="#5A81FA"/><path opacity=".7" d="m175 153.3-50.8 29.3a2.9 2.9 0 0 1-2.7 0l-50.7-29.3a.8.8 0 0 1 0-1.5l50.7-28.3a2.9 2.9 0 0 1 2.7 0l50.7 28.3a.8.8 0 0 1 0 1.5Z" fill="#fff"/><path d="M122.8 183v4.7c.5 0 1-.1 1.4-.3l50.7-29.3a2.9 2.9 0 0 0 1.4-2.3V154a3 3 0 0 0-1.1-2.1c.5.4.4 1-.3 1.3l-50.7 29.3c-.4.2-.9.4-1.4.3Z" fill="#5A81FA"/><path opacity=".6" d="M122.8 183v4.7c.5 0 1-.1 1.4-.3l50.7-29.3a2.9 2.9 0 0 0 1.4-2.3V154a3 3 0 0 0-1.1-2.1c.5.4.4 1-.3 1.3l-50.7 29.3c-.4.2-.9.4-1.4.3Z" fill="#fff"/><path d="m124.2 173.1 34.3-19.8a2.9 2.9 0 0 0 1.3-2.3v-1.7a2.9 2.9 0 0 0-1.3-2.3l-22-12.7a8.7 8.7 0 0 1-2.2-2l-10.5-14.1a1.7 1.7 0 0 0-2.2-.5l-34.4 19.9a2.9 2.9 0 0 0-1.3 2.2V151a3 3 0 0 0 1.3 2.3l34.3 19.8a2.9 2.9 0 0 0 2.7 0Z" fill="#263238"/><path d="m121.5 168.4-22-12.7c-.4-.3-.8-.5-1.1-.9-.4-.3-.8-.7-1-1.1l-10.6-14.2a1.3 1.3 0 0 1 .4-2l34.3-19.8a1.7 1.7 0 0 1 2.3.5l10.5 14.1c.5.8 1.2 1.5 2 2l22.2 12.7a.8.8 0 0 1 0 1.5L124 168.3a2.9 2.9 0 0 1-2.6 0Z" fill="#455A64"/><path d="m87.2 137.6 34.3-19.9a1.7 1.7 0 0 1 2.3.5l10.5 14.2 1 1-37 21.4-1-1.1-10.5-14.2a1.3 1.3 0 0 1 .4-2Z" fill="#37474F"/><path d="M150.2 147.4a3.4 3.4 0 0 0-3.1 0c-.9.5-.9 1.3 0 1.8a3.4 3.4 0 0 0 3 0 1 1 0 0 0 0-1.8ZM144 151a3.4 3.4 0 0 0-3 0 1 1 0 0 0-.7.9 1 1 0 0 0 .6.9 3.4 3.4 0 0 0 3.1 0 1 1 0 0 0 0-1.8Z" fill="#5A81FA"/><path d="M137.8 154.5a3.4 3.4 0 0 0-3 0 1 1 0 0 0-.7.9 1 1 0 0 0 .7.9 3.4 3.4 0 0 0 3 0 1 1 0 0 0 0-1.8ZM131.7 158a3.4 3.4 0 0 0-3 0 1 1 0 0 0 0 1.8 3.4 3.4 0 0 0 3 0 1 1 0 0 0 0-1.7Z" fill="#263238"/><path d="M145.6 144.7a3.4 3.4 0 0 0-3.1 0 1 1 0 0 0 0 1.8 3.4 3.4 0 0 0 3 0 1 1 0 0 0 0-1.8Z" fill="#5A81FA"/><path d="M139.4 148.3a3.4 3.4 0 0 0-3 0 1 1 0 0 0 0 1.8 3.4 3.4 0 0 0 3 0 1 1 0 0 0 0-1.8Z" fill="#263238"/><path d="M131.7 154c1.2 0 2.2-.6 2.2-1.3 0-.7-1-1.2-2.2-1.2-1.2 0-2.2.5-2.2 1.2s1 1.3 2.2 1.3Z" fill="#5A81FA"/><path d="M127 155.4a3.4 3.4 0 0 0-3 0 1 1 0 0 0 0 1.8 3.4 3.4 0 0 0 3 0 1 1 0 0 0 0-1.8ZM141 142a3.4 3.4 0 0 0-3.2 0 1 1 0 0 0 0 1.8 3.4 3.4 0 0 0 3.1 0 1 1 0 0 0 0-1.7Z" fill="#263238"/><path d="M134.8 145.6a3.3 3.3 0 0 0-3.1 0 1 1 0 0 0 0 1.8 3.4 3.4 0 0 0 3 0 1 1 0 0 0 .7-.9 1 1 0 0 0-.6-.9Z" fill="#5A81FA"/><path d="M128.6 149.2a3.4 3.4 0 0 0-3 0 1 1 0 0 0-.7.9 1 1 0 0 0 .6.8 3.4 3.4 0 0 0 3.1 0 1 1 0 0 0 0-1.7Z" fill="#263238"/><path d="M125.5 161.6a3.4 3.4 0 0 0-3 0 1 1 0 0 0 0 1.7 3.4 3.4 0 0 0 3 0 1 1 0 0 0 0-1.8Z" fill="#5A81FA"/><path d="M119.3 161c1.2 0 2.2-.5 2.2-1.2s-1-1.3-2.2-1.3c-1.2 0-2.1.6-2.1 1.3 0 .7 1 1.2 2.1 1.2ZM122.5 152.7a3.4 3.4 0 0 0-3.1 0 1 1 0 0 0-.7 1 1 1 0 0 0 .7.8 3.4 3.4 0 0 0 3 0 1 1 0 0 0 0-1.8Z" fill="#263238"/><path d="M136.3 139.4a3.4 3.4 0 0 0-3 0 1 1 0 0 0 0 1.8 3.4 3.4 0 0 0 3 0 1 1 0 0 0 0-1.8Z" fill="#5A81FA"/><path d="M130.2 143a3.4 3.4 0 0 0-3.1 0 1 1 0 0 0-.7.9 1 1 0 0 0 .7.9 3.4 3.4 0 0 0 3 0 1 1 0 0 0 0-1.8Z" fill="#263238"/><path d="M124 146.5a3.4 3.4 0 0 0-3 0 1 1 0 0 0-.7.9 1 1 0 0 0 .6.9 3.4 3.4 0 0 0 3.1 0 1 1 0 0 0 0-1.8Z" fill="#5A81FA"/><path d="M117.8 150a3.4 3.4 0 0 0-3 0c-1 .6-1 1.3 0 1.8a3.4 3.4 0 0 0 3 0 1 1 0 0 0 0-1.7Z" fill="#263238"/><path d="M116.3 156.2a3.4 3.4 0 0 0-3.1 0 1 1 0 0 0-.7 1 1 1 0 0 0 .7.8 3.4 3.4 0 0 0 3 0 1 1 0 0 0 0-1.8Z" fill="#5A81FA"/><path d="M111.6 153.6a3.4 3.4 0 0 0-3 0 1 1 0 0 0 0 1.7 3.4 3.4 0 0 0 3 0 1 1 0 0 0 0-1.8Z" fill="#263238"/><path d="M122.8 168.7v4.7c.5 0 1 0 1.4-.3l34.3-19.8a2.9 2.9 0 0 0 1.3-2.3v-1.7a2.9 2.9 0 0 0-1-2c.4.3.3 1-.3 1.3l-34.3 19.8-1.4.3Z" fill="#37474F"/><path d="M129.7 131.8a1.2 1.2 0 0 0-1.4-.4l-30 17.3a.9.9 0 0 0-.2 1.3 1.2 1.2 0 0 0 1.4.3l30-17.3a.9.9 0 0 0 .2-1.2Z" fill="#263238"/><path d="M129.7 131.8a1.2 1.2 0 0 0-1.4-.4L106 144.3l1.2 1.7 22.2-12.8a.9.9 0 0 0 .5-.6.9.9 0 0 0-.2-.7Z" fill="#5A81FA"/><path d="M127.3 128.4a1.2 1.2 0 0 0-1.5-.3l-30 17.3a.9.9 0 0 0-.4.6.9.9 0 0 0 .2.7 1.2 1.2 0 0 0 1.5.3l29.9-17.2a.9.9 0 0 0 .4-.6.9.9 0 0 0-.1-.8Z" fill="#263238"/><path d="M127.3 128.4a1.2 1.2 0 0 0-1.5-.3l-7.5 4.3 1.3 1.7 7.4-4.3a.9.9 0 0 0 .3-1.4Z" fill="#5A81FA"/><path d="M124.8 125.1a1.2 1.2 0 0 0-1.5-.3l-30 17.2a.9.9 0 0 0-.2 1.3 1.2 1.2 0 0 0 1.5.3l29.9-17.2a.9.9 0 0 0 .4-.6.9.9 0 0 0-.1-.7Z" fill="#263238"/><path d="M124.8 125.1a1.2 1.2 0 0 0-1.5-.3l-15.6 9 1.3 1.6 15.6-9a.9.9 0 0 0 .4-.6.9.9 0 0 0-.2-.7Z" fill="#5A81FA"/><path d="M122.3 121.8a1.2 1.2 0 0 0-1.5-.3L91 138.7a.9.9 0 0 0-.4.6.9.9 0 0 0 .2.7 1.2 1.2 0 0 0 1.4.3l29.9-17.2a.9.9 0 0 0 .3-1.3Z" fill="#263238"/><path d="M122.3 121.8a1.2 1.2 0 0 0-1.5-.3l-27.1 15.6 1.2 1.7L122 123a.9.9 0 0 0 .3-1.3ZM132.4 412.7v7.6a.6.6 0 0 0 .5.5l4 .2v5.6a.3.3 0 0 0 .1.3l4.2 2.4h.9l4.2-2h1l3.3.8a.8.8 0 0 1 .6.5l.5 2.8c0 .2 0 .3.2.4l.4.1h6l.4-.1h.1l.1-.2.1-.2.5-2.8a.8.8 0 0 1 .6-.5l3.3-.8h1l4.2 2h.4l.4-.1 4.1-2.4c.1 0 .2 0 .2-.2V421l3.9-.3h.1l.3-.1v-.2l.1-.2v-10.1a.6.6 0 0 0-.5-.6l-4-.2v-5.5a.3.3 0 0 0-.1-.3l-4.1-2.4a1.1 1.1 0 0 0-1 0l-4.2 2h-1c-1-.4-2.1-.6-3.2-.8a.8.8 0 0 1-.6-.6l-.4-2.7a.6.6 0 0 0-.6-.5h-6.1a.7.7 0 0 0-.6.5l-.5 2.8a.8.8 0 0 1-.6.6c-1.2.1-2.2.4-3.3.7h-1l-4.2-2a1.1 1.1 0 0 0-1 0l-4 2.4-.2.1v5.7l-4 .3a.6.6 0 0 0-.5.5v2.6Zm16 2a15.5 15.5 0 0 1 14.7.5l-.8.6a15.5 15.5 0 0 1-14 0l-.8-.6.8-.5Z" fill="#5A81FA"/><path opacity=".3" d="M132.4 412.7v7.6a.5.5 0 0 0 .5.5l4 .2v5.6a.3.3 0 0 0 .1.3l4.2 2.4h.9l4.2-2h.9a24.5 24.5 0 0 0 3.6.8c.1.1.3.3.3.5l.5 2.7c0 .2.1.3.3.4l.3.1h6.3l.3-.2.1-.3.6-2.7.2-.4.4-.2c1-.2 2.2-.4 3.2-.8h1l4.2 2H169.4l4.2-2.5.1-.1V420.9h.7l3.2-.2c.2 0 .3 0 .4-.2l.2-.4v-7l-.2.4-.4.2-5.5.3a1 1 0 0 0-.7.5 8.3 8.3 0 0 1-1.3 1.8.4.4 0 0 0 0 .4l.2.1 3.3 2.4a.3.3 0 0 1 0 .6l-4.2 2.3a1 1 0 0 1-1 0l-4.1-1.9h-1l-3.3.7a.8.8 0 0 0-.6.6l-.5 2.8a.6.6 0 0 1-.6.5h-6.1a.7.7 0 0 1-.6-.5l-.5-2.8a.8.8 0 0 0-.7-.6c-1-.2-2.1-.4-3.2-.8l-1 .1-4.2 2a1 1 0 0 1-1 0l-4-2.4a.3.3 0 0 1 0-.5l3.3-2.4a.4.4 0 0 0 .2-.3.4.4 0 0 0-.2-.4 8 8 0 0 1-1.1-1.6 1 1 0 0 0-.8-.5l-5.5-.3a.6.6 0 0 1-.5-.6v-.6.1ZM136.8 403.8v5.5h1.6a1 1 0 0 0 .8-.6 8.1 8.1 0 0 1 1.3-1.7.4.4 0 0 0 0-.4l-.2-.2-3.3-2.3-.1-.1v-.2Z" fill="#000"/><path opacity=".4" d="m147.5 415.2.4-.3.4-.2a15.5 15.5 0 0 1 14 0l.3.2.5.3c3-2.2 2.7-5.5-.8-7.5a15.4 15.4 0 0 0-14 0c-3.6 2-3.8 5.3-.8 7.5Z" fill="#000"/><path opacity=".3" d="m170.3 407.1 1.1 1.6a1 1 0 0 0 .8.5l1.6.1v-5.5a.4.4 0 0 1-.2.3l-3.3 2.3a.4.4 0 0 0-.2.4.4.4 0 0 0 .2.3Z" fill="#000"/><path d="m168.5 401-4.2 2c-.3.2-.7.2-1 0l-3.2-.7a.8.8 0 0 1-.6-.6l-.5-2.7a.6.6 0 0 0-.6-.5h-6.1a.7.7 0 0 0-.6.5l-.5 2.8a.8.8 0 0 1-.6.6c-1.2.1-2.2.4-3.3.7h-1l-4.2-2a1.1 1.1 0 0 0-1 0l-4 2.4a.3.3 0 0 0 0 .6l3.2 2.3a.4.4 0 0 1 .2.4.5.5 0 0 1-.1.3c-.5.5-.9 1-1.2 1.6a1 1 0 0 1-.7.5l-5.6.4a.6.6 0 0 0-.5.5v3.1a.6.6 0 0 0 .5.6l5.6.3a1 1 0 0 1 .7.5 8.2 8.2 0 0 0 1.3 1.8.4.4 0 0 1 0 .4l-.2.1-3.3 2.4a.3.3 0 0 0 0 .5l4.1 2.4a1 1 0 0 0 1 0l4.2-2h1c1 .4 2.1.6 3.2.8a.8.8 0 0 1 .6.6l.5 2.8a.7.7 0 0 0 .7.5h6a.7.7 0 0 0 .7-.5l.5-2.8a.8.8 0 0 1 .6-.6c1-.2 2.2-.4 3.3-.8h1l4.2 2a1.1 1.1 0 0 0 .9 0l4.1-2.4a.3.3 0 0 0 0-.5l-3.3-2.4a.4.4 0 0 1-.1-.5v-.2c.5-.5 1-1 1.2-1.6a1 1 0 0 1 .8-.5l5.5-.3a.6.6 0 0 0 .5-.6v-3a.6.6 0 0 0-.5-.6l-5.5-.4a1 1 0 0 1-.8-.5 8.1 8.1 0 0 0-1.2-1.7.4.4 0 0 1 .1-.6l3.3-2.3a.3.3 0 0 0 0-.6l-4.1-2.4a1.1 1.1 0 0 0-1 0Zm-6.2 6.6c3.9 2.3 3.9 5.9 0 8.1a15.5 15.5 0 0 1-14 0c-3.9-2.2-3.9-5.8 0-8a15.5 15.5 0 0 1 14 0Z" fill="#5A81FA"/><path d="M173.8 419.6v-.2l-.2-.1-1.6-1.2v-4h.2l5.5-.3a.5.5 0 0 0 .6-.6v7a.5.5 0 0 1-.6.6l-3.2.2h-.7v-1.4Z" fill="#5A81FA"/><path opacity=".2" d="M173.8 419.6v-.2l-.2-.1-1.6-1.2v-4h.2l5.5-.3a.5.5 0 0 0 .6-.6v7a.5.5 0 0 1-.6.6l-3.2.2h-.7v-1.4Z" fill="#000"/><path d="m164 420.2.3.1 4.2 2h.6v7h-.6l-4.2-2h-.3v-7Z" fill="#5A81FA"/><path opacity=".2" d="m164 420.2.3.1 4.2 2h.6v7h-.6l-4.2-2h-.3v-7Z" fill="#000"/><path d="M158.9 424.6v-.2l.6-2.8v-.2 7.2l-.5 2.8-.1.1v-7Z" fill="#5A81FA"/><path opacity=".2" d="M158.9 424.6v-.2l.6-2.8v-.2 7.2l-.5 2.8-.1.1v-7Z" fill="#000"/><path opacity=".1" d="m151 421.4.1.2.6 2.8v7.2-.2l-.6-2.8v-7.2ZM141.6 422.3h.5l4.2-2h.3v7a1 1 0 0 0-.3 0l-4.2 2h-.5v-7ZM133 413.8l5.4.3h.3v4l-1.7 1.2h-.1v1.7l-4-.3a.5.5 0 0 1-.5-.5v-7.6.6a.6.6 0 0 0 .1.4.6.6 0 0 0 .4.2Z" fill="#000"/><path d="M213.2 391v-5l-.1-.3-1.6-2.1a.7.7 0 0 0-.6-.4l-4 .7c-.3 0-.6 0-.8-.2l-.8-.5V380c0-.1-.2-.3-.4-.3l-4-1a.8.8 0 0 0-.7.1l-2 2c-.2.2-.4.3-.7.3h-2.7c-.2 0-.5-.1-.7-.3l-1.7-1.8-.3-.2h-.4l-4.3 1a.3.3 0 0 0-.2.2v3.2l-1 .7h-.7l-4-.6a.7.7 0 0 0-.6.2l-1.7 2.4v11.3l.1.3 1.6 2.1a.7.7 0 0 0 .6.3l4-.6c.3 0 .6 0 .8.2l.8.5v3.2c0 .1.1.3.3.3l4.1 1a.8.8 0 0 0 .7-.1l2-2 .6-.3a24 24 0 0 0 3 0l.4.3 1.8 1.9a.8.8 0 0 0 .7.2l4.3-1a.3.3 0 0 0 .2-.2V400l1-.6h.7l3.9.6a.7.7 0 0 0 .6-.2l1.7-2.4V391Zm-23 .2.7-.4a11.8 11.8 0 0 1 10.6 0l.6.4-.6.4a11.8 11.8 0 0 1-10.6 0l-.6-.4Z" fill="#5A81FA"/><path opacity=".3" d="M213.2 391v-5l-.1-.3-1.6-2.1a.7.7 0 0 0-.6-.4l-4 .7c-.3 0-.6 0-.8-.2l-.8-.5V380c0-.1-.2-.3-.4-.3l-4-1a.8.8 0 0 0-.7.1l-2 2c-.2.2-.4.3-.7.3h-2.7c-.2 0-.5-.1-.7-.3l-1.7-1.8-.3-.2h-.4l-4.3 1a.3.3 0 0 0-.2.2v3.2l-1 .7h-.7l-4-.6a.7.7 0 0 0-.6.2l-1.7 2.4v11.3l.1.3 1.6 2.1a.7.7 0 0 0 .6.3l4-.6c.3 0 .6 0 .8.2l.8.5v3.2c0 .1.1.3.3.3l4.1 1a.8.8 0 0 0 .7-.1l2-2 .6-.3a24 24 0 0 0 3 0l.4.3 1.8 1.9a.8.8 0 0 0 .7.2l4.3-1a.3.3 0 0 0 .2-.2V400l1-.6h.7l3.9.6a.7.7 0 0 0 .6-.2l1.7-2.4V391Zm-23 .2.7-.4a11.8 11.8 0 0 1 10.6 0l.6.4-.6.4a11.8 11.8 0 0 1-10.6 0l-.6-.4Z" fill="#000"/><path opacity=".3" d="m188.1 382.7-1 .5V380v.2l1 2a.4.4 0 0 1 .2.3.4.4 0 0 1-.2.2Z" fill="#000"/><path opacity=".1" d="M183.4 387.8v1.3a.4.4 0 0 1-.3.5l-3.7 1.2a.3.3 0 0 0-.1.2v1.2-6.2c0 .1 0 .2.3.3l3.5 1a.5.5 0 0 1 .3.5ZM185.7 393v6.2h-.1l-4 .7h-.2v-6.2h.2l4-.7h.1Z" fill="#000"/><path opacity=".3" d="m187.2 400-.8-.5-.7-.2V393l.7.2 1.6 1c.2 0 .4.3.3.5l-1.1 2.2v3.1Z" fill="#000"/><path opacity=".1" d="M194.5 396v6.1c-.1 0-.2 0-.3.2l-2 2-.3.2v-6.2c.1 0 .2 0 .3-.2l2-2 .3-.2Z" fill="#000"/><path opacity=".3" d="M197.8 396v6.1h-.3a24 24 0 0 1-3 0V396h.4a21.8 21.8 0 0 0 2.9 0Z" fill="#000"/><path opacity=".1" d="M200.4 398.3v6.1a.9.9 0 0 1-.4-.2l-1.7-1.8a1 1 0 0 0-.5-.3v-6.2c.2 0 .3.2.5.3l1.7 1.8.4.3Z" fill="#000"/><path d="M205.2 397v6.3a.3.3 0 0 1-.2.2l-4.3 1h-.3v-6.2h.3l4.3-1a.3.3 0 0 0 .2-.3Z" fill="#5A81FA"/><path opacity=".2" d="M205.2 397v6.3a.3.3 0 0 1-.2.2l-4.3 1h-.3v-6.2h.3l4.3-1a.3.3 0 0 0 .2-.3Z" fill="#000"/><path opacity=".1" d="M206.6 393v6.2c-.2 0-.3 0-.4.2l-1 .6v-3.2l-1-2a.4.4 0 0 1-.1-.3.4.4 0 0 1 .1-.2l2-1.1.4-.1Z" fill="#000"/><path d="M213.2 391v6.3l-1.7 2.4-.3.2v-6.2s.2 0 .3-.2l1.7-2.3v-.1Z" fill="#5A81FA"/><path d="M213.2 391v6.3l-1.7 2.4-.3.2v-6.2s.2 0 .3-.2l1.7-2.3v-.1Z" fill="#5A81FA"/><path opacity=".2" d="M213.2 391v6.3l-1.7 2.4-.3.2v-6.2s.2 0 .3-.2l1.7-2.3v-.1Z" fill="#000"/><path d="M187.2 380v.2l1 2a.4.4 0 0 1-.1.5 11.8 11.8 0 0 0-2 1c-.2.2-.4.2-.7.2l-4-.7a.7.7 0 0 0-.5.2l-1.7 2.4c0 .2 0 .3.3.4l3.4 1a.5.5 0 0 1 .4.5v1.4a.4.4 0 0 1-.2.4l-3.7 1.2a.2.2 0 0 0-.2.3v.2l1.6 2.2a.8.8 0 0 0 .7.3l4-.7c.3 0 .6 0 .8.2l1.6 1c.3 0 .4.3.3.4l-1 2.2c-.2.2 0 .3.2.4l4.1 1a.8.8 0 0 0 .7-.1l2-2 .6-.3a24 24 0 0 0 3.1.1l.3.2 1.8 1.9a.8.8 0 0 0 .7.3l4.3-1v-.1a.3.3 0 0 0 .1-.4l-1-2V394.5a.3.3 0 0 1 .2-.2l1.8-1c.3-.2.5-.3.8-.2l3.9.6a.7.7 0 0 0 .6-.1l1.7-2.4v-.2l-.3-.2-3.5-1.1c-.2 0-.4-.3-.3-.5V388a.4.4 0 0 1 .2-.5l3.7-1.1.2-.1v-.4l-1.6-2.2a.7.7 0 0 0-.7-.3l-4 .7c-.3 0-.6 0-.8-.2a9.2 9.2 0 0 0-1.6-1c-.3-.1-.4-.3-.3-.4l1-2.3c0-.2 0-.3-.2-.3l-4.2-1a.8.8 0 0 0-.6 0l-2 2.1c-.2.2-.4.3-.7.3h-2.6c-.3 0-.6-.2-.8-.4l-1.6-1.8-.3-.2h-.4l-4.3 1a.3.3 0 0 0-.2.2Zm15.5 6.4h.1l.1.1.2.2.1.2.1.2a2.7 2.7 0 0 1-.2 3c-.3.4-.6.8-1 1l-.6.5a11.8 11.8 0 0 1-10.6 0l-.6-.4c-.6-.4-1-.9-1.3-1.5v-.2a2.7 2.7 0 0 1 .4-2.7c1.5-2.2 6-3.2 9.8-2.3 1.3.3 2.5 1 3.5 1.9Z" fill="#5A81FA"/><path d="M236.8 372.2c-.8.5-2.4.4-2.9 1v2.1l9.7-1.4 3.7 2.1-1.4 3-9.8-.6v2l.6.5a16.5 16.5 0 0 0 15 0c2-1.2 3.1-2.7 3.1-4.3v-2h-.6v-.1l36.6-21.2c3.7.9 7.6.4 11-1.3a6.1 6.1 0 0 0 3-3.2v-2.1l-9.8 3.5-3.6-2.1 1.4-3 9.8-1.4v-2s-11.5-.8-15.6 1.5c-1 .6-2 1.4-2.6 2.4l-.6-.2v2c0 .9.3 1.6.7 2.3l-36.6 21.1c-3.8-.8-7.6-.3-11 1.4Z" fill="#37474F"/><path d="M290.8 353.3v-2.1l-36.6 21.2v2l36.6-21.1Z" fill="#37474F"/><path d="M284.5 347.6 248 368.7c-3.7-.8-7.6-.3-11 1.4a6.1 6.1 0 0 0-3 3.1l9.7-1.4 3.7 2.2-1.4 2.9-9.8 1.4.7.4a16.5 16.5 0 0 0 14.9 0c3-1.6 3.9-4.2 2.5-6.3l36.6-21.2c3.7.8 7.6.3 11-1.4a6.1 6.1 0 0 0 3-3.1l-9.7 1.4-3.7-2.1 1.4-2.9 9.8-1.4-.7-.5a16.5 16.5 0 0 0-14.9 0c-3 1.7-3.9 4.2-2.5 6.4Z" fill="#455A64"/><path d="m292.2 346.4-.8-.4 1.4-3 9.8-1.4v2.1l-9.8 1.4-.6 1.3ZM246.5 375.6l.8-1.6-3.7-2.2-9.7 1.4v2.1l9.7-1.4 2.9 1.7Z" fill="#263238"/><path d="m259.3 403 7.6 13.3 25.9-15c1-.5 1.7-1.7 1.7-3.5a12 12 0 0 0-5.4-9.4 3.8 3.8 0 0 0-3.9-.4l-26 15Z" fill="#5A81FA"/><path d="M257.7 405.7c0 2-3 2.5-3 2.5l5.4 9.3s1.8-2.2 3.6-1.3c2.7 1.2 4.8-.3 4.8-3.5a12 12 0 0 0-5.4-9.3c-2.8-1.6-5-.6-5.4 2.3Z" fill="#5A81FA"/><path opacity=".1" d="M257.7 405.7c0 2-3 2.5-3 2.5l5.4 9.3s1.8-2.2 3.6-1.3c2.7 1.2 4.8-.3 4.8-3.5a12 12 0 0 0-5.4-9.3c-2.8-1.6-5-.6-5.4 2.3Z" fill="#000"/><path opacity=".1" d="m256 407.8-1.3.4 5.4 9.3a6 6 0 0 1 1-.9 12.1 12.1 0 0 0-5.1-8.8Z" fill="#000"/><path d="m249.1 408.8.5.8c-.2.6-.3 1.1-.3 1.7a12 12 0 0 0 5.4 9.4c.5.3 1 .5 1.6.6l.5.8 1.8-1a3.8 3.8 0 0 0 1.6-3.5 12 12 0 0 0-5.4-9.4 3.8 3.8 0 0 0-3.9-.4l-1.8 1Z" fill="#5A81FA"/><path d="M258.4 418.6a12 12 0 0 0-5.5-9.4c-3-1.7-5.4-.3-5.4 3.1a12 12 0 0 0 5.4 9.4c3 1.7 5.5.3 5.5-3.1Z" fill="#5A81FA"/><path opacity=".1" d="M258.4 418.6a12 12 0 0 0-5.5-9.4c-3-1.7-5.4-.3-5.4 3.1a12 12 0 0 0 5.4 9.4c3 1.7 5.5.3 5.5-3.1Z" fill="#000"/><path opacity=".1" d="m250.8 420 1.4 1.2 1.2-3.6-1.5-1.1-1 3.5Z" fill="#000"/><path opacity=".2" d="M290 394a1.5 1.5 0 0 1-.5 2l-18.4 10.6a1.5 1.5 0 0 1-2-.5 1.5 1.5 0 0 1 .5-2l18.4-10.6a1.5 1.5 0 0 1 1.7 0l.4.5ZM286.7 390a.9.9 0 0 1 .5.8.9.9 0 0 1-.5.8l-18.8 10.8a2 2 0 0 1-2.2-.2.9.9 0 0 1 0-1.5l18.9-10.9a2 2 0 0 1 2.1.3ZM291.8 398.9a.9.9 0 0 0-.9-.9c-.1 0-.3 0-.4.2L271.7 409a2 2 0 0 0-.9 2 .9.9 0 0 0 1.4.7L291 401a2 2 0 0 0 .8-2Z" fill="#000"/><path d="M205.4 440.5v3.6l9-3s1.8-3.3 3.6-4.3l34.4-19.8 1-3-1-.6-34.3 19.8a3.6 3.6 0 0 1-3.6-.2l-9 7.5Z" fill="#455A64"/><path d="M206.5 441v3.7l9-3s1.8-3.3 3.6-4.3l34.3-19.8V414l-34.3 19.8a3.6 3.6 0 0 1-3.6-.2l-9 7.5Z" fill="#37474F"/><path d="m206.5 444.7-1-.6v-3.6l1 .6v3.6Z" fill="#263238"/><path d="m205.4 440.5 1 .6 9.1-7.5-1-.6-9 7.5Z" fill="#455A64"/><path d="M357.6 210c5.8-6 16.4-19.6 16.4-19.6l6-20.7h-4c-6.5.4-8.4 1-12.4 5.3-3.2 3.5-15.4 20.2-19.6 25.8l-11.2-14.4c-2.7-4-2.3-8.6-3.7-11.9-1.4-3.3-3.6-4.8-5.5-7.8-1.8-3-2.2-5-3.7-3.4-1.4 1.5.3 5.6.5 6.6s2.5 3.7-1.3 2.3c-3.8-1.5-9.6-8.4-11.2-9.8-1.5-1.4-2.3.8-2 2.5.4 1.7-1.2 5.6-.6 8.5.6 3 1 4.4 4 7.4 2.7 2.7 9.4 6 12 9.7 2.6 3.6 8.1 14.8 11.6 21.6 4.3 8.5 8 11.4 12.8 8.5 5-3 9.7-8.4 11.9-10.6Z" fill="#FFA8A7"/><path d="M378 169.5c-3.3-.4-6.6.1-9.7 1.3-3.5 1.6-5.9 5-9.3 9.5L347 196c5.1 3.5 8.8 8.7 10.4 14.7l21-23.1-.3-18.1Z" fill="#E0E0E0"/><path d="M344 200.8c2.1 2 3.5 4.6 4 7.5 0 0 1.3-4.2-3.1-8.8l-.9 1.3Z" fill="#F28F8F"/><path d="M398.2 169.4c2.2.5 8.3 1.3 12.4 2.5 3 .8 6 4.5 6.5 7.2 2 8.7.3 14.2-.5 21.8-.7 7.7-.8 45.7-.8 45.7-4.2 8.3-36.3 10-51.8-1.3 0 0 2-50.7 2-58.6 0-8 4.3-17.4 16.4-18l15.8.7Z" fill="#F5F5F5"/><path d="M384.5 144.4a1.7 1.7 0 1 0 1.6-1.7 1.7 1.7 0 0 0-1.6 1.7ZM386.1 138.8l3.5 1.9a2 2 0 0 0-.8-2.8 2 2 0 0 0-2.2.3 2 2 0 0 0-.5.6Z" fill="#263238"/><path d="M384.9 154.7 381 156a2 2 0 0 0 2.6 1.3 2.2 2.2 0 0 0 1.3-2.8Z" fill="#F28F8F"/><path d="m371.1 140.2 3.1-2.5a2 2 0 0 0-2.7-.4 2 2 0 0 0-.4 2.9ZM371.8 144.4a1.6 1.6 0 1 0 1.6-1.7 1.6 1.6 0 0 0-1.6 1.7Z" fill="#263238"/><path d="m380.6 141.6-.6 10.2-5.3-1.8 5.9-8.4Z" fill="#F28F8F"/><path d="m384.5 142 23.8-1.7c4.6 3.5 13.2 10.9 13.1 12.9V154.8c-.8 1.6-3.9 2.6-8.6 2.6-5.6.1-14.3-.4-16.6-2.3-3.5-3-11.7-11.7-11.7-11.7h1.2l-1.2-1.3Z" fill="#5A81FA"/><path opacity=".2" d="m384.5 142 23.8-1.7c4.6 3.5 13.2 10.9 13.1 12.9V154.8c-.8 1.6-3.9 2.6-8.6 2.6-5.6.1-14.3-.4-16.6-2.3-3.5-3-11.7-11.7-11.7-11.7h1.2l-1.2-1.3Z" fill="#000"/><path d="M408.3 141.7c4.8 3.6 14 11.5 13.1 13-.9 1.7-3.9 2.7-8.6 2.8-5.6 0-14.3-.5-16.6-2.4-3.5-3-11.7-11.7-11.7-11.7l23.8-1.7Z" fill="#5A81FA"/><path opacity=".4" d="M408.3 141.7c4.8 3.6 14 11.5 13.1 13-.9 1.7-3.9 2.7-8.6 2.8-5.6 0-14.3-.5-16.6-2.4-3.5-3-11.7-11.7-11.7-11.7l23.8-1.7Z" fill="#000"/><path d="M408.3 141.7c0 .7-2.4 2.1-2.4 2.1l.7-4.2 1.7 2Z" fill="#5A81FA"/><path opacity=".3" d="M408.3 141.7c0 .7-2.4 2.1-2.4 2.1l.7-4.2 1.7 2Z" fill="#000"/><path d="M402 127.8s3.7.5 5 3.3c1.3 2.4.9 8.3-.7 14.7a59 59 0 0 1-4 12c-.7 1.1-1.7 2-2.9 2.3l.2-7.6.3-5.3s-3.4-4.7-3.8-8.5c-.5-4.9.6-6.9.6-6.9l5.3-4Z" fill="#263238"/><path d="M396 135.1a14.2 14.2 0 0 1-14.3 14.2c-7.8 0-13.7-6.5-13.7-14.3 0-7.9 6-14.2 13.8-14.1A14.2 14.2 0 0 1 396 135Z" fill="#263238"/><path d="M399.7 146.4c1.3 1.1 2.3-1.8 3.4-2.9 1-1.1 4.6-2.6 6.3 1 1.8 3.8-1.5 9-4.2 10.1a3.8 3.8 0 0 1-4.6-1.4v16.9c-4 7.3-11.2 7-15 6.7-3.8-.5-4.6-4.4-1.8-7.6V164a30 30 0 0 1-6.4.3c-3.5-.6-5.4-3.2-6.4-7-1.7-6.1-2.4-16.3 0-28.1 3.9-3 17.5-2.6 25.7 2.6-.6 10.5 1.7 13.5 3 14.6Z" fill="#FFA8A7"/><path d="M372.5 124c1.6-1.7 3.5-3 5.7-4 1.8-.8 3.7-1.2 5.6-1.2 2.5 0 5-.3 7.4-.3 4.3.2 9.5 2 11.4 6.1 1 2 1 4-.7 5.3-1.5 1-3.3 1.7-5.2 2-3.2.5-6.4 1.2-9.6 1.6-3.4.6-7 .6-10.3-.1a13.6 13.6 0 0 1-6.5-3.6c-.2-.2-.8-.7-.9-1l.5-1.2c.7-1.3 1.6-2.5 2.6-3.6Z" fill="#263238"/><path d="M383.8 164s7.8-1.5 10.5-3a9 9 0 0 0 3.8-3.7c-.4 1.6-1.1 3-2.1 4.4-2 2.5-12.2 4.4-12.2 4.4V164Z" fill="#F28F8F"/><path d="M385.9 143.8a1.7 1.7 0 0 0 2 1.5 1.7 1.7 0 0 0-.3-3.3 1.7 1.7 0 0 0-1.7 1.8Z" fill="#263238"/><path d="M382.1 156.4a1.7 1.7 0 0 0 2 1.6 1.7 1.7 0 0 0-.3-3.3 1.7 1.7 0 0 0-1.7 1.7Z" fill="#F28F8F"/><path d="m388.1 137.4 3.2 2.5a2.1 2.1 0 0 0-.3-2.9 2 2 0 0 0-2.9.4ZM371.3 140l3-2.7a2 2 0 0 0-2.8-.3 2.1 2.1 0 0 0-.2 3ZM372.4 143.3a1.7 1.7 0 0 0 2 1.5 1.7 1.7 0 0 0-.4-3.2 1.7 1.7 0 0 0-1.6 1.7Z" fill="#263238"/><path d="m381.4 140.4-.6 11.7-5.6-1.4 6.2-10.3Z" fill="#F28F8F"/><path d="M409.3 135.9c0 2-.4 4-1 5.9L407 140a41.8 41.8 0 0 0-38.6-7.2c0-1.7.5-3.4 1-5 3.1-8 9.3-12.1 19.2-11 11.6 1.1 21.1 7.5 20.8 19Z" fill="#5A81FA"/><path d="M388.1 128.8c-2.7-.9-9.6-1.4-11.6-.8-.9-.7-1.7-1.6-2.4-2.6-.9-1.5-.6-3.4.3-3.8.9-.4 1 .8 4.4 2.5-.5-1.1-.6-2.3-.3-3.5.5-1.3 1.7 1.1 4.2 2.7 2.6 1.7 5 2.5 5.4 5.5Z" fill="#263238"/><path d="M423.2 162.7c2.2-1.8 15.8 14.3 10.1 18.9-5.6 4.6-12.6-7-11.6-12.7.9-5.8 1.5-6.2 1.5-6.2Z" fill="#37474F"/><path d="M434.1 153.7a283.7 283.7 0 0 0-14.4-16c-2-1.8-3.2-1.6-4.4-2-1.4-.5-2.7-1.3-3.8-2.3l-1.8-2.1c-1.9-2.4-4.2-4.5-6.7-6.3-2.7-1.8-5.6-3.2-8.4-5-1.6-1-3.4-2.8-1.5-4.6.5-.6 1.2-1 2-1.1 4.6-1.2 8.8.2 13.4 1.2 2 .4 4 1 6 1.7 1 .4 1.8.8 2.6 1.4 1.6 1.4 3 2.8 4.4 4.4 3.1 4 5.9 5.1 9 7.8 3.6 3.2 20 14.8 23.6 18.3 2.8 2.9 2 5.2 1.6 6-2 4.8-4.5 6.5-7.4 9.5l-2.9 3a382 382 0 0 1-11.4 11c-4.1 3.9-5.8 5.7-9.5 9.5a29.4 29.4 0 0 0-5.6 8.3c-6.8 1.5-11.3-12.7-9-21 .8-2 2.2-3.8 4-5l20.2-16.7Z" fill="#FFA8A7"/><path d="M434.1 153.7c2.3 2.5 5.2 4.4 8.5 5.3 0 0-4.2 1.3-10.4-3.8l2-1.5Z" fill="#F28F8F"/><path d="m410.6 171.9 12.6-9.2s-1 2.6 1.2 8.7c2.2 6.2 6.4 9.9 9 10.2 0 0-4.2 3.7-8 7.7-3.6 4.1-6.8 7-8.8 11.6 0 0-5.8-1-7.6-10.6-1.3-6.7-1.3-14.7 1.6-18.4Z" fill="#E0E0E0"/><path d="M397.6 415.8c-.3.4-.1 3.1.3 3.8.5.6 3 2.7 7.7 2.8 4.4 0 8.4-.8 10.9-2.6s3.6-3.7 3.8-6.2c0-2.5-.3-5 .8-7 1-1.8 2.4-3.7 2.7-4.7.4-1.8.4-3.6 0-5.4l-26.2 19.3Z" fill="#263238"/><path d="M408.4 394.4c0 1-.1 1.9-.4 2.8a25.5 25.5 0 0 1-4 8.4c-1.4 1.7-3 3-4.3 4.7a9 9 0 0 0-2.4 5.6c0 3.5 3.8 4.4 6.7 4.8 3.2.4 6.4 0 9.5-1a8.7 8.7 0 0 0 6-7.3v-3c.3-2.1 1.1-4.3 2.4-6.1.7-1.1 1.4-2.3 1.9-3.5.8-2.2 0-4.6-.8-6.7-.6-1.8-1-4-1.7-3.8v1.2c-.2.4-.7.7-.8 1.2 0 .5-.2 1-.4 1.5-.3.7-.8 1.3-1.5 1.8 0-1.4-.2-2.7-.3-4 0-.4-.1-.8-.4-1.1-.3-.3-.7-.4-1.1-.4a24.7 24.7 0 0 0-8-.1c-.2 0-.4.2-.5.3-.1.3-.2.6 0 1l.1 3.7Z" fill="#5A81FA"/><path opacity=".2" d="M408.4 394.4c0 1-.1 1.9-.4 2.8a25.5 25.5 0 0 1-4 8.4c-1.4 1.7-3 3-4.3 4.7a9 9 0 0 0-2.4 5.6c0 3.5 3.8 4.4 6.7 4.8 3.2.4 6.4 0 9.5-1a8.7 8.7 0 0 0 6-7.3v-3c.3-2.1 1.1-4.3 2.4-6.1.7-1.1 1.4-2.3 1.9-3.5.8-2.2 0-4.6-.8-6.7-.6-1.8-1-4-1.7-3.8v1.2c-.2.4-.7.7-.8 1.2 0 .5-.2 1-.4 1.5-.3.7-.8 1.3-1.5 1.8 0-1.4-.2-2.7-.3-4 0-.4-.1-.8-.4-1.1-.3-.3-.7-.4-1.1-.4a24.7 24.7 0 0 0-8-.1c-.2 0-.4.2-.5.3-.1.3-.2.6 0 1l.1 3.7Z" fill="#000"/><path d="M405.2 403.7c1.2-1 4.1-1.3 5.7-1.2 1.6 0 3.2.5 4.6 1.4a1 1 0 0 0 1.2-1.7 9.8 9.8 0 0 0-5.2-1.6c-4 0-5 .7-5 .7s-1.8 1.2-1.3 2.4ZM402.4 407.4c1.6-1 4.8-1.1 6.4-1 1.6 0 3.1.6 4.4 1.4a1 1 0 0 0 1.4-.2 1 1 0 0 0 .2-.7 1 1 0 0 0-.4-.7c-1.6-1.1-3.4-1.7-5.3-1.8-4 0-4.9.8-4.9.8a3.3 3.3 0 0 0-1.8 2.2ZM412.8 396.8c-1.6-.2-3.3 0-4.8.7-.7.4-1.1 1.5-.6 1.8a9 9 0 0 1 4.3-.9 13 13 0 0 1 5.4 1.5 1 1 0 0 0 1.2-.5.9.9 0 0 0-.4-1.1c-1.5-.9-3.3-1.4-5-1.5Z" fill="#455A64"/><path d="M343.7 401.8c-.3 1-.2 2.2.3 3.1.5.9 5.4 3.3 11.8 2.5 4.7-.6 9.1-2.4 12.9-5.3 2.4-1.7 4.9-2.2 8-2.5 3.1-.4 5.5-1.5 6.1-3 .6-1.6-.3-4-.3-4l-38.8 9.2Z" fill="#263238"/><path d="m368.5 381.6-1.7-.5h-1a1.4 1.4 0 0 0-.6 1c0 1-.3 2-.5 2.9a7 7 0 0 1-1.7 2 28.8 28.8 0 0 1-5 3.5c-2 1.3-4 2.3-6 3.3-2.2 1.1-5 1.9-6.8 3.1-2.4 1.9-2.5 6.1.5 7.7 2.5 1.3 9 2.5 15.8.2 3.6-1.3 7.5-5.4 12.3-6 3.1-.5 7.2-1 9-3.4.7-1 .1-4.1-.4-7.7-.5-3.2-1-8.2-2-7.8l-.5 1.3a9.7 9.7 0 0 1-1.7 2l-1 1c-.6.5-1.2.7-1.9.8-.3 0-.6 0-.9-.2-.5-.3-.6-1-1-1.4a5 5 0 0 0-1.7-1.1c-.9-.4-1.8-.6-2.8-.6l-.4-.1Z" fill="#5A81FA"/><path opacity=".2" d="m368.5 381.6-1.7-.5h-1a1.4 1.4 0 0 0-.6 1c0 1-.3 2-.5 2.9a7 7 0 0 1-1.7 2 28.8 28.8 0 0 1-5 3.5c-2 1.3-4 2.3-6 3.3-2.2 1.1-5 1.9-6.8 3.1-2.4 1.9-2.5 6.1.5 7.7 2.5 1.3 9 2.5 15.8.2 3.6-1.3 7.5-5.4 12.3-6 3.1-.5 7.2-1 9-3.4.7-1 .1-4.1-.4-7.7-.5-3.2-1-8.2-2-7.8l-.5 1.3a9.7 9.7 0 0 1-1.7 2l-1 1c-.6.5-1.2.7-1.9.8-.3 0-.6 0-.9-.2-.5-.3-.6-1-1-1.4a5 5 0 0 0-1.7-1.1c-.9-.4-1.8-.6-2.8-.6l-.4-.1Z" fill="#000"/><path d="M360.8 388.7a2.9 2.9 0 0 1 2.2-1.7c1.4-.3 4 .6 5.5 1.8a1.1 1.1 0 0 1 .5 1 1.1 1.1 0 0 1-.5.9 1.1 1.1 0 0 1-1.3-.1 8.8 8.8 0 0 0-6.4-2ZM356.6 391.4a3.3 3.3 0 0 1 2.6-1.6s3.7 0 6.1 2a1.1 1.1 0 0 1 .3 1.4l-.4.4a1 1 0 0 1-1.2-.1 9 9 0 0 0-7.4-2.1ZM352 393.8a3.7 3.7 0 0 1 2.7-1.4c2 0 4 .7 5.8 2a1.1 1.1 0 0 1 .3 1.4l-.4.4a1.1 1.1 0 0 1-1.3 0 8.4 8.4 0 0 0-7.2-2.4ZM362.2 243.6c-.2 14.6.7 63.8 1 71.2.3 6.4 1.5 69.8 1.5 69.8 7.3 2.3 17.4 0 17.4 0s5.2-39.6 5.5-46.6c.2-6.4-.1-12.9-1-19.3l3.8-40.3s4.1 30.2 6.1 43.4l10.8 73.2c6.8 2.6 16.3-1.1 16.3-1.1s-.5-45.2-1.2-60.5c-.4-10.6-3.4-15.8-3.7-18.7 0 0-1.5-55-1.6-69-.1-9.3-1.1-19.5-1.1-19.5s-10.2.8-11.1-2.2c-1-3 0-31.5.3-37 0 0-21.4-4.8-40-1.3 0 0-2.8 43.2-3 57.9Z" fill="#455A64"/><path d="M405.3 232c-.1 9.7 1.6 15.7 4.2 17.8 2.6 2.1 7.6 2 7.6 2v-1.5s-4.8.7-6.9-1.5c-2.1-2.3-4.1-5.5-4.9-16.8ZM372.3 196s11.1 0 21.7.7c0 0 0 8.2-.9 11.1-.9 3-7.9 7.4-10.8 7.4-2.5 0-9.5-5-10-7.6-.6-2.7 0-11.6 0-11.6ZM390.4 278.4l-1-6.3a45 45 0 0 1-15.3-9.4c3.2 4.9 7.6 9 12.8 11.7l.3 39.8 3.2-35.8ZM410.6 171.9c-2-.5-3.2-.1-4.2 2.4a84 84 0 0 0-2.5 18.4s-4.7.9-7.9-.5c0 0 .4-10 1.5-15.3.3-1.5.8-3 1.5-4.4a4.6 4.6 0 0 1 5-2.6l7.3 1.4-.8.6Z" fill="#37474F"/><path d="M401.8 189.3a1.8 1.8 0 1 1-3.6 0 1.8 1.8 0 0 1 3.6 0Z" fill="#5A81FA"/><path d="M383.8 169.2a8.4 8.4 0 0 0-7.5 5.1c-1.5 3.8-1.5 12.4-1.6 16.6-2.3.9-4.9.9-7.2 0 0 0 0-13.4 2.3-17.8 2.3-4.5 6.7-4.8 9-5h5v1Z" fill="#37474F"/><path d="M373.1 188a1.8 1.8 0 1 1-3.6 0 1.8 1.8 0 0 1 3.6 0ZM220.6 123.1l.9 1.2c.3.4.7.8 1.2 1 .5.3 1 .4 1.7.4.8-.1 1.6-.4 2.3-.9.9-.5 1.7-1 2.4-1.8a13.5 13.5 0 0 0 3.3-5.9c.4-1.2.6-2.5.5-3.7 0-2-.5-3.4-1.5-4.1-1-.7-2.5-.6-4.3.5l-1.5 1.2-1.4 1.6-1.1 1.4-.9.9-9.1 5.3a1 1 0 0 1-1.2 0 1.9 1.9 0 0 1-.4-1.5l1.7-33.3c0-.7.2-1.4.5-2 .2-.6.6-1 1.1-1.4L240 67.5a.9.9 0 0 1 1.2 0 2 2 0 0 1 .4 1.5v9.6c0 .7-.1 1.4-.4 2a3 3 0 0 1-1.2 1.4l-17 9.8-.5 8.3 2.5-3c.9-.8 1.9-1.6 3-2.3 1.9-1.1 4-1.9 6.3-2.1 1.8-.2 3.5.2 5 1.2a9.5 9.5 0 0 1 3.3 4.8 25 25 0 0 1 1.2 8.4 39.7 39.7 0 0 1-10.3 26.9c-2 2-4.3 3.8-6.7 5.3a17.2 17.2 0 0 1-7.2 2.5c-1.8.2-3.7-.2-5.3-1.2a9 9 0 0 1-3.3-4.2c-.9-2-1.3-4.2-1.3-6.5 0-.5.2-1 .4-1.6.2-.4.5-.8 1-1.1l7.4-4.3c.6-.4 1-.5 1.4-.3l.8.5ZM266.2 51.4c3-1.7 5.5-2.5 7.6-2.4 2 0 3.9.9 5.3 2.3 1.5 1.7 2.6 3.8 3 6 .8 2.8 1.2 5.7 1.3 8.7a258.2 258.2 0 0 1 0 16c-.1 3.4-.5 6.8-1.2 10a43.5 43.5 0 0 1-8.4 18 27.9 27.9 0 0 1-7.6 6.4c-2.9 1.7-5.4 2.5-7.5 2.4-2 0-4-.9-5.3-2.3a13.2 13.2 0 0 1-3.1-6 40 40 0 0 1-1.2-8.7 316 316 0 0 1 0-16 62 62 0 0 1 1.2-10 43.7 43.7 0 0 1 8.4-18 28 28 0 0 1 7.5-6.4Zm6.3 36.5c.2-5.2.2-10.3 0-15.2 0-1.3-.2-2.6-.4-3.9-.2-1-.5-1.9-1-2.7a2.6 2.6 0 0 0-2-1.1c-1 0-2 .3-2.9.9a10 10 0 0 0-2.9 2.5c-.8 1-1.4 2.1-1.9 3.3A32.4 32.4 0 0 0 260 80a192.1 192.1 0 0 0 .4 19.1c.1 1 .5 1.9 1 2.7a2.6 2.6 0 0 0 2 1.1c1 0 2-.3 2.9-.9 1.1-.6 2.1-1.5 3-2.5a17.3 17.3 0 0 0 3-7.2l.2-4.4ZM306.6 28c3-1.6 5.5-2.4 7.6-2.3 2 0 3.9.9 5.3 2.3 1.5 1.7 2.5 3.7 3 6 .8 2.8 1.2 5.7 1.3 8.6v16.1c-.2 3.4-.6 6.7-1.2 10-.7 3.3-1.8 6.5-3.2 9.6-1.3 3-3 5.8-5.2 8.4a27.9 27.9 0 0 1-7.6 6.4c-3 1.7-5.4 2.4-7.6 2.3-2 0-3.8-.8-5.2-2.3a13.4 13.4 0 0 1-3.1-6c-.7-2.8-1.1-5.7-1.2-8.6l-.1-8v-8.1c.2-3.4.6-6.7 1.3-10a37.2 37.2 0 0 1 8.4-18c2-2.6 4.6-4.7 7.5-6.3Zm6.3 36.6c.2-5.2.2-10.3 0-15.2 0-1.3-.2-2.6-.4-4-.2-.9-.5-1.8-1-2.6a2.6 2.6 0 0 0-2-1.1c-1 0-2 .2-2.9.8-1 .7-2.1 1.5-3 2.5a13 13 0 0 0-1.8 3.3 32.3 32.3 0 0 0-1.5 8.3 192.1 192.1 0 0 0 .4 19.1c.2 1 .5 2 1 2.7a2.7 2.7 0 0 0 2 1.1c1 0 2-.3 3-.9a10 10 0 0 0 2.9-2.5c.7-1 1.4-2 1.9-3.3a18 18 0 0 0 1-3.8c.2-1.5.4-3 .4-4.4Z" fill="#5A81FA"/><path d="M243.3 179.3a.3.3 0 0 1 .3 0 .7.7 0 0 1 .2.5v3.4c0 .3 0 .5-.2.7 0 .2-.2.4-.3.5l-10 5.7a.3.3 0 0 1-.3 0 .7.7 0 0 1-.2-.5v-20.7c0-.2 0-.5.2-.7 0-.2.2-.4.4-.5l9.7-5.6a.3.3 0 0 1 .4 0 .7.7 0 0 1 .2.5v3.4l-.2.7c0 .2-.2.4-.4.5l-6.4 3.7v3.5l6-3.5a.3.3 0 0 1 .3 0l.2.3V174.8c0 .3 0 .5-.2.8l-.4.4-6 3.5v3.6l6.7-3.8ZM252.4 156.7c.8-.4 1.6-.8 2.5-1 .6-.1 1.3 0 1.8.3.6.4 1 1 1.2 1.6a13.9 13.9 0 0 1-.2 7.4c-.5 1.2-1 2.4-1.9 3.5l2.6 6.1V175.5l-.4.4-2.8 1.6c-.3.2-.5.2-.6 0l-.3-.3-2.3-5.5-2 1.1v7.6l-.5.4-2.7 1.6a.3.3 0 0 1-.4 0 .7.7 0 0 1-.2-.5v-20.7c0-.3 0-.5.2-.7 0-.2.2-.4.4-.5l5.6-3.3Zm-2.3 11.1 2.3-1.4c.6-.3 1-.8 1.5-1.3.4-.7.6-1.4.5-2.2 0-.9-.2-1.4-.5-1.5a1.8 1.8 0 0 0-1.5.3l-2.3 1.4v4.7ZM266.9 148.4c.7-.5 1.6-.8 2.4-1 .7-.1 1.3 0 1.9.3.5.4 1 1 1.1 1.6a13.9 13.9 0 0 1-.2 7.4c-.4 1.2-1 2.4-1.8 3.4l2.6 6.2v.3l-.1.5c0 .2-.2.3-.4.4l-2.8 1.7c-.3.1-.5.2-.6 0l-.3-.4-2.3-5.5-1.9 1.1v6.8l-.1.8-.4.4-2.8 1.6a.3.3 0 0 1-.4 0 .7.7 0 0 1-.1-.5v-20.7l.1-.7.4-.5 5.7-3.2Zm-2.4 11 2.4-1.3c.6-.3 1-.8 1.4-1.4.4-.6.6-1.4.6-2.1 0-1-.2-1.4-.6-1.6a1.8 1.8 0 0 0-1.4.3l-2.4 1.4v4.8ZM274.7 152.3a17.8 17.8 0 0 1 1.7-7.2l2-3c.8-1 1.7-1.7 2.8-2.3.8-.5 1.7-.8 2.7-.8a3 3 0 0 1 2 .7c.6.5 1 1.2 1.2 2 .4 1 .5 2 .5 3V150.4a18.6 18.6 0 0 1-1.7 7.2c-.6 1-1.2 2.1-2 3-.8.9-1.7 1.7-2.8 2.3-.8.5-1.7.8-2.7.8a3 3 0 0 1-2-.7c-.6-.5-1-1.2-1.2-2-.3-1-.5-2-.5-3v-5.8Zm9.1.2v-5.4l-.2-1.3a2 2 0 0 0-.5-.9c-.2-.2-.5-.3-.8-.3l-1.2.3c-.4.3-.8.6-1 1l-.9 1.2-.5 1.5-.2 1.6V155.6c0 .8.2 1.6.7 2.2.4.5 1 .5 2 0 .8-.5 1.5-1.3 1.9-2.2.4-1 .6-2 .7-3ZM296.3 131.4c.7-.5 1.6-.8 2.4-1 .7-.1 1.3 0 1.9.3.5.4 1 1 1.1 1.6a13.9 13.9 0 0 1-.2 7.4c-.4 1.2-1 2.4-1.8 3.4l2.6 6.2v.3l-.1.6-.3.4-2.9 1.7h-.6l-.3-.4-2.3-5.5-1.9 1v7c0 .2 0 .4-.2.6 0 .2-.2.4-.4.5l-2.7 1.6a.3.3 0 0 1-.4 0 .6.6 0 0 1-.1-.5v-20.7l.1-.7.4-.5 5.7-3.3Zm-2.4 11 2.4-1.3c.6-.3 1-.8 1.4-1.3.4-.7.6-1.5.6-2.2 0-1-.2-1.4-.6-1.5a1.8 1.8 0 0 0-1.4.3l-2.4 1.3v4.8ZM210.6 172a.2.2 0 0 1-.2 0V159.3l.2-.3 1.6-.9h.2l.1.2v12.5l-.3.3-1.6.9ZM220 166.6H219.7l-.2-.2-2.7-4.7v6.3l-.1.4-.3.3-1.5.9h-.2a.4.4 0 0 1-.2-.3v-12l.1-.4.3-.3 1.2-.7a.3.3 0 0 1 .3 0c.1 0 .2 0 .2.2l2.8 4.7v-6.7l.3-.3 1.6-.9a.2.2 0 0 1 .2 0V165.6l-.3.3-1.2.7ZM229.7 148a.2.2 0 0 1 .3 0V150.7l-.3.3-2.1 1.2v9.9l-.3.3-1.6.9a.2.2 0 0 1-.2 0l-.1-.3v-9.5l-2.1 1.2a.2.2 0 0 1-.3 0 .4.4 0 0 1 0-.3V152l.3-.3 6.4-3.7ZM237.4 153.6a.2.2 0 0 1 .3 0V156.3l-.3.3-5.7 3.2h-.2V147.1l.3-.3 5.5-3.2h.2l.2.2v2.1l-.1.4-.3.3-3.7 2.2v2l3.5-2a.2.2 0 0 1 .2 0l.1.2v2.4l-.3.3-3.4 2v2.1l3.8-2.2ZM243 140.3a4 4 0 0 1 1.4-.5c.4-.1.8 0 1 .1.4.3.6.6.8 1l.2 1.7a8 8 0 0 1-.4 2.5c-.2.8-.6 1.4-1 2l1.4 3.6v.5l-.2.2-1.6 1h-.4l-.1-.3-1.3-3.1-1.1.6v4l-.1.4c0 .2-.1.3-.2.3l-1.6 1h-.2l-.1-.4v-12.4l.3-.3 3.2-1.9Zm-1.4 6.4 1.4-.8.8-.7c.3-.4.4-.9.4-1.3 0-.5-.1-.8-.4-.9a1 1 0 0 0-.8.2l-1.4.8v2.7ZM253.6 147.2h-.3l-.2-.2-2.8-4.7v6.7l-.3.2-1.6 1a.2.2 0 0 1-.2 0v-.2s-.1-.1 0-.2v-12.4l.2-.3 1.3-.7a.3.3 0 0 1 .3 0l.2.2 2.7 4.7v-6.2l.1-.4.3-.3 1.5-1a.2.2 0 0 1 .3 0V146.2c0 .2-.2.3-.3.3l-1.2.8ZM261.6 129.6h.3l.2.3 2.6 10.2V140.7l-.2.2-1.5.9h-.4v-.3l-.4-1.3-3.2 1.8-.4 1.8v.3l-.4.4-1.6.9a.1.1 0 0 1-.1 0 .3.3 0 0 1-.1-.3v-.3l2.7-13.1.1-.5.4-.5 2-1Zm-2 9.2 2-1-1-4-1 5ZM272 133.6a.2.2 0 0 1 .2 0l.1.3v2.4l-.3.3-5.6 3.2a.2.2 0 0 1-.2 0V127.1l.2-.3 1.6-.9a.2.2 0 0 1 .2 0 .4.4 0 0 1 .1.3v9.5l3.7-2ZM279.3 119.2c.4-.3 1-.4 1.4-.5.4 0 .8 0 1.1.3l.8.7.2 1.1v.4l-.2.2-1.6.9h-.5v-.2l-.3-.1a1 1 0 0 0-.4 0l-.5.2c-.2 0-.3.2-.4.3l-.4.4-.3.4a1.3 1.3 0 0 0 0 .7v.2c.1.1.3.2.4.1h.7l1.1-.3c.4-.2.8-.2 1.2-.2.3 0 .6.1.8.3.3.2.4.5.5.8l.2 1.4a6.4 6.4 0 0 1-1 3.6 7.7 7.7 0 0 1-2.7 2.6l-1.5.6a2 2 0 0 1-1.2-.3c-.3-.2-.6-.5-.7-.8l-.3-1.2v-.4l.3-.2 1.5-.9h.5l.1.2.3.2h.4c.2 0 .4 0 .6-.2.4-.2.8-.5 1-.8.3-.3.5-.6.5-1 0-.2 0-.3-.2-.4a.7.7 0 0 0-.4 0l-.8.1-1.2.3a1.7 1.7 0 0 1-1.8-.3c-.4-.7-.6-1.5-.6-2.2a8.2 8.2 0 0 1 2-4.8c.4-.5.9-.9 1.4-1.2ZM290.6 122.9a.2.2 0 0 1 .2 0l.1.3v2.4l-.3.3-5.7 3.2a.2.2 0 0 1-.2 0l-.1-.3v-12.4l.3-.2 5.6-3.3a.2.2 0 0 1 .2 0 .4.4 0 0 1 .1.3v2.4l-.3.3-3.7 2.1v2l3.4-2h.2l.2.3v2l-.1.4-.3.3-3.4 2v2l3.8-2.1ZM296.2 109.7c.4-.3 1-.5 1.4-.6.4 0 .7 0 1 .2.4.2.6.5.8.9l.2 1.7a8 8 0 0 1-.4 2.5c-.2.8-.6 1.5-1 2l1.4 3.6v.5l-.2.2-1.6 1c-.2.1-.3.1-.4 0l-.2-.2-1.3-3.2-1.1.6v4l-.1.4c0 .2-.1.3-.2.3l-1.6 1a.2.2 0 0 1-.2 0l-.1-.4v-12.4l.3-.3 3.3-1.8Zm-1.4 6.3 1.4-.8c.3-.2.6-.4.8-.8.3-.3.4-.8.4-1.2 0-.5-.1-.8-.4-1a1 1 0 0 0-.8.3l-1.4.8v2.7ZM303.5 118.4c-.3.1-.5 0-.6-.4l-2.5-10.2v-.1l.1-.4.2-.2 1.5-1h.4v.3l1.8 7.2 1.6-9.1.1-.4.4-.3 1.5-1a.1.1 0 0 1 .2 0V103.5l-2.4 13a1.6 1.6 0 0 1-.6 1l-1.7 1ZM315.7 108.4a.2.2 0 0 1 .2 0 .4.4 0 0 1 .1.3v2l-.1.4-.2.3-5.7 3.2h-.2a.4.4 0 0 1-.1-.3V102l.3-.2 5.6-3.3a.2.2 0 0 1 .2 0l.1.3v2.4l-.3.3-3.7 2.1v2l3.4-2a.2.2 0 0 1 .3 0v2.8l-.3.2-3.4 2v2.1l3.8-2.2ZM321.3 95.2c.4-.3.9-.5 1.4-.6.3 0 .7 0 1 .2.4.2.6.5.7 1 .2.5.3 1 .3 1.7a8 8 0 0 1-.4 2.5l-1 2 1.4 3.5v.5l-.3.3-1.6.9h-.3l-.2-.2-1.3-3.2-1.1.7v4l-.1.4-.2.2-1.6.9a.2.2 0 0 1-.2 0l-.1-.1V97.3l.3-.3 3.3-1.8Zm-1.4 6.4 1.4-.8.8-.8c.2-.4.3-.8.3-1.3s0-.8-.3-.9a1.1 1.1 0 0 0-.8.2l-1.4.8v2.8ZM252 191.4a1.5 1.5 0 0 0-2.1.3c-.7.8-.7 3.4-1 5-.3 2-.9 3.7-1.7 5.4-1.4 3-3.3 5.6-5.7 7.9a36.1 36.1 0 0 1-15.2 8.8c-1.4.3-3.3.4-4.6 1.2v.1a.4.4 0 0 0 0 .4v.1c1.6.6 3.4.4 5 .2a35.4 35.4 0 0 0 23.7-17.2 21.7 21.7 0 0 0 2.4-9.5 3.2 3.2 0 0 0-.7-2.7Z" fill="#455A64"/></svg>