
<svg width="500" height="500" fill="none" xmlns="http://www.w3.org/2000/svg"><path d="M305.6 224.2v8.3c0 4.5 3 9 8.9 12.4 11.9 6.9 31.2 6.9 43.1 0 6-3.4 9-8 9-12.4v-8.3c0-4.5-3-9-9-12.5a47.6 47.6 0 0 0-43.1 0c-6 3.5-9 8-9 12.5Zm58 0c0 3.6-2.7 7.1-7.5 9.9a41 41 0 0 1-20 4.7c-7.7 0-14.9-1.7-20.2-4.7-4.8-2.8-7.4-6.3-7.4-10 0-3.5 2.6-7 7.4-9.8 5.3-3 12.5-4.8 20.1-4.8 7.6 0 14.8 1.7 20.1 4.8 4.8 2.8 7.5 6.3 7.5 9.9Z" fill="#5A81FA"/><path opacity=".1" d="M337 241.8v8.3c-8.1.1-16.4-1.6-22.6-5.2-6-3.4-8.9-8-8.9-12.4V223.3c-.4 4.8 2.6 9.7 9 13.3a44.3 44.3 0 0 0 22.5 5.2Z" fill="#000"/><path opacity=".6" d="M357.6 211.7a47.6 47.6 0 0 0-43.1 0c-12 7-12 18 0 25 11.9 6.8 31.2 6.8 43.1 0 12-7 12-18.1 0-25Zm-1.5 22.4a41 41 0 0 1-20 4.7 41 41 0 0 1-20.1-4.7c-4.9-2.8-7.5-6.3-7.5-10 0-3.5 2.6-7 7.5-9.8 5.3-3 12.4-4.8 20-4.8 7.7 0 14.8 1.7 20.1 4.8 4.8 2.8 7.5 6.3 7.5 9.9 0 3.6-2.6 7.1-7.5 9.9Z" fill="#fff"/><path d="M363.6 224.2c0 1.4-.4 2.9-1.2 4.1a16.5 16.5 0 0 0-6.3-5.7c-5.3-3-12.4-4.8-20-4.8-7.7 0-14.8 1.7-20.1 4.8a16.7 16.7 0 0 0-6.3 5.7 8.3 8.3 0 0 1-1.2-4.1c0-3.6 2.6-7.1 7.5-10 5.3-3 12.4-4.7 20-4.7 7.7 0 14.8 1.7 20.1 4.8 4.9 2.8 7.5 6.3 7.5 9.9Z" fill="#5A81FA"/><path opacity=".5" d="M356.1 218a41 41 0 0 0-20-4.8c-7.7 0-14.8 1.8-20.1 4.8-4 2.3-6.5 5-7.2 8 .7 3 3.2 5.7 7.2 8 5.3 3 12.4 4.8 20 4.8 7.7 0 14.9-1.7 20.2-4.8 4-2.3 6.4-5 7.2-8-.8-2.9-3.3-5.7-7.3-8Z" fill="#fff"/><path d="M356.7 242a4.8 4.8 0 0 1 2.1-3.8 1.5 1.5 0 0 1 1.5-.2l10.3 5.9a1.5 1.5 0 0 1 .6 1.4 4.7 4.7 0 0 1-2.1 3.7 1.5 1.5 0 0 1-1.5.1l-10.3-5.8a1.5 1.5 0 0 1-.6-1.4Z" fill="#37474F"/><path d="M357.3 243.3a1.5 1.5 0 0 1-.6-1.4c0-.5.1-1 .4-1.6l13.2 7.6a4 4 0 0 1-1.2 1.1 1.5 1.5 0 0 1-1.5.2l-10.3-6Z" fill="#263238"/><path d="M403.7 266.5 368.3 246c.5-.8 1-1.4 1.8-1.9a2 2 0 0 1 2-.2l34 18.2-2.4 4.4Z" fill="#5A81FA"/><path opacity=".6" d="M403.7 266.5 368.3 246c.5-.8 1-1.4 1.8-1.9a2 2 0 0 1 2-.2l34 18.2-2.4 4.4Z" fill="#fff"/><path d="M403.7 266.5 401 271l-32.9-20.3a2 2 0 0 1-.8-1.8c0-.6 0-1 .3-1.6v-.3l.4-.7.2-.4 35.4 20.5Z" fill="#5A81FA"/><path opacity=".1" d="M403.7 266.5 401 271l-32.9-20.3a2 2 0 0 1-.8-1.8c0-.6 0-1 .3-1.6v-.3l.4-.7.2-.4 35.4 20.5Z" fill="#000"/><path d="M403.6 270.8a8 8 0 0 0 3.7-6.3c0-2.3-1.7-3.3-3.7-2.1a8 8 0 0 0-3.6 6.3c0 2.4 1.6 3.3 3.6 2.1Z" fill="#5A81FA"/><path d="M403.6 270.8a8 8 0 0 0 3.7-6.3c0-2.3-1.7-3.3-3.7-2.1a8 8 0 0 0-3.6 6.3c0 2.4 1.6 3.3 3.6 2.1Z" fill="#000" opacity=".3"/><path d="M173 385.6c-1 0-2-.2-3-.7l-92.2-53.3a2 2 0 0 1 0-3.9l21.8-12.5.5.9-21.8 12.5a1.4 1.4 0 0 0-.8 1 1.4 1.4 0 0 0 .8 1.1l92.3 53.3a5.3 5.3 0 0 0 4.7 0l17.7-10.2.5.9-17.7 10.2c-.9.5-1.9.7-2.9.7Z" fill="#5A81FA"/><path d="M173 395c-1 0-2-.2-3-.7L61.6 331.6a2 2 0 0 1 0-3.9l30-17.2.4.9L62 328.6a1.1 1.1 0 0 0 0 2.1l108.5 62.7a5.2 5.2 0 0 0 4.7 0l25.9-14.9.5.9-25.9 14.9c-.8.5-1.8.7-2.8.7Z" fill="#5A81FA"/><path d="M173 404.4c-1 0-2-.3-3-.7l-124.7-72a2.3 2.3 0 0 1-1.3-2 2.3 2.3 0 0 1 1.3-2l38-22 .5 1-38 22a1.1 1.1 0 0 0 0 2l124.8 72a5.3 5.3 0 0 0 4.7 0l34-19.5.5.9-34 19.6c-.9.4-1.9.7-2.9.7Z" fill="#5A81FA"/><path d="m43 268.7 65 37.5 65-37.5-65-37.5-65 37.5Z" fill="#263238"/><path d="M108 306.2v17.3c-1.6 0-3-.3-4.4-1l-28.2-16.3L45.5 289a5.7 5.7 0 0 1-2.6-4.5v-15.8l63.2 36.5 1.8 1Z" fill="#455A64"/><path d="M173 268.7v15.8a5.8 5.8 0 0 1-2.7 4.5l-25.8 14.9-32.2 18.6c-1.4.7-2.9 1-4.4 1v-17.3l2-1.2 63-36.3Z" fill="#37474F"/><path d="M47 276.2v2.2a1 1 0 0 0 .4.7l.5.3c.3.1.5 0 .5-.3V277a1 1 0 0 0-.5-.8l-.5-.2c-.2-.1-.4 0-.4.2ZM49.2 277.5v2.1a1 1 0 0 0 .4.8l.5.3c.2 0 .4 0 .4-.3v-2.1a1 1 0 0 0-.4-.8l-.5-.3c-.2 0-.4 0-.4.3ZM51.4 278.8v2a1 1 0 0 0 .4.8l.5.3c.2.2.4 0 .4-.2v-2.2a1 1 0 0 0-.4-.7l-.5-.3c-.2-.1-.4 0-.4.3ZM53.6 280v2.1a1 1 0 0 0 .4.8l.5.3c.2.1.4 0 .4-.3v-2.1a1 1 0 0 0-.4-.8l-.5-.2c-.2-.2-.4 0-.4.2Z" fill="#5A81FA"/><path d="M55.8 281.3v2.1a1 1 0 0 0 .4.8l.5.2c.2.2.4 0 .4-.2V282a1 1 0 0 0-.4-.8l-.5-.3c-.2-.1-.4 0-.4.3Z" fill="#263238"/><path d="M58 282.5v2.2a1 1 0 0 0 .4.7l.5.3c.3.1.5 0 .5-.3v-2a1 1 0 0 0-.5-.8l-.5-.3c-.3-.1-.4 0-.4.2Z" fill="#5A81FA"/><path d="M60.1 283.8v2.1a1 1 0 0 0 .5.8l.5.3c.2.1.4 0 .4-.3v-2.1a1 1 0 0 0-.4-.8l-.5-.2c-.3-.2-.5 0-.5.2ZM62.3 285v2.2a1 1 0 0 0 .5.7l.4.3c.3.2.5 0 .5-.2v-2.1a1 1 0 0 0-.5-.8l-.4-.3c-.3-.1-.5 0-.5.3ZM64.5 286.3v2.1a1 1 0 0 0 .4.8l.5.3c.3.1.5 0 .5-.3v-2a1 1 0 0 0-.5-.8l-.5-.3c-.2-.2-.4 0-.4.2Z" fill="#263238"/><path d="M66.7 287.6v2.1a1 1 0 0 0 .4.8l.5.3c.3 0 .5 0 .5-.3v-2.1a1 1 0 0 0-.5-.8l-.5-.3c-.2-.1-.4 0-.4.3ZM68.9 288.9v2.1a1 1 0 0 0 .4.8l.5.2c.2.2.4 0 .4-.2v-2.2a1 1 0 0 0-.4-.7l-.5-.3c-.2-.1-.4 0-.4.3Z" fill="#5A81FA"/><path d="M71 290.1v2.1a1 1 0 0 0 .5.8l.5.3c.2.1.4 0 .4-.3V291a1 1 0 0 0-.4-.8l-.5-.2c-.2-.2-.4 0-.4.2ZM73.3 291.4v2.1a1 1 0 0 0 .4.8l.5.2c.2.2.4 0 .4-.2v-2.1a1 1 0 0 0-.4-.8l-.5-.3c-.2-.1-.4 0-.4.3Z" fill="#263238"/><path d="M75.5 292.6v2.2a1 1 0 0 0 .4.7l.5.3c.2.1.4 0 .4-.3v-2a1 1 0 0 0-.4-.8l-.5-.3c-.2-.1-.4 0-.4.2ZM77.6 293.9v2.1a1 1 0 0 0 .5.8l.5.2c.2.2.4 0 .4-.2v-2.1a1 1 0 0 0-.4-.8l-.5-.3c-.3 0-.5 0-.5.3ZM79.8 295.2v2a1 1 0 0 0 .5.8l.5.3c.2.1.4 0 .4-.2v-2.2a1 1 0 0 0-.4-.7l-.5-.3c-.3-.1-.5 0-.5.3ZM82 296.4v2.2a1 1 0 0 0 .4.7l.5.3c.3.1.4 0 .4-.3v-2.1a1 1 0 0 0-.4-.8l-.5-.2c-.2-.2-.4 0-.4.2ZM47 282.5v2.2a1 1 0 0 0 .4.7l.5.3c.3.1.5 0 .5-.3v-2a1 1 0 0 0-.5-.8l-.5-.3c-.2-.1-.4 0-.4.2Z" fill="#5A81FA"/><path d="M49.2 283.8v2.1a1 1 0 0 0 .4.8l.5.3c.2.1.4 0 .4-.3v-2.1a1 1 0 0 0-.4-.8l-.5-.2c-.2-.2-.4 0-.4.2Z" fill="#263238"/><path d="M51.4 285v2.2a1 1 0 0 0 .4.7l.5.3c.2.2.4 0 .4-.2v-2.1a1 1 0 0 0-.4-.8l-.5-.3c-.2-.1-.4 0-.4.3Z" fill="#5A81FA"/><path d="M53.6 286.3v2.1a1 1 0 0 0 .4.8l.5.3c.2.1.4 0 .4-.3v-2a1 1 0 0 0-.4-.8l-.5-.3c-.2-.2-.4 0-.4.2ZM55.8 287.6v2.1a1 1 0 0 0 .4.8l.5.3c.2 0 .4 0 .4-.3v-2.1a1 1 0 0 0-.4-.8l-.5-.3c-.2-.1-.4 0-.4.3Z" fill="#263238"/><path d="M58 288.9v2.1a1 1 0 0 0 .4.8l.5.2c.3.2.5 0 .5-.2v-2.2a1 1 0 0 0-.5-.7l-.5-.3c-.3-.1-.4 0-.4.3ZM60.1 290.1v2.1a1 1 0 0 0 .5.8l.5.3c.2.1.4 0 .4-.3V291a1 1 0 0 0-.4-.8l-.5-.2c-.3-.2-.5 0-.5.2ZM62.3 291.4v2.1a1 1 0 0 0 .5.8l.4.2c.3.2.5 0 .5-.2v-2.1a1 1 0 0 0-.5-.8l-.4-.3c-.3-.1-.5 0-.5.3ZM64.5 292.6v2.2a1 1 0 0 0 .4.7l.5.3c.3.1.5 0 .5-.3v-2a1 1 0 0 0-.5-.8l-.5-.3c-.2-.1-.4 0-.4.2Z" fill="#5A81FA"/><path d="M66.7 293.9v2.1a1 1 0 0 0 .4.8l.5.2c.3.2.5 0 .5-.2v-2.1a1 1 0 0 0-.5-.8l-.5-.3c-.2 0-.4 0-.4.3ZM68.9 295.2v2a1 1 0 0 0 .4.8l.5.3c.2.1.4 0 .4-.2v-2.2a1 1 0 0 0-.4-.7l-.5-.3c-.2-.1-.4 0-.4.3Z" fill="#263238"/><path d="M71 296.4v2.2a1 1 0 0 0 .5.7l.5.3c.2.1.4 0 .4-.3v-2.1a1 1 0 0 0-.4-.8l-.5-.2c-.2-.2-.4 0-.4.2ZM73.3 297.7v2.1a1 1 0 0 0 .4.8l.5.2c.2.2.4 0 .4-.2v-2.1a1 1 0 0 0-.4-.8l-.5-.3c-.2-.1-.4 0-.4.3Z" fill="#5A81FA"/><path d="M75.5 299v2a1 1 0 0 0 .4.8l.5.3c.2.1.4 0 .4-.3v-2a1 1 0 0 0-.4-.8l-.5-.3c-.2-.1-.4 0-.4.2ZM77.6 300.2v2.1a1 1 0 0 0 .5.8l.5.3c.2.1.4 0 .4-.3V301a1 1 0 0 0-.4-.8l-.5-.2c-.3-.2-.5 0-.5.2ZM79.8 301.5v2a1 1 0 0 0 .5.8l.5.3c.2.2.4 0 .4-.2v-2.1a1 1 0 0 0-.4-.8l-.5-.3c-.3-.1-.5 0-.5.3ZM82 302.7v2.2a1 1 0 0 0 .4.7l.5.3c.3.1.4 0 .4-.3v-2a1 1 0 0 0-.4-.8l-.5-.3c-.2-.2-.4 0-.4.2Z" fill="#263238"/><path d="m89.3 303.6 1-.6a1.3 1.3 0 0 1 1.4.2 4.2 4.2 0 0 1 1.8 3.3 1.3 1.3 0 0 1-.5 1.2l-1 .5-.1-.3-.5-.2a4.2 4.2 0 0 1-2-3.3l.1-.4-.2-.4Z" fill="#5A81FA"/><path opacity=".2" d="m89.3 303.6 1-.6a1.3 1.3 0 0 1 1.4.2 4.2 4.2 0 0 1 1.8 3.3 1.3 1.3 0 0 1-.5 1.2l-1 .5-.1-.3-.5-.2a4.2 4.2 0 0 1-2-3.3l.1-.4-.2-.4Z" fill="#000"/><path d="M90.7 303.7a4.1 4.1 0 0 1 1.9 3.3c0 1.2-.9 1.7-1.9 1a4.2 4.2 0 0 1-1.9-3.2c0-1.2.9-1.7 1.9-1ZM97.5 308.3l1-.5a1.3 1.3 0 0 1 1.3 0 4.2 4.2 0 0 1 1.9 3.3 1.3 1.3 0 0 1-.5 1.3l-1 .5-.1-.3a2 2 0 0 1-.6-.2 4.2 4.2 0 0 1-1.9-3.3l.1-.4-.2-.4Z" fill="#5A81FA"/><path opacity=".2" d="m97.5 308.3 1-.5a1.3 1.3 0 0 1 1.3 0 4.2 4.2 0 0 1 1.9 3.3 1.3 1.3 0 0 1-.5 1.3l-1 .5-.1-.3a2 2 0 0 1-.6-.2 4.2 4.2 0 0 1-1.9-3.3l.1-.4-.2-.4Z" fill="#000"/><path d="M98.9 308.4a4.2 4.2 0 0 1 1.8 3.3c0 1.2-.8 1.7-1.8 1a4.2 4.2 0 0 1-1.9-3.2c0-1.2.8-1.7 1.9-1Z" fill="#5A81FA"/><path d="m43 240.6 65 37.5 65-37.5-65-37.6-65 37.6Z" fill="#263238"/><path d="m43 259.3 65 37.6V278l-65-37.5v18.7Z" fill="#455A64"/><path d="m108 296.9 65-37.6v-18.7L108 278v18.8Z" fill="#37474F"/><path d="M51 268.7V264l57 32.9v4.6l-57-32.8Z" fill="#5A81FA"/><path d="M168.9 261.7v4.7l-61 35.1V297l61-35.2Z" fill="#5A81FA"/><path opacity=".2" d="M168.9 261.7v4.7l-61 35.1V297l61-35.2Z" fill="#000"/><path d="M47 248.1v2.1a1 1 0 0 0 .4.8l.5.3c.3 0 .5 0 .5-.3v-2.1a1 1 0 0 0-.5-.8l-.5-.3c-.2 0-.4 0-.4.3Z" fill="#263238"/><path d="M49.2 249.4v2a1 1 0 0 0 .4.8l.5.3c.2.2.4 0 .4-.2V250a1 1 0 0 0-.4-.7l-.5-.3c-.2-.1-.4 0-.4.3ZM51.4 250.6v2.1a1 1 0 0 0 .4.8l.5.3c.2.1.4 0 .4-.3v-2.1a1 1 0 0 0-.4-.8l-.5-.2c-.2-.2-.4 0-.4.2Z" fill="#5A81FA"/><path d="M53.6 251.9v2.1a1 1 0 0 0 .4.8l.5.2c.2.2.4 0 .4-.2v-2.2a1 1 0 0 0-.4-.7l-.5-.3c-.2-.1-.4 0-.4.3ZM55.8 253.1v2.2a1 1 0 0 0 .4.7l.5.3c.2.1.4 0 .4-.3v-2a1 1 0 0 0-.4-.8l-.5-.3c-.2-.2-.4 0-.4.2Z" fill="#263238"/><path d="M58 254.4v2.1a1 1 0 0 0 .4.8l.5.3c.3.1.5 0 .5-.3v-2.1a1 1 0 0 0-.5-.8l-.5-.3c-.3-.1-.4 0-.4.3ZM60.1 255.7v2a1 1 0 0 0 .5.8l.5.3c.2.2.4 0 .4-.2v-2.2a1 1 0 0 0-.4-.7l-.5-.3c-.3-.1-.5 0-.5.3ZM62.3 257v2a1 1 0 0 0 .5.8l.4.3c.3.1.5 0 .5-.3v-2a1 1 0 0 0-.5-.8l-.4-.3c-.3-.2-.5 0-.5.2ZM64.5 258.2v2.1a1 1 0 0 0 .4.8l.5.2c.3.2.5 0 .5-.2V259a1 1 0 0 0-.5-.8l-.5-.2c-.2-.2-.4 0-.4.2Z" fill="#5A81FA"/><path d="M66.7 259.4v2.2a1 1 0 0 0 .4.7l.5.3c.3.1.5 0 .5-.2v-2.2a1 1 0 0 0-.5-.7l-.5-.3c-.2-.1-.4 0-.4.3ZM68.9 260.7v2.1a1 1 0 0 0 .4.8l.5.3c.2.1.4 0 .4-.3v-2.1a1 1 0 0 0-.4-.8l-.5-.2c-.2-.2-.4 0-.4.2ZM71 262v2.1a1 1 0 0 0 .5.8l.5.3c.2.1.4 0 .4-.3v-2.1a1 1 0 0 0-.4-.8l-.5-.3c-.2-.1-.4 0-.4.3Z" fill="#263238"/><path d="M73.3 263.2v2.2a1 1 0 0 0 .4.7l.5.3c.2.1.4 0 .4-.3V264a1 1 0 0 0-.4-.8l-.5-.2c-.2-.1-.4 0-.4.2ZM75.5 264.5v2.1a1 1 0 0 0 .4.8l.5.3c.2 0 .4 0 .4-.3v-2.1a1 1 0 0 0-.4-.8l-.5-.3c-.2 0-.4 0-.4.3ZM77.6 265.8v2a1 1 0 0 0 .5.8l.5.3c.2.2.4 0 .4-.2v-2.2a1 1 0 0 0-.4-.7l-.5-.3c-.3-.1-.5 0-.5.3Z" fill="#5A81FA"/><path d="M79.8 267v2.1a1 1 0 0 0 .5.8l.5.3c.2 0 .4 0 .4-.3v-2.1a1 1 0 0 0-.4-.8l-.5-.2c-.3-.2-.5 0-.5.2Z" fill="#263238"/><path d="M82 268.3v2.1a1 1 0 0 0 .4.8l.5.2c.3.2.4 0 .4-.2V269a1 1 0 0 0-.4-.8l-.5-.3c-.2-.1-.4 0-.4.3ZM47 254.4v2.1a1 1 0 0 0 .4.8l.5.3c.3.1.5 0 .5-.3v-2.1a1 1 0 0 0-.5-.8l-.5-.3c-.2-.1-.4 0-.4.3ZM49.2 255.7v2a1 1 0 0 0 .4.8l.5.3c.2.2.4 0 .4-.2v-2.2a1 1 0 0 0-.4-.7l-.5-.3c-.2-.1-.4 0-.4.3ZM51.4 257v2a1 1 0 0 0 .4.8l.5.3c.2.1.4 0 .4-.3v-2a1 1 0 0 0-.4-.8l-.5-.3c-.2-.2-.4 0-.4.2ZM53.6 258.2v2.1a1 1 0 0 0 .4.8l.5.2c.2.2.4 0 .4-.2V259a1 1 0 0 0-.4-.8l-.5-.2c-.2-.2-.4 0-.4.2Z" fill="#5A81FA"/><path d="M55.8 259.4v2.2a1 1 0 0 0 .4.7l.5.3c.2.1.4 0 .4-.2v-2.2a1 1 0 0 0-.4-.7l-.5-.3c-.2-.1-.4 0-.4.3ZM58 260.7v2.1a1 1 0 0 0 .4.8l.5.3c.3.1.5 0 .5-.3v-2.1a1 1 0 0 0-.5-.8l-.5-.2c-.3-.2-.4 0-.4.2Z" fill="#263238"/><path d="M60.1 262v2.1a1 1 0 0 0 .5.8l.5.3c.2.1.4 0 .4-.3v-2.1a1 1 0 0 0-.4-.8l-.5-.3c-.3-.1-.5 0-.5.3ZM62.3 263.2v2.2a1 1 0 0 0 .5.7l.4.3c.3.1.5 0 .5-.3V264a1 1 0 0 0-.5-.8l-.4-.2c-.3-.1-.5 0-.5.2ZM64.5 264.5v2.1a1 1 0 0 0 .4.8l.5.3c.3 0 .5 0 .5-.3v-2.1a1 1 0 0 0-.5-.8l-.5-.3c-.2 0-.4 0-.4.3ZM66.7 265.8v2a1 1 0 0 0 .4.8l.5.3c.3.2.5 0 .5-.2v-2.2a1 1 0 0 0-.5-.7l-.5-.3c-.2-.1-.4 0-.4.3ZM68.9 267v2.1a1 1 0 0 0 .4.8l.5.3c.2 0 .4 0 .4-.3v-2.1a1 1 0 0 0-.4-.8l-.5-.2c-.2-.2-.4 0-.4.2Z" fill="#5A81FA"/><path d="M71 268.3v2.1a1 1 0 0 0 .5.8l.5.2c.2.2.4 0 .4-.2V269a1 1 0 0 0-.4-.8l-.5-.3c-.2-.1-.4 0-.4.3Z" fill="#263238"/><path d="M73.3 269.5v2.2a1 1 0 0 0 .4.7l.5.3c.2.1.4 0 .4-.3v-2a1 1 0 0 0-.4-.8l-.5-.3c-.2-.2-.4 0-.4.2ZM75.4 270.8v2.1a1 1 0 0 0 .5.8l.5.3c.2.1.4 0 .4-.3v-2.1a1 1 0 0 0-.4-.8l-.5-.3a.3.3 0 0 0-.3 0l-.1.1v.2ZM77.6 272v2.2a1 1 0 0 0 .5.7l.5.3c.2.2.4 0 .4-.2v-2.1a1 1 0 0 0-.4-.8l-.5-.3c-.3-.1-.5 0-.5.3ZM79.8 273.3v2.1a1 1 0 0 0 .5.8l.5.3c.2.1.4 0 .4-.3v-2a1 1 0 0 0-.4-.8l-.5-.3c-.3-.2-.5 0-.5.2ZM82 274.6v2.1a1 1 0 0 0 .4.8l.5.2c.3.2.4 0 .4-.2v-2.1a1 1 0 0 0-.4-.8l-.5-.3c-.2-.1-.4 0-.4.3ZM89.3 275.5l1-.6a1.3 1.3 0 0 1 1.4.1 4.1 4.1 0 0 1 1.8 3.3 1.3 1.3 0 0 1-.5 1.2l-1 .5-.1-.2a2 2 0 0 1-.5-.3 4.2 4.2 0 0 1-2-3.2l.1-.5-.2-.3Z" fill="#5A81FA"/><path opacity=".2" d="m89.3 275.5 1-.6a1.3 1.3 0 0 1 1.4.1 4.1 4.1 0 0 1 1.8 3.3 1.3 1.3 0 0 1-.5 1.2l-1 .5-.1-.2a2 2 0 0 1-.5-.3 4.2 4.2 0 0 1-2-3.2l.1-.5-.2-.3Z" fill="#000"/><path d="M90.7 275.6a4.2 4.2 0 0 1 1.9 3.2c0 1.2-.9 1.7-1.9 1.1a4.2 4.2 0 0 1-1.9-3.2c0-1.2.9-1.7 1.9-1.1ZM97.5 280.2l1-.6a1.3 1.3 0 0 1 1.3.1 4.2 4.2 0 0 1 1.9 3.3 1.3 1.3 0 0 1-.5 1.2l-1 .6-.1-.3a2 2 0 0 1-.6-.2 4.2 4.2 0 0 1-1.9-3.3l.1-.5-.2-.3Z" fill="#5A81FA"/><path opacity=".2" d="m97.5 280.2 1-.6a1.3 1.3 0 0 1 1.3.1 4.2 4.2 0 0 1 1.9 3.3 1.3 1.3 0 0 1-.5 1.2l-1 .6-.1-.3a2 2 0 0 1-.6-.2 4.2 4.2 0 0 1-1.9-3.3l.1-.5-.2-.3Z" fill="#000"/><path d="M98.9 280.3a4.2 4.2 0 0 1 1.8 3.3c0 1.2-.8 1.6-1.8 1a4.1 4.1 0 0 1-1.9-3.2c0-1.2.8-1.7 1.9-1.1Z" fill="#5A81FA"/><path d="m43 212.4 65 37.5 65-37.5-65-37.5-65 37.5Z" fill="#263238"/><path d="m43 231.2 65 37.5v-18.8l-65-37.5v18.8Z" fill="#455A64"/><path d="m108 268.7 65-37.5v-18.8L108 250v18.8Z" fill="#37474F"/><path d="M51 240.6v-4.7l57 32.8v4.7l-57-32.8Z" fill="#5A81FA"/><path d="M168.9 233.5v4.7l-61 35.2v-4.7l61-35.2Z" fill="#5A81FA"/><path opacity=".2" d="M168.9 233.5v4.7l-61 35.2v-4.7l61-35.2Z" fill="#000"/><path d="M47 220v2.1a1 1 0 0 0 .4.8l.5.3c.3.1.5 0 .5-.3v-2.1a1 1 0 0 0-.5-.8l-.5-.3c-.2-.1-.4 0-.4.3ZM49.2 221.2v2.1a1 1 0 0 0 .4.8l.5.3c.2.1.4 0 .4-.3V222a1 1 0 0 0-.4-.8l-.5-.2c-.2-.2-.4 0-.4.2ZM51.4 222.5v2.1a1 1 0 0 0 .4.8l.5.2c.2.2.4 0 .4-.2v-2.1a1 1 0 0 0-.4-.8l-.5-.3c-.2-.1-.4 0-.4.3Z" fill="#5A81FA"/><path d="M53.6 223.7v2.2a1 1 0 0 0 .4.7l.5.3c.2.1.4 0 .4-.3v-2a1 1 0 0 0-.4-.8l-.5-.3c-.2-.2-.4 0-.4.2ZM55.8 225v2.1a1 1 0 0 0 .4.8l.5.3c.2 0 .4 0 .4-.3v-2.1a1 1 0 0 0-.4-.8l-.5-.3c-.2 0-.4 0-.4.3Z" fill="#263238"/><path d="M58 226.3v2a1 1 0 0 0 .4.8l.5.3c.3.2.5 0 .5-.2V227a1 1 0 0 0-.5-.8l-.5-.2c-.3-.1-.4 0-.4.3ZM60.1 227.5v2.2a1 1 0 0 0 .5.7l.5.3c.2.1.4 0 .4-.3v-2.1a1 1 0 0 0-.4-.8l-.5-.2c-.3-.2-.5 0-.5.2ZM62.3 228.8v2.1a1 1 0 0 0 .5.8l.4.2c.3.2.5 0 .5-.2v-2.1a1 1 0 0 0-.5-.8l-.4-.3c-.3-.1-.5 0-.5.3ZM64.5 230v2.2a1 1 0 0 0 .4.7l.5.3c.3.1.5 0 .5-.3v-2a1 1 0 0 0-.5-.8l-.5-.3c-.2-.1-.4 0-.4.3ZM66.7 231.3v2.1a1 1 0 0 0 .4.8l.5.3c.3.1.5 0 .5-.3v-2.1a1 1 0 0 0-.5-.8l-.5-.2c-.2-.2-.4-.1-.4.2ZM68.9 232.6v2a1 1 0 0 0 .4.8l.5.3c.2.2.4 0 .4-.2v-2.2a1 1 0 0 0-.4-.7l-.5-.3c-.2-.1-.4 0-.4.3ZM71 233.8v2.2a1 1 0 0 0 .5.8l.5.2c.2.1.4 0 .4-.3v-2a1 1 0 0 0-.4-.8l-.5-.3c-.2-.2-.4 0-.4.2Z" fill="#5A81FA"/><path d="M73.3 235v2.2a1 1 0 0 0 .4.8l.5.3c.2 0 .4 0 .4-.3v-2.1a1 1 0 0 0-.4-.8l-.5-.3c-.2-.1-.4 0-.4.3Z" fill="#263238"/><path d="M75.4 236.3v2.2a1 1 0 0 0 .5.7l.5.3c.2.2.4 0 .4-.2V237a1 1 0 0 0-.4-.7l-.5-.3a.3.3 0 0 0-.3 0h-.1v.3ZM77.6 237.6v2.1a1 1 0 0 0 .5.8l.5.3c.2.1.4 0 .4-.3v-2.1a1 1 0 0 0-.4-.8l-.5-.2c-.3-.2-.5 0-.5.2ZM79.8 238.9v2.1a1 1 0 0 0 .5.8l.5.2c.2.2.4 0 .4-.2v-2.1a1 1 0 0 0-.4-.8l-.5-.3c-.3-.1-.5 0-.5.3ZM82 240.1v2.2a1 1 0 0 0 .4.7l.5.3c.3.1.4 0 .4-.3v-2a1 1 0 0 0-.4-.8l-.5-.3c-.2-.2-.4 0-.4.2ZM47 226.3v2a1 1 0 0 0 .4.8l.5.3a.3.3 0 0 0 .4 0V227a1 1 0 0 0-.4-.8l-.5-.2c-.2-.1-.4 0-.4.3Z" fill="#5A81FA"/><path d="M49.2 227.5v2.2a1 1 0 0 0 .4.7l.5.3h.2a.3.3 0 0 0 .2-.1V228.3a1 1 0 0 0-.4-.8l-.5-.2a.3.3 0 0 0-.3 0 .3.3 0 0 0-.1.2ZM51.4 228.8v2.1a1 1 0 0 0 .4.8l.5.2c.2.2.4 0 .4-.2v-2.1a1 1 0 0 0-.4-.8l-.5-.3H51.5v.1l-.1.2Z" fill="#263238"/><path d="M53.6 230v2.2a1 1 0 0 0 .4.7l.5.3c.2.1.4 0 .4-.3v-2a1 1 0 0 0-.4-.8l-.5-.3c-.2-.1-.4 0-.4.3ZM55.8 231.3v2.1a1 1 0 0 0 .4.8l.5.3c.2.1.4 0 .4-.3v-2.1a1 1 0 0 0-.4-.8l-.5-.2c-.2-.2-.4-.1-.4.2Z" fill="#5A81FA"/><path d="M58 232.6v2a1 1 0 0 0 .4.8l.5.3c.3.2.5 0 .5-.2v-2.2a1 1 0 0 0-.5-.7l-.5-.3c-.3-.1-.4 0-.4.3Z" fill="#263238"/><path d="M60.1 233.8v2.2a1 1 0 0 0 .5.8l.5.2a.3.3 0 0 0 .4-.2v-2.1a1 1 0 0 0-.4-.8l-.5-.3c-.3-.2-.5 0-.5.2ZM62.3 235v2.2a1 1 0 0 0 .5.8l.4.3h.2a.3.3 0 0 0 .3-.1V235.9a1 1 0 0 0-.5-.8l-.4-.3c-.3-.1-.5 0-.5.3ZM64.5 236.3v2.2a1 1 0 0 0 .4.7l.5.3c.3.2.5 0 .5-.2V237a1 1 0 0 0-.5-.7l-.5-.3c-.2-.1-.4 0-.4.3ZM66.7 237.6v2.1a1 1 0 0 0 .4.8l.5.3c.3.1.5 0 .5-.3v-2.1a1 1 0 0 0-.5-.8l-.5-.2c-.2-.2-.4 0-.4.2Z" fill="#5A81FA"/><path d="M68.9 238.9v2.1a1 1 0 0 0 .4.8l.5.2c.2.2.4 0 .4-.2v-2.1a1 1 0 0 0-.4-.8l-.5-.3c-.2-.1-.4 0-.4.3ZM71 240.1v2.2a1 1 0 0 0 .5.7l.5.3c.2.1.4 0 .4-.3v-2a1 1 0 0 0-.4-.8l-.5-.3c-.2-.2-.4 0-.4.2Z" fill="#263238"/><path d="M73.3 241.4v2.1a1 1 0 0 0 .4.8l.5.3a.3.3 0 0 0 .4-.3v-2.1a1 1 0 0 0-.4-.8l-.5-.3c-.2-.1-.4 0-.4.3ZM75.5 242.7v2a1 1 0 0 0 .4.8l.5.3c.2.1.4 0 .4-.2v-2.2a1 1 0 0 0-.4-.7l-.5-.3c-.2-.1-.4 0-.4.3ZM77.6 244v2a1 1 0 0 0 .5.8l.5.3h.1a.3.3 0 0 0 .3-.1V244.7a1 1 0 0 0-.4-.8l-.5-.2a.3.3 0 0 0-.3 0h-.1v.2Z" fill="#5A81FA"/><path d="M79.8 245.2v2.1a1 1 0 0 0 .5.8l.5.2c.2.2.4 0 .4-.2V246a1 1 0 0 0-.4-.8l-.5-.2c-.3-.2-.5 0-.5.2Z" fill="#263238"/><path d="M82 246.4v2.2a1 1 0 0 0 .4.7l.5.3c.3.1.4 0 .4-.3v-2a1 1 0 0 0-.4-.8l-.5-.3c-.2-.1-.4 0-.4.2ZM89.3 247.3l1-.5a1.3 1.3 0 0 1 1.4 0 4.2 4.2 0 0 1 1.8 3.3 1.3 1.3 0 0 1-.5 1.3l-1 .5-.1-.3a2 2 0 0 1-.5-.2 4.2 4.2 0 0 1-2-3.3l.1-.4-.2-.4Z" fill="#5A81FA"/><path opacity=".2" d="m89.3 247.3 1-.5a1.3 1.3 0 0 1 1.4 0 4.2 4.2 0 0 1 1.8 3.3 1.3 1.3 0 0 1-.5 1.3l-1 .5-.1-.3a2 2 0 0 1-.5-.2 4.2 4.2 0 0 1-2-3.3l.1-.4-.2-.4Z" fill="#000"/><path d="M90.7 247.4a4.2 4.2 0 0 1 1.9 3.3c0 1.2-.9 1.7-1.9 1a4.2 4.2 0 0 1-1.9-3.2c0-1.2.9-1.7 1.9-1ZM97.5 252l1-.5a1.3 1.3 0 0 1 1.3.1 4.2 4.2 0 0 1 1.9 3.3 1.3 1.3 0 0 1-.5 1.2l-1 .5-.1-.3c-.2 0-.4 0-.6-.2a4.2 4.2 0 0 1-1.9-3.2l.1-.5-.2-.3Z" fill="#5A81FA"/><path opacity=".2" d="m97.5 252 1-.5a1.3 1.3 0 0 1 1.3.1 4.2 4.2 0 0 1 1.9 3.3 1.3 1.3 0 0 1-.5 1.2l-1 .5-.1-.3c-.2 0-.4 0-.6-.2a4.2 4.2 0 0 1-1.9-3.2l.1-.5-.2-.3Z" fill="#000"/><path d="M98.9 252.2a4.2 4.2 0 0 1 1.8 3.2c0 1.2-.8 1.7-1.8 1.1a4.2 4.2 0 0 1-1.9-3.3c0-1.2.8-1.6 1.9-1Z" fill="#5A81FA"/><path d="m43 184.3 65 37.5 65-37.5-65-37.6-65 37.6Z" fill="#263238"/><path d="m43 203 65 37.6v-18.8l-65-37.5V203Z" fill="#455A64"/><path d="m108 240.6 65-37.6v-18.7l-65 37.5v18.8Z" fill="#37474F"/><path d="M51 212.4v-4.7l57 32.9v4.7l-57-32.9Z" fill="#5A81FA"/><path d="M168.9 205.4v4.7l-61 35.2v-4.7l61-35.2Z" fill="#5A81FA"/><path opacity=".2" d="M168.9 205.4v4.7l-61 35.2v-4.7l61-35.2Z" fill="#000"/><path d="M47 191.8v2.1a1 1 0 0 0 .4.8l.5.3a.3.3 0 0 0 .4-.1V192.6a1 1 0 0 0-.4-.8l-.5-.2c-.2-.2-.4 0-.4.2Z" fill="#5A81FA"/><path d="M49.2 193v2.2a1 1 0 0 0 .4.8l.5.2h.2a.3.3 0 0 0 .2 0V193.7a1 1 0 0 0-.4-.7l-.5-.3a.3.3 0 0 0-.3 0v.1l-.1.2Z" fill="#263238"/><path d="M51.4 194.3v2.2a1 1 0 0 0 .4.7l.5.3c.2.1.4 0 .4-.3v-2a1 1 0 0 0-.4-.8l-.5-.3H51.5l-.1.2Z" fill="#5A81FA"/><path d="M53.6 195.6v2.1a1 1 0 0 0 .4.8l.5.3c.2 0 .4 0 .4-.3v-2.1a1 1 0 0 0-.4-.8l-.5-.3c-.2 0-.4 0-.4.3ZM55.8 196.9v2.1a1 1 0 0 0 .4.8l.5.2c.2.2.4 0 .4-.2v-2.1a1 1 0 0 0-.4-.8l-.5-.3c-.2-.1-.4 0-.4.3ZM58 198.1v2.1a1 1 0 0 0 .4.8l.5.3c.3.1.5 0 .5-.3V199a1 1 0 0 0-.5-.8l-.5-.2c-.3-.2-.4 0-.4.2ZM60.1 199.4v2.1a1 1 0 0 0 .5.8l.5.2a.3.3 0 0 0 .4-.2v-2.1a1 1 0 0 0-.4-.8l-.5-.3c-.3-.1-.5 0-.5.3Z" fill="#263238"/><path d="M62.3 200.6v2.2a1 1 0 0 0 .5.7l.4.3h.2a.3.3 0 0 0 .3 0v-2.3a1 1 0 0 0-.5-.8l-.4-.3c-.3-.2-.5 0-.5.2ZM64.5 201.9v2.1a1 1 0 0 0 .4.8l.5.2h.2a.3.3 0 0 0 .2 0V202.5a1 1 0 0 0-.4-.7l-.5-.3c-.2 0-.4 0-.4.3ZM66.7 203.2v2a1 1 0 0 0 .4.8l.5.3c.3.2.5 0 .5-.2V204a1 1 0 0 0-.5-.8l-.5-.2c-.2-.2-.4-.1-.4.2ZM68.9 204.4v2.2a1 1 0 0 0 .4.7l.5.3c.2.1.4 0 .4-.3v-2a1 1 0 0 0-.4-.8l-.5-.3c-.2-.2-.4 0-.4.2Z" fill="#5A81FA"/><path d="M71 205.7v2.1a1 1 0 0 0 .5.8l.5.2c.2.2.4 0 .4-.2v-2.1a1 1 0 0 0-.4-.8l-.5-.3c-.2-.1-.4 0-.4.3ZM73.3 207v2.1a1 1 0 0 0 .4.8l.5.3c.2 0 .4 0 .4-.3v-2.1a1 1 0 0 0-.4-.8l-.5-.3c-.2-.1-.4 0-.4.3ZM75.5 208.2v2.1a1 1 0 0 0 .4.8l.5.3c.2.1.4 0 .4-.3V209a1 1 0 0 0-.4-.8l-.5-.2c-.2-.2-.4 0-.4.2Z" fill="#263238"/><path d="M77.6 209.5v2.1a1 1 0 0 0 .5.8l.5.2a.3.3 0 0 0 .3 0 .3.3 0 0 0 .1-.2v-2.2a1 1 0 0 0-.4-.7l-.5-.3a.3.3 0 0 0-.3 0 .3.3 0 0 0-.2.3Z" fill="#5A81FA"/><path d="M79.8 210.7v2.2a1 1 0 0 0 .5.7l.5.3c.2.1.4 0 .4-.3v-2a1 1 0 0 0-.4-.8l-.5-.3c-.3-.2-.5 0-.5.2ZM82 212v2.1a1 1 0 0 0 .4.8l.5.3c.3.1.4 0 .4-.3v-2.1a1 1 0 0 0-.4-.8l-.5-.3c-.2 0-.4 0-.4.3ZM47 198.1v2.1a1 1 0 0 0 .4.8l.5.3c.3.1.5 0 .5-.3V199a1 1 0 0 0-.5-.8l-.5-.2c-.2-.2-.4 0-.4.2ZM49.2 199.4v2.1a1 1 0 0 0 .4.8l.5.2c.2.2.4 0 .4-.2v-2.1a1 1 0 0 0-.4-.8l-.5-.3c-.2-.1-.4 0-.4.3Z" fill="#263238"/><path d="M51.4 200.6v2.2a1 1 0 0 0 .4.7l.5.3h.1a.3.3 0 0 0 .3 0v-2.3a1 1 0 0 0-.4-.8l-.5-.3c-.2-.2-.4 0-.4.2Z" fill="#5A81FA"/><path d="M53.6 201.9v2.1a1 1 0 0 0 .4.8l.5.2c.2.2.4 0 .4-.2v-2.2a1 1 0 0 0-.4-.7l-.5-.3c-.2 0-.4 0-.4.3ZM55.8 203.2v2a1 1 0 0 0 .4.8l.5.3c.2.2.4 0 .4-.2V204a1 1 0 0 0-.4-.8l-.5-.2c-.2-.2-.4-.1-.4.2ZM58 204.4v2.2a1 1 0 0 0 .4.7l.5.3c.3.1.5 0 .5-.3v-2a1 1 0 0 0-.5-.8l-.5-.3c-.3-.2-.4 0-.4.2ZM60.1 205.7v2.1a1 1 0 0 0 .5.8l.5.2c.2.2.4 0 .4-.2v-2.1a1 1 0 0 0-.4-.8l-.5-.3c-.3-.1-.5 0-.5.3Z" fill="#263238"/><path d="M62.3 207v2.1a1 1 0 0 0 .5.8l.4.3c.3 0 .5 0 .5-.3v-2.1a1 1 0 0 0-.5-.8l-.4-.3c-.3-.1-.5 0-.5.3Z" fill="#5A81FA"/><path d="M64.5 208.2v2.1a1 1 0 0 0 .4.8l.5.3c.3.1.5 0 .5-.3V209a1 1 0 0 0-.5-.8l-.5-.2c-.2-.2-.4 0-.4.2ZM66.7 209.5v2.1a1 1 0 0 0 .4.8l.5.2c.3.2.5 0 .5-.2v-2.2a1 1 0 0 0-.5-.7l-.5-.3c-.2-.1-.4 0-.4.3ZM68.9 210.7v2.2a1 1 0 0 0 .4.7l.5.3c.2.1.4 0 .4-.3v-2a1 1 0 0 0-.4-.8l-.5-.3c-.2-.2-.4 0-.4.2Z" fill="#263238"/><path d="M71 212v2.1a1 1 0 0 0 .5.8l.5.3c.2.1.4 0 .4-.3v-2.1a1 1 0 0 0-.4-.8l-.5-.3c-.2 0-.4 0-.4.3ZM73.3 213.3v2a1 1 0 0 0 .4.8l.5.3c.2.2.4 0 .4-.2V214a1 1 0 0 0-.4-.8l-.5-.2c-.2-.1-.4 0-.4.3Z" fill="#5A81FA"/><path d="M75.5 214.5v2.1a1 1 0 0 0 .4.8l.5.3c.2.1.4 0 .4-.3v-2.1a1 1 0 0 0-.4-.8l-.5-.2c-.2-.2-.4 0-.4.2ZM77.6 215.8v2.1a1 1 0 0 0 .5.8l.5.2c.2.2.4 0 .4-.2v-2.1a1 1 0 0 0-.4-.8l-.5-.3c-.3-.1-.5 0-.5.3ZM79.8 217v2.1a1 1 0 0 0 .5.8l.5.3c.2.1.4 0 .4-.3v-2.1a1 1 0 0 0-.4-.8l-.5-.3c-.3 0-.5 0-.5.3ZM82 218.3v2.1a1 1 0 0 0 .4.8l.5.3c.3.1.4 0 .4-.3v-2.1a1 1 0 0 0-.4-.8l-.5-.3c-.2 0-.4 0-.4.3Z" fill="#263238"/><path d="m89.3 219.2 1-.6a1.3 1.3 0 0 1 1.4.2 4.2 4.2 0 0 1 1.8 3.2 1.3 1.3 0 0 1-.5 1.2l-1 .6-.1-.3a2 2 0 0 1-.5-.2 4.2 4.2 0 0 1-2-3.3l.1-.5-.2-.3Z" fill="#5A81FA"/><path opacity=".2" d="m89.3 219.2 1-.6a1.3 1.3 0 0 1 1.4.2 4.2 4.2 0 0 1 1.8 3.2 1.3 1.3 0 0 1-.5 1.2l-1 .6-.1-.3a2 2 0 0 1-.5-.2 4.2 4.2 0 0 1-2-3.3l.1-.5-.2-.3Z" fill="#000"/><path d="M90.7 219.3a4.2 4.2 0 0 1 1.9 3.3c0 1.2-.9 1.6-1.9 1a4.1 4.1 0 0 1-1.9-3.2c0-1.2.9-1.7 1.9-1.1ZM97.5 224l1-.7a1.3 1.3 0 0 1 1.3.2 4.2 4.2 0 0 1 1.9 3.2 1.3 1.3 0 0 1-.5 1.2l-1 .6-.1-.3a2 2 0 0 1-.6-.2 4.2 4.2 0 0 1-1.9-3.3l.1-.5-.2-.3Z" fill="#5A81FA"/><path opacity=".2" d="m97.5 224 1-.7a1.3 1.3 0 0 1 1.3.2 4.2 4.2 0 0 1 1.9 3.2 1.3 1.3 0 0 1-.5 1.2l-1 .6-.1-.3a2 2 0 0 1-.6-.2 4.2 4.2 0 0 1-1.9-3.3l.1-.5-.2-.3Z" fill="#000"/><path d="M98.9 224a4.2 4.2 0 0 1 1.8 3.3c0 1.2-.8 1.6-1.8 1a4.2 4.2 0 0 1-1.9-3.2c0-1.2.8-1.7 1.9-1.1Z" fill="#5A81FA"/><path d="m43 156.1 65 37.6 65-37.6-65-37.5-65 37.5Z" fill="#263238"/><path d="m43 174.9 65 37.5v-18.7L43 156V175Z" fill="#455A64"/><path d="m108 212.4 65-37.5V156l-65 37.6v18.7Z" fill="#37474F"/><path d="M51 184.3v-4.7l57 32.8v4.7l-57-32.8Z" fill="#5A81FA"/><path d="M168.9 177.2v4.7l-61 35.2v-4.7l61-35.2Z" fill="#5A81FA"/><path opacity=".2" d="M168.9 177.2v4.7l-61 35.2v-4.7l61-35.2Z" fill="#000"/><path d="M47 163.7v2a1 1 0 0 0 .4.8l.5.3c.3.2.5 0 .5-.2v-2.2a1 1 0 0 0-.5-.7l-.5-.3c-.2-.1-.4 0-.4.3ZM49.2 165v2a1 1 0 0 0 .4.8l.5.3c.2.1.4 0 .4-.3v-2a1 1 0 0 0-.4-.8l-.5-.3c-.2-.2-.4 0-.4.2Z" fill="#5A81FA"/><path d="M51.4 166.2v2.1a1 1 0 0 0 .4.8l.5.3c.2 0 .4 0 .4-.3V167a1 1 0 0 0-.4-.8l-.5-.2c-.2-.2-.4 0-.4.2Z" fill="#263238"/><path d="M53.6 167.4v2.2a1 1 0 0 0 .4.7l.5.3c.2.2.4 0 .4-.2v-2.2a1 1 0 0 0-.4-.7l-.5-.3c-.2-.1-.4 0-.4.3ZM55.8 168.7v2.1a1 1 0 0 0 .4.8l.5.3c.2.1.4 0 .4-.3v-2.1a1 1 0 0 0-.4-.8l-.5-.2c-.2-.2-.4 0-.4.2Z" fill="#5A81FA"/><path d="M58 170v2.1a1 1 0 0 0 .4.8l.5.3c.3 0 .5 0 .5-.3v-2.1a1 1 0 0 0-.5-.8l-.5-.3c-.3-.1-.4 0-.4.3ZM60.1 171.2v2.2a1 1 0 0 0 .5.7l.5.3c.2.1.4 0 .4-.3V172a1 1 0 0 0-.4-.8l-.5-.2c-.3-.2-.5 0-.5.2Z" fill="#263238"/><path d="M62.3 172.5v2.1a1 1 0 0 0 .5.8l.4.3c.3 0 .5 0 .5-.3v-2.1a1 1 0 0 0-.5-.8l-.4-.3c-.3 0-.5 0-.5.3Z" fill="#5A81FA"/><path d="M64.5 173.8v2a1 1 0 0 0 .4.8l.5.3c.3.2.5 0 .5-.2v-2.2a1 1 0 0 0-.5-.7l-.5-.3c-.2-.1-.4 0-.4.3Z" fill="#263238"/><path d="M66.7 175v2.1a1 1 0 0 0 .4.8l.5.3c.3.1.5 0 .5-.3v-2.1a1 1 0 0 0-.5-.8l-.5-.2c-.2-.2-.4 0-.4.2ZM68.9 176.3v2.1a1 1 0 0 0 .4.8l.5.2c.2.2.4 0 .4-.2V177a1 1 0 0 0-.4-.8l-.5-.3c-.2-.1-.4 0-.4.3ZM71 177.5v2.2a1 1 0 0 0 .5.7l.5.3c.2.1.4 0 .4-.3v-2a1 1 0 0 0-.4-.8l-.5-.3c-.2-.1-.4 0-.4.2ZM73.3 178.8v2.1a1 1 0 0 0 .4.8l.5.3c.2.1.4 0 .4-.3v-2.1a1 1 0 0 0-.4-.8l-.5-.2c-.2-.2-.4 0-.4.2Z" fill="#5A81FA"/><path d="M75.5 180v2.2a1 1 0 0 0 .4.7l.5.3c.2.2.4 0 .4-.2v-2.2a1 1 0 0 0-.4-.7l-.5-.3c-.2-.1-.4 0-.4.3ZM77.6 181.3v2.1a1 1 0 0 0 .5.8l.5.3c.2.1.4 0 .4-.3v-2a1 1 0 0 0-.4-.8l-.5-.3c-.3-.2-.5 0-.5.2ZM79.8 182.6v2.1a1 1 0 0 0 .5.8l.5.3c.2 0 .4 0 .4-.3v-2.1a1 1 0 0 0-.4-.8l-.5-.3c-.3-.1-.5 0-.5.3Z" fill="#263238"/><path d="M82 183.8v2.2a1 1 0 0 0 .4.8l.5.2c.3.2.4 0 .4-.2v-2.2a1 1 0 0 0-.4-.7l-.5-.3c-.2-.1-.4 0-.4.3ZM47 170v2.1a1 1 0 0 0 .4.8l.5.3c.3 0 .5 0 .5-.3v-2.1a1 1 0 0 0-.5-.8l-.5-.3c-.2-.1-.4 0-.4.3ZM49.2 171.2v2.2a1 1 0 0 0 .4.7l.5.3c.2.1.4 0 .4-.3V172a1 1 0 0 0-.4-.8l-.5-.2c-.2-.2-.4 0-.4.2ZM51.4 172.5v2.1a1 1 0 0 0 .4.8l.5.3c.2 0 .4 0 .4-.3v-2.1a1 1 0 0 0-.4-.8l-.5-.3c-.2 0-.4 0-.4.3Z" fill="#5A81FA"/><path d="M53.6 173.8v2a1 1 0 0 0 .4.8l.5.3c.2.2.4 0 .4-.2v-2.2a1 1 0 0 0-.4-.7l-.5-.3c-.2-.1-.4 0-.4.3ZM55.8 175v2.1a1 1 0 0 0 .4.8l.5.3c.2.1.4 0 .4-.3v-2.1a1 1 0 0 0-.4-.8l-.5-.2c-.2-.2-.4 0-.4.2Z" fill="#263238"/><path d="M58 176.3v2.1a1 1 0 0 0 .4.8l.5.2c.3.2.5 0 .5-.2V177a1 1 0 0 0-.5-.8l-.5-.3c-.3-.1-.4 0-.4.3ZM60.1 177.5v2.2a1 1 0 0 0 .5.7l.5.3c.2.1.4 0 .4-.3v-2a1 1 0 0 0-.4-.8l-.5-.3c-.3-.1-.5 0-.5.2ZM62.3 178.8v2.1a1 1 0 0 0 .5.8l.4.3c.3.1.5 0 .5-.3v-2.1a1 1 0 0 0-.5-.8l-.4-.2c-.3-.2-.5 0-.5.2Z" fill="#5A81FA"/><path d="M64.5 180v2.2a1 1 0 0 0 .4.7l.5.3c.3.2.5 0 .5-.2v-2.2a1 1 0 0 0-.5-.7l-.5-.3c-.2-.1-.4 0-.4.3ZM66.7 181.3v2.1a1 1 0 0 0 .4.8l.5.3c.3.1.5 0 .5-.3v-2a1 1 0 0 0-.5-.8l-.5-.3c-.2-.2-.4 0-.4.2ZM68.9 182.6v2.1a1 1 0 0 0 .4.8l.5.3c.2 0 .4 0 .4-.3v-2.1a1 1 0 0 0-.4-.8l-.5-.3c-.2-.1-.4 0-.4.3ZM71 183.8v2.2a1 1 0 0 0 .5.8l.5.2c.2.1.4 0 .4-.3v-2a1 1 0 0 0-.4-.8l-.5-.3c-.2-.1-.4 0-.4.3Z" fill="#263238"/><path d="M73.3 185.1v2.1a1 1 0 0 0 .4.8l.5.3c.2.1.4 0 .4-.3V186a1 1 0 0 0-.4-.8l-.5-.2c-.2-.2-.4 0-.4.2ZM75.5 186.4v2.1a1 1 0 0 0 .4.8l.5.2c.2.2.4 0 .4-.2v-2.1a1 1 0 0 0-.4-.8l-.5-.3c-.2-.1-.4 0-.4.3ZM77.6 187.6v2.2a1 1 0 0 0 .5.7l.5.3c.2.1.4 0 .4-.3v-2a1 1 0 0 0-.4-.8l-.5-.3c-.3-.2-.5 0-.5.2ZM79.8 188.9v2.1a1 1 0 0 0 .5.8l.5.2c.2.2.4 0 .4-.2v-2.1a1 1 0 0 0-.4-.8l-.5-.3c-.3 0-.5 0-.5.3ZM82 190.2v2a1 1 0 0 0 .4.8l.5.3c.3.1.4 0 .4-.2v-2.2a1 1 0 0 0-.4-.7l-.5-.3c-.2-.1-.4 0-.4.3ZM89.3 191l1-.5a1.3 1.3 0 0 1 1.4.1 4.2 4.2 0 0 1 1.8 3.3 1.3 1.3 0 0 1-.5 1.2l-1 .5-.1-.3c-.2 0-.4 0-.5-.2a4.2 4.2 0 0 1-2-3.2l.1-.5-.2-.3Z" fill="#5A81FA"/><path opacity=".2" d="m89.3 191 1-.5a1.3 1.3 0 0 1 1.4.1 4.2 4.2 0 0 1 1.8 3.3 1.3 1.3 0 0 1-.5 1.2l-1 .5-.1-.3c-.2 0-.4 0-.5-.2a4.2 4.2 0 0 1-2-3.2l.1-.5-.2-.3Z" fill="#000"/><path d="M90.7 191.2a4.2 4.2 0 0 1 1.9 3.2c0 1.2-.9 1.7-1.9 1.1a4.2 4.2 0 0 1-1.9-3.3c0-1.2.9-1.6 1.9-1ZM97.5 195.8l1-.6a1.3 1.3 0 0 1 1.3.1 4.2 4.2 0 0 1 1.9 3.3 1.3 1.3 0 0 1-.5 1.2l-1 .5-.1-.3a2 2 0 0 1-.6-.2 4.2 4.2 0 0 1-1.9-3.2l.1-.5-.2-.3Z" fill="#5A81FA"/><path opacity=".2" d="m97.5 195.8 1-.6a1.3 1.3 0 0 1 1.3.1 4.2 4.2 0 0 1 1.9 3.3 1.3 1.3 0 0 1-.5 1.2l-1 .5-.1-.3a2 2 0 0 1-.6-.2 4.2 4.2 0 0 1-1.9-3.2l.1-.5-.2-.3Z" fill="#000"/><path d="M98.9 195.9a4.2 4.2 0 0 1 1.8 3.2c0 1.2-.8 1.7-1.8 1.1A4.2 4.2 0 0 1 97 197c0-1.2.8-1.7 1.9-1.1Z" fill="#5A81FA"/><path d="M170.3 126.5 110.5 92a5.8 5.8 0 0 0-5.2 0l-59.8 34.5A5.8 5.8 0 0 0 43 131v15.8l65 37.5 65-37.6V131a5.8 5.8 0 0 0-2.6-4.5Z" fill="#37474F"/><path d="M108 164.6v19.7l-65-37.6V131a5.8 5.8 0 0 1 2.1-4.2c-1 .9-.8 2 .5 2.7l59.8 34.5c.8.4 1.7.6 2.6.6Z" fill="#455A64"/><path d="m45.5 129.5 59.9 34.5a5.7 5.7 0 0 0 5.2 0l59.7-34.5c1.5-.8 1.5-2.2 0-3L110.5 92a5.8 5.8 0 0 0-5.2 0l-59.8 34.5c-1.4.8-1.4 2.2 0 3Z" fill="#263238"/><path d="M51 156.1v-4.7l57 32.9v4.7L51 156Z" fill="#5A81FA"/><path d="M168.9 149v4.8l-61 35.2v-4.7l61-35.2Z" fill="#5A81FA"/><path opacity=".2" d="M168.9 149v4.8l-61 35.2v-4.7l61-35.2Z" fill="#000"/><path d="M47 135.5v2.2a1 1 0 0 0 .4.7l.5.3c.3.1.5 0 .5-.3v-2a1 1 0 0 0-.5-.8l-.5-.3c-.2-.2-.4 0-.4.2ZM49.2 136.8v2.1a1 1 0 0 0 .4.8l.5.2c.2.2.4 0 .4-.2v-2.1a1 1 0 0 0-.4-.8l-.5-.3c-.2-.1-.4 0-.4.3ZM51.4 138v2.2a1 1 0 0 0 .4.7l.5.3c.2.1.4 0 .4-.3v-2a1 1 0 0 0-.4-.8l-.5-.3c-.2-.1-.4 0-.4.3Z" fill="#263238"/><path d="M53.6 139.3v2.1a1 1 0 0 0 .4.8l.5.3c.2.1.4 0 .4-.3v-2.1a1 1 0 0 0-.4-.8l-.5-.2c-.2-.2-.4-.1-.4.2ZM55.8 140.6v2.1a1 1 0 0 0 .4.8l.5.2c.2.2.4 0 .4-.2v-2.2a1 1 0 0 0-.4-.7l-.5-.3c-.2-.1-.4 0-.4.3Z" fill="#5A81FA"/><path d="M58 141.8v2.2a1 1 0 0 0 .4.8l.5.2c.3.2.5 0 .5-.2v-2.2a1 1 0 0 0-.5-.7l-.5-.3c-.3-.2-.4 0-.4.2ZM60.1 143v2.2a1 1 0 0 0 .5.8l.5.3c.2 0 .4 0 .4-.3v-2.1a1 1 0 0 0-.4-.8l-.5-.3c-.3 0-.5 0-.5.3ZM62.3 144.4v2a1 1 0 0 0 .5.8l.4.3c.3.2.5 0 .5-.2V145a1 1 0 0 0-.5-.7l-.4-.3c-.3-.1-.5 0-.5.3ZM64.5 145.6v2.1a1 1 0 0 0 .4.8l.5.3c.3.1.5 0 .5-.3v-2.1a1 1 0 0 0-.5-.8l-.5-.2c-.2-.2-.4 0-.4.2ZM66.7 146.9v2.1a1 1 0 0 0 .4.8l.5.2c.3.2.5 0 .5-.2v-2.1a1 1 0 0 0-.5-.8l-.5-.3c-.2-.1-.4 0-.4.3Z" fill="#263238"/><path d="M68.9 148.1v2.2a1 1 0 0 0 .4.7l.5.3c.2.1.4 0 .4-.3v-2a1 1 0 0 0-.4-.8l-.5-.3c-.2-.2-.4 0-.4.2ZM71 149.4v2.1a1 1 0 0 0 .5.8l.5.3c.2.1.4 0 .4-.3v-2.1a1 1 0 0 0-.4-.8l-.5-.3c-.2-.1-.4 0-.4.3Z" fill="#5A81FA"/><path d="M73.3 150.7v2a1 1 0 0 0 .4.8l.5.3c.2.2.4 0 .4-.2v-2.2a1 1 0 0 0-.4-.7l-.5-.3c-.2-.1-.4 0-.4.3Z" fill="#263238"/><path d="M75.5 152v2a1 1 0 0 0 .4.8l.5.3c.2.1.4 0 .4-.3v-2a1 1 0 0 0-.4-.8l-.5-.3c-.2-.2-.4 0-.4.2Z" fill="#5A81FA"/><path d="M77.6 153.2v2.1a1 1 0 0 0 .5.8l.5.2c.2.2.4 0 .4-.2V154a1 1 0 0 0-.4-.8l-.5-.2c-.3-.2-.5 0-.5.2ZM79.8 154.4v2.2a1 1 0 0 0 .5.7l.5.3c.2.1.4 0 .4-.3v-2a1 1 0 0 0-.4-.8l-.5-.3c-.3-.1-.5 0-.5.3ZM82 155.7v2.1a1 1 0 0 0 .4.8l.5.3c.3.1.4 0 .4-.3v-2.1a1 1 0 0 0-.4-.8l-.5-.2c-.2-.2-.4 0-.4.2Z" fill="#263238"/><path d="M47 141.8v2.2a1 1 0 0 0 .4.8l.5.2c.3.2.5 0 .5-.2v-2.2a1 1 0 0 0-.5-.7l-.5-.3c-.2-.2-.4 0-.4.2Z" fill="#5A81FA"/><path d="M49.2 143v2.2a1 1 0 0 0 .4.8l.5.3c.2 0 .4 0 .4-.3v-2.1a1 1 0 0 0-.4-.8l-.5-.3c-.2 0-.4 0-.4.3ZM51.4 144.4v2a1 1 0 0 0 .4.8l.5.3c.2.2.4 0 .4-.2V145a1 1 0 0 0-.4-.7l-.5-.3c-.2-.1-.4 0-.4.3ZM53.6 145.6v2.1a1 1 0 0 0 .4.8l.5.3c.2.1.4 0 .4-.3v-2.1a1 1 0 0 0-.4-.8l-.5-.2c-.2-.2-.4 0-.4.2ZM55.8 146.9v2.1a1 1 0 0 0 .4.8l.5.2c.2.2.4 0 .4-.2v-2.1a1 1 0 0 0-.4-.8l-.5-.3c-.2-.1-.4 0-.4.3Z" fill="#263238"/><path d="M58 148.1v2.2a1 1 0 0 0 .4.7l.5.3c.3.1.5 0 .5-.3v-2a1 1 0 0 0-.5-.8l-.5-.3c-.3-.2-.4 0-.4.2Z" fill="#5A81FA"/><path d="M60.1 149.4v2.1a1 1 0 0 0 .5.8l.5.3c.2.1.4 0 .4-.3v-2.1a1 1 0 0 0-.4-.8l-.5-.3c-.3-.1-.5 0-.5.3Z" fill="#263238"/><path d="M62.3 150.7v2a1 1 0 0 0 .5.8l.4.3c.3.2.5 0 .5-.2v-2.2a1 1 0 0 0-.5-.7l-.4-.3c-.3-.1-.5 0-.5.3Z" fill="#5A81FA"/><path d="M64.5 152v2a1 1 0 0 0 .4.8l.5.3c.3.1.5 0 .5-.3v-2a1 1 0 0 0-.5-.8l-.5-.3H64.6a.3.3 0 0 0 0 .2Z" fill="#263238"/><path d="M66.7 153.2v2.1a1 1 0 0 0 .4.8l.5.2c.3.2.5 0 .5-.2V154a1 1 0 0 0-.5-.8l-.5-.2c-.2-.2-.4 0-.4.2Z" fill="#5A81FA"/><path d="M68.9 154.4v2.2a1 1 0 0 0 .4.7l.5.3c.2.1.4 0 .4-.3v-2a1 1 0 0 0-.4-.8l-.5-.3c-.2-.1-.4 0-.4.3ZM71 155.7v2.1a1 1 0 0 0 .5.8l.5.3c.2.1.4 0 .4-.3v-2.1a1 1 0 0 0-.4-.8l-.5-.2c-.2-.2-.4 0-.4.2ZM73.3 157v2.1a1 1 0 0 0 .4.8l.5.3c.2.1.4 0 .4-.3v-2.1a1 1 0 0 0-.4-.8l-.5-.3c-.2-.1-.4 0-.4.3ZM75.5 158.2v2.2a1 1 0 0 0 .4.7l.5.3h.1a.3.3 0 0 0 .3-.1V159a1 1 0 0 0-.4-.8l-.5-.2h-.2c0-.1 0 0-.1 0a.3.3 0 0 0-.1.2ZM77.6 159.5v2.1a1 1 0 0 0 .5.8l.5.3c.2 0 .4 0 .4-.3v-2.1a1 1 0 0 0-.4-.8l-.5-.3c-.3 0-.5 0-.5.3Z" fill="#263238"/><path d="M79.8 160.8v2a1 1 0 0 0 .5.8l.5.3c.2.2.4 0 .4-.2v-2.2a1 1 0 0 0-.4-.7l-.5-.3c-.3-.1-.5 0-.5.3Z" fill="#5A81FA"/><path d="M82 162v2.1a1 1 0 0 0 .4.8l.5.3c.3 0 .4 0 .4-.3v-2.1a1 1 0 0 0-.4-.8l-.5-.2c-.2-.2-.4 0-.4.2Z" fill="#263238"/><path d="m89.3 163 1-.7a1.3 1.3 0 0 1 1.4.2 4.2 4.2 0 0 1 1.8 3.2 1.3 1.3 0 0 1-.5 1.2l-1 .6-.1-.3a2 2 0 0 1-.5-.2 4.2 4.2 0 0 1-2-3.3l.1-.5-.2-.3Z" fill="#5A81FA"/><path opacity=".2" d="m89.3 163 1-.7a1.3 1.3 0 0 1 1.4.2 4.2 4.2 0 0 1 1.8 3.2 1.3 1.3 0 0 1-.5 1.2l-1 .6-.1-.3a2 2 0 0 1-.5-.2 4.2 4.2 0 0 1-2-3.3l.1-.5-.2-.3Z" fill="#000"/><path d="M90.7 163a4.2 4.2 0 0 1 1.9 3.3c0 1.2-.9 1.6-1.9 1a4.2 4.2 0 0 1-1.9-3.2c0-1.2.9-1.7 1.9-1.1ZM97.5 167.6l1-.5a1.3 1.3 0 0 1 1.3 0 4.2 4.2 0 0 1 1.9 3.3 1.3 1.3 0 0 1-.5 1.3l-1 .5-.1-.3a2 2 0 0 1-.6-.2 4.2 4.2 0 0 1-1.9-3.3l.1-.4-.2-.4Z" fill="#5A81FA"/><path opacity=".2" d="m97.5 167.6 1-.5a1.3 1.3 0 0 1 1.3 0 4.2 4.2 0 0 1 1.9 3.3 1.3 1.3 0 0 1-.5 1.3l-1 .5-.1-.3a2 2 0 0 1-.6-.2 4.2 4.2 0 0 1-1.9-3.3l.1-.4-.2-.4Z" fill="#000"/><path d="M98.9 167.7a4.2 4.2 0 0 1 1.8 3.3c0 1.2-.8 1.7-1.8 1a4.2 4.2 0 0 1-1.9-3.2c0-1.2.8-1.7 1.9-1ZM135 338.6a8.4 8.4 0 0 0 3.8 6.5l110.3 63.7a8.8 8.8 0 0 0 8 0l150.8-87.1a7.4 7.4 0 0 0 0-13l-110.3-63.8a8.7 8.7 0 0 0-7.8 0l-151 87.2a8.4 8.4 0 0 0-3.9 6.5Z" fill="#5A81FA"/><path opacity=".2" d="M253 401.2v8.6a8 8 0 0 1-3.9-1l-110.3-63.7a7.4 7.4 0 0 1-.4-12.8c-1.7 1.3-1.6 3.1.4 4.3l110.3 63.7a8 8 0 0 0 4 1Z" fill="#fff"/><path d="M131.2 332.2a8.4 8.4 0 0 1-3.7-6.7V194a8.7 8.7 0 0 1 4-6.8L282.4 100a7.4 7.4 0 0 1 11.3 6.5v131.6a8.7 8.7 0 0 1-4 6.8l-150.9 87.2a8.5 8.5 0 0 1-7.6.1Z" fill="#5A81FA"/><path opacity=".2" d="M138.4 332.3a7.4 7.4 0 0 1-10.9-6.8V194a8 8 0 0 1 1.2-3.9l7.4 4.3a8 8 0 0 0-1.2 3.9v131.6c0 2.3 1.5 3.4 3.5 2.5Z" fill="#fff"/><path opacity=".4" d="M135 198.2v131.6c0 2.5 1.7 3.5 3.8 2.3l151-87.2a8.7 8.7 0 0 0 3.9-6.8V106.5c0-2.5-1.8-3.5-4-2.3l-150.9 87.1a8.7 8.7 0 0 0-3.9 6.9Z" fill="#fff"/><path d="m138.8 336.6 110.3 63.7a8.8 8.8 0 0 0 8 0l150.8-87.1c2.2-1.3 2.2-3.3 0-4.6L297.6 245a8.7 8.7 0 0 0-7.8 0l-151 87.2c-2.1 1.2-2.1 3.3 0 4.5Z" fill="#5A81FA"/><path opacity=".6" d="m138.8 336.6 110.3 63.7a8.8 8.8 0 0 0 8 0l150.8-87.1c2.2-1.3 2.2-3.3 0-4.6L297.6 245a8.7 8.7 0 0 0-7.8 0l-151 87.2c-2.1 1.2-2.1 3.3 0 4.5Z" fill="#fff"/><path d="m141 198.7 145.5-84c1.3-.8 2.4-.2 2.4 1.3v114a5.2 5.2 0 0 1-2.4 4L141 318c-1.3.8-2.4.2-2.4-1.3v-114a5.2 5.2 0 0 1 2.4-4Z" fill="#455A64"/><path d="m151.6 333.2 140.1-80.9a4.3 4.3 0 0 1 4 0l7.1 4.2a1.2 1.2 0 0 1 .9 1.1 1.2 1.2 0 0 1-.9 1.1l-140 80.9a4.3 4.3 0 0 1-4 0l-7.2-4.1a1.2 1.2 0 0 1 0-2.3Z" fill="#5A81FA"/><path opacity=".4" d="m151.6 333.2 140.1-80.9a4.3 4.3 0 0 1 4 0l7.1 4.2a1.2 1.2 0 0 1 .9 1.1 1.2 1.2 0 0 1-.9 1.1l-140 80.9a4.3 4.3 0 0 1-4 0l-7.2-4.1a1.2 1.2 0 0 1 0-2.3Z" fill="#fff"/><path d="m170.1 343.9 140-80.9a4.3 4.3 0 0 1 4 0l44.1 25.4a1.2 1.2 0 0 1 0 2.3l-140 80.8a4.4 4.4 0 0 1-3.9 0L170.1 346a1.2 1.2 0 0 1-.8-1.1 1.2 1.2 0 0 1 .8-1.1Z" fill="#5A81FA"/><path opacity=".4" d="m170.1 343.9 140-80.9a4.3 4.3 0 0 1 4 0l44.1 25.4a1.2 1.2 0 0 1 0 2.3l-140 80.8a4.4 4.4 0 0 1-3.9 0L170.1 346a1.2 1.2 0 0 1-.8-1.1 1.2 1.2 0 0 1 .8-1.1Z" fill="#fff"/><path d="m295.7 299.4 4.4-2.6c.2 0 .1-.3 0-.4l-5.1-2.9a.8.8 0 0 0-.7 0l-4.4 2.5c-.2.1-.2.3 0 .4l5 3a.8.8 0 0 0 .8 0Zm-8.7-10-4.4 2.4c-.2.1-.2.3 0 .4l5 3a.8.8 0 0 0 .8 0l4.4-2.6c.1 0 .1-.2 0-.4l-5.1-2.9a.8.8 0 0 0-.7 0Zm-14.2 8-7.4 4.4c-.2 0-.2.3 0 .4l5 3a.7.7 0 0 0 .8 0l7.4-4.4c.2 0 .2-.3 0-.4l-5-2.9a.8.8 0 0 0-.7 0Zm7.8-4.4-4.4 2.6c-.2 0-.2.2 0 .3l5 3a.8.8 0 0 0 .8 0l4.4-2.5c.1-.2.1-.3 0-.4l-5-3a.8.8 0 0 0-.8 0Zm-17.2 10-4.4 2.5c-.2 0-.2.3 0 .4l5 3a.8.8 0 0 0 .8 0l4.4-2.6c.1-.1.1-.3 0-.4l-5-2.9a.8.8 0 0 0-.8 0Zm-6.4 3.7-4.4 2.5c-.2.1-.2.3 0 .4l5 3a.8.8 0 0 0 .8 0l4.4-2.6c.2-.1.2-.3 0-.4l-5-3a.8.8 0 0 0-.8 0v.1Zm20 11.9 4.4-2.6c.2 0 .2-.3 0-.4l-5-3a.7.7 0 0 0-.8 0l-4.4 2.6c-.1.1-.1.3 0 .4l5.1 3a.7.7 0 0 0 .7 0Zm-6.4 3.7 4.4-2.6c.2 0 .1-.3 0-.4l-5-3a.8.8 0 0 0-.8 0l-4.4 2.6c-.2.1-.2.3 0 .4l5 3a.8.8 0 0 0 .7 0Zm-6.4 3.7 4.4-2.6c.1 0 .1-.3 0-.4l-5.1-3a.8.8 0 0 0-.7 0l-4.4 2.6c-.2.1-.2.3 0 .4l5 3a.8.8 0 0 0 .7 0Zm-6.4 3.7 4.4-2.6c.1 0 .1-.3 0-.4l-5.2-3a.8.8 0 0 0-.7 0l-4.4 2.6c-.2.1-.2.3 0 .4l5 3a.7.7 0 0 0 .8 0Zm31.5-26.6 4.4-2.6c.2 0 .2-.3 0-.4l-5-2.9a.7.7 0 0 0-.8 0l-4.3 2.5c-.2.2-.2.3 0 .4l5 3a.8.8 0 0 0 .7 0Zm-5.9 11.8 9.8-5.7c.2-.1.2-.3 0-.4l-12.3-7.1a.7.7 0 0 0-.7 0l-5.2 2.9c-.2.1-.2.3 0 .4l6.5 3.8c.2 0 .2.3 0 .4l-4 2.3c-.2.1-.2.3 0 .4l5 3h.9Zm-32.8-4.5-4.3 2.5c-.2 0-.2.3 0 .4l5 3a.8.8 0 0 0 .7 0l4.4-2.6c.2-.1.2-.3 0-.4l-5-3a.8.8 0 0 0-.8 0Zm-6.4 3.7-4.3 2.5c-.2 0-.2.3 0 .4l5 3a.8.8 0 0 0 .7 0l4.4-2.6c.2-.1.2-.3 0-.4l-5-3a.8.8 0 0 0-.8 0Zm-32 41.4a.8.8 0 0 0 .7 0l4.4-2.5c.2 0 .2-.3 0-.4l-5-3a.7.7 0 0 0-.8 0l-4.3 2.6c-.2.1-.2.3 0 .4l5 3ZM193 343.8l-4.4 2.5c-.2.1-.2.3 0 .4l5 3a.8.8 0 0 0 .8 0l4.4-2.6c.2-.1.2-.3 0-.4l-5-3a.8.8 0 0 0-.8 0Zm10.3 8.6a.7.7 0 0 0 .7 0l4.4-2.5c.2-.1.2-.3 0-.4l-5-3a.7.7 0 0 0-.8 0l-4.4 2.6c-.2.1-.2.3 0 .4l5.1 3Zm20.3 5.5 4.3-2.5c.2-.1.2-.3 0-.4l-5-3a.8.8 0 0 0-.7 0l-4.4 2.6c-.2 0-.2.3 0 .4l5 2.9a.7.7 0 0 0 .8 0Zm-7.1 3.7a.8.8 0 0 0 .7 0l4.3-2.5c.2-.1.2-.3 0-.4l-5-3a.8.8 0 0 0-.7 0l-4.4 2.6c-.2 0-.2.3 0 .4l5 2.9Zm-17-21.5-4.5 2.5c-.2.1-.2.3 0 .4l5 3a.7.7 0 0 0 .8 0l4.4-2.6c.2 0 .2-.3 0-.4L200 340a.8.8 0 0 0-.7 0Zm32-18.5L227 324c-.2.1-.2.3 0 .4l5 3a.8.8 0 0 0 .8 0l4.4-2.6c.1-.1.1-.3 0-.4l-5.1-3a.7.7 0 0 0-.7 0Zm-25.7 14.8-4.4 2.5c-.2.1-.1.3 0 .4l5.1 3a.8.8 0 0 0 .7 0l4.4-2.6c.2 0 .2-.3 0-.4l-5-2.9a.8.8 0 0 0-.8 0Zm32-18.5-4.3 2.5c-.2.1-.2.3 0 .4l5 3a.7.7 0 0 0 .8 0l4.4-2.6c.1 0 .1-.3 0-.4l-5.1-3a.8.8 0 0 0-.7 0ZM225 325l-4.4 2.6c-.2 0-.2.3 0 .4l5 3a.8.8 0 0 0 .8 0l4.4-2.6c.2-.1.1-.3 0-.4l-5-3a.7.7 0 0 0-.8 0Zm-6.4 3.8-4.4 2.5c-.2 0-.2.3 0 .4l5 3a.8.8 0 0 0 .8 0l4.4-2.6c.2-.1.1-.3 0-.4l-5.1-3a.8.8 0 0 0-.8 0Zm-6.4 3.7-4.4 2.5c-.2 0-.2.3 0 .4l5 3a.8.8 0 0 0 .8 0l4.4-2.6c.1-.1.1-.3 0-.4l-5.1-3a.8.8 0 0 0-.8 0ZM245 337l4.3-2.6c.2 0 .2-.3 0-.4l-5-3a.8.8 0 0 0-.7 0l-4.4 2.6c-.2.1-.2.3 0 .4l5 2.9a.8.8 0 0 0 .7 0Zm56.3-56-4.4 2.6c-.2 0-.2.3 0 .4l5 2.9a.7.7 0 0 0 .7 0l4.4-2.5c.2-.1.2-.3 0-.4l-5-3a.8.8 0 0 0-.8 0Zm-7.8 4.5-4.4 2.5c-.2.1-.2.3 0 .4l5 3a.8.8 0 0 0 .8 0l4.4-2.6c.1 0 .1-.2 0-.4l-5.1-2.9a.8.8 0 0 0-.8 0Zm14.2-8.2-4.5 2.6c-.2.1-.1.3 0 .4l5 3a.7.7 0 0 0 .8 0l4.4-2.6c.2-.1.2-.3 0-.4l-5.1-3a.8.8 0 0 0-.7 0Zm-33.2 34.2 4.4-2.5c.2-.1.1-.3 0-.4l-5.1-3a.7.7 0 0 0-.7 0l-4.4 2.6c-.2.1-.2.3 0 .4l5 3a.8.8 0 0 0 .7 0Zm40.3-37.9a.8.8 0 0 0-.7 0l-4.4 2.6c-.2 0-.2.3 0 .4l5 2.9a.7.7 0 0 0 .8 0l4.3-2.5c.2-.1.2-.3 0-.4l-5-3Zm-63.4 59.7 4.3-2.6c.2 0 .2-.3 0-.4l-5-3a.8.8 0 0 0-.7 0l-4.5 2.6c-.2.1-.2.3 0 .4l5 3a.7.7 0 0 0 .8 0Zm78.5-45.4 4.4-2.5c.2-.1.2-.3 0-.4l-5-3a.7.7 0 0 0-.8 0l-4.4 2.6c-.1 0-.1.3 0 .4l5.1 2.9a.8.8 0 0 0 .7 0Zm-13.6-.5 4.3-2.5c.2-.1.2-.3 0-.4l-5-3a.8.8 0 0 0-.7 0l-4.4 2.6c-.2.1-.2.3 0 .4l5 3a.8.8 0 0 0 .8-.1Zm5.7-9.5a.7.7 0 0 0-.7 0l-4.4 2.5c-.2.1-.2.3 0 .4l5 3a.8.8 0 0 0 .8 0l4.3-2.6c.2-.1.2-.3 0-.4l-5-3Zm1.3-.8 12.3 7a.8.8 0 0 0 .7 0l4.4-2.4c.2-.2.2-.3 0-.4l-12.3-7.1a.7.7 0 0 0-.7 0l-4.4 2.5c-.2 0-.2.2 0 .3Zm-14.9 8.1-4.3 2.6c-.2 0-.2.3 0 .4l5 3a.8.8 0 0 0 .7 0l4.4-2.6c.2-.1.2-.3 0-.4l-5-3a.8.8 0 0 0-.8 0Zm-48.2 27.9-4.4 2.5c-.2.1-.2.3 0 .4l5 3a.8.8 0 0 0 .8 0l4.4-2.6c.1-.1.1-.3 0-.4l-5.1-3a.8.8 0 0 0-.7 0Zm62.6-21.5a.7.7 0 0 0 .7 0l4.4-2.6c.2 0 .2-.3 0-.4l-5-2.9a.7.7 0 0 0-.8 0l-4.4 2.5c-.1.1-.1.3 0 .4l5.1 3Zm-56.2 17.8-4.4 2.5c-.2.1-.1.3 0 .4l5 3a.8.8 0 0 0 .8 0l4.4-2.6c.2-.1.2-.3 0-.4l-5.1-3a.8.8 0 0 0-.7 0Zm-48 42.4a.8.8 0 0 0 .7 0l4.3-2.6c.2 0 .2-.3 0-.4l-5-2.9a.8.8 0 0 0-.8 0l-4.3 2.5c-.2.1-.2.3 0 .4l5 3Zm-9.7-9.1-4.4 2.5c-.2.1-.1.3 0 .4l5.1 3a.8.8 0 0 0 .7 0l4.4-2.6c.2-.1.2-.3 0-.4l-5-3a.8.8 0 0 0-.8 0Zm16.8 5.4 4.4-2.6c.1 0 .1-.3 0-.4l-5.1-2.9a.8.8 0 0 0-.7 0l-4.4 2.5c-.2.1-.2.3 0 .4l5 3a.8.8 0 0 0 .8 0Zm6.4-3.7 4.4-2.6c.2 0 .1-.3 0-.4l-5.1-2.9a.7.7 0 0 0-.7 0l-4.4 2.5c-.2.1-.2.3 0 .4l5 3a.8.8 0 0 0 .8 0Zm6.4-3.7 4.4-2.6c.2 0 .2-.3 0-.4l-5-2.9a.7.7 0 0 0-.8 0l-4.4 2.5c-.2.1-.1.3 0 .4l5 3a.8.8 0 0 0 .8 0Zm-23.2-1.7-4.4 2.5c-.2.1-.1.3 0 .4l5.1 3a.8.8 0 0 0 .7 0l4.4-2.6c.2-.1.2-.3 0-.4l-5.1-3a.8.8 0 0 0-.7 0Zm6.4-3.7-4.3 2.5c-.2.1-.2.3 0 .4l5 3a.8.8 0 0 0 .7 0l4.4-2.6c.2-.1.2-.3 0-.4l-5-3a.8.8 0 0 0-.8 0Zm25.7-14.8L243 323c-.2.1-.2.3 0 .4l5 3a.7.7 0 0 0 .8 0l4.3-2.6c.2-.1.2-.3 0-.4l-5-3a.8.8 0 0 0-.7 0Zm-6.4 3.7-4.4 2.5c-.2.1-.2.3 0 .4l5 3a.7.7 0 0 0 .8 0l4.3-2.6c.2-.1.2-.3 0-.4l-5-3a.8.8 0 0 0-.7 0Zm12.8-7.4-4.4 2.5c-.2.1-.2.3 0 .4l5 3a.8.8 0 0 0 .8 0l4.4-2.6c.1-.1.1-.3 0-.4l-5.1-3a.8.8 0 0 0-.7 0ZM228 331.7l-4.3 2.5c-.2.1-.2.3 0 .4l5 3a.8.8 0 0 0 .7 0l4.4-2.6c.2-.1.2-.3 0-.4l-5-3a.8.8 0 0 0-.8 0Zm6.5-3.7-4.4 2.5c-.2.1-.2.3 0 .4l5 3a.8.8 0 0 0 .7 0l4.4-2.6c.2-.1.2-.3 0-.4l-5-2.9a.8.8 0 0 0-.7 0Zm-4.7 26.1 4.4-2.5c.1-.1.1-.3 0-.4l-5.1-3a.8.8 0 0 0-.7 0l-4.4 2.6c-.2 0-.2.3 0 .4l5 2.9a.7.7 0 0 0 .8 0Zm-37.6-3.8-5.1-3a.8.8 0 0 0-.7 0L182 350c-.2.1-.2.3 0 .4l5 3a.8.8 0 0 0 .8 0l4.4-2.6c.2-.1.2-.3 0-.4Zm9.6 2.8-5.1-3a.8.8 0 0 0-.7 0l-6.8 4c-.1 0-.1.3 0 .4l5.1 3a.7.7 0 0 0 .7 0l6.8-4c.2 0 .2-.3 0-.4Zm-17.4-8.5-5-2.9a.8.8 0 0 0-.8 0l-5.4 3.1c-.2.1-.2.3 0 .4l5 3a.8.8 0 0 0 .8 0l5.4-3.2c.2 0 .2-.3 0-.4Zm4.1-2.4a.7.7 0 0 0 .7 0l4.4-2.5c.2 0 .2-.3 0-.4l-5-3a.7.7 0 0 0-.8 0l-4.4 2.6c-.1.1-.1.3 0 .4l5.1 3Zm22.2 14.1-5-2.9a.7.7 0 0 0-.8 0l-8.4 4.9c-.2 0-.2.3 0 .4l5 2.9a.8.8 0 0 0 .8 0l8.4-4.9c.2 0 .2-.3 0-.4Zm4.2 6-5-3a.8.8 0 0 0-.8 0l-5.4 3.2c-.2 0-.1.3 0 .4l5.1 2.9a.7.7 0 0 0 .7 0l5.4-3.1c.2-.1.2-.3 0-.4Zm21.3-47.6a.7.7 0 0 0 .7 0l4.4-2.5c.2-.1.1-.3 0-.4l-5.1-3a.8.8 0 0 0-.7 0l-4.4 2.6c-.2.1-.2.3 0 .4l5 3Zm-12.8 7.4a.8.8 0 0 0 .7 0l4.3-2.5c.2-.1.2-.3 0-.4l-5-3a.8.8 0 0 0-.7 0l-4.4 2.6c-.2.1-.2.3 0 .4l5 3ZM195 338.5a.8.8 0 0 0 .7 0l4.4-2.5c.2 0 .2-.3 0-.4l-5.1-2.9a.8.8 0 0 0-.7 0l-4.4 2.5c-.2.1-.2.3 0 .4l5.1 3Zm34.8-20a.7.7 0 0 0 .7 0l4.4-2.6c.2-.1.2-.3 0-.4l-5-3a.8.8 0 0 0-.8 0l-4.3 2.6c-.2.1-.2.3 0 .4l5 3Zm-12.8 7.3a.8.8 0 0 0 .7 0l4.4-2.5c.2-.1.2-.3 0-.4L217 320a.8.8 0 0 0-.7 0l-4.3 2.5c-.2.1-.2.3 0 .4l5 3Zm1.5 37a.7.7 0 0 0-.7 0l-6.8 3.8c-.1.1-.1.3 0 .4l5.1 3a.7.7 0 0 0 .7 0l6.8-4c.2 0 .1-.2 0-.3l-5.1-3ZM207.8 331a.8.8 0 0 0 .7 0l4.4-2.5c.2 0 .2-.3 0-.4l-5-3a.8.8 0 0 0-.8 0l-4.4 2.6c-.1.1-.1.3 0 .4l5.1 3Zm-6.4 3.8a.8.8 0 0 0 .7 0l4.4-2.6c.2 0 .2-.3 0-.4l-5-2.9a.8.8 0 0 0-.8 0l-4.4 2.5c-.1.1-.1.3 0 .4l5.1 3Zm135.9-40.7a.8.8 0 0 0-.7 0l-10.8 6.2c-.2.1-.2.3 0 .4l5 3a.8.8 0 0 0 .7 0l10.8-6.3c.2 0 .2-.3 0-.4l-5-3Zm-14.2 8.2a.8.8 0 0 0-.7 0l-4.4 2.5c-.2 0-.2.3 0 .4l5 3a.8.8 0 0 0 .8 0l4.3-2.6c.2-.1.2-.3 0-.4l-5-3Zm-86.8 48 4.3-2.6c.2 0 .2-.3 0-.4l-5-3a.8.8 0 0 0-.7 0l-4.4 2.6c-.2.1-.2.3 0 .4l5 3a.8.8 0 0 0 .8 0Zm74-40.7a.8.8 0 0 0-.7 0l-4.4 2.6c-.2 0-.2.2 0 .4l5 2.9a.8.8 0 0 0 .7 0l4.4-2.5c.2-.2.2-.3 0-.4l-5-3Zm33.4-19.3a.8.8 0 0 0-.7 0l-4.4 2.6c-.2.1-.2.3 0 .4l5 3a.7.7 0 0 0 .8 0l4.4-2.6c.1-.1.1-.3 0-.4l-5.1-3Zm11.4-.7-12.3-7.1a.8.8 0 0 0-.7 0l-4.4 2.5c-.1 0-.1.3 0 .4l12.4 7a.7.7 0 0 0 .7 0l4.3-2.4c.3-.1.3-.3 0-.4Zm-68.8 33.9a.8.8 0 0 0-.7 0l-5.4 3c-.2.2-.2.4 0 .5l5 2.9a.8.8 0 0 0 .8 0l5.4-3.1c.2-.1.2-.3 0-.4l-5.1-3Zm16.2-9.4a.8.8 0 0 0-.7 0l-6.8 3.9c-.1.1-.1.3 0 .4l5.1 3a.8.8 0 0 0 .7 0l6.8-4c.1 0 .1-.3 0-.4l-5.1-2.9Zm-31 18a.8.8 0 0 0-.7 0L234.7 353c-.2.1-.2.3 0 .4l5 3a.8.8 0 0 0 .8 0l36-21c.3 0 .2-.2 0-.3l-5-3Zm-38.1 22a.8.8 0 0 0-.7 0l-5.4 3c-.2.2-.2.3 0 .4l5 3a.8.8 0 0 0 .8 0l5.3-3.2c.2 0 .2-.2 0-.3l-5-3Zm45.5-26.4a.8.8 0 0 0-.7 0l-5.4 3.1c-.2.1-.2.3 0 .4l5 3a.8.8 0 0 0 .8 0l5.4-3.1c.2-.1.2-.3 0-.4l-5-3Zm-53 30.6a.8.8 0 0 0-.7 0l-5.4 3.1c-.2.1-.2.3 0 .4l5.1 3a.8.8 0 0 0 .7 0l5.4-3.2c.2 0 .2-.3 0-.4l-5-2.9Zm67.8-39.1a.8.8 0 0 0-.7 0l-5.4 3c-.2.2-.1.3 0 .5l5.1 2.9a.8.8 0 0 0 .7 0l5.4-3.1c.2-.1.2-.3 0-.4l-5-3Zm23-13.3a.8.8 0 0 0-.7 0l-4.4 2.6c-.2 0-.2.2 0 .3l5 3a.8.8 0 0 0 .8 0l4.3-2.5c.2-.2.2-.3 0-.4l-5-3Zm14-10.2 4.4-2.5c.2-.1.1-.3 0-.4L330 290a.8.8 0 0 0-.7 0l-4.3 2.5c-.2.1-.2.3 0 .4l5 3a.8.8 0 0 0 .8 0h-.1Zm-28.7-.2 4.4-2.5c.2-.1.2-.3 0-.4l-5-3a.8.8 0 0 0-.8 0l-4.3 2.6c-.2.1-.2.3 0 .4l5 3a.8.8 0 0 0 .8 0Zm-14.5 25.1 12.8-7.4c.2 0 .2-.3 0-.4l-5-2.9a.7.7 0 0 0-.8 0l-12.8 7.4c-.1.1-.1.3 0 .4l5.1 3a.8.8 0 0 0 .8 0h-.1Zm36-21.2a.8.8 0 0 0 .8 0l4.4-2.5c.2-.1.1-.3 0-.4l-5.1-3a.8.8 0 0 0-.7 0l-4.4 2.5c-.2.2-.2.3 0 .5l5 2.9Zm-6.5-4.2 4.4-2.5c.2-.1.2-.3 0-.4l-5-3a.8.8 0 0 0-.8 0l-4.3 2.6c-.2.1-.2.3 0 .4l5 3a.8.8 0 0 0 .8 0Zm-36 29.1 4.5-2.5c.2-.1.1-.3 0-.4l-5.1-3a.7.7 0 0 0-.7 0l-4.4 2.6c-.2.1-.2.3 0 .4l5 3a.8.8 0 0 0 .9 0h-.1Zm28.4-16.7a.8.8 0 0 0 .7 0l4.4-2.6c.2 0 .2-.3 0-.4l-5-2.9a.7.7 0 0 0-.8 0l-4.4 2.5c-.2.1-.1.3 0 .4l5.1 3ZM249.1 343l4.4-2.5c.2-.1.2-.3 0-.4l-5-3a.8.8 0 0 0-.8 0l-4.4 2.6c-.2 0-.1.3 0 .4l5.1 2.9a.8.8 0 0 0 .7 0Zm6.4-3.7 4.4-2.5c.2-.2.2-.3 0-.4l-5-3a.7.7 0 0 0-.8 0l-4.4 2.6c-.2.1-.1.3 0 .4l5 3a.8.8 0 0 0 .8-.1Zm-12.8 7.4 4.4-2.5c.2-.1.2-.3 0-.4l-5.1-3a.8.8 0 0 0-.7 0l-4.4 2.6c-.2 0-.2.3 0 .4l5 2.9a.8.8 0 0 0 .8 0Zm25.6-14.8 4.4-2.5c.2-.1.2-.3 0-.4l-5-3a.8.8 0 0 0-.8 0l-4.4 2.5c-.1.1-.1.3 0 .4l5.1 3a.8.8 0 0 0 .7 0Zm-6.4 3.7 4.4-2.5c.2-.2.2-.3 0-.4l-5-3a.8.8 0 0 0-.8 0l-4.4 2.6c-.1 0-.1.3 0 .4l5.1 2.9a.8.8 0 0 0 .7 0Zm12.9-7.4 4.3-2.5c.2-.1.2-.3 0-.4l-5.1-3a.8.8 0 0 0-.7 0L269 325c-.2 0-.2.2 0 .4l5 2.9a.8.8 0 0 0 .8 0Zm29.3-54.8a.8.8 0 0 0 .7 0l4.4-2.5c.2-.1.1-.3 0-.4l-1.4-.8a.8.8 0 0 0-.7 0l-4.4 2.6c-.2 0-.1.2 0 .3l1.4.8Zm-31.6 20.4a.7.7 0 0 0 .7 0l4.4-2.5c.2-.1.2-.3 0-.4l-5-2.9a.7.7 0 0 0-.8 0l-4.4 2.5c-.1.1-.1.3 0 .4l5.1 2.9Zm12.9-7.4a.8.8 0 0 0 .7 0l4.3-2.5c.2-.1.2-.3 0-.4l-5-3a.8.8 0 0 0-.7 0l-4.4 2.6c-.2 0-.2.3 0 .4l5 2.9Zm-20.7 12a.8.8 0 0 0 .7 0l4.4-2.6c.2-.1.2-.3 0-.4l-5-3a.7.7 0 0 0-.8 0l-4.4 2.6c-.2.1-.2.3 0 .4l5.1 3ZM279 290a.7.7 0 0 0 .7 0l4.4-2.5c.2-.1.2-.3 0-.4l-5.1-3a.7.7 0 0 0-.7 0l-4.4 2.6c-.2 0-.2.3 0 .4l5.1 2.9Zm-27 15.6a.8.8 0 0 0 .6 0l4.4-2.5c.2-.1.2-.3 0-.4l-5-3a.8.8 0 0 0-.8 0l-4.4 2.6c-.1.1-.1.3 0 .4l5.1 3Zm6.4-3.7a.7.7 0 0 0 .7 0l4.3-2.5c.2-.1.2-.3 0-.4l-5-3a.7.7 0 0 0-.7 0l-4.4 2.6c-.2.1-.2.3 0 .4l5 3Zm32.9-21.2a.8.8 0 0 0 .7 0l4.4-2.5c.2-.1.2-.3 0-.4l-1.4-.8a.8.8 0 0 0-.7 0l-4.4 2.5c-.1.2-.1.3 0 .4l1.4.8Zm19.2-11a.8.8 0 0 0 .7 0l4.4-2.6c.2-.1.2-.3 0-.4l-1.4-.8a.7.7 0 0 0-.7 0l-4.4 2.5c-.2.1-.2.3 0 .4l1.4.8Zm10.7 6a.8.8 0 0 0 .7 0l4.4-2.4c.2-.1.1-.3 0-.4l-5.2-3a.8.8 0 0 0-.7 0l-4.4 2.6c-.2 0-.2.3 0 .4l5.2 2.9Zm16 16.4 4.4-2.6c.2 0 .2-.3 0-.4l-5-3a.8.8 0 0 0-.8 0l-4.4 2.6c-.2.1-.1.3 0 .4l5.1 3a.8.8 0 0 0 .7 0Zm-39.5-15a.7.7 0 0 0 .7 0l4.4-2.6c.2 0 .2-.3 0-.4l-1.4-.8a.8.8 0 0 0-.7 0l-4.4 2.6c-.2.1-.2.3 0 .4l1.4.8Zm-52.2 32.2a.8.8 0 0 0 .7 0l4.4-2.5c.2-.1.2-.3 0-.4l-5-3a.8.8 0 0 0-.8 0l-4.4 2.6c-.2.1-.1.3 0 .4l5.1 3Z" fill="#5A81FA"/><path opacity=".8" d="m295.7 299.4 4.4-2.6c.2 0 .1-.3 0-.4l-5.1-2.9a.8.8 0 0 0-.7 0l-4.4 2.5c-.2.1-.2.3 0 .4l5 3a.8.8 0 0 0 .8 0Zm-8.7-10-4.4 2.4c-.2.1-.2.3 0 .4l5 3a.8.8 0 0 0 .8 0l4.4-2.6c.1 0 .1-.2 0-.4l-5.1-2.9a.8.8 0 0 0-.7 0Zm-14.2 8-7.4 4.4c-.2 0-.2.3 0 .4l5 3a.7.7 0 0 0 .8 0l7.4-4.4c.2 0 .2-.3 0-.4l-5-2.9a.8.8 0 0 0-.7 0Zm7.8-4.4-4.4 2.6c-.2 0-.2.2 0 .3l5 3a.8.8 0 0 0 .8 0l4.4-2.5c.1-.2.1-.3 0-.4l-5-3a.8.8 0 0 0-.8 0Zm-17.2 10-4.4 2.5c-.2 0-.2.3 0 .4l5 3a.8.8 0 0 0 .8 0l4.4-2.6c.1-.1.1-.3 0-.4l-5-2.9a.8.8 0 0 0-.8 0Zm-6.4 3.7-4.4 2.5c-.2.1-.2.3 0 .4l5 3a.8.8 0 0 0 .8 0l4.4-2.6c.2-.1.2-.3 0-.4l-5-3a.8.8 0 0 0-.8 0v.1Zm20 11.9 4.4-2.6c.2 0 .2-.3 0-.4l-5-3a.7.7 0 0 0-.8 0l-4.4 2.6c-.1.1-.1.3 0 .4l5.1 3a.7.7 0 0 0 .7 0Zm-6.4 3.7 4.4-2.6c.2 0 .1-.3 0-.4l-5-3a.8.8 0 0 0-.8 0l-4.4 2.6c-.2.1-.2.3 0 .4l5 3a.8.8 0 0 0 .7 0Zm-6.4 3.7 4.4-2.6c.1 0 .1-.3 0-.4l-5.1-3a.8.8 0 0 0-.7 0l-4.4 2.6c-.2.1-.2.3 0 .4l5 3a.8.8 0 0 0 .7 0Zm-6.4 3.7 4.4-2.6c.1 0 .1-.3 0-.4l-5.2-3a.8.8 0 0 0-.7 0l-4.4 2.6c-.2.1-.2.3 0 .4l5 3a.7.7 0 0 0 .8 0Zm31.5-26.6 4.4-2.6c.2 0 .2-.3 0-.4l-5-2.9a.7.7 0 0 0-.8 0l-4.3 2.5c-.2.2-.2.3 0 .4l5 3a.8.8 0 0 0 .7 0Zm-5.9 11.8 9.8-5.7c.2-.1.2-.3 0-.4l-12.3-7.1a.7.7 0 0 0-.7 0l-5.2 2.9c-.2.1-.2.3 0 .4l6.5 3.8c.2 0 .2.3 0 .4l-4 2.3c-.2.1-.2.3 0 .4l5 3h.9Zm-32.8-4.5-4.3 2.5c-.2 0-.2.3 0 .4l5 3a.8.8 0 0 0 .7 0l4.4-2.6c.2-.1.2-.3 0-.4l-5-3a.8.8 0 0 0-.8 0Zm-6.4 3.7-4.3 2.5c-.2 0-.2.3 0 .4l5 3a.8.8 0 0 0 .7 0l4.4-2.6c.2-.1.2-.3 0-.4l-5-3a.8.8 0 0 0-.8 0Zm-32 41.4a.8.8 0 0 0 .7 0l4.4-2.5c.2 0 .2-.3 0-.4l-5-3a.7.7 0 0 0-.8 0l-4.3 2.6c-.2.1-.2.3 0 .4l5 3ZM193 343.8l-4.4 2.5c-.2.1-.2.3 0 .4l5 3a.8.8 0 0 0 .8 0l4.4-2.6c.2-.1.2-.3 0-.4l-5-3a.8.8 0 0 0-.8 0Zm10.3 8.6a.7.7 0 0 0 .7 0l4.4-2.5c.2-.1.2-.3 0-.4l-5-3a.7.7 0 0 0-.8 0l-4.4 2.6c-.2.1-.2.3 0 .4l5.1 3Zm20.3 5.5 4.3-2.5c.2-.1.2-.3 0-.4l-5-3a.8.8 0 0 0-.7 0l-4.4 2.6c-.2 0-.2.3 0 .4l5 2.9a.7.7 0 0 0 .8 0Zm-7.1 3.7a.8.8 0 0 0 .7 0l4.3-2.5c.2-.1.2-.3 0-.4l-5-3a.8.8 0 0 0-.7 0l-4.4 2.6c-.2 0-.2.3 0 .4l5 2.9Zm-17-21.5-4.5 2.5c-.2.1-.2.3 0 .4l5 3a.7.7 0 0 0 .8 0l4.4-2.6c.2 0 .2-.3 0-.4L200 340a.8.8 0 0 0-.7 0Zm32-18.5L227 324c-.2.1-.2.3 0 .4l5 3a.8.8 0 0 0 .8 0l4.4-2.6c.1-.1.1-.3 0-.4l-5.1-3a.7.7 0 0 0-.7 0Zm-25.7 14.8-4.4 2.5c-.2.1-.1.3 0 .4l5.1 3a.8.8 0 0 0 .7 0l4.4-2.6c.2 0 .2-.3 0-.4l-5-2.9a.8.8 0 0 0-.8 0Zm32-18.5-4.3 2.5c-.2.1-.2.3 0 .4l5 3a.7.7 0 0 0 .8 0l4.4-2.6c.1 0 .1-.3 0-.4l-5.1-3a.8.8 0 0 0-.7 0ZM225 325l-4.4 2.6c-.2 0-.2.3 0 .4l5 3a.8.8 0 0 0 .8 0l4.4-2.6c.2-.1.1-.3 0-.4l-5-3a.7.7 0 0 0-.8 0Zm-6.4 3.8-4.4 2.5c-.2 0-.2.3 0 .4l5 3a.8.8 0 0 0 .8 0l4.4-2.6c.2-.1.1-.3 0-.4l-5.1-3a.8.8 0 0 0-.8 0Zm-6.4 3.7-4.4 2.5c-.2 0-.2.3 0 .4l5 3a.8.8 0 0 0 .8 0l4.4-2.6c.1-.1.1-.3 0-.4l-5.1-3a.8.8 0 0 0-.8 0ZM245 337l4.3-2.6c.2 0 .2-.3 0-.4l-5-3a.8.8 0 0 0-.7 0l-4.4 2.6c-.2.1-.2.3 0 .4l5 2.9a.8.8 0 0 0 .7 0Zm56.3-56-4.4 2.6c-.2 0-.2.3 0 .4l5 2.9a.7.7 0 0 0 .7 0l4.4-2.5c.2-.1.2-.3 0-.4l-5-3a.8.8 0 0 0-.8 0Zm-7.8 4.5-4.4 2.5c-.2.1-.2.3 0 .4l5 3a.8.8 0 0 0 .8 0l4.4-2.6c.1 0 .1-.2 0-.4l-5.1-2.9a.8.8 0 0 0-.8 0Zm14.2-8.2-4.5 2.6c-.2.1-.1.3 0 .4l5 3a.7.7 0 0 0 .8 0l4.4-2.6c.2-.1.2-.3 0-.4l-5.1-3a.8.8 0 0 0-.7 0Zm-33.2 34.2 4.4-2.5c.2-.1.1-.3 0-.4l-5.1-3a.7.7 0 0 0-.7 0l-4.4 2.6c-.2.1-.2.3 0 .4l5 3a.8.8 0 0 0 .7 0Zm40.3-37.9a.8.8 0 0 0-.7 0l-4.4 2.6c-.2 0-.2.3 0 .4l5 2.9a.7.7 0 0 0 .8 0l4.3-2.5c.2-.1.2-.3 0-.4l-5-3Zm-63.4 59.7 4.3-2.6c.2 0 .2-.3 0-.4l-5-3a.8.8 0 0 0-.7 0l-4.5 2.6c-.2.1-.2.3 0 .4l5 3a.7.7 0 0 0 .8 0Zm78.5-45.4 4.4-2.5c.2-.1.2-.3 0-.4l-5-3a.7.7 0 0 0-.8 0l-4.4 2.6c-.1 0-.1.3 0 .4l5.1 2.9a.8.8 0 0 0 .7 0Zm-13.6-.5 4.3-2.5c.2-.1.2-.3 0-.4l-5-3a.8.8 0 0 0-.7 0l-4.4 2.6c-.2.1-.2.3 0 .4l5 3a.8.8 0 0 0 .8-.1Zm5.7-9.5a.7.7 0 0 0-.7 0l-4.4 2.5c-.2.1-.2.3 0 .4l5 3a.8.8 0 0 0 .8 0l4.3-2.6c.2-.1.2-.3 0-.4l-5-3Zm1.3-.8 12.3 7a.8.8 0 0 0 .7 0l4.4-2.4c.2-.2.2-.3 0-.4l-12.3-7.1a.7.7 0 0 0-.7 0l-4.4 2.5c-.2 0-.2.2 0 .3Zm-14.9 8.1-4.3 2.6c-.2 0-.2.3 0 .4l5 3a.8.8 0 0 0 .7 0l4.4-2.6c.2-.1.2-.3 0-.4l-5-3a.8.8 0 0 0-.8 0Zm-48.2 27.9-4.4 2.5c-.2.1-.2.3 0 .4l5 3a.8.8 0 0 0 .8 0l4.4-2.6c.1-.1.1-.3 0-.4l-5.1-3a.8.8 0 0 0-.7 0Zm62.6-21.5a.7.7 0 0 0 .7 0l4.4-2.6c.2 0 .2-.3 0-.4l-5-2.9a.7.7 0 0 0-.8 0l-4.4 2.5c-.1.1-.1.3 0 .4l5.1 3Zm-56.2 17.8-4.4 2.5c-.2.1-.1.3 0 .4l5 3a.8.8 0 0 0 .8 0l4.4-2.6c.2-.1.2-.3 0-.4l-5.1-3a.8.8 0 0 0-.7 0Zm-48 42.4a.8.8 0 0 0 .7 0l4.3-2.6c.2 0 .2-.3 0-.4l-5-2.9a.8.8 0 0 0-.8 0l-4.3 2.5c-.2.1-.2.3 0 .4l5 3Zm-9.7-9.1-4.4 2.5c-.2.1-.1.3 0 .4l5.1 3a.8.8 0 0 0 .7 0l4.4-2.6c.2-.1.2-.3 0-.4l-5-3a.8.8 0 0 0-.8 0Zm16.8 5.4 4.4-2.6c.1 0 .1-.3 0-.4l-5.1-2.9a.8.8 0 0 0-.7 0l-4.4 2.5c-.2.1-.2.3 0 .4l5 3a.8.8 0 0 0 .8 0Zm6.4-3.7 4.4-2.6c.2 0 .1-.3 0-.4l-5.1-2.9a.7.7 0 0 0-.7 0l-4.4 2.5c-.2.1-.2.3 0 .4l5 3a.8.8 0 0 0 .8 0Zm6.4-3.7 4.4-2.6c.2 0 .2-.3 0-.4l-5-2.9a.7.7 0 0 0-.8 0l-4.4 2.5c-.2.1-.1.3 0 .4l5 3a.8.8 0 0 0 .8 0Zm-23.2-1.7-4.4 2.5c-.2.1-.1.3 0 .4l5.1 3a.8.8 0 0 0 .7 0l4.4-2.6c.2-.1.2-.3 0-.4l-5.1-3a.8.8 0 0 0-.7 0Zm6.4-3.7-4.3 2.5c-.2.1-.2.3 0 .4l5 3a.8.8 0 0 0 .7 0l4.4-2.6c.2-.1.2-.3 0-.4l-5-3a.8.8 0 0 0-.8 0Zm25.7-14.8L243 323c-.2.1-.2.3 0 .4l5 3a.7.7 0 0 0 .8 0l4.3-2.6c.2-.1.2-.3 0-.4l-5-3a.8.8 0 0 0-.7 0Zm-6.4 3.7-4.4 2.5c-.2.1-.2.3 0 .4l5 3a.7.7 0 0 0 .8 0l4.3-2.6c.2-.1.2-.3 0-.4l-5-3a.8.8 0 0 0-.7 0Zm12.8-7.4-4.4 2.5c-.2.1-.2.3 0 .4l5 3a.8.8 0 0 0 .8 0l4.4-2.6c.1-.1.1-.3 0-.4l-5.1-3a.8.8 0 0 0-.7 0ZM228 331.7l-4.3 2.5c-.2.1-.2.3 0 .4l5 3a.8.8 0 0 0 .7 0l4.4-2.6c.2-.1.2-.3 0-.4l-5-3a.8.8 0 0 0-.8 0Zm6.5-3.7-4.4 2.5c-.2.1-.2.3 0 .4l5 3a.8.8 0 0 0 .7 0l4.4-2.6c.2-.1.2-.3 0-.4l-5-2.9a.8.8 0 0 0-.7 0Zm-4.7 26.1 4.4-2.5c.1-.1.1-.3 0-.4l-5.1-3a.8.8 0 0 0-.7 0l-4.4 2.6c-.2 0-.2.3 0 .4l5 2.9a.7.7 0 0 0 .8 0Zm-37.6-3.8-5.1-3a.8.8 0 0 0-.7 0L182 350c-.2.1-.2.3 0 .4l5 3a.8.8 0 0 0 .8 0l4.4-2.6c.2-.1.2-.3 0-.4Zm9.6 2.8-5.1-3a.8.8 0 0 0-.7 0l-6.8 4c-.1 0-.1.3 0 .4l5.1 3a.7.7 0 0 0 .7 0l6.8-4c.2 0 .2-.3 0-.4Zm-17.4-8.5-5-2.9a.8.8 0 0 0-.8 0l-5.4 3.1c-.2.1-.2.3 0 .4l5 3a.8.8 0 0 0 .8 0l5.4-3.2c.2 0 .2-.3 0-.4Zm4.1-2.4a.7.7 0 0 0 .7 0l4.4-2.5c.2 0 .2-.3 0-.4l-5-3a.7.7 0 0 0-.8 0l-4.4 2.6c-.1.1-.1.3 0 .4l5.1 3Zm22.2 14.1-5-2.9a.7.7 0 0 0-.8 0l-8.4 4.9c-.2 0-.2.3 0 .4l5 2.9a.8.8 0 0 0 .8 0l8.4-4.9c.2 0 .2-.3 0-.4Zm4.2 6-5-3a.8.8 0 0 0-.8 0l-5.4 3.2c-.2 0-.1.3 0 .4l5.1 2.9a.7.7 0 0 0 .7 0l5.4-3.1c.2-.1.2-.3 0-.4Zm21.3-47.6a.7.7 0 0 0 .7 0l4.4-2.5c.2-.1.1-.3 0-.4l-5.1-3a.8.8 0 0 0-.7 0l-4.4 2.6c-.2.1-.2.3 0 .4l5 3Zm-12.8 7.4a.8.8 0 0 0 .7 0l4.3-2.5c.2-.1.2-.3 0-.4l-5-3a.8.8 0 0 0-.7 0l-4.4 2.6c-.2.1-.2.3 0 .4l5 3ZM195 338.5a.8.8 0 0 0 .7 0l4.4-2.5c.2 0 .2-.3 0-.4l-5.1-2.9a.8.8 0 0 0-.7 0l-4.4 2.5c-.2.1-.2.3 0 .4l5.1 3Zm34.8-20a.7.7 0 0 0 .7 0l4.4-2.6c.2-.1.2-.3 0-.4l-5-3a.8.8 0 0 0-.8 0l-4.3 2.6c-.2.1-.2.3 0 .4l5 3Zm-12.8 7.3a.8.8 0 0 0 .7 0l4.4-2.5c.2-.1.2-.3 0-.4L217 320a.8.8 0 0 0-.7 0l-4.3 2.5c-.2.1-.2.3 0 .4l5 3Zm1.5 37a.7.7 0 0 0-.7 0l-6.8 3.8c-.1.1-.1.3 0 .4l5.1 3a.7.7 0 0 0 .7 0l6.8-4c.2 0 .1-.2 0-.3l-5.1-3ZM207.8 331a.8.8 0 0 0 .7 0l4.4-2.5c.2 0 .2-.3 0-.4l-5-3a.8.8 0 0 0-.8 0l-4.4 2.6c-.1.1-.1.3 0 .4l5.1 3Zm-6.4 3.8a.8.8 0 0 0 .7 0l4.4-2.6c.2 0 .2-.3 0-.4l-5-2.9a.8.8 0 0 0-.8 0l-4.4 2.5c-.1.1-.1.3 0 .4l5.1 3Zm135.9-40.7a.8.8 0 0 0-.7 0l-10.8 6.2c-.2.1-.2.3 0 .4l5 3a.8.8 0 0 0 .7 0l10.8-6.3c.2 0 .2-.3 0-.4l-5-3Zm-14.2 8.2a.8.8 0 0 0-.7 0l-4.4 2.5c-.2 0-.2.3 0 .4l5 3a.8.8 0 0 0 .8 0l4.3-2.6c.2-.1.2-.3 0-.4l-5-3Zm-86.8 48 4.3-2.6c.2 0 .2-.3 0-.4l-5-3a.8.8 0 0 0-.7 0l-4.4 2.6c-.2.1-.2.3 0 .4l5 3a.8.8 0 0 0 .8 0Zm74-40.7a.8.8 0 0 0-.7 0l-4.4 2.6c-.2 0-.2.2 0 .4l5 2.9a.8.8 0 0 0 .7 0l4.4-2.5c.2-.2.2-.3 0-.4l-5-3Zm33.4-19.3a.8.8 0 0 0-.7 0l-4.4 2.6c-.2.1-.2.3 0 .4l5 3a.7.7 0 0 0 .8 0l4.4-2.6c.1-.1.1-.3 0-.4l-5.1-3Zm11.4-.7-12.3-7.1a.8.8 0 0 0-.7 0l-4.4 2.5c-.1 0-.1.3 0 .4l12.4 7a.7.7 0 0 0 .7 0l4.3-2.4c.3-.1.3-.3 0-.4Zm-68.8 33.9a.8.8 0 0 0-.7 0l-5.4 3c-.2.2-.2.4 0 .5l5 2.9a.8.8 0 0 0 .8 0l5.4-3.1c.2-.1.2-.3 0-.4l-5.1-3Zm16.2-9.4a.8.8 0 0 0-.7 0l-6.8 3.9c-.1.1-.1.3 0 .4l5.1 3a.8.8 0 0 0 .7 0l6.8-4c.1 0 .1-.3 0-.4l-5.1-2.9Zm-31 18a.8.8 0 0 0-.7 0L234.7 353c-.2.1-.2.3 0 .4l5 3a.8.8 0 0 0 .8 0l36-21c.3 0 .2-.2 0-.3l-5-3Zm-38.1 22a.8.8 0 0 0-.7 0l-5.4 3c-.2.2-.2.3 0 .4l5 3a.8.8 0 0 0 .8 0l5.3-3.2c.2 0 .2-.2 0-.3l-5-3Zm45.5-26.4a.8.8 0 0 0-.7 0l-5.4 3.1c-.2.1-.2.3 0 .4l5 3a.8.8 0 0 0 .8 0l5.4-3.1c.2-.1.2-.3 0-.4l-5-3Zm-53 30.6a.8.8 0 0 0-.7 0l-5.4 3.1c-.2.1-.2.3 0 .4l5.1 3a.8.8 0 0 0 .7 0l5.4-3.2c.2 0 .2-.3 0-.4l-5-2.9Zm67.8-39.1a.8.8 0 0 0-.7 0l-5.4 3c-.2.2-.1.3 0 .5l5.1 2.9a.8.8 0 0 0 .7 0l5.4-3.1c.2-.1.2-.3 0-.4l-5-3Zm23-13.3a.8.8 0 0 0-.7 0l-4.4 2.6c-.2 0-.2.2 0 .3l5 3a.8.8 0 0 0 .8 0l4.3-2.5c.2-.2.2-.3 0-.4l-5-3Zm14-10.2 4.4-2.5c.2-.1.1-.3 0-.4L330 290a.8.8 0 0 0-.7 0l-4.3 2.5c-.2.1-.2.3 0 .4l5 3a.8.8 0 0 0 .8 0h-.1Zm-28.7-.2 4.4-2.5c.2-.1.2-.3 0-.4l-5-3a.8.8 0 0 0-.8 0l-4.3 2.6c-.2.1-.2.3 0 .4l5 3a.8.8 0 0 0 .8 0Zm-14.5 25.1 12.8-7.4c.2 0 .2-.3 0-.4l-5-2.9a.7.7 0 0 0-.8 0l-12.8 7.4c-.1.1-.1.3 0 .4l5.1 3a.8.8 0 0 0 .8 0h-.1Zm36-21.2a.8.8 0 0 0 .8 0l4.4-2.5c.2-.1.1-.3 0-.4l-5.1-3a.8.8 0 0 0-.7 0l-4.4 2.5c-.2.2-.2.3 0 .5l5 2.9Zm-6.5-4.2 4.4-2.5c.2-.1.2-.3 0-.4l-5-3a.8.8 0 0 0-.8 0l-4.3 2.6c-.2.1-.2.3 0 .4l5 3a.8.8 0 0 0 .8 0Zm-36 29.1 4.5-2.5c.2-.1.1-.3 0-.4l-5.1-3a.7.7 0 0 0-.7 0l-4.4 2.6c-.2.1-.2.3 0 .4l5 3a.8.8 0 0 0 .9 0h-.1Zm28.4-16.7a.8.8 0 0 0 .7 0l4.4-2.6c.2 0 .2-.3 0-.4l-5-2.9a.7.7 0 0 0-.8 0l-4.4 2.5c-.2.1-.1.3 0 .4l5.1 3ZM249.1 343l4.4-2.5c.2-.1.2-.3 0-.4l-5-3a.8.8 0 0 0-.8 0l-4.4 2.6c-.2 0-.1.3 0 .4l5.1 2.9a.8.8 0 0 0 .7 0Zm6.4-3.7 4.4-2.5c.2-.2.2-.3 0-.4l-5-3a.7.7 0 0 0-.8 0l-4.4 2.6c-.2.1-.1.3 0 .4l5 3a.8.8 0 0 0 .8-.1Zm-12.8 7.4 4.4-2.5c.2-.1.2-.3 0-.4l-5.1-3a.8.8 0 0 0-.7 0l-4.4 2.6c-.2 0-.2.3 0 .4l5 2.9a.8.8 0 0 0 .8 0Zm25.6-14.8 4.4-2.5c.2-.1.2-.3 0-.4l-5-3a.8.8 0 0 0-.8 0l-4.4 2.5c-.1.1-.1.3 0 .4l5.1 3a.8.8 0 0 0 .7 0Zm-6.4 3.7 4.4-2.5c.2-.2.2-.3 0-.4l-5-3a.8.8 0 0 0-.8 0l-4.4 2.6c-.1 0-.1.3 0 .4l5.1 2.9a.8.8 0 0 0 .7 0Zm12.9-7.4 4.3-2.5c.2-.1.2-.3 0-.4l-5.1-3a.8.8 0 0 0-.7 0L269 325c-.2 0-.2.2 0 .4l5 2.9a.8.8 0 0 0 .8 0Zm29.3-54.8a.8.8 0 0 0 .7 0l4.4-2.5c.2-.1.1-.3 0-.4l-1.4-.8a.8.8 0 0 0-.7 0l-4.4 2.6c-.2 0-.1.2 0 .3l1.4.8Zm-31.6 20.4a.7.7 0 0 0 .7 0l4.4-2.5c.2-.1.2-.3 0-.4l-5-2.9a.7.7 0 0 0-.8 0l-4.4 2.5c-.1.1-.1.3 0 .4l5.1 2.9Zm12.9-7.4a.8.8 0 0 0 .7 0l4.3-2.5c.2-.1.2-.3 0-.4l-5-3a.8.8 0 0 0-.7 0l-4.4 2.6c-.2 0-.2.3 0 .4l5 2.9Zm-20.7 12a.8.8 0 0 0 .7 0l4.4-2.6c.2-.1.2-.3 0-.4l-5-3a.7.7 0 0 0-.8 0l-4.4 2.6c-.2.1-.2.3 0 .4l5.1 3ZM279 290a.7.7 0 0 0 .7 0l4.4-2.5c.2-.1.2-.3 0-.4l-5.1-3a.7.7 0 0 0-.7 0l-4.4 2.6c-.2 0-.2.3 0 .4l5.1 2.9Zm-27 15.6a.8.8 0 0 0 .6 0l4.4-2.5c.2-.1.2-.3 0-.4l-5-3a.8.8 0 0 0-.8 0l-4.4 2.6c-.1.1-.1.3 0 .4l5.1 3Zm6.4-3.7a.7.7 0 0 0 .7 0l4.3-2.5c.2-.1.2-.3 0-.4l-5-3a.7.7 0 0 0-.7 0l-4.4 2.6c-.2.1-.2.3 0 .4l5 3Zm32.9-21.2a.8.8 0 0 0 .7 0l4.4-2.5c.2-.1.2-.3 0-.4l-1.4-.8a.8.8 0 0 0-.7 0l-4.4 2.5c-.1.2-.1.3 0 .4l1.4.8Zm19.2-11a.8.8 0 0 0 .7 0l4.4-2.6c.2-.1.2-.3 0-.4l-1.4-.8a.7.7 0 0 0-.7 0l-4.4 2.5c-.2.1-.2.3 0 .4l1.4.8Zm10.7 6a.8.8 0 0 0 .7 0l4.4-2.4c.2-.1.1-.3 0-.4l-5.2-3a.8.8 0 0 0-.7 0l-4.4 2.6c-.2 0-.2.3 0 .4l5.2 2.9Zm16 16.4 4.4-2.6c.2 0 .2-.3 0-.4l-5-3a.8.8 0 0 0-.8 0l-4.4 2.6c-.2.1-.1.3 0 .4l5.1 3a.8.8 0 0 0 .7 0Zm-39.5-15a.7.7 0 0 0 .7 0l4.4-2.6c.2 0 .2-.3 0-.4l-1.4-.8a.8.8 0 0 0-.7 0l-4.4 2.6c-.2.1-.2.3 0 .4l1.4.8Zm-52.2 32.2a.8.8 0 0 0 .7 0l4.4-2.5c.2-.1.2-.3 0-.4l-5-3a.8.8 0 0 0-.8 0l-4.4 2.6c-.2.1-.1.3 0 .4l5.1 3Z" fill="#fff"/><path d="m273.9 347.9 43.3-25a5.2 5.2 0 0 1 4.7 0l24.8 14.3c1.3.8 1.3 2 0 2.8l-43.3 25a5.2 5.2 0 0 1-4.7 0L274 350.6c-1.3-.7-1.3-2 0-2.7Z" fill="#5A81FA"/><path opacity=".4" d="m273.9 347.9 43.3-25a5.2 5.2 0 0 1 4.7 0l24.8 14.3c1.3.8 1.3 2 0 2.8l-43.3 25a5.2 5.2 0 0 1-4.7 0L274 350.6c-1.3-.7-1.3-2 0-2.7Z" fill="#fff"/><path d="M131.2 332.2Z" fill="#5A81FA"/><path opacity=".6" d="M293.7 105.9c-.3-2-2-2.8-4-1.7L139 191.4a8 8 0 0 0-2.8 2.9l-7.4-4.3a8 8 0 0 1 2.8-3l150.9-87a7.4 7.4 0 0 1 11.3 5.9Z" fill="#fff"/><path d="M138.1 332.6Z" fill="#5A81FA"/><path opacity=".8" d="M411.9 315.1a8.5 8.5 0 0 1-4 6.6L257 408.8c-1.2.7-2.6 1-4 1v-8.6a8 8 0 0 0 4-1l151-87c2-1.2 2-3 .3-4.3a8.5 8.5 0 0 1 3.6 6.3Z" fill="#fff"/><path d="M144.4 303.3c0 1.9 1.3 2.6 2.9 1.7l133.5-77a6.4 6.4 0 0 0 2.9-5v-90l-139.3 80.5v89.8Z" fill="#37474F"/><path d="M195.1 194.5v4.3c0 1 .7 1.3 1.4.8l27.7-16V176l-27.7 16.1a3.1 3.1 0 0 0-1.4 2.4Z" fill="#FAFAFA"/><path d="M231.5 171.8c.8-.5 1.4 0 1.4.8v4.3a3 3 0 0 1-1.4 2.4l-7.3 4.2V176l7.3-4.2Z" fill="#5A81FA"/><path d="m231 177.7-.8-.2.1-1a2 2 0 0 0-.7-1.8 1.2 1.2 0 0 0-1.2 0 4.2 4.2 0 0 0-1.7 3.4 2 2 0 0 0 .8 1.8l.5.1c.2 0 .5 0 .7-.2.6-.4 1-1 1.3-1.8l.8.3h.1a.3.3 0 0 0 .3-.3v-.2h-.2Zm-2.6 1.6a.5.5 0 0 1-.6 0 1.4 1.4 0 0 1-.4-1.2 3.7 3.7 0 0 1 1.3-2.8l.3-.2h.3a1.5 1.5 0 0 1 .4 1.3 3.6 3.6 0 0 1-1.3 2.9Z" fill="#FAFAFA"/><path d="M144.4 207.4a6.5 6.5 0 0 1 2.9-5l133.5-77.1c1.6-1 2.9-.2 2.9 1.7v6l-139.3 80.5v-6.1Z" fill="#263238"/><path d="M267.3 136.2a3 3 0 0 0-1.4 2.4c0 .8.6 1.2 1.4.7a3 3 0 0 0 1.4-2.3c0-.9-.6-1.3-1.4-.8ZM272 133.4a3 3 0 0 0-1.3 2.4c0 .9.6 1.2 1.4.8a3 3 0 0 0 1.3-2.4c0-.8-.6-1.2-1.3-.8ZM276.9 130.7a3 3 0 0 0-1.4 2.3c0 .9.6 1.2 1.4.8a3 3 0 0 0 1.3-2.4c0-.8-.6-1.2-1.3-.7Z" fill="#5A81FA"/><path d="m147.3 305 133.5-77a6.4 6.4 0 0 0 2.9-5v-65.2l-139.3 80.5v65c0 1.9 1.3 2.7 2.9 1.7Z" fill="#FAFAFA"/><path opacity=".4" d="m198.8 193 20.4-11.8c.8-.4 1.4 0 1.4.8a3 3 0 0 1-1.4 2.3L198.9 196c-.8.4-1.5.1-1.5-.7a3 3 0 0 1 1.4-2.3Z" fill="#455A64"/><path d="M195.3 244.8h-.3l-.2-.2-3.3-5.6v7.5l-.1.4-.2.3-1 .5a.2.2 0 0 1-.2 0l-.1-.3v-12.1l.3-.3.8-.5h.3l.2.2 3.3 5.6v-7.9l.3-.2 1-.6h.2a.4.4 0 0 1 .1.3V244.1l-.3.2-.8.5ZM198 235.3l.2-2.1a8.8 8.8 0 0 1 1.8-3.6c.4-.5.9-1 1.5-1.3.4-.3 1-.4 1.5-.5.4 0 .7.2 1 .5.3.3.6.7.7 1.2l.2 1.8v3.2c0 .7 0 1.4-.2 2a8.9 8.9 0 0 1-1.7 3.7l-1.5 1.2a3 3 0 0 1-1.5.5 1.5 1.5 0 0 1-1.1-.4l-.7-1.2-.2-1.8v-3.2Zm5.3-3c0-.7-.1-1.3-.5-1.8-.3-.2-.8-.2-1.3.1-.6.4-1 .9-1.4 1.5-.3.7-.5 1.5-.5 2.3v3.1a2.3 2.3 0 0 0 .5 1.7c.4.3.8.3 1.4 0 .5-.4 1-1 1.3-1.5.3-.8.5-1.6.5-2.4v-3ZM212.4 222.2c.4-.3 1-.5 1.5-.5a1.5 1.5 0 0 1 1 .4c.4.3.6.7.7 1.2.2.6.3 1.2.3 1.9v2.7c0 .7-.1 1.5-.3 2.2-.1.7-.3 1.3-.6 2a6.6 6.6 0 0 1-2.6 2.8l-3 1.7h-.2V224.2c0-.2.1-.3.2-.3l3-1.7Zm2 3.9-.2-1c0-.3-.2-.5-.4-.7a.9.9 0 0 0-.6-.2l-.9.3-1.6 1v8l1.7-1c.3 0 .6-.3.8-.6.3-.3.5-.6.6-1l.4-1 .1-1.2v-2.6ZM221.2 217.1h.3l.1.4 3 9.8v.1l-.2.4-.2.3-.8.5c-.2 0-.3.1-.4 0l-.1-.2-.5-1.8-3.8 2.2-.4 2.3-.2.4-.3.3-.9.5a.2.2 0 0 1-.2 0v-.4l2.8-13.2.2-.5c0-.2.1-.3.3-.3l1.3-.8Zm.6 7.6-1.3-4.4-1.3 6 2.6-1.6ZM230.3 211.9h.2a.4.4 0 0 1 0 .3v1.6c0 .2-.1.3-.2.3l-2.2 1.3v10.3l-.3.3-1 .6a.2.2 0 0 1-.2 0 .4.4 0 0 1 0-.3v-10l-2.2 1.2a.2.2 0 0 1-.2 0 .4.4 0 0 1-.1-.3V216l.1-.4.2-.2 5.9-3.4ZM234.8 209.3h.3l.2.3 2.8 9.8V220l-.3.2-.8.5c-.2.1-.3.1-.4 0v-.2l-.6-1.7-3.7 2.2-.5 2.3-.1.4c-.1.1-.2.3-.4.3l-.8.5h-.2a.4.4 0 0 1-.1-.3v-.1l2.8-13.2.2-.5c0-.2.2-.3.3-.3l1.3-.8Zm.7 7.5-1.3-4.4-1.3 6 2.6-1.6Z" fill="#5A81FA"/><path d="M458.4 277c1.4-28.9-.7-35.8-8.3-41.3l-3.3 16.6s3 19.8 2.5 26.3c-.4 5.8-1.2 13-2.6 17.6-.3.8-.9 1.5-1.6 2-2 1.1-2.8 2.4-4.3 3.9-1.2 1.1-2.2 1.4-2 1.8a1.9 1.9 0 0 0 2.4 1c1-.4 2-1 2.8-1.5-.7 1.7-1.7 3.4-3 4.8-2.8 3.3-3 5.4 2.6 5.5 3.5.1 6.3-2 9-9.5 1.1-2.8 2-5.6 2.7-8.5 1.4-7.6 2.9-14.1 3.1-18.8Z" fill="#FFA8A7"/><path d="M443.7 233.4a11 11 0 0 1 11.7 6.2c3.1 5.8 3.7 15.8 3.8 25.6 0 0-6.5 5.2-14 2.4l-1.5-34.2Z" fill="#5A81FA"/><path opacity=".5" d="M443.7 233.4a11 11 0 0 1 11.7 6.2c3.1 5.8 3.7 15.8 3.8 25.6 0 0-6.5 5.2-14 2.4l-1.5-34.2Z" fill="#000"/><path d="M450.8 384.2c.5.3.7 1.3.7 3.4 0 1.6.3 4.4-1.6 4.9-1.8.5-4.6.1-5.7-1.4-1.4-2-2.9-4-4.5-5.9-1.8-2-3.7-3.9-4.4-6.6-.6-2.6 0-3.6 1.7-4.3 2.4-1 6 2.4 7.8 3 1.6.4 5.4 6.7 6 7Z" fill="#263238"/><path d="M450.8 382.3v2.6a6.3 6.3 0 0 1-6.5 0l-.6-3.7 7.1 1Z" fill="#FFA8A7"/><path d="M429.6 398.6s.7 2.2 1 4.2c.3 1.6.7 4.2.1 5.3-.5 1.2-2.7 1.9-6 1.8-2 0-5.4 1.3-7.8 2.5a21 21 0 0 1-9.7 1.3c-3-.4-6-2.1-6.4-3.4-.4-1.2.3-2.4 7.2-5.2 0 0 9.7-3 13.1-6.6h8.5Z" fill="#263238"/><path d="M429.7 395.8v3c0 1-1.4 2.7-4.7 2.5-2.4-.2-4-.8-3.9-2.8l.1-2.7h8.5Z" fill="#FFA8A7"/><path d="M453.3 348.2c-.5-4.5-1.4-9-2.8-13.4 0 0 1.2-11.6 1.9-22.5.7-11.8.6-26.7.9-29.7 0 0-38-8.5-39 5.1-1 13.7.4 48.5.7 54.6.3 6 1.2 11.3 2.3 21 1 9.8 3.9 32.5 3.9 32.5a9 9 0 0 0 8.5 0s3.3-27.3 3.2-34.2c-.1-5.2-1-10.3-2.3-15.2l1.8-21c.8-9.9 1.7-14.6 1.9-18.8l.8-.4.8 23c.3 6 1.1 11.7 2.6 23 1.3 9.7 5.3 30.2 5.3 30.2 4.3 2.5 7-.1 7-.1s3.5-25.7 2.5-34Z" fill="#5A81FA"/><path opacity=".7" d="M453.3 348.2c-.5-4.5-1.4-9-2.8-13.4 0 0 1.2-11.6 1.9-22.5.7-11.8.6-26.7.9-29.7 0 0-38-8.5-39 5.1-1 13.7.4 48.5.7 54.6.3 6 1.2 11.3 2.3 21 1 9.8 3.9 32.5 3.9 32.5a9 9 0 0 0 8.5 0s3.3-27.3 3.2-34.2c-.1-5.2-1-10.3-2.3-15.2l1.8-21c.8-9.9 1.7-14.6 1.9-18.8l.8-.4.8 23c.3 6 1.1 11.7 2.6 23 1.3 9.7 5.3 30.2 5.3 30.2 4.3 2.5 7-.1 7-.1s3.5-25.7 2.5-34Z" fill="#000"/><path opacity=".4" d="M434.3 306.6s9.4-4.4 14.1-8.4c0 0-4.4 6-10.1 8.6l-2.5 20.5-.7-20.7h-.8Z" fill="#000"/><path d="m427.8 228.6 2 12.5 11.3-.5-1.4-14.7-11.9 2.7Z" fill="#FFA8A7"/><path d="M453 240c-1-3.5-5.3-7.3-9.6-6.6l-3 .5c-.5 2.1-5.8 3.8-11.3 2.5-1.7.4-3.2.8-4.6 1.3-4 1.3-7.6 4.6-8.2 17.5 0 0-2 30.1-2.2 36 9.8 4 20 4.2 25.7 3 11.9-2.2 13.4-7 13.4-7s.7-21.8.5-31c0-8 0-14-.8-16.3Z" fill="#263238"/><path d="M419.5 213.3s-3 4.5-2.6 5c.3.4 2.5.8 2.5.8l.1-5.8Z" fill="#FFA8A7"/><path d="M420.9 216.2a3.5 3.5 0 1 1 0-7 3.5 3.5 0 0 1 0 7Zm0-6.3a2.7 2.7 0 1 0 2.7 2.8 2.7 2.7 0 0 0-2.7-2.7Z" fill="#263238"/><path d="M427.7 201c-6 1.2-7.7 3.8-8.3 13.3-.5 10 .5 13 1.8 14.4.8.9 5.7 1 8.2.4 3-.9 10-3.4 13.3-8.4 3.8-5.8 4.9-13.8.7-17-5.8-4.6-13.3-3.3-15.7-2.8Z" fill="#FFA8A7"/><path d="M422.3 229.2c1.9.3 3.8.4 5.7.1.8-.5 1.5-1.3 1.9-2.2 0 0-1.1 1.6-7.6 2Z" fill="#FFA8A7"/><path d="m417.7 212 10.6 1.3-.4.8-10.2-1.3v-.9Z" fill="#263238"/><path d="M416.6 205.6a9 9 0 0 0 3.4 3.3c1.5.7 3 .8 4.7 2.4.6.6 1 1.3 1.4 2 .1.2 1.4 2 1.4 1.7 0 0 1-3.7 4-3.2 3 .4 3.6 4.4 1.6 6.8-2 2.4-3.8 1.5-3.8 1.5s.1 5.2 2.4 8.2c0 0 2.7.8 7.5-.2 3-.6 7.2-4.4 9-8.3 3.8-8.4 4-15.9-1.3-18.1-.6-3.9-3.6-5.6-7-6.4a17 17 0 0 0-5.6 0c-2.1.2-4.2 0-6.2-.7-1-.4-2.2-.6-3.3-.7-1.2.2-2.3 1.1-2.2 2.2a5.3 5.3 0 0 0-6 .2c-2.1 1.5-2.1 3.9-1.4 6.3l1.4 3Z" fill="#263238"/><path d="m447 203 3.6-2.1a2 2 0 0 0-3.6 2.1ZM427.5 217v-4a2 2 0 0 0-2 2.8 2 2 0 0 0 2 1.3Z" fill="#263238"/><path d="M423.9 240.1c-7.5-5-22.4-16-24.2-17.1-2.5-1.5-6.3-1.9-8.7-.6-2.2 1.1-1 4 3.3 9 4 4.9 21.8 23 21.8 23l7.8-14.3Z" fill="#FFA8A7"/><path d="M424.3 238.4c-5.2-3.4-16-10-16-10s-7.4 5.3-5.7 14.2c0 0 10.8 10.4 14 13 2.2 1.8 8.5-1 9.4-7.3 1.1-7.8-1.7-10-1.7-10Z" fill="#5A81FA"/><path opacity=".5" d="M424.3 238.4c-5.2-3.4-16-10-16-10s-7.4 5.3-5.7 14.2c0 0 10.8 10.4 14 13 2.2 1.8 8.5-1 9.4-7.3 1.1-7.8-1.7-10-1.7-10Z" fill="#000"/><path d="M390.1 224c.6-4 13.3-12.8 17.6-15.5 2-1.2 3.8-2.6 5.5-4.2l1.9-2c.6-.6 1.2-1.5 2-2.2.9-1 2-1.7 3.1-2.3 2.2-1 4.7-1.1 7-.5.6.1 1.1.3 1.7.3 1.1.2 2.5 0 3.4.8a.8.8 0 0 1 .3.6c0 .3-.3.6-.7.8-2.6 1.3-5.8 1.7-8 3.7-.2.1-1.2 1.5-.7 1.6.6.2 2.5-.6 4.6-.6 2.6.1.9 1.6 0 2-1.3.8-2.8 1.4-4.3 1.7-2.4.6-4.5.9-6 2-1.6 1-15.7 15.2-15.7 15.2l-11.7-1.3Z" fill="#FFA8A7"/></svg>