
<svg width="500" height="500" fill="none" xmlns="http://www.w3.org/2000/svg"><path d="M249 486c130.2 0 235.7-60.9 235.7-136S379.2 214 249 214c-130.2 0-235.7 60.9-235.7 136S119 486 249.1 486Z" fill="#6C6C6C" fill-opacity=".2"/><path d="M384.4 397.2c-15.5-8.9-15.5-23.4 0-32.3 15.4-8.9 40.5-8.9 56 0 15.4 9 15.4 23.4 0 32.3-15.5 9-40.6 9-56 0ZM70.1 398.5 29.5 375c-2.3-1.3-2.3-3.5 0-4.8l236.4-136.5a9.2 9.2 0 0 1 8.3 0l40.6 23.5c2.3 1.3 2.3 3.5 0 4.8L78.4 398.5a9.2 9.2 0 0 1-8.3 0Z" fill="#1E1E1E" fill-opacity=".2"/><path d="m216.2 356.6 35-20.2c3.5-2 5.3-4.8 5.3-7.5v-4.8l-36.2-20.5a7.6 7.6 0 0 1-3.5-6v-43l-61 35.2v43a7.7 7.7 0 0 0 3.5 6l30.8 17.8a28.7 28.7 0 0 0 26.1 0Z" fill="#5A81FA"/><path d="m216.2 356.6 35-20.2c3.5-2 5.3-4.8 5.3-7.5v-4.8l-36.2-20.5a7.6 7.6 0 0 1-3.5-6v-43l-61 35.2v43a7.7 7.7 0 0 0 3.5 6l30.8 17.8a28.7 28.7 0 0 0 26.1 0Z" fill="#000" opacity=".6"/><path opacity=".3" d="M170.4 340.5v4.8l-11.1-6.4a7.7 7.7 0 0 1-3.5-6v-43.1l11.6-6.7.8 9-8.2 4.7v33.6a7.6 7.6 0 0 0 3.5 6l7 4Z" fill="#000"/><path d="M160 330.4a7.7 7.7 0 0 0 3.5 6l26.6 15.4a28.9 28.9 0 0 0 26 0l35-20.2c7.3-4.2 7.3-11 0-15l-26.5-15.4a7.7 7.7 0 0 1-3.5-6v-33.7l-61 35.3-.1 33.6Z" fill="#5A81FA"/><path opacity=".3" d="M160 330.4a7.7 7.7 0 0 0 3.5 6l26.6 15.4a28.9 28.9 0 0 0 26 0l35-20.2c7.3-4.2 7.3-11 0-15l-26.5-15.4a7.7 7.7 0 0 1-3.5-6v-33.7l-61 35.3-.1 33.6Z" fill="#000"/><path opacity=".5" d="m231.6 305.3-7-4.1a7.7 7.7 0 0 1-3.6-6v-33.7l-61 35.3v33.6a7.7 7.7 0 0 0 3.5 6l7 4 61.1-35.1Z" fill="#000"/><path d="M256.6 324v5c0 2.6-1.9 5.4-5.5 7.4l-35 20.2c-3.8 2-8 3.1-12.4 3.1V355c4.3 0 8.6-1 12.5-3.1l35-20.2c3.5-2 5.4-4.8 5.4-7.5Z" fill="#5A81FA"/><path opacity=".5" d="M256.6 324v5c0 2.6-1.9 5.4-5.5 7.4l-35 20.2c-3.8 2-8 3.1-12.4 3.1V355c4.3 0 8.6-1 12.5-3.1l35-20.2c3.5-2 5.4-4.8 5.4-7.5Z" fill="#000"/><path d="M62 372.3a9.3 9.3 0 0 0 8.4-.2l236-136.2a9.6 9.6 0 0 0 4.4-7.6V37.4a9.3 9.3 0 0 0-4-7.4 9.3 9.3 0 0 0-8.5.2l-236 136.3A9.6 9.6 0 0 0 58 174v190.9a9.3 9.3 0 0 0 4 7.4Z" fill="#5A81FA"/><path d="m70.5 372.1 236-136.3a9.6 9.6 0 0 0 4.3-7.5V37.4c0-2.8-2-3.9-4.3-2.5l-236 136.3a9.6 9.6 0 0 0-4.4 7.5v190.9c0 2.8 2 3.9 4.4 2.5Z" fill="#5A81FA"/><path opacity=".5" d="m70.5 372.1 236-136.3a9.6 9.6 0 0 0 4.3-7.5V37.4c0-2.8-2-3.9-4.3-2.5l-236 136.3a9.6 9.6 0 0 0-4.4 7.5v190.9c0 2.8 2 3.9 4.4 2.5Z" fill="#000"/><path d="M69.8 377a9.3 9.3 0 0 1-7.8-.1 9.3 9.3 0 0 1-4-7.4v-17.4l8.2 4.8v17.3c-.1 2.6 1.5 3.7 3.6 2.9Z" fill="#5A81FA"/><path opacity=".5" d="M69.8 377a9.3 9.3 0 0 1-7.8-.1 9.3 9.3 0 0 1-4-7.4v-17.4l8.2 4.8v17.3c-.1 2.6 1.5 3.7 3.6 2.9Z" fill="#000"/><path d="M66.1 356.9v17.3c0 2.8 2 4 4.4 2.5l236-136.2a9.6 9.6 0 0 0 4.3-7.5v-17.5L66.1 357Z" fill="#5A81FA"/><path opacity=".3" d="M66.1 356.8v17.4c0 2.8 2 4 4.4 2.5l236-136.2a9.6 9.6 0 0 0 4.3-7.5v-17.5L66.1 356.8Z" fill="#000"/><path d="M74.3 335V181.4a5.8 5.8 0 0 1 2.6-4.5L300 48c1.4-.8 2.6-.2 2.6 1.5v153.7a5.7 5.7 0 0 1-2.6 4.5L76.9 336.6c-1.5.8-2.6.1-2.6-1.6Z" fill="#5A81FA"/><path d="M74.3 335V181.4a5.8 5.8 0 0 1 2.6-4.5L300 48c1.4-.8 2.6-.2 2.6 1.5v153.7a5.7 5.7 0 0 1-2.6 4.5L76.9 336.6c-1.5.8-2.6.1-2.6-1.6Z" fill="#263238"/><path d="M188.4 291.7a9 9 0 0 0-4 7c0 2.7 1.8 3.8 4 2.4a9 9 0 0 0 4.1-7c0-2.6-1.8-3.7-4-2.4Z" fill="#5A81FA"/><path opacity=".7" d="M67.4 174.4a9.3 9.3 0 0 0-1.3 4.3v178.2L58 352V174c0-1.5.5-3 1.3-4.3l8 4.7Z" fill="#000"/><path opacity=".3" d="M310.8 36.7c-.4-2.3-2.2-3-4.4-1.8l-236 136.3a9 9 0 0 0-3 3.2l-8.2-4.7a9 9 0 0 1 3.1-3.3l236-136.2a9.3 9.3 0 0 1 8.4-.2 9.4 9.4 0 0 1 4 6.7Z" fill="#000"/><path d="M323.5 60.2a2.2 2.2 0 0 0-2.2.2L98.6 189a6.7 6.7 0 0 0-3 5.3v152.6a3 3 0 0 0 1.3 2.7l3.9 2.2a1.8 1.8 0 0 0 1.7-.1l222.7-128.6a6.7 6.7 0 0 0 3-5.3V64.3a2.1 2.1 0 0 0-1-2l-3.7-2.1Z" fill="#5A81FA"/><path d="M102.5 191.2 325.2 62.6c1.7-1 3-.2 3 1.7v153.5a6.7 6.7 0 0 1-3 5.3L102.5 351.7c-1.7 1-3-.6-3-2.6V196.4a6.7 6.7 0 0 1 3-5.2Z" fill="#FAFAFA"/><path d="M326.5 63.2c.6 0 .7.7.7 1.1v153.5a5.7 5.7 0 0 1-2.5 4.4L102 350.8a1 1 0 0 1-.5.2c-.6 0-1-.9-1-1.9V196.4a5.7 5.7 0 0 1 2.5-4.4L325.7 63.4l.8-.2Zm0-1c-.5 0-1 .1-1.3.4L102.5 191.2a6.7 6.7 0 0 0-3 5.2v152.7c0 1.6.8 2.9 2 2.9a2 2 0 0 0 1-.3l222.7-128.6a6.7 6.7 0 0 0 3-5.3V64.3c0-1.3-.7-2.1-1.7-2.1Z" fill="#E0E0E0"/><path d="m96.8 349.6 3.8 2.1a3.1 3.1 0 0 1-1.2-2.6V206.4l-3.9-2.3V347a3 3 0 0 0 1.3 2.7Z" fill="#F0F0F0"/><path d="M328.2 64.3c0-2-1.4-2.7-3-1.7L102.5 191.2a6.7 6.7 0 0 0-3 5.2v10L328.2 74.3v-10Z" fill="#5A81FA"/><path d="M325.2 62.6 102.5 191.2c-1 .5-1.7 1.3-2.2 2.2l-3.8-2.2a6 6 0 0 1 2-2.2L321.4 60.4a2.2 2.2 0 0 1 2.2-.2l3.7 2.1a2.2 2.2 0 0 0-2 .3Z" fill="#fff" opacity=".4"/><path opacity=".1" d="M95.5 204.1v-9.9c0-1 .4-2.1 1-3l3.8 2.2a6 6 0 0 0-.9 3v10l-3.9-2.3Z" fill="#000"/><path d="m281.3 179.4-133.4 77a5 5 0 0 0-2.3 3.9v38.2a5 5 0 0 0 2.3 3.9l3.9 2.2a5 5 0 0 0 4.4 0l133.4-77a5 5 0 0 0 2.2-3.9v-38.2a4.9 4.9 0 0 0-2.2-3.9l-4-2.2a5 5 0 0 0-4.4 0Z" fill="#5A81FA"/><path opacity=".5" d="M291.8 185.2c-.2-1.2-1-1.6-2.2-1l-133.4 77c-.6.4-1.2 1-1.5 1.7l-8.4-4.8c.4-.7 1-1.3 1.6-1.7l133.3-77a5 5 0 0 1 4.5 0l3.9 2.3a5 5 0 0 1 2.2 3.5Z" fill="#fff"/><path d="M155.8 304.8a5 5 0 0 1-4-.2l-4-2.2a5 5 0 0 1-2.2-3.9v-38.2c0-.8.3-1.6.7-2.2l8.4 4.8c-.4.7-.7 1.4-.7 2.2v38.2c0 1.3.8 1.9 1.8 1.5Z" fill="#263238"/><path d="m156.2 261.2 133.4-77c1.2-.7 2.2-.1 2.2 1.3v38.3a5 5 0 0 1-2.2 3.8l-133.4 77c-1.2.7-2.2.1-2.2-1.3v-38.2a5 5 0 0 1 2.2-3.9Z" fill="#5A81FA"/><path d="m245.9 199.8-98 56.6c-.7.4-1.2 1-1.6 1.7l8.4 4.8c.4-.7.9-1.3 1.6-1.7l98-56.5-8.4-4.9Z" fill="#455A64"/><path d="m254.2 204.7-98 56.5a5 5 0 0 0-2.2 3.9v38.2c0 1.4 1 2 2.2 1.3l98-56.6v-43.3Z" fill="#37474F"/><path d="m178.8 256.6 50.6-29.2c2-1.2 3.8-.4 3.8 1.9a8.1 8.1 0 0 1-3.8 6.3l-50.6 29.2c-2 1.2-3.8.3-3.8-2a8.1 8.1 0 0 1 3.8-6.2Z" fill="#5A81FA"/><path d="M189.2 266.2a.1.1 0 0 1 .1 0l.1.3v5.7l-.1 1.6a6.3 6.3 0 0 1-1.2 2.6c-.2.4-.6.6-1 .9l-1 .3a1 1 0 0 1-.7-.4l-.4-1a7 7 0 0 1-.1-1.5v-6l.2-.2.6-.4h.1l.1.3v5.6l.1 1 .3.4a.5.5 0 0 0 .3.2c.2 0 .4 0 .5-.2a2.1 2.1 0 0 0 .9-1l.2-.8.1-1V266.8l.2-.2.7-.3ZM193.1 271.6v-.2H191.3a.7.7 0 0 1-.3-.2l-.2-.6c-.1-.5-.1-1 0-1.6a4.5 4.5 0 0 1 .8-1.7l.7-.6.7-.2.5.1c.1.1.3.2.3.4l.2.6-.1.3-.2.2-.5.3h-.4l-.1-.1h-.4l-.4.4-.2.6V269.6h1.1c.4-.2.8 0 1 .2l.3 1.2c0 .3 0 .6-.2.9a4.3 4.3 0 0 1-.8 1.7c-.3.3-.5.5-.8.6-.2.2-.5.3-.7.3a.9.9 0 0 1-.9-.6l-.1-.6v-.3l.2-.2.6-.4h.2l.1.2a.3.3 0 0 0 .2 0h.4l.5-.4.2-.3.1-.3ZM195.2 269a9 9 0 0 1 .5-3c.1-.5.3-.8.6-1.2l.8-.8c.2-.1.5-.2.8-.1.2 0 .4.2.6.4l.3.9.2 1.3V267.4l-.2.2-2.6 1.5v.5l.2.3.3.1.4-.1.4-.3.2-.4.2-.3h.1l.6-.4a.1.1 0 0 1 .2 0v.8a4.3 4.3 0 0 1-1 1.6 3 3 0 0 1-.7.6c-.3.2-.5.3-.8.2a1 1 0 0 1-.6-.4c-.2-.3-.4-.6-.4-1l-.2-1.4Zm1.9-3.3-.4.4a2 2 0 0 0-.3.4 3.4 3.4 0 0 0-.2 1l1.7-1v-.4a.7.7 0 0 0-.3-.4h-.1c-.2-.1-.3 0-.4 0ZM202.1 263c-.3.1-.5.4-.7.7l-.2 1.3v3.9l-.2.2-.6.4h-.1v-7l.1-.2.6-.4h.1l.1.2v.4l.5-.8c.1-.2.3-.4.6-.5l.3-.2a.1.1 0 0 1 .2 0V262.4l-.2.2-.5.3ZM209.6 262.4a.1.1 0 0 1 .1 0l.1.3v1.3l-.2.2-3.4 2a.1.1 0 0 1-.2 0V256.6l.2-.1.6-.4h.1l.1.2v7.6l2.6-1.4ZM212.7 255l.7-.2c.3 0 .5.2.6.3.2.3.4.5.4.8l.2 1V258.5a7 7 0 0 1-.6 2.5c-.1.3-.3.7-.6 1l-.7.7-.8.2a1 1 0 0 1-.6-.3l-.4-.8-.2-1v-1.5a6.4 6.4 0 0 1 1.2-3.5c.2-.2.5-.5.8-.6Zm.9 2.6-.1-.6-.2-.3-.3-.1-.3.1c-.2 0-.3.2-.4.3l-.3.4-.2.5v2.7c0 .1.1.3.3.3v.1h.2l.4-.1.3-.3a2.1 2.1 0 0 0 .5-1 3.6 3.6 0 0 0 .1-1v-1ZM217.7 260.9l.3-.3a2.5 2.5 0 0 0 .6-1v-1.3l-.1.3a3 3 0 0 1-.6.8l-.4.4a1 1 0 0 1-.7.1 1 1 0 0 1-.6-.4c-.1-.3-.3-.5-.3-.8l-.2-1.2v-1a8.3 8.3 0 0 1 .5-2.5c.2-.4.3-.7.6-1 .1-.3.4-.5.7-.7l.4-.2h.3l.3.2.2.1v-.6l.2-.2.5-.3a.1.1 0 0 1 .2 0v6.7c.1 1 0 2-.5 2.8-.3.7-.8 1.3-1.4 1.7-.2.2-.5.3-.8.3a1 1 0 0 1-.6-.2l-.4-.5a2 2 0 0 1-.1-.7v-.3l.2-.2.5-.3h.2l.2.2.2.2c.2.1.3 0 .6-.1Zm-1-4.8v.7c0 .4.1.8.4 1.1a.5.5 0 0 0 .6 0c.3-.1.5-.4.7-.7l.3-1.3v-1.1c0-.4-.1-.7-.3-1a.5.5 0 0 0-.7 0c-.3.2-.5.4-.6.8-.2.4-.4 1-.4 1.5ZM222 247.2h.1l.1.2v1.4l-.2.2-.7.4h-.1v-1.6l.1-.2.7-.4Zm.2 9.4v.3l-.2.2-.6.3h-.1l-.2-.2v-6.5l.1-.3.2-.2.6-.3h.1v6.7ZM227.4 253.5v.3l-.2.2-.6.3h-.1s-.1-.1 0-.2v-3.5l-.3-1.2c-.1-.3-.4-.3-.7-.1-.3.2-.5.5-.6.8l-.3 1.5v3.9l-.2.2-.6.3h-.1v-7l.1-.2.6-.3h.1l.1.2v.3l.5-.9.7-.6.8-.2a.8.8 0 0 1 .5.4l.3.9v4.9Z" fill="#FAFAFA"/><path d="m277.9 224.4-9.7 5.6 1.5-13.6c-1.2-.6-2-2.2-2-4.3 0-3.9 2.4-8.4 5.3-10 3-1.7 5.3 0 5.3 4 0 2.3-.7 4.5-2 6.5l1.6 11.8Z" fill="#455A64"/><path d="m277.9 224.4-8.6-5-1.1 10.6 9.7-5.6ZM273 202a11.5 11.5 0 0 0-4.5 6l7.9 4.5c1.1-2 1.8-4.2 1.9-6.5 0-3.8-2.4-5.6-5.3-4Z" fill="#37474F"/><path d="M225.8 156.7c-3.3-2-8-1.6-13 1.3a40.6 40.6 0 0 0-18.4 31.8c0 5.9 2.1 10 5.5 11.9l6.4 3.7c3.3 2 8 1.7 13-1.3a40.6 40.6 0 0 0 18.4-31.8c0-5.8-2-10-5.4-11.8" fill="#5A81FA"/><path d="M219.3 161.8a40.6 40.6 0 0 0-18.3 31.8c0 11.7 8.2 16.4 18.3 10.6a40.6 40.6 0 0 0 18.4-31.8c0-11.8-8.3-16.5-18.4-10.7Z" fill="#5A81FA"/><path d="M229.4 187.7v1.4c-2.4 4.3-5.9 8-10 10.6-4 2.3-7.6 2.5-10.2 1V198a18 18 0 0 1 8.2-14.3l2.7-1.5c2.4-1.4 4.7-1.6 6.5-.5 1.8 1 2.8 3.2 2.8 6Z" fill="#5A81FA"/><path opacity=".4" d="m225.8 156.7 6.5 3.8c-3.3-2-8-1.7-13 1.3a40 40 0 0 0-15.7 19.2l-6.5-3.8c3.2-8 9-15.4 15.7-19.2 5-3 9.7-3.2 13-1.3Z" fill="#fff"/><path opacity=".2" d="m206.1 205.3-6.2-3.6c-3.4-2-5.5-6-5.5-12l6.6 3.9c0 5.7 2 9.7 5.1 11.7Z" fill="#000"/><path opacity=".1" d="m197.1 177.2 6.5 3.8c-1.6 4-2.5 8.2-2.6 12.6l-6.5-3.8c0-4.3 1-8.6 2.6-12.6Z" fill="#000"/><path d="M217 181.5c-.6 0-1.2-.1-1.8-.4a4.3 4.3 0 0 1-1.9-4 11.4 11.4 0 0 1 5.3-9.1 4 4 0 0 1 6.3 3.6 11.4 11.4 0 0 1-5.3 9.1c-.8.5-1.7.8-2.6.8ZM226.6 181.7c-1.8-1.1-4.1-1-6.5.4l-2.7 1.6a18 18 0 0 0-8.2 14.3v2.8c2.6 1.4 6.2 1.2 10.1-1.1 4.2-2.6 7.7-6.3 10.1-10.6v-1.4c0-2.8-1-5-2.8-6Z" fill="#fff"/><path d="M432.1 354.6s1.4-11.6 7.2-20.7c5.8-9 13.8-14.7 21.2-15.3 7.5-.6 13.5 6.3 5.5 11s-22.1 9.5-28.6 27.1l-5.3-2Z" fill="#5A81FA"/><path opacity=".1" d="M432.1 354.6s1.4-11.6 7.2-20.7c5.8-9 13.8-14.7 21.2-15.3 7.5-.6 13.5 6.3 5.5 11s-22.1 9.5-28.6 27.1l-5.3-2Z" fill="#000"/><path d="M434.3 351.6a.4.4 0 0 1-.3-.2v-.3a47.6 47.6 0 0 1 30-29l.1.1a.4.4 0 0 1 0 .3.4.4 0 0 1-.2.4 46.8 46.8 0 0 0-29.3 28.7h-.3Z" fill="#fff"/><path d="M474.1 351.8c-.7 1.6-2.3 2.4-3.9 3-1.5.6-3.2 1.3-4 2.7-1.7 3 1 7-.7 9.8a5.2 5.2 0 0 1-3.6 2c-1.1.3-2.3.3-3.5.4l-1.6-.1a7.6 7.6 0 0 0-4.8.5c-2.4 1.3-3 4.2-4.5 6.4a11 11 0 0 1-7.7 5c-1 0-3 .2-4-.4l-.3-.1-.4-.5c-.4-1.6.3-3.1.3-4.7v-.3a328.9 328.9 0 0 1-.2-15.4c0-2.1-.3-4.5.7-6.5 1-2.3 3.5-2.3 4.4-4.5l1-2.7a7.7 7.7 0 0 1 6.6-4.6c4.3-.2 8.3 3.3 12.7 3 1 0 2.2-.4 3.3-.6 3.6-.7 7.7.3 9.7 3.3a4.6 4.6 0 0 1 .5 4.3Z" fill="#5A81FA"/><path d="M434.7 373.5a.4.4 0 0 1-.3-.4c6.1-22.8 30-26 35.7-25.7h.1a.4.4 0 0 1 .2.3v.1l-.1.3h-.3c-5.5-.3-29 2.9-34.8 25.2l-.2.2h-.3Z" fill="#fff"/><path d="m461.3 362-.2-.1a20 20 0 0 0-16.3-4.6.4.4 0 0 1-.4-.3v-.3l.3-.1a20.7 20.7 0 0 1 17 4.9.4.4 0 0 1 0 .4.3.3 0 0 1-.4.1Z" fill="#fff"/><path d="m377.1 80 3.2 1.2v-7c0-5.5 4.4-6.9 9.2-4 4.9 2.7 8.8 9.4 8.8 15v1a4.6 4.6 0 0 1 4 .6 13.9 13.9 0 0 1 6.2 10.9v.5l4.5 2.5a9.1 9.1 0 0 1 4.1 7.2c0 2.6-1.9 3.7-4.1 2.3L377 89.5a9 9 0 0 1-4.1-7.1c0-2.6 1.8-3.7 4.1-2.4ZM419.7 74.5l5.8 3.3V75.4c0-3 2-4.2 4.6-2.7a9 9 0 0 1 2.8 2.6c.4-3.7 3.3-5 6.9-3a15.5 15.5 0 0 1 7 12V87c0 1-.2 2-.6 2.9l4.8 2.7a5.7 5.7 0 0 1 2.6 4.5c0 1.7-1.2 2.3-2.6 1.5l-31.3-18a5.7 5.7 0 0 1-2.6-4.5c0-1.7 1.2-2.4 2.6-1.5Z" fill="#E6E6E6"/><path d="M397.4 226.2c-4.2 7.1-8.3 13.3-11.1 16.3-5.4 2.5-18 6.3-23 7-.9 0-1.8-.1-2.5-.6-2-1.3-3.4-1.5-5.5-2.2-1.6-.6-2.3-1.3-2.6-1a1.8 1.8 0 0 0 .2 2.5c.7.8 1.6 1.4 2.5 2a15 15 0 0 1-6.7 0c-4.3-1-6.3 1-3.4 5.6 1 1.7 5.1 4.4 13.4 3.6 3-.1 6-.4 8.8-1 8-1.6 16.8-3.3 22.2-5 2-.7 3.8-2 5.3-3.6 9.1-10.4 12.2-17.8 16.2-24.6l-.4-11c-6.5-.2-10 6-13.4 12Z" fill="#FFA8A7"/><path d="M412 214a10.4 10.4 0 0 0-10 4.2c-4.4 5.7-12.3 19.4-12.3 19.4s2.6 6.8 9.5 8l11.2-15s5.3-10.5 1.5-16.6Z" fill="#455A64"/><path d="M436 367.5h-7.2v13h7.2v-13ZM410.8 366.9l-7.2.2-.4-13.7 7.6-.3V367Z" fill="#FFA8A7"/><path d="M437 255.3c0 7.3-1 65.4-1 65.4.2 2.1 2 6 1.6 14-.5 10.8-1.3 39.3-1.3 39.3a9.2 9.2 0 0 1-8 .2s-6-40-7.2-50.7C419.9 314 417 283 417 283l-4 36.7c.9 4 1.2 8 1 12l-2.7 31a9.6 9.6 0 0 1-8.4.6s-4.1-39-4.2-43.6c-.1-5.2 2.4-64.4 2.4-64.4h36Z" fill="#37474F"/><path d="M428.8 376.8v-1.1c-.7.3-2.3 6.7-5.2 9.4-2.3 2.2-5.4 4.7-6.2 7.2-.8 2.4 4.3 3.9 6.5 3.5 2.4-.5 6.8-2.3 7.8-4 1.1-1.7 1.6-4.2 2.5-5.4.9-1.3 3-2.6 3.4-4 .1-1.4 0-2.8-.4-4-.4-1.4-.7-2.9-1.2-2.8v.8c-1 .9-2.3 1.3-3.6 1.3-1 .1-3.6-.1-3.6-1ZM403.5 364.8c-.4 0-.7.5-1.5 1.5a16 16 0 0 1-4.3 3.2c-2.7 1.4-8 3.6-10.4 4.7-1.5.7-1.4 2.6.1 3.7 1.6 1 5.3 1.8 9.8.8 2.4-.6 5.6-3 7.6-2.8 2 .1 5.8 0 7.3-1 1.5-1.1.9-3.4.4-5.3-.4-2.2-1-5.5-1.7-5.4v.8c-.8 1.4-5.3 2-7.3 1v-1.2ZM417 283a26.7 26.7 0 0 1-10.1-6s2 3.8 7.7 7.3l-1.2 32.8L417 283Z" fill="#263238"/><path d="M433 215s6 1.4 5.6 12.3l-1.3 17.2v26c-5.3 6-29 5.6-37.1-.6 0 0 .9-30.6 1.4-42.4.4-8.4 2.4-12.6 10.6-13.5l10.1.4 10.7.7Z" fill="#5A81FA"/><path d="M425.4 192.5a11 11 0 0 1-10.9 11.3c-6 0-9.5-5.2-10.8-11.3-2.4-11 4.9-11.2 10.8-11.2a11 11 0 0 1 10.9 11.2ZM430.9 197s-1.7 8.2-2.3 9.6c-.5.8-1.2 1.4-2 1.7v-5.8l4.3-5.4Z" fill="#263238"/><path d="M428.8 185.5s1.2-.3 2.4 1.6c1.1 1.7 1.4 5.5-.3 10l-3.1.4 1-12Z" fill="#263238"/><path d="M430 187.1h3.8a1.8 1.8 0 0 0-1-1.7c-.3-.2-.5-.2-.8-.2a2.1 2.1 0 0 0-2 2Z" fill="#263238"/><path d="m430.4 186.2 2.9-2.7a1.8 1.8 0 0 0-2.7-.1 2.1 2.1 0 0 0-.2 2.8Z" fill="#263238"/><path d="M426.8 197.5c.6.4 1.5-.9 2.3-1.7.8-.9 3.2-1.7 4.5 1 1.2 2.8-1 5.6-2.7 6.5-3.3 1.6-4.3-.8-4.3-.8l-.2 13c-4.6 7-14.9 6.7-11.2-.4v-4c-1.5.3-3 .4-4.6.3-2.5-.4-4-2.5-4.9-5.3a39.8 39.8 0 0 1-.6-17.2c1.1-9.8 12.1-10 18-6s3.7 14.6 3.7 14.6Z" fill="#FFA8A7"/><path d="M413.1 187.3c2.6-.2 5.2-.8 7.9-1a5 5 0 0 1 1.7.1c2 .6 1.7 3 2 4.5.6 2.9 1 7.6 2.1 7.7.3 0 1.5-2.1 2.3-2.8.4-.7.7-1.4.7-2.2l.4-3.5.2-3c0-1.2 0-2.3-.3-3.4-.2-1-.7-1.8-1.4-2.5l-.2-.2c-1.3-1.4-3-2.5-4.7-3.2-2.5-1-5.2-1.5-8-1.7a78 78 0 0 1-8.5-1 .7.7 0 0 0-.4.6 3.3 3.3 0 0 0 1.4 3.3c-1.8.1-3.9-.8-5.6-1.3a1.1 1.1 0 0 0-1 0l-.3.5v1.4c.1 1.5.7 2.9 1.5 4 1.4 1.8 3.3 3 5.4 3.6 1.6.3 3.2.3 4.8.2Z" fill="#263238"/><path d="M415.2 211.2s5.7-1.2 7.6-2.3a6.6 6.6 0 0 0 2.7-2.8 9.4 9.4 0 0 1-1.5 3.3c-1.4 2-8.8 3.3-8.8 3.3v-1.5Z" fill="#F28F8F"/><path d="M416.6 196a1.2 1.2 0 0 0 1.1 1.2 1.2 1.2 0 1 0-1.1-1.2ZM418.4 191.2l2.4 1.3a1.5 1.5 0 0 0-.6-2 1.3 1.3 0 0 0-1.8.7Z" fill="#263238"/><path d="m415.7 204.1-2.5 1a1.3 1.3 0 0 0 1.7.9 1.5 1.5 0 0 0 .8-1.9Z" fill="#F28F8F"/><path d="m406.3 192.2 2.1-1.8a1.3 1.3 0 0 0-.8-.6 1.3 1.3 0 0 0-1 .3 1.6 1.6 0 0 0-.4 2ZM407.2 195.7a1.1 1.1 0 0 0 1.4 1 1.1 1.1 0 0 0-.3-2.3 1.2 1.2 0 0 0-1 1.3Z" fill="#263238"/><path d="m413.3 194.7-.2 7.1-4-.9 4.1-6.2Z" fill="#F28F8F"/><path d="m317.3 254.3 6.3-3.6 2.5-3-6.3 3.6-2.5 3Z" fill="#5A81FA"/><path opacity=".4" d="m317.3 254.3 6.3-3.6 2.5-3-6.3 3.6-2.5 3Z" fill="#000"/><path d="m334.4 264.1 6.2-3.6 5.3-4.6-6.3 3.6-5.2 4.6Z" fill="#5A81FA"/><path opacity=".4" d="m334.4 264.1 6.2-3.6 5.3-4.6-6.3 3.6-5.2 4.6Z" fill="#000"/><path d="M387.6 276.6c1.5 2 2.4 4.4 2.6 6.8-1.5-2-2.4-4.3-2.6-6.8Zm14.6.2c-2.1-14.4-9.8-28.5-19-33.9-4.4-2.5-8.5-2.6-11.8-.7l-5.9 3.4-.3.2-.8.5-1.3 1.1-.2.2a10.2 10.2 0 0 0-1.2 1.4 14.9 14.9 0 0 0-1.6 2.7L308.4 222l-6.2 3.6v4l.5.3.5.3v.8l-1 .6v2.3l7.6 16 7.4 4.3 2.5-3 6.6 4 3.8 6.5 4.2 2.4 5.2-4.7 6.4 3.8 2.2 8.9 10.8 6.2c.5 2.3 1.2 4.5 2 6.7l.3.7a41.6 41.6 0 0 0 15.6 21.2 16 16 0 0 0 5 1.9c1.3.2 2.6.2 3.8 0l.5-.2.8-.2.5-.2.6-.3c.2 0 .4-.1.5-.3l.3-.1h.1l6-3.5c4.7-2.7 7.8-9.7 7.8-19.6 0-2.5-.2-5-.6-7.6Z" fill="#5A81FA"/><path d="M385.8 288.7c-2.5-1.4-4.5-5.6-4.5-9.4 0-3.9 2-5.8 4.5-4.4 2.5 1.5 4.5 5.7 4.5 9.5s-2 5.8-4.5 4.3Zm10.1-8.3c-2-14.3-9.8-28.5-19-33.8-4.2-2.5-8.2-2.7-11.4-1l-.3.2-.8.5c-.5.3-1 .7-1.3 1.1l-.2.2a10.2 10.2 0 0 0-1.2 1.4 14.9 14.9 0 0 0-1.7 2.7c-.9 2-1.6 4-2 6.1l-55.8-32.2v4l.6.3.5.3v.8l-1 .6v2.3l7.6 16 7.4 4.3 2.5-3 6.6 4 3.8 6.5 4.2 2.4 5.2-4.7 6.4 3.8 2.2 8.9 10.8 6.2c.5 2.3 1.2 4.5 2 6.7l.3.7a41.6 41.6 0 0 0 15.6 21.2 16 16 0 0 0 5 1.9c1.3.2 2.6.2 3.8 0l.5-.2.8-.2.5-.2.6-.3c.2 0 .4-.1.5-.3l.3-.1h.1c4.6-3 7.5-9.8 7.5-19.5 0-2.5-.2-5-.6-7.6Z" fill="#5A81FA"/><path opacity=".4" d="M390.3 284.4c0 3.8-2 5.8-4.5 4.3-2.5-1.4-4.5-5.6-4.5-9.4 0-3.9 2-5.8 4.5-4.4.7.5 1.3 1 1.8 1.7.2 2.5 1.1 4.8 2.6 6.8v1Z" fill="#000"/><path opacity=".4" d="M402.8 284.4c0 9.9-3.1 16.9-7.9 19.6l-5.9 3.4c4.6-2.9 7.5-9.8 7.5-19.4 0-2.5-.2-5-.6-7.6-2-14.3-9.8-28.5-19-33.8-4.2-2.5-8.2-2.7-11.4-1l6-3.4c3.2-1.9 7.3-1.8 11.7.8 9.2 5.3 16.9 19.4 19 33.8.4 2.5.6 5 .6 7.6Z" fill="#fff"/><path d="M396.5 288c0 9.6-3 16.5-7.5 19.4l6-3.4c4.7-2.8 7.8-9.8 7.8-19.6v-1.1l-6.3 3.6v1.1Z" fill="#5A81FA"/><path opacity=".1" d="M396.5 288c0 9.6-3 16.5-7.5 19.4l6-3.4c4.7-2.8 7.8-9.8 7.8-19.6v-1.1l-6.3 3.6v1.1ZM358.3 262v2l-56-32.4 1-.6v-.8l55 31.7Z" fill="#000"/><path opacity=".1" d="M358.3 262.8v1.1l-56-32.3 1-.6 55 31.8ZM382.6 304a12 12 0 0 1-6-1.8c-9-5.3-16.5-21-16.5-35 0-8.1 2.4-14.2 6.8-16.7 3-1.7 6.5-1.5 10.2.6 9.2 5.3 16.6 21 16.6 35 0 8.2-2.5 14.3-6.8 16.8a8.5 8.5 0 0 1-4.3 1.1Zm-11.4-53.7c-1.3 0-2.7.4-3.8 1-4 2.3-6.3 8.3-6.3 16 0 13.6 7.2 29 16 34 3.5 2 6.7 2.2 9.3.7 4-2.3 6.3-8.2 6.3-16 0-13.6-7.2-29-16-34a11 11 0 0 0-5.5-1.6Z" fill="#000"/><path opacity=".4" d="M360 251.7c-1 2-1.6 4-2 6.1l-55.8-32.2 6.3-3.6 51.5 29.7Z" fill="#fff"/><path d="M432.5 254.8c3-5.5 6.3-17.9 8-24.2 2.3-8.9-1.5-14.5-5.9-14.7-2.7.4-11.6 32.9-11.6 32.9-1 .8-14.6 7.7-19 9.4-.7.3-1.6.3-2.4 0-2-.8-3.5-.6-5.5-.8-1.6-.2-2.5-.8-2.7-.4a1.8 1.8 0 0 0 .8 2.4l2.8 1.2a17 17 0 0 1-5.4.7c-4.2 0-5.7 1.7-2.4 6 2 2.7 5.3 3.5 12.7 1 2-.8 5-2.2 7.7-3.2 5.5-2 7-2.2 11.2-3.7 6.1-2 10.4-4 11.7-6.5Z" fill="#FFA8A7"/><path d="M433 215c2.6.4 5 1 6.5 3 1.5 2.1 2.7 5 1.3 13-1.2 5.6-2.7 11.1-4.6 16.5 0 0-6 2.5-12.2-4l4.3-16.7s.7-10.9 4.7-11.7Z" fill="#455A64"/></svg>