<svg width="155" height="41" viewBox="0 0 155 41" fill="none" xmlns="http://www.w3.org/2000/svg">
<mask id="path-1-outside-1_2844_166" maskUnits="userSpaceOnUse" x="16" y="3" width="120" height="15" fill="black">
<rect fill="white" x="16" y="3" width="120" height="15"/>
<path d="M17.556 17.09C17.328 17.09 17.136 17.012 16.98 16.856C16.824 16.7 16.746 16.508 16.746 16.28V5.174C16.746 4.946 16.824 4.754 16.98 4.598C17.136 4.43 17.328 4.346 17.556 4.346C17.784 4.346 17.976 4.43 18.132 4.598C18.3 4.754 18.384 4.946 18.384 5.174V16.28C18.384 16.508 18.3 16.7 18.132 16.856C17.976 17.012 17.784 17.09 17.556 17.09ZM22.9948 17.09C22.7668 17.09 22.5748 17.012 22.4188 16.856C22.2628 16.7 22.1848 16.508 22.1848 16.28V5.534C22.1848 5.21 22.2988 4.934 22.5268 4.706C22.7548 4.466 23.0308 4.346 23.3548 4.346H23.5888C23.9728 4.346 24.3028 4.526 24.5788 4.886L31.5088 14.894V5.174C31.5088 4.946 31.5868 4.754 31.7428 4.598C31.8988 4.43 32.0908 4.346 32.3188 4.346C32.5468 4.346 32.7388 4.43 32.8948 4.598C33.0628 4.754 33.1468 4.946 33.1468 5.174V15.92C33.1468 16.244 33.0268 16.52 32.7868 16.748C32.5588 16.976 32.2828 17.09 31.9588 17.09H31.7428C31.5508 17.09 31.3708 17.048 31.2028 16.964C31.0348 16.868 30.8968 16.748 30.7888 16.604L23.8228 6.542V16.28C23.8228 16.508 23.7388 16.7 23.5708 16.856C23.4148 17.012 23.2228 17.09 22.9948 17.09ZM42.502 17.18C41.242 17.18 40.138 16.904 39.19 16.352C38.242 15.8 37.51 15.038 36.994 14.066C36.478 13.094 36.208 11.978 36.184 10.718C36.208 9.458 36.478 8.342 36.994 7.37C37.51 6.398 38.242 5.636 39.19 5.084C40.138 4.532 41.242 4.256 42.502 4.256C43.762 4.256 44.86 4.532 45.796 5.084C46.744 5.636 47.476 6.404 47.992 7.388C48.52 8.36 48.796 9.47 48.82 10.718C48.796 11.966 48.52 13.082 47.992 14.066C47.476 15.038 46.744 15.8 45.796 16.352C44.86 16.904 43.762 17.18 42.502 17.18ZM42.502 15.65C43.462 15.65 44.296 15.434 45.004 15.002C45.712 14.57 46.252 13.982 46.624 13.238C46.996 12.494 47.182 11.654 47.182 10.718C47.182 9.782 46.996 8.942 46.624 8.198C46.252 7.454 45.712 6.866 45.004 6.434C44.296 6.002 43.462 5.786 42.502 5.786C41.53 5.786 40.69 6.002 39.982 6.434C39.286 6.866 38.752 7.454 38.38 8.198C38.008 8.942 37.822 9.782 37.822 10.718C37.822 11.654 38.008 12.494 38.38 13.238C38.752 13.982 39.286 14.57 39.982 15.002C40.69 15.434 41.53 15.65 42.502 15.65ZM55.9094 17.09C55.4174 17.09 55.0454 16.814 54.7934 16.262L50.3474 5.48C50.3114 5.384 50.2934 5.282 50.2934 5.174C50.2934 4.922 50.3654 4.724 50.5094 4.58C50.6534 4.424 50.8514 4.346 51.1034 4.346C51.2714 4.346 51.4214 4.4 51.5534 4.508C51.6974 4.604 51.8054 4.736 51.8774 4.904L56.1074 15.452L60.3374 4.904C60.4094 4.736 60.5114 4.604 60.6434 4.508C60.7874 4.4 60.9434 4.346 61.1114 4.346C61.3634 4.346 61.5614 4.424 61.7054 4.58C61.8494 4.724 61.9214 4.922 61.9214 5.174C61.9214 5.282 61.9034 5.384 61.8674 5.48L57.4214 16.262C57.1694 16.814 56.7974 17.09 56.3054 17.09H55.9094ZM63.5844 17.09C63.3444 17.09 63.1464 17.012 62.9904 16.856C62.8464 16.7 62.7744 16.508 62.7744 16.28C62.7744 16.184 62.8044 16.064 62.8644 15.92L67.4544 5.084C67.5504 4.868 67.6824 4.694 67.8504 4.562C68.0304 4.418 68.2464 4.346 68.4984 4.346H68.6784C68.9304 4.346 69.1404 4.418 69.3084 4.562C69.4884 4.694 69.6264 4.868 69.7224 5.084L74.3124 15.92C74.3724 16.064 74.4024 16.184 74.4024 16.28C74.4024 16.508 74.3244 16.7 74.1684 16.856C74.0244 17.012 73.8324 17.09 73.5924 17.09C73.4244 17.09 73.2684 17.048 73.1244 16.964C72.9924 16.868 72.8904 16.742 72.8184 16.586L71.6484 13.778H65.5284L64.3584 16.586C64.2864 16.742 64.1784 16.868 64.0344 16.964C63.9024 17.048 63.7524 17.09 63.5844 17.09ZM66.1584 12.284H71.0184L68.5884 6.434L66.1584 12.284ZM78.1661 17C77.9381 17 77.7461 16.922 77.5901 16.766C77.4341 16.61 77.3561 16.418 77.3561 16.19V5.264C77.3561 5.036 77.4341 4.844 77.5901 4.688C77.7461 4.52 77.9381 4.436 78.1661 4.436H85.3841C85.6001 4.436 85.7801 4.514 85.9241 4.67C86.0801 4.814 86.1581 4.994 86.1581 5.21C86.1581 5.426 86.0801 5.606 85.9241 5.75C85.7801 5.894 85.6001 5.966 85.3841 5.966H78.9941V9.944H84.7361C84.9521 9.944 85.1321 10.022 85.2761 10.178C85.4321 10.322 85.5101 10.502 85.5101 10.718C85.5101 10.934 85.4321 11.114 85.2761 11.258C85.1321 11.402 84.9521 11.474 84.7361 11.474H78.9941V15.47H85.3841C85.6001 15.47 85.7801 15.548 85.9241 15.704C86.0801 15.848 86.1581 16.028 86.1581 16.244C86.1581 16.46 86.0801 16.64 85.9241 16.784C85.7801 16.928 85.6001 17 85.3841 17H78.1661ZM92.8666 17.09C92.6386 17.09 92.4466 17.012 92.2906 16.856C92.1346 16.7 92.0566 16.508 92.0566 16.28V5.966H88.3846C88.1686 5.966 87.9886 5.894 87.8446 5.75C87.7006 5.606 87.6286 5.426 87.6286 5.21C87.6286 4.994 87.7006 4.814 87.8446 4.67C87.9886 4.514 88.1686 4.436 88.3846 4.436H97.3486C97.5646 4.436 97.7446 4.514 97.8886 4.67C98.0446 4.814 98.1226 4.994 98.1226 5.21C98.1226 5.426 98.0446 5.606 97.8886 5.75C97.7446 5.894 97.5646 5.966 97.3486 5.966H93.6946V16.28C93.6946 16.508 93.6106 16.7 93.4426 16.856C93.2866 17.012 93.0946 17.09 92.8666 17.09ZM101.225 17C100.997 17 100.805 16.922 100.649 16.766C100.493 16.61 100.415 16.418 100.415 16.19V5.264C100.415 5.036 100.493 4.844 100.649 4.688C100.805 4.52 100.997 4.436 101.225 4.436H108.443C108.659 4.436 108.839 4.514 108.983 4.67C109.139 4.814 109.217 4.994 109.217 5.21C109.217 5.426 109.139 5.606 108.983 5.75C108.839 5.894 108.659 5.966 108.443 5.966H102.053V9.944H107.795C108.011 9.944 108.191 10.022 108.335 10.178C108.491 10.322 108.569 10.502 108.569 10.718C108.569 10.934 108.491 11.114 108.335 11.258C108.191 11.402 108.011 11.474 107.795 11.474H102.053V15.47H108.443C108.659 15.47 108.839 15.548 108.983 15.704C109.139 15.848 109.217 16.028 109.217 16.244C109.217 16.46 109.139 16.64 108.983 16.784C108.839 16.928 108.659 17 108.443 17H101.225ZM117.621 17.18C116.421 17.18 115.341 16.922 114.381 16.406C113.433 15.878 112.683 15.128 112.131 14.156C111.591 13.172 111.321 12.026 111.321 10.718C111.321 9.41 111.591 8.27 112.131 7.298C112.683 6.314 113.433 5.564 114.381 5.048C115.341 4.52 116.421 4.256 117.621 4.256C118.437 4.256 119.163 4.352 119.799 4.544C120.447 4.736 121.089 5.012 121.725 5.372C121.989 5.516 122.121 5.744 122.121 6.056C122.121 6.236 122.055 6.398 121.923 6.542C121.791 6.674 121.617 6.74 121.401 6.74C121.281 6.74 121.173 6.716 121.077 6.668C120.549 6.392 120.033 6.182 119.529 6.038C119.025 5.894 118.443 5.822 117.783 5.822C116.751 5.822 115.869 6.038 115.137 6.47C114.417 6.89 113.871 7.472 113.499 8.216C113.139 8.948 112.959 9.782 112.959 10.718C112.959 11.654 113.139 12.494 113.499 13.238C113.871 13.97 114.417 14.552 115.137 14.984C115.869 15.404 116.751 15.614 117.783 15.614C118.443 15.614 119.025 15.542 119.529 15.398C120.033 15.254 120.549 15.044 121.077 14.768C121.173 14.72 121.281 14.696 121.401 14.696C121.617 14.696 121.791 14.762 121.923 14.894C122.055 15.026 122.121 15.188 122.121 15.38C122.121 15.692 121.989 15.92 121.725 16.064C121.089 16.424 120.447 16.7 119.799 16.892C119.163 17.084 118.437 17.18 117.621 17.18ZM125.708 17.09C125.48 17.09 125.288 17.012 125.132 16.856C124.976 16.7 124.898 16.508 124.898 16.28V5.174C124.898 4.946 124.976 4.754 125.132 4.598C125.288 4.43 125.48 4.346 125.708 4.346C125.936 4.346 126.128 4.43 126.284 4.598C126.452 4.754 126.536 4.946 126.536 5.174V9.962H133.358V5.174C133.358 4.946 133.436 4.754 133.592 4.598C133.748 4.43 133.94 4.346 134.168 4.346C134.396 4.346 134.588 4.43 134.744 4.598C134.912 4.754 134.996 4.946 134.996 5.174V16.28C134.996 16.508 134.912 16.7 134.744 16.856C134.588 17.012 134.396 17.09 134.168 17.09C133.94 17.09 133.748 17.012 133.592 16.856C133.436 16.7 133.358 16.508 133.358 16.28V11.492H126.536V16.28C126.536 16.508 126.452 16.7 126.284 16.856C126.128 17.012 125.936 17.09 125.708 17.09Z"/>
</mask>
<path d="M17.556 17.09C17.328 17.09 17.136 17.012 16.98 16.856C16.824 16.7 16.746 16.508 16.746 16.28V5.174C16.746 4.946 16.824 4.754 16.98 4.598C17.136 4.43 17.328 4.346 17.556 4.346C17.784 4.346 17.976 4.43 18.132 4.598C18.3 4.754 18.384 4.946 18.384 5.174V16.28C18.384 16.508 18.3 16.7 18.132 16.856C17.976 17.012 17.784 17.09 17.556 17.09ZM22.9948 17.09C22.7668 17.09 22.5748 17.012 22.4188 16.856C22.2628 16.7 22.1848 16.508 22.1848 16.28V5.534C22.1848 5.21 22.2988 4.934 22.5268 4.706C22.7548 4.466 23.0308 4.346 23.3548 4.346H23.5888C23.9728 4.346 24.3028 4.526 24.5788 4.886L31.5088 14.894V5.174C31.5088 4.946 31.5868 4.754 31.7428 4.598C31.8988 4.43 32.0908 4.346 32.3188 4.346C32.5468 4.346 32.7388 4.43 32.8948 4.598C33.0628 4.754 33.1468 4.946 33.1468 5.174V15.92C33.1468 16.244 33.0268 16.52 32.7868 16.748C32.5588 16.976 32.2828 17.09 31.9588 17.09H31.7428C31.5508 17.09 31.3708 17.048 31.2028 16.964C31.0348 16.868 30.8968 16.748 30.7888 16.604L23.8228 6.542V16.28C23.8228 16.508 23.7388 16.7 23.5708 16.856C23.4148 17.012 23.2228 17.09 22.9948 17.09ZM42.502 17.18C41.242 17.18 40.138 16.904 39.19 16.352C38.242 15.8 37.51 15.038 36.994 14.066C36.478 13.094 36.208 11.978 36.184 10.718C36.208 9.458 36.478 8.342 36.994 7.37C37.51 6.398 38.242 5.636 39.19 5.084C40.138 4.532 41.242 4.256 42.502 4.256C43.762 4.256 44.86 4.532 45.796 5.084C46.744 5.636 47.476 6.404 47.992 7.388C48.52 8.36 48.796 9.47 48.82 10.718C48.796 11.966 48.52 13.082 47.992 14.066C47.476 15.038 46.744 15.8 45.796 16.352C44.86 16.904 43.762 17.18 42.502 17.18ZM42.502 15.65C43.462 15.65 44.296 15.434 45.004 15.002C45.712 14.57 46.252 13.982 46.624 13.238C46.996 12.494 47.182 11.654 47.182 10.718C47.182 9.782 46.996 8.942 46.624 8.198C46.252 7.454 45.712 6.866 45.004 6.434C44.296 6.002 43.462 5.786 42.502 5.786C41.53 5.786 40.69 6.002 39.982 6.434C39.286 6.866 38.752 7.454 38.38 8.198C38.008 8.942 37.822 9.782 37.822 10.718C37.822 11.654 38.008 12.494 38.38 13.238C38.752 13.982 39.286 14.57 39.982 15.002C40.69 15.434 41.53 15.65 42.502 15.65ZM55.9094 17.09C55.4174 17.09 55.0454 16.814 54.7934 16.262L50.3474 5.48C50.3114 5.384 50.2934 5.282 50.2934 5.174C50.2934 4.922 50.3654 4.724 50.5094 4.58C50.6534 4.424 50.8514 4.346 51.1034 4.346C51.2714 4.346 51.4214 4.4 51.5534 4.508C51.6974 4.604 51.8054 4.736 51.8774 4.904L56.1074 15.452L60.3374 4.904C60.4094 4.736 60.5114 4.604 60.6434 4.508C60.7874 4.4 60.9434 4.346 61.1114 4.346C61.3634 4.346 61.5614 4.424 61.7054 4.58C61.8494 4.724 61.9214 4.922 61.9214 5.174C61.9214 5.282 61.9034 5.384 61.8674 5.48L57.4214 16.262C57.1694 16.814 56.7974 17.09 56.3054 17.09H55.9094ZM63.5844 17.09C63.3444 17.09 63.1464 17.012 62.9904 16.856C62.8464 16.7 62.7744 16.508 62.7744 16.28C62.7744 16.184 62.8044 16.064 62.8644 15.92L67.4544 5.084C67.5504 4.868 67.6824 4.694 67.8504 4.562C68.0304 4.418 68.2464 4.346 68.4984 4.346H68.6784C68.9304 4.346 69.1404 4.418 69.3084 4.562C69.4884 4.694 69.6264 4.868 69.7224 5.084L74.3124 15.92C74.3724 16.064 74.4024 16.184 74.4024 16.28C74.4024 16.508 74.3244 16.7 74.1684 16.856C74.0244 17.012 73.8324 17.09 73.5924 17.09C73.4244 17.09 73.2684 17.048 73.1244 16.964C72.9924 16.868 72.8904 16.742 72.8184 16.586L71.6484 13.778H65.5284L64.3584 16.586C64.2864 16.742 64.1784 16.868 64.0344 16.964C63.9024 17.048 63.7524 17.09 63.5844 17.09ZM66.1584 12.284H71.0184L68.5884 6.434L66.1584 12.284ZM78.1661 17C77.9381 17 77.7461 16.922 77.5901 16.766C77.4341 16.61 77.3561 16.418 77.3561 16.19V5.264C77.3561 5.036 77.4341 4.844 77.5901 4.688C77.7461 4.52 77.9381 4.436 78.1661 4.436H85.3841C85.6001 4.436 85.7801 4.514 85.9241 4.67C86.0801 4.814 86.1581 4.994 86.1581 5.21C86.1581 5.426 86.0801 5.606 85.9241 5.75C85.7801 5.894 85.6001 5.966 85.3841 5.966H78.9941V9.944H84.7361C84.9521 9.944 85.1321 10.022 85.2761 10.178C85.4321 10.322 85.5101 10.502 85.5101 10.718C85.5101 10.934 85.4321 11.114 85.2761 11.258C85.1321 11.402 84.9521 11.474 84.7361 11.474H78.9941V15.47H85.3841C85.6001 15.47 85.7801 15.548 85.9241 15.704C86.0801 15.848 86.1581 16.028 86.1581 16.244C86.1581 16.46 86.0801 16.64 85.9241 16.784C85.7801 16.928 85.6001 17 85.3841 17H78.1661ZM92.8666 17.09C92.6386 17.09 92.4466 17.012 92.2906 16.856C92.1346 16.7 92.0566 16.508 92.0566 16.28V5.966H88.3846C88.1686 5.966 87.9886 5.894 87.8446 5.75C87.7006 5.606 87.6286 5.426 87.6286 5.21C87.6286 4.994 87.7006 4.814 87.8446 4.67C87.9886 4.514 88.1686 4.436 88.3846 4.436H97.3486C97.5646 4.436 97.7446 4.514 97.8886 4.67C98.0446 4.814 98.1226 4.994 98.1226 5.21C98.1226 5.426 98.0446 5.606 97.8886 5.75C97.7446 5.894 97.5646 5.966 97.3486 5.966H93.6946V16.28C93.6946 16.508 93.6106 16.7 93.4426 16.856C93.2866 17.012 93.0946 17.09 92.8666 17.09ZM101.225 17C100.997 17 100.805 16.922 100.649 16.766C100.493 16.61 100.415 16.418 100.415 16.19V5.264C100.415 5.036 100.493 4.844 100.649 4.688C100.805 4.52 100.997 4.436 101.225 4.436H108.443C108.659 4.436 108.839 4.514 108.983 4.67C109.139 4.814 109.217 4.994 109.217 5.21C109.217 5.426 109.139 5.606 108.983 5.75C108.839 5.894 108.659 5.966 108.443 5.966H102.053V9.944H107.795C108.011 9.944 108.191 10.022 108.335 10.178C108.491 10.322 108.569 10.502 108.569 10.718C108.569 10.934 108.491 11.114 108.335 11.258C108.191 11.402 108.011 11.474 107.795 11.474H102.053V15.47H108.443C108.659 15.47 108.839 15.548 108.983 15.704C109.139 15.848 109.217 16.028 109.217 16.244C109.217 16.46 109.139 16.64 108.983 16.784C108.839 16.928 108.659 17 108.443 17H101.225ZM117.621 17.18C116.421 17.18 115.341 16.922 114.381 16.406C113.433 15.878 112.683 15.128 112.131 14.156C111.591 13.172 111.321 12.026 111.321 10.718C111.321 9.41 111.591 8.27 112.131 7.298C112.683 6.314 113.433 5.564 114.381 5.048C115.341 4.52 116.421 4.256 117.621 4.256C118.437 4.256 119.163 4.352 119.799 4.544C120.447 4.736 121.089 5.012 121.725 5.372C121.989 5.516 122.121 5.744 122.121 6.056C122.121 6.236 122.055 6.398 121.923 6.542C121.791 6.674 121.617 6.74 121.401 6.74C121.281 6.74 121.173 6.716 121.077 6.668C120.549 6.392 120.033 6.182 119.529 6.038C119.025 5.894 118.443 5.822 117.783 5.822C116.751 5.822 115.869 6.038 115.137 6.47C114.417 6.89 113.871 7.472 113.499 8.216C113.139 8.948 112.959 9.782 112.959 10.718C112.959 11.654 113.139 12.494 113.499 13.238C113.871 13.97 114.417 14.552 115.137 14.984C115.869 15.404 116.751 15.614 117.783 15.614C118.443 15.614 119.025 15.542 119.529 15.398C120.033 15.254 120.549 15.044 121.077 14.768C121.173 14.72 121.281 14.696 121.401 14.696C121.617 14.696 121.791 14.762 121.923 14.894C122.055 15.026 122.121 15.188 122.121 15.38C122.121 15.692 121.989 15.92 121.725 16.064C121.089 16.424 120.447 16.7 119.799 16.892C119.163 17.084 118.437 17.18 117.621 17.18ZM125.708 17.09C125.48 17.09 125.288 17.012 125.132 16.856C124.976 16.7 124.898 16.508 124.898 16.28V5.174C124.898 4.946 124.976 4.754 125.132 4.598C125.288 4.43 125.48 4.346 125.708 4.346C125.936 4.346 126.128 4.43 126.284 4.598C126.452 4.754 126.536 4.946 126.536 5.174V9.962H133.358V5.174C133.358 4.946 133.436 4.754 133.592 4.598C133.748 4.43 133.94 4.346 134.168 4.346C134.396 4.346 134.588 4.43 134.744 4.598C134.912 4.754 134.996 4.946 134.996 5.174V16.28C134.996 16.508 134.912 16.7 134.744 16.856C134.588 17.012 134.396 17.09 134.168 17.09C133.94 17.09 133.748 17.012 133.592 16.856C133.436 16.7 133.358 16.508 133.358 16.28V11.492H126.536V16.28C126.536 16.508 126.452 16.7 126.284 16.856C126.128 17.012 125.936 17.09 125.708 17.09Z" fill="#5A81FA"/>
<path d="M16.98 16.856L17.2628 16.5732V16.5732L16.98 16.856ZM16.98 4.598L17.2628 4.88084L17.2681 4.87561L17.2731 4.87018L16.98 4.598ZM18.132 4.598L17.8389 4.87018L17.849 4.88104L17.8598 4.89112L18.132 4.598ZM18.132 16.856L17.8598 16.5629L17.8544 16.5679L17.8492 16.5732L18.132 16.856ZM17.556 16.69C17.4301 16.69 17.3411 16.6514 17.2628 16.5732L16.6972 17.1388C16.9309 17.3726 17.2259 17.49 17.556 17.49V16.69ZM17.2628 16.5732C17.1846 16.4949 17.146 16.4059 17.146 16.28H16.346C16.346 16.6101 16.4634 16.9051 16.6972 17.1388L17.2628 16.5732ZM17.146 16.28V5.174H16.346V16.28H17.146ZM17.146 5.174C17.146 5.04812 17.1846 4.95907 17.2628 4.88084L16.6972 4.31516C16.4634 4.54893 16.346 4.84388 16.346 5.174H17.146ZM17.2731 4.87018C17.3539 4.78317 17.4399 4.746 17.556 4.746V3.946C17.2161 3.946 16.9181 4.07683 16.6869 4.32582L17.2731 4.87018ZM17.556 4.746C17.6721 4.746 17.7581 4.78317 17.8389 4.87018L18.4251 4.32582C18.1939 4.07683 17.8959 3.946 17.556 3.946V4.746ZM17.8598 4.89112C17.9468 4.97191 17.984 5.05792 17.984 5.174H18.784C18.784 4.83407 18.6532 4.53609 18.4042 4.30488L17.8598 4.89112ZM17.984 5.174V16.28H18.784V5.174H17.984ZM17.984 16.28C17.984 16.3961 17.9468 16.4821 17.8598 16.5629L18.4042 17.1491C18.6532 16.9179 18.784 16.6199 18.784 16.28H17.984ZM17.8492 16.5732C17.7709 16.6514 17.6819 16.69 17.556 16.69V17.49C17.8861 17.49 18.1811 17.3726 18.4148 17.1388L17.8492 16.5732ZM22.4188 16.856L22.7017 16.5732V16.5732L22.4188 16.856ZM22.5268 4.706L22.8097 4.98893L22.8168 4.9815L22.5268 4.706ZM24.5788 4.886L24.9077 4.65828L24.9022 4.65032L24.8963 4.64263L24.5788 4.886ZM31.5088 14.894L31.18 15.1217L31.9088 16.1743V14.894H31.5088ZM31.7428 4.598L32.0257 4.88084L32.0309 4.87561L32.0359 4.87018L31.7428 4.598ZM32.8948 4.598L32.6017 4.87018L32.6118 4.88104L32.6226 4.89112L32.8948 4.598ZM32.7868 16.748L32.5112 16.4579L32.504 16.4652L32.7868 16.748ZM31.2028 16.964L31.0044 17.3113L31.014 17.3168L31.0239 17.3218L31.2028 16.964ZM30.7888 16.604L30.4599 16.8317L30.4643 16.8379L30.4688 16.844L30.7888 16.604ZM23.8228 6.542L24.1517 6.31432L23.4228 5.26149V6.542H23.8228ZM23.5708 16.856L23.2986 16.5629L23.2932 16.5679L23.288 16.5732L23.5708 16.856ZM22.9948 16.69C22.8689 16.69 22.7799 16.6514 22.7017 16.5732L22.136 17.1388C22.3697 17.3726 22.6647 17.49 22.9948 17.49V16.69ZM22.7017 16.5732C22.6234 16.4949 22.5848 16.4059 22.5848 16.28H21.7848C21.7848 16.6101 21.9022 16.9051 22.136 17.1388L22.7017 16.5732ZM22.5848 16.28V5.534H21.7848V16.28H22.5848ZM22.5848 5.534C22.5848 5.31551 22.6571 5.14142 22.8097 4.98884L22.244 4.42316C21.9405 4.72658 21.7848 5.10449 21.7848 5.534H22.5848ZM22.8168 4.9815C22.9711 4.81904 23.1431 4.746 23.3548 4.746V3.946C22.9185 3.946 22.5385 4.11296 22.2368 4.4305L22.8168 4.9815ZM23.3548 4.746H23.5888V3.946H23.3548V4.746ZM23.5888 4.746C23.825 4.746 24.0456 4.84796 24.2614 5.12937L24.8963 4.64263C24.56 4.20404 24.1206 3.946 23.5888 3.946V4.746ZM24.25 5.11371L31.18 15.1217L31.8377 14.6663L24.9077 4.65828L24.25 5.11371ZM31.9088 14.894V5.174H31.1088V14.894H31.9088ZM31.9088 5.174C31.9088 5.04812 31.9474 4.95907 32.0257 4.88084L31.46 4.31516C31.2262 4.54893 31.1088 4.84388 31.1088 5.174H31.9088ZM32.0359 4.87018C32.1167 4.78317 32.2027 4.746 32.3188 4.746V3.946C31.9789 3.946 31.6809 4.07683 31.4497 4.32582L32.0359 4.87018ZM32.3188 4.746C32.4349 4.746 32.5209 4.78317 32.6017 4.87018L33.1879 4.32582C32.9567 4.07683 32.6587 3.946 32.3188 3.946V4.746ZM32.6226 4.89112C32.7096 4.97191 32.7468 5.05792 32.7468 5.174H33.5468C33.5468 4.83407 33.416 4.53609 33.167 4.30488L32.6226 4.89112ZM32.7468 5.174V15.92H33.5468V5.174H32.7468ZM32.7468 15.92C32.7468 16.1317 32.6738 16.3037 32.5113 16.458L33.0623 17.038C33.3799 16.7363 33.5468 16.3563 33.5468 15.92H32.7468ZM32.504 16.4652C32.3514 16.6177 32.1773 16.69 31.9588 16.69V17.49C32.3883 17.49 32.7662 17.3343 33.0697 17.0308L32.504 16.4652ZM31.9588 16.69H31.7428V17.49H31.9588V16.69ZM31.7428 16.69C31.6115 16.69 31.4929 16.6618 31.3817 16.6062L31.0239 17.3218C31.2487 17.4342 31.4901 17.49 31.7428 17.49V16.69ZM31.4013 16.6167C31.2771 16.5457 31.1816 16.4611 31.1088 16.364L30.4688 16.844C30.612 17.0349 30.7925 17.1903 31.0044 17.3113L31.4013 16.6167ZM31.1177 16.3763L24.1517 6.31432L23.4939 6.76968L30.4599 16.8317L31.1177 16.3763ZM23.4228 6.542V16.28H24.2228V6.542H23.4228ZM23.4228 16.28C23.4228 16.3961 23.3856 16.4821 23.2986 16.5629L23.843 17.1491C24.092 16.9179 24.2228 16.6199 24.2228 16.28H23.4228ZM23.288 16.5732C23.2097 16.6514 23.1207 16.69 22.9948 16.69V17.49C23.3249 17.49 23.6199 17.3726 23.8537 17.1388L23.288 16.5732ZM39.19 16.352L39.3913 16.0063L39.19 16.352ZM36.994 14.066L36.6407 14.2536L36.994 14.066ZM36.184 10.718L35.7841 10.7104L35.784 10.718L35.7841 10.7256L36.184 10.718ZM36.994 7.37L37.3473 7.55756L36.994 7.37ZM39.19 5.084L38.9888 4.73833V4.73833L39.19 5.084ZM45.796 5.084L45.5928 5.42855L45.5948 5.42967L45.796 5.084ZM47.992 7.388L47.6377 7.57378L47.6405 7.57893L47.992 7.388ZM48.82 10.718L49.22 10.7257L49.2201 10.718L49.22 10.7103L48.82 10.718ZM47.992 14.066L47.6396 13.8769L47.6387 13.8784L47.992 14.066ZM45.796 16.352L45.5948 16.0063L45.5928 16.0075L45.796 16.352ZM45.004 15.002L44.7957 14.6605L45.004 15.002ZM46.624 13.238L46.9818 13.4169L46.624 13.238ZM46.624 8.198L46.9818 8.01911L46.624 8.198ZM45.004 6.434L44.7957 6.77546L45.004 6.434ZM39.982 6.434L39.7737 6.09253L39.7711 6.09414L39.982 6.434ZM38.38 8.198L38.0223 8.01911L38.38 8.198ZM38.38 13.238L38.0223 13.4169L38.38 13.238ZM39.982 15.002L39.7711 15.3419L39.7737 15.3435L39.982 15.002ZM42.502 16.78C41.3021 16.78 40.2696 16.5177 39.3913 16.0063L38.9888 16.6977C40.0065 17.2903 41.182 17.58 42.502 17.58V16.78ZM39.3913 16.0063C38.5079 15.492 37.8285 14.7848 37.3473 13.8784L36.6407 14.2536C37.1916 15.2912 37.9761 16.108 38.9888 16.6977L39.3913 16.0063ZM37.3473 13.8784C36.8648 12.9695 36.6069 11.9167 36.584 10.7104L35.7841 10.7256C35.8091 12.0393 36.0913 13.2185 36.6407 14.2536L37.3473 13.8784ZM36.584 10.7256C36.6069 9.51926 36.8648 8.46651 37.3473 7.55756L36.6407 7.18244C36.0913 8.21749 35.8091 9.39674 35.7841 10.7104L36.584 10.7256ZM37.3473 7.55756C37.8285 6.65118 38.5079 5.94403 39.3913 5.42967L38.9888 4.73833C37.9761 5.32796 37.1916 6.14482 36.6407 7.18244L37.3473 7.55756ZM39.3913 5.42967C40.2696 4.91826 41.3021 4.656 42.502 4.656V3.856C41.182 3.856 40.0065 4.14574 38.9888 4.73833L39.3913 5.42967ZM42.502 4.656C43.7021 4.656 44.7276 4.9183 45.5928 5.42855L45.9992 4.73945C44.9924 4.1457 43.8219 3.856 42.502 3.856V4.656ZM45.5948 5.42967C46.4769 5.9433 47.1562 6.65548 47.6378 7.57376L48.3463 7.20224C47.7958 6.15251 47.0112 5.3287 45.9973 4.73833L45.5948 5.42967ZM47.6405 7.57893C48.1342 8.48773 48.3972 9.53345 48.4201 10.7257L49.22 10.7103C49.1949 9.40655 48.9059 8.23227 48.3435 7.19707L47.6405 7.57893ZM48.4201 10.7103C48.3972 11.9025 48.1342 12.955 47.6396 13.8769L48.3445 14.2551C48.9059 13.209 49.1949 12.0295 49.22 10.7257L48.4201 10.7103ZM47.6387 13.8784C47.1576 14.7848 46.4781 15.492 45.5948 16.0063L45.9973 16.6977C47.0099 16.108 47.7945 15.2912 48.3453 14.2536L47.6387 13.8784ZM45.5928 16.0075C44.7276 16.5177 43.7021 16.78 42.502 16.78V17.58C43.8219 17.58 44.9924 17.2903 45.9992 16.6965L45.5928 16.0075ZM42.502 16.05C43.5238 16.05 44.4323 15.8194 45.2124 15.3435L44.7957 14.6605C44.1598 15.0486 43.4003 15.25 42.502 15.25V16.05ZM45.2124 15.3435C45.9847 14.8722 46.5763 14.2278 46.9818 13.4169L46.2663 13.0591C45.9277 13.7362 45.4394 14.2678 44.7957 14.6605L45.2124 15.3435ZM46.9818 13.4169C47.3849 12.6107 47.582 11.7083 47.582 10.718H46.782C46.782 11.5997 46.6072 12.3773 46.2663 13.0591L46.9818 13.4169ZM47.582 10.718C47.582 9.72775 47.3849 8.82527 46.9818 8.01911L46.2663 8.37688C46.6072 9.05873 46.782 9.83625 46.782 10.718H47.582ZM46.9818 8.01911C46.5763 7.20819 45.9847 6.56376 45.2124 6.09254L44.7957 6.77546C45.4394 7.16824 45.9277 7.69981 46.2663 8.37689L46.9818 8.01911ZM45.2124 6.09254C44.4323 5.61655 43.5238 5.386 42.502 5.386V6.186C43.4003 6.186 44.1598 6.38744 44.7957 6.77546L45.2124 6.09254ZM42.502 5.386C41.4693 5.386 40.5545 5.61609 39.7737 6.09254L40.1904 6.77546C40.8255 6.38791 41.5907 6.186 42.502 6.186V5.386ZM39.7711 6.09414C39.0112 6.56581 38.4268 7.20998 38.0223 8.01911L38.7378 8.37689C39.0772 7.69802 39.5609 7.16619 40.193 6.77386L39.7711 6.09414ZM38.0223 8.01911C37.6192 8.82527 37.422 9.72775 37.422 10.718H38.222C38.222 9.83625 38.3969 9.05873 38.7378 8.37689L38.0223 8.01911ZM37.422 10.718C37.422 11.7083 37.6192 12.6107 38.0223 13.4169L38.7378 13.0591C38.3969 12.3773 38.222 11.5997 38.222 10.718H37.422ZM38.0223 13.4169C38.4268 14.226 39.0112 14.8702 39.7711 15.3419L40.193 14.6621C39.5609 14.2698 39.0772 13.738 38.7378 13.0591L38.0223 13.4169ZM39.7737 15.3435C40.5545 15.8199 41.4693 16.05 42.502 16.05V15.25C41.5907 15.25 40.8255 15.0481 40.1904 14.6605L39.7737 15.3435ZM54.7934 16.262L54.4236 16.4145L54.4264 16.4214L54.4295 16.4281L54.7934 16.262ZM50.3474 5.48L49.9726 5.62052L49.9776 5.63249L50.3474 5.48ZM50.5094 4.58L50.7922 4.86284L50.7979 4.85719L50.8033 4.85131L50.5094 4.58ZM51.5534 4.508L51.3001 4.81758L51.3152 4.82997L51.3315 4.84082L51.5534 4.508ZM51.8774 4.904L52.2487 4.75507L52.245 4.74643L51.8774 4.904ZM56.1074 15.452L55.7361 15.6009L56.1074 16.5267L56.4786 15.6009L56.1074 15.452ZM60.3374 4.904L59.9696 4.74639L59.9661 4.75512L60.3374 4.904ZM60.6434 4.508L60.8787 4.83153L60.8834 4.828L60.6434 4.508ZM61.7054 4.58L61.4114 4.85131L61.4169 4.85719L61.4225 4.86284L61.7054 4.58ZM61.8674 5.48L62.2373 5.63257L62.2419 5.62045L61.8674 5.48ZM57.4214 16.262L57.7852 16.4281L57.7883 16.4214L57.7912 16.4145L57.4214 16.262ZM55.9094 16.69C55.7435 16.69 55.6123 16.6453 55.4997 16.5618C55.3822 16.4746 55.2636 16.3289 55.1572 16.0959L54.4295 16.4281C54.5751 16.7471 54.7685 17.0154 55.023 17.2042C55.2824 17.3967 55.5832 17.49 55.9094 17.49V16.69ZM55.1632 16.1095L50.7172 5.32751L49.9776 5.63249L54.4236 16.4145L55.1632 16.1095ZM50.7219 5.33955C50.7036 5.29082 50.6934 5.23662 50.6934 5.174H49.8934C49.8934 5.32738 49.9191 5.47718 49.9728 5.62045L50.7219 5.33955ZM50.6934 5.174C50.6934 5.00139 50.7402 4.91485 50.7922 4.86284L50.2265 4.29716C49.9905 4.53315 49.8934 4.84261 49.8934 5.174H50.6934ZM50.8033 4.85131C50.8574 4.79267 50.9403 4.746 51.1034 4.746V3.946C50.7624 3.946 50.4493 4.05533 50.2154 4.30869L50.8033 4.85131ZM51.1034 4.746C51.1775 4.746 51.2383 4.76709 51.3001 4.81758L51.8067 4.19842C51.6044 4.03291 51.3652 3.946 51.1034 3.946V4.746ZM51.3315 4.84082C51.4072 4.89131 51.4665 4.96068 51.5097 5.06157L52.245 4.74643C52.1443 4.51132 51.9875 4.31669 51.7752 4.17518L51.3315 4.84082ZM51.5061 5.05288L55.7361 15.6009L56.4786 15.3031L52.2486 4.75512L51.5061 5.05288ZM56.4786 15.6009L60.7086 5.05288L59.9661 4.75512L55.7361 15.3031L56.4786 15.6009ZM60.705 5.06157C60.7521 4.95166 60.8117 4.8802 60.8786 4.8315L60.4081 4.1845C60.2111 4.3278 60.0666 4.52034 59.9697 4.74643L60.705 5.06157ZM60.8834 4.828C60.9634 4.76798 61.0363 4.746 61.1114 4.746V3.946C60.8505 3.946 60.6113 4.03201 60.4034 4.188L60.8834 4.828ZM61.1114 4.746C61.2744 4.746 61.3573 4.79267 61.4114 4.85131L61.9993 4.30869C61.7654 4.05533 61.4523 3.946 61.1114 3.946V4.746ZM61.4225 4.86284C61.4745 4.91485 61.5214 5.00139 61.5214 5.174H62.3214C62.3214 4.84261 62.2242 4.53315 61.9882 4.29716L61.4225 4.86284ZM61.5214 5.174C61.5214 5.23662 61.5111 5.29082 61.4928 5.33955L62.2419 5.62045C62.2956 5.47718 62.3214 5.32738 62.3214 5.174H61.5214ZM61.4976 5.32751L57.0516 16.1095L57.7912 16.4145L62.2372 5.63249L61.4976 5.32751ZM57.0575 16.0959C56.9511 16.3289 56.8325 16.4746 56.715 16.5618C56.6024 16.6453 56.4712 16.69 56.3054 16.69V17.49C56.6315 17.49 56.9323 17.3967 57.1917 17.2042C57.4462 17.0154 57.6396 16.7471 57.7852 16.4281L57.0575 16.0959ZM56.3054 16.69H55.9094V17.49H56.3054V16.69ZM62.9904 16.856L62.6965 17.1273L62.7019 17.1332L62.7075 17.1388L62.9904 16.856ZM62.8644 15.92L62.4961 15.764L62.4952 15.7662L62.8644 15.92ZM67.4544 5.084L67.0888 4.92152L67.0861 4.92798L67.4544 5.084ZM67.8504 4.562L68.0975 4.87654L68.1003 4.87435L67.8504 4.562ZM69.3084 4.562L69.0481 4.8657L69.0596 4.87558L69.0718 4.88456L69.3084 4.562ZM69.7224 5.084L70.0908 4.92796L70.0879 4.92154L69.7224 5.084ZM74.3124 15.92L74.6816 15.7662L74.6807 15.764L74.3124 15.92ZM74.1684 16.856L73.8855 16.5732L73.8799 16.5788L73.8745 16.5847L74.1684 16.856ZM73.1244 16.964L72.8891 17.2875L72.9054 17.2994L72.9228 17.3095L73.1244 16.964ZM72.8184 16.586L72.4492 16.7398L72.4521 16.7468L72.4552 16.7536L72.8184 16.586ZM71.6484 13.778L72.0176 13.6242L71.9151 13.378H71.6484V13.778ZM65.5284 13.778V13.378H65.2617L65.1592 13.6242L65.5284 13.778ZM64.3584 16.586L64.7216 16.7536L64.7247 16.7468L64.7276 16.7398L64.3584 16.586ZM64.0344 16.964L64.2492 17.3015L64.2563 17.2968L64.0344 16.964ZM66.1584 12.284L65.789 12.1306L65.5591 12.684H66.1584V12.284ZM71.0184 12.284V12.684H71.6177L71.3878 12.1306L71.0184 12.284ZM68.5884 6.434L68.9578 6.28056L68.5884 5.39126L68.219 6.28056L68.5884 6.434ZM63.5844 16.69C63.4402 16.69 63.3473 16.6472 63.2732 16.5732L62.7075 17.1388C62.9455 17.3768 63.2486 17.49 63.5844 17.49V16.69ZM63.2843 16.5847C63.2138 16.5083 63.1744 16.4156 63.1744 16.28H62.3744C62.3744 16.6004 62.4789 16.8917 62.6965 17.1273L63.2843 16.5847ZM63.1744 16.28C63.1744 16.2596 63.1828 16.1958 63.2336 16.0738L62.4952 15.7662C62.426 15.9322 62.3744 16.1084 62.3744 16.28H63.1744ZM63.2327 16.076L67.8227 5.24001L67.0861 4.92798L62.4961 15.764L63.2327 16.076ZM67.8199 5.24646C67.8923 5.08359 67.9861 4.9641 68.0975 4.87653L67.6033 4.24747C67.3787 4.4239 67.2085 4.65241 67.0889 4.92154L67.8199 5.24646ZM68.1003 4.87435C68.2026 4.79248 68.3282 4.746 68.4984 4.746V3.946C68.1646 3.946 67.8582 4.04352 67.6005 4.24965L68.1003 4.87435ZM68.4984 4.746H68.6784V3.946H68.4984V4.746ZM68.6784 4.746C68.849 4.746 68.9626 4.79244 69.0481 4.8657L69.5687 4.2583C69.3182 4.04356 69.0118 3.946 68.6784 3.946V4.746ZM69.0718 4.88456C69.1923 4.97289 69.2874 5.09026 69.3569 5.24645L70.0879 4.92154C69.9653 4.64574 69.7845 4.41511 69.5449 4.23944L69.0718 4.88456ZM69.3541 5.24001L73.9441 16.076L74.6807 15.764L70.0907 4.92798L69.3541 5.24001ZM73.9432 16.0738C73.994 16.1958 74.0024 16.2596 74.0024 16.28H74.8024C74.8024 16.1084 74.7508 15.9322 74.6816 15.7662L73.9432 16.0738ZM74.0024 16.28C74.0024 16.4059 73.9638 16.4949 73.8855 16.5732L74.4512 17.1388C74.685 16.9051 74.8024 16.6101 74.8024 16.28H74.0024ZM73.8745 16.5847C73.8165 16.6475 73.7368 16.69 73.5924 16.69V17.49C73.9279 17.49 74.2323 17.3765 74.4623 17.1273L73.8745 16.5847ZM73.5924 16.69C73.4946 16.69 73.4083 16.6665 73.3259 16.6185L72.9228 17.3095C73.1285 17.4295 73.3541 17.49 73.5924 17.49V16.69ZM73.3597 16.6405C73.2858 16.5868 73.2265 16.5157 73.1816 16.4184L72.4552 16.7536C72.5543 16.9683 72.6989 17.1492 72.8891 17.2875L73.3597 16.6405ZM73.1876 16.4322L72.0176 13.6242L71.2792 13.9318L72.4492 16.7398L73.1876 16.4322ZM71.6484 13.378H65.5284V14.178H71.6484V13.378ZM65.1592 13.6242L63.9892 16.4322L64.7276 16.7398L65.8976 13.9318L65.1592 13.6242ZM63.9952 16.4184C63.9544 16.5068 63.8955 16.5758 63.8125 16.6312L64.2563 17.2968C64.4612 17.1602 64.6184 16.9772 64.7216 16.7536L63.9952 16.4184ZM63.8196 16.6265C63.7566 16.6667 63.6822 16.69 63.5844 16.69V17.49C63.8226 17.49 64.0482 17.4293 64.2491 17.3015L63.8196 16.6265ZM66.1584 12.684H71.0184V11.884H66.1584V12.684ZM71.3878 12.1306L68.9578 6.28056L68.219 6.58744L70.649 12.4374L71.3878 12.1306ZM68.219 6.28056L65.789 12.1306L66.5278 12.4374L68.9578 6.58744L68.219 6.28056ZM77.5901 16.766L77.8729 16.4832L77.5901 16.766ZM77.5901 4.688L77.8729 4.97084L77.8782 4.96561L77.8832 4.96018L77.5901 4.688ZM85.9241 4.67L85.6302 4.94131L85.641 4.95307L85.6528 4.96392L85.9241 4.67ZM85.9241 5.75L85.6528 5.45608L85.6469 5.4615L85.6412 5.46716L85.9241 5.75ZM78.9941 5.966V5.566H78.5941V5.966H78.9941ZM78.9941 9.944H78.5941V10.344H78.9941V9.944ZM85.2761 10.178L84.9822 10.4493L84.993 10.4611L85.0048 10.4719L85.2761 10.178ZM85.2761 11.258L85.0048 10.9641L84.9989 10.9695L84.9932 10.9752L85.2761 11.258ZM78.9941 11.474V11.074H78.5941V11.474H78.9941ZM78.9941 15.47H78.5941V15.87H78.9941V15.47ZM85.9241 15.704L85.6302 15.9753L85.641 15.9871L85.6528 15.9979L85.9241 15.704ZM85.9241 16.784L85.6528 16.4901L85.6469 16.4955L85.6412 16.5012L85.9241 16.784ZM78.1661 16.6C78.0402 16.6 77.9511 16.5614 77.8729 16.4832L77.3072 17.0488C77.541 17.2826 77.836 17.4 78.1661 17.4V16.6ZM77.8729 16.4832C77.7947 16.4049 77.7561 16.3159 77.7561 16.19H76.9561C76.9561 16.5201 77.0735 16.8151 77.3072 17.0488L77.8729 16.4832ZM77.7561 16.19V5.264H76.9561V16.19H77.7561ZM77.7561 5.264C77.7561 5.13812 77.7947 5.04907 77.8729 4.97084L77.3072 4.40516C77.0735 4.63893 76.9561 4.93388 76.9561 5.264H77.7561ZM77.8832 4.96018C77.964 4.87317 78.05 4.836 78.1661 4.836V4.036C77.8262 4.036 77.5282 4.16683 77.297 4.41582L77.8832 4.96018ZM78.1661 4.836H85.3841V4.036H78.1661V4.836ZM85.3841 4.836C85.4906 4.836 85.5634 4.86896 85.6302 4.94131L86.218 4.39869C85.9968 4.15904 85.7095 4.036 85.3841 4.036V4.836ZM85.6528 4.96392C85.7251 5.03071 85.7581 5.10343 85.7581 5.21H86.5581C86.5581 4.88457 86.435 4.59729 86.1954 4.37608L85.6528 4.96392ZM85.7581 5.21C85.7581 5.31657 85.7251 5.38929 85.6528 5.45608L86.1954 6.04392C86.435 5.82271 86.5581 5.53543 86.5581 5.21H85.7581ZM85.6412 5.46716C85.5772 5.53124 85.5011 5.566 85.3841 5.566V6.366C85.699 6.366 85.983 6.25676 86.2069 6.03284L85.6412 5.46716ZM85.3841 5.566H78.9941V6.366H85.3841V5.566ZM78.5941 5.966V9.944H79.3941V5.966H78.5941ZM78.9941 10.344H84.7361V9.544H78.9941V10.344ZM84.7361 10.344C84.8427 10.344 84.9154 10.377 84.9822 10.4493L85.57 9.90669C85.3488 9.66704 85.0615 9.544 84.7361 9.544V10.344ZM85.0048 10.4719C85.0771 10.5387 85.1101 10.6114 85.1101 10.718H85.9101C85.9101 10.3926 85.787 10.1053 85.5474 9.88408L85.0048 10.4719ZM85.1101 10.718C85.1101 10.8246 85.0771 10.8973 85.0048 10.9641L85.5474 11.5519C85.787 11.3307 85.9101 11.0434 85.9101 10.718H85.1101ZM84.9932 10.9752C84.9292 11.0392 84.8531 11.074 84.7361 11.074V11.874C85.051 11.874 85.335 11.7648 85.5589 11.5408L84.9932 10.9752ZM84.7361 11.074H78.9941V11.874H84.7361V11.074ZM78.5941 11.474V15.47H79.3941V11.474H78.5941ZM78.9941 15.87H85.3841V15.07H78.9941V15.87ZM85.3841 15.87C85.4906 15.87 85.5634 15.903 85.6302 15.9753L86.218 15.4327C85.9968 15.193 85.7095 15.07 85.3841 15.07V15.87ZM85.6528 15.9979C85.7251 16.0647 85.7581 16.1374 85.7581 16.244H86.5581C86.5581 15.9186 86.435 15.6313 86.1954 15.4101L85.6528 15.9979ZM85.7581 16.244C85.7581 16.3506 85.7251 16.4233 85.6528 16.4901L86.1954 17.0779C86.435 16.8567 86.5581 16.5694 86.5581 16.244H85.7581ZM85.6412 16.5012C85.5772 16.5652 85.5011 16.6 85.3841 16.6V17.4C85.699 17.4 85.983 17.2908 86.2069 17.0668L85.6412 16.5012ZM85.3841 16.6H78.1661V17.4H85.3841V16.6ZM92.2906 16.856L92.0078 17.1388L92.2906 16.856ZM92.0566 5.966H92.4566V5.566H92.0566V5.966ZM87.8446 5.75L87.5618 6.03284V6.03284L87.8446 5.75ZM87.8446 4.67L88.1274 4.95284L88.1331 4.94719L88.1385 4.94131L87.8446 4.67ZM97.8886 4.67L97.5947 4.94131L97.6055 4.95307L97.6173 4.96392L97.8886 4.67ZM97.8886 5.75L97.6173 5.45608L97.6114 5.4615L97.6058 5.46716L97.8886 5.75ZM93.6946 5.966V5.566H93.2946V5.966H93.6946ZM93.4426 16.856L93.1704 16.5629L93.165 16.5679L93.1598 16.5732L93.4426 16.856ZM92.8666 16.69C92.7407 16.69 92.6517 16.6514 92.5734 16.5732L92.0078 17.1388C92.2415 17.3726 92.5365 17.49 92.8666 17.49V16.69ZM92.5734 16.5732C92.4952 16.4949 92.4566 16.4059 92.4566 16.28H91.6566C91.6566 16.6101 91.774 16.9051 92.0078 17.1388L92.5734 16.5732ZM92.4566 16.28V5.966H91.6566V16.28H92.4566ZM92.0566 5.566H88.3846V6.366H92.0566V5.566ZM88.3846 5.566C88.2675 5.566 88.1915 5.53124 88.1274 5.46716L87.5618 6.03284C87.7857 6.25676 88.0696 6.366 88.3846 6.366V5.566ZM88.1274 5.46716C88.0634 5.40308 88.0286 5.32705 88.0286 5.21H87.2286C87.2286 5.52494 87.3378 5.80892 87.5618 6.03284L88.1274 5.46716ZM88.0286 5.21C88.0286 5.09294 88.0634 5.01692 88.1274 4.95284L87.5618 4.38716C87.3378 4.61107 87.2286 4.89505 87.2286 5.21H88.0286ZM88.1385 4.94131C88.2053 4.86896 88.278 4.836 88.3846 4.836V4.036C88.0592 4.036 87.7719 4.15904 87.5507 4.39869L88.1385 4.94131ZM88.3846 4.836H97.3486V4.036H88.3846V4.836ZM97.3486 4.836C97.4552 4.836 97.5279 4.86896 97.5947 4.94131L98.1825 4.39869C97.9613 4.15904 97.674 4.036 97.3486 4.036V4.836ZM97.6173 4.96392C97.6896 5.03071 97.7226 5.10343 97.7226 5.21H98.5226C98.5226 4.88457 98.3996 4.59729 98.1599 4.37608L97.6173 4.96392ZM97.7226 5.21C97.7226 5.31657 97.6896 5.38929 97.6173 5.45608L98.1599 6.04392C98.3996 5.82271 98.5226 5.53543 98.5226 5.21H97.7226ZM97.6058 5.46716C97.5417 5.53124 97.4657 5.566 97.3486 5.566V6.366C97.6635 6.366 97.9475 6.25676 98.1714 6.03284L97.6058 5.46716ZM97.3486 5.566H93.6946V6.366H97.3486V5.566ZM93.2946 5.966V16.28H94.0946V5.966H93.2946ZM93.2946 16.28C93.2946 16.3961 93.2574 16.4821 93.1704 16.5629L93.7148 17.1491C93.9638 16.9179 94.0946 16.6199 94.0946 16.28H93.2946ZM93.1598 16.5732C93.0815 16.6514 92.9925 16.69 92.8666 16.69V17.49C93.1967 17.49 93.4917 17.3726 93.7254 17.1388L93.1598 16.5732ZM100.649 16.766L100.932 16.4832L100.649 16.766ZM100.649 4.688L100.932 4.97084L100.937 4.96561L100.942 4.96018L100.649 4.688ZM108.983 4.67L108.689 4.94131L108.7 4.95307L108.712 4.96392L108.983 4.67ZM108.983 5.75L108.712 5.45608L108.706 5.4615L108.701 5.46716L108.983 5.75ZM102.053 5.966V5.566H101.653V5.966H102.053ZM102.053 9.944H101.653V10.344H102.053V9.944ZM108.335 10.178L108.041 10.4493L108.052 10.4611L108.064 10.4719L108.335 10.178ZM108.335 11.258L108.064 10.9641L108.058 10.9695L108.052 10.9752L108.335 11.258ZM102.053 11.474V11.074H101.653V11.474H102.053ZM102.053 15.47H101.653V15.87H102.053V15.47ZM108.983 15.704L108.689 15.9753L108.7 15.9871L108.712 15.9979L108.983 15.704ZM108.983 16.784L108.712 16.4901L108.706 16.4955L108.701 16.5012L108.983 16.784ZM101.225 16.6C101.099 16.6 101.01 16.5614 100.932 16.4832L100.367 17.0488C100.6 17.2826 100.895 17.4 101.225 17.4V16.6ZM100.932 16.4832C100.854 16.4049 100.815 16.3159 100.815 16.19H100.015C100.015 16.5201 100.133 16.8151 100.367 17.0488L100.932 16.4832ZM100.815 16.19V5.264H100.015V16.19H100.815ZM100.815 5.264C100.815 5.13812 100.854 5.04907 100.932 4.97084L100.367 4.40516C100.133 4.63893 100.015 4.93388 100.015 5.264H100.815ZM100.942 4.96018C101.023 4.87317 101.109 4.836 101.225 4.836V4.036C100.885 4.036 100.587 4.16683 100.356 4.41582L100.942 4.96018ZM101.225 4.836H108.443V4.036H101.225V4.836ZM108.443 4.836C108.55 4.836 108.623 4.86896 108.689 4.94131L109.277 4.39869C109.056 4.15904 108.769 4.036 108.443 4.036V4.836ZM108.712 4.96392C108.784 5.03071 108.817 5.10343 108.817 5.21H109.617C109.617 4.88457 109.494 4.59729 109.255 4.37608L108.712 4.96392ZM108.817 5.21C108.817 5.31657 108.784 5.38929 108.712 5.45608L109.255 6.04392C109.494 5.82271 109.617 5.53543 109.617 5.21H108.817ZM108.701 5.46716C108.636 5.53124 108.56 5.566 108.443 5.566V6.366C108.758 6.366 109.042 6.25676 109.266 6.03284L108.701 5.46716ZM108.443 5.566H102.053V6.366H108.443V5.566ZM101.653 5.966V9.944H102.453V5.966H101.653ZM102.053 10.344H107.795V9.544H102.053V10.344ZM107.795 10.344C107.902 10.344 107.975 10.377 108.041 10.4493L108.629 9.90669C108.408 9.66704 108.121 9.544 107.795 9.544V10.344ZM108.064 10.4719C108.136 10.5387 108.169 10.6114 108.169 10.718H108.969C108.969 10.3926 108.846 10.1053 108.607 9.88408L108.064 10.4719ZM108.169 10.718C108.169 10.8246 108.136 10.8973 108.064 10.9641L108.607 11.5519C108.846 11.3307 108.969 11.0434 108.969 10.718H108.169ZM108.052 10.9752C107.988 11.0392 107.912 11.074 107.795 11.074V11.874C108.11 11.874 108.394 11.7648 108.618 11.5408L108.052 10.9752ZM107.795 11.074H102.053V11.874H107.795V11.074ZM101.653 11.474V15.47H102.453V11.474H101.653ZM102.053 15.87H108.443V15.07H102.053V15.87ZM108.443 15.87C108.55 15.87 108.623 15.903 108.689 15.9753L109.277 15.4327C109.056 15.193 108.769 15.07 108.443 15.07V15.87ZM108.712 15.9979C108.784 16.0647 108.817 16.1374 108.817 16.244H109.617C109.617 15.9186 109.494 15.6313 109.255 15.4101L108.712 15.9979ZM108.817 16.244C108.817 16.3506 108.784 16.4233 108.712 16.4901L109.255 17.0779C109.494 16.8567 109.617 16.5694 109.617 16.244H108.817ZM108.701 16.5012C108.636 16.5652 108.56 16.6 108.443 16.6V17.4C108.758 17.4 109.042 17.2908 109.266 17.0668L108.701 16.5012ZM108.443 16.6H101.225V17.4H108.443V16.6ZM114.381 16.406L114.186 16.7555L114.191 16.7583L114.381 16.406ZM112.131 14.156L111.78 14.3485L111.783 14.3535L112.131 14.156ZM112.131 7.298L111.782 7.1023L111.781 7.10374L112.131 7.298ZM114.381 5.048L114.572 5.39933L114.574 5.39849L114.381 5.048ZM119.799 4.544L119.683 4.92694L119.685 4.92752L119.799 4.544ZM121.725 5.372L121.528 5.72015L121.533 5.72316L121.725 5.372ZM121.923 6.542L122.206 6.82484L122.212 6.8187L122.218 6.81229L121.923 6.542ZM121.077 6.668L120.891 7.02255L120.898 7.02577L121.077 6.668ZM119.529 6.038L119.639 5.65339L119.529 6.038ZM115.137 6.47L115.338 6.81552L115.34 6.81448L115.137 6.47ZM113.499 8.216L113.141 8.03711L113.14 8.03947L113.499 8.216ZM113.499 13.238L113.139 13.4123L113.142 13.4192L113.499 13.238ZM115.137 14.984L114.931 15.3271L114.938 15.3309L115.137 14.984ZM119.529 15.398L119.639 15.7826L119.529 15.398ZM121.077 14.768L120.898 14.4102L120.892 14.4135L121.077 14.768ZM121.923 14.894L122.206 14.6112L122.206 14.6112L121.923 14.894ZM121.725 16.064L121.533 15.7128L121.528 15.7159L121.725 16.064ZM119.799 16.892L119.685 16.5085L119.683 16.5091L119.799 16.892ZM117.621 16.78C116.48 16.78 115.466 16.5353 114.57 16.0537L114.191 16.7583C115.215 17.3087 116.362 17.58 117.621 17.58V16.78ZM114.575 16.0565C113.693 15.5653 112.996 14.8688 112.479 13.9585L111.783 14.3535C112.37 15.3872 113.172 16.1907 114.186 16.7555L114.575 16.0565ZM112.481 13.9636C111.979 13.0476 111.721 11.9699 111.721 10.718H110.921C110.921 12.0821 111.203 13.2964 111.78 14.3484L112.481 13.9636ZM111.721 10.718C111.721 9.46594 111.979 8.39513 112.48 7.49226L111.781 7.10374C111.203 8.14487 110.921 9.35406 110.921 10.718H111.721ZM112.48 7.4937C112.997 6.57225 113.693 5.87765 114.572 5.39933L114.19 4.69667C113.172 5.25035 112.369 6.05574 111.782 7.1023L112.48 7.4937ZM114.574 5.39849C115.469 4.906 116.482 4.656 117.621 4.656V3.856C116.36 3.856 115.213 4.134 114.188 4.69751L114.574 5.39849ZM117.621 4.656C118.406 4.656 119.092 4.74848 119.683 4.92693L119.914 4.16107C119.234 3.95551 118.467 3.856 117.621 3.856V4.656ZM119.685 4.92752C120.302 5.11024 120.916 5.37383 121.528 5.7201L121.922 5.0239C121.262 4.65017 120.592 4.36175 119.912 4.16048L119.685 4.92752ZM121.533 5.72316C121.61 5.76511 121.651 5.80947 121.676 5.85141C121.7 5.89414 121.721 5.95734 121.721 6.056H122.521C122.521 5.84266 122.475 5.63586 122.368 5.45058C122.26 5.26453 122.103 5.12289 121.916 5.02084L121.533 5.72316ZM121.721 6.056C121.721 6.12701 121.699 6.19464 121.628 6.27171L122.218 6.81229C122.411 6.60136 122.521 6.34499 122.521 6.056H121.721ZM121.64 6.25916C121.595 6.30428 121.529 6.34 121.401 6.34V7.14C121.705 7.14 121.987 7.04372 122.206 6.82484L121.64 6.25916ZM121.401 6.34C121.335 6.34 121.29 6.32732 121.256 6.31023L120.898 7.02577C121.056 7.10468 121.226 7.14 121.401 7.14V6.34ZM121.262 6.31351C120.713 6.02661 120.172 5.80578 119.639 5.65339L119.419 6.42261C119.894 6.55822 120.384 6.75739 120.892 7.02249L121.262 6.31351ZM119.639 5.65339C119.091 5.49694 118.471 5.422 117.783 5.422V6.222C118.415 6.222 118.958 6.29106 119.419 6.42261L119.639 5.65339ZM117.783 5.422C116.695 5.422 115.739 5.65011 114.934 6.12552L115.34 6.81448C115.999 6.42589 116.807 6.222 117.783 6.222V5.422ZM114.935 6.12449C114.148 6.58358 113.548 7.22341 113.141 8.03711L113.857 8.39489C114.194 7.72058 114.685 7.19642 115.338 6.81551L114.935 6.12449ZM113.14 8.03947C112.749 8.83397 112.559 9.72983 112.559 10.718H113.359C113.359 9.83417 113.528 9.06203 113.858 8.39253L113.14 8.03947ZM112.559 10.718C112.559 11.7063 112.749 12.6071 113.139 13.4122L113.859 13.0638C113.528 12.3809 113.359 11.6017 113.359 10.718H112.559ZM113.142 13.4192C113.549 14.2198 114.148 14.8572 114.931 15.327L115.343 14.641C114.686 14.2468 114.193 13.7202 113.855 13.0568L113.142 13.4192ZM114.938 15.3309C115.742 15.7927 116.696 16.014 117.783 16.014V15.214C116.805 15.214 115.995 15.0153 115.336 14.6371L114.938 15.3309ZM117.783 16.014C118.471 16.014 119.091 15.9391 119.639 15.7826L119.419 15.0134C118.958 15.1449 118.415 15.214 117.783 15.214V16.014ZM119.639 15.7826C120.172 15.6302 120.713 15.4094 121.262 15.1225L120.892 14.4135C120.384 14.6786 119.894 14.8778 119.419 15.0134L119.639 15.7826ZM121.256 15.1258C121.29 15.1087 121.336 15.096 121.401 15.096V14.296C121.226 14.296 121.056 14.3313 120.898 14.4102L121.256 15.1258ZM121.401 15.096C121.529 15.096 121.595 15.1317 121.64 15.1768L122.206 14.6112C121.987 14.3923 121.705 14.296 121.401 14.296V15.096ZM121.64 15.1768C121.695 15.2315 121.721 15.2907 121.721 15.38H122.521C122.521 15.0853 122.415 14.8205 122.206 14.6112L121.64 15.1768ZM121.721 15.38C121.721 15.4787 121.7 15.5419 121.676 15.5846C121.651 15.6265 121.61 15.6709 121.533 15.7128L121.916 16.4152C122.103 16.3131 122.26 16.1715 122.368 15.9854C122.475 15.8001 122.521 15.5933 122.521 15.38H121.721ZM121.528 15.7159C120.916 16.0622 120.302 16.3258 119.685 16.5085L119.912 17.2755C120.592 17.0742 121.262 16.7858 121.922 16.4121L121.528 15.7159ZM119.683 16.5091C119.092 16.6875 118.406 16.78 117.621 16.78V17.58C118.467 17.58 119.234 17.4805 119.914 17.2749L119.683 16.5091ZM125.132 16.856L125.415 16.5732V16.5732L125.132 16.856ZM125.132 4.598L125.415 4.88084L125.421 4.87561L125.426 4.87018L125.132 4.598ZM126.284 4.598L125.991 4.87018L126.001 4.88104L126.012 4.89112L126.284 4.598ZM126.536 9.962H126.136V10.362H126.536V9.962ZM133.358 9.962V10.362H133.758V9.962H133.358ZM133.592 4.598L133.875 4.88084L133.881 4.87561L133.886 4.87018L133.592 4.598ZM134.744 4.598L134.451 4.87018L134.461 4.88104L134.472 4.89112L134.744 4.598ZM134.744 16.856L134.472 16.5629L134.467 16.5679L134.462 16.5732L134.744 16.856ZM133.592 16.856L133.31 17.1388L133.592 16.856ZM133.358 11.492H133.758V11.092H133.358V11.492ZM126.536 11.492V11.092H126.136V11.492H126.536ZM126.284 16.856L126.012 16.5629L126.007 16.5679L126.002 16.5732L126.284 16.856ZM125.708 16.69C125.583 16.69 125.494 16.6514 125.415 16.5732L124.85 17.1388C125.083 17.3726 125.378 17.49 125.708 17.49V16.69ZM125.415 16.5732C125.337 16.4949 125.298 16.4059 125.298 16.28H124.498C124.498 16.6101 124.616 16.9051 124.85 17.1388L125.415 16.5732ZM125.298 16.28V5.174H124.498V16.28H125.298ZM125.298 5.174C125.298 5.04812 125.337 4.95907 125.415 4.88084L124.85 4.31516C124.616 4.54893 124.498 4.84388 124.498 5.174H125.298ZM125.426 4.87018C125.506 4.78317 125.592 4.746 125.708 4.746V3.946C125.369 3.946 125.071 4.07683 124.839 4.32582L125.426 4.87018ZM125.708 4.746C125.825 4.746 125.911 4.78317 125.991 4.87018L126.578 4.32582C126.346 4.07683 126.048 3.946 125.708 3.946V4.746ZM126.012 4.89112C126.099 4.97191 126.136 5.05792 126.136 5.174H126.936C126.936 4.83407 126.806 4.53609 126.557 4.30488L126.012 4.89112ZM126.136 5.174V9.962H126.936V5.174H126.136ZM126.536 10.362H133.358V9.562H126.536V10.362ZM133.758 9.962V5.174H132.958V9.962H133.758ZM133.758 5.174C133.758 5.04812 133.797 4.95907 133.875 4.88084L133.31 4.31516C133.076 4.54893 132.958 4.84388 132.958 5.174H133.758ZM133.886 4.87018C133.966 4.78317 134.052 4.746 134.168 4.746V3.946C133.829 3.946 133.531 4.07683 133.299 4.32582L133.886 4.87018ZM134.168 4.746C134.285 4.746 134.371 4.78317 134.451 4.87018L135.038 4.32582C134.806 4.07683 134.508 3.946 134.168 3.946V4.746ZM134.472 4.89112C134.559 4.97191 134.596 5.05792 134.596 5.174H135.396C135.396 4.83407 135.266 4.53609 135.017 4.30488L134.472 4.89112ZM134.596 5.174V16.28H135.396V5.174H134.596ZM134.596 16.28C134.596 16.3961 134.559 16.4821 134.472 16.5629L135.017 17.1491C135.266 16.9179 135.396 16.6199 135.396 16.28H134.596ZM134.462 16.5732C134.383 16.6514 134.294 16.69 134.168 16.69V17.49C134.499 17.49 134.794 17.3726 135.027 17.1388L134.462 16.5732ZM134.168 16.69C134.043 16.69 133.954 16.6514 133.875 16.5732L133.31 17.1388C133.543 17.3726 133.838 17.49 134.168 17.49V16.69ZM133.875 16.5732C133.797 16.4949 133.758 16.4059 133.758 16.28H132.958C132.958 16.6101 133.076 16.9051 133.31 17.1388L133.875 16.5732ZM133.758 16.28V11.492H132.958V16.28H133.758ZM133.358 11.092H126.536V11.892H133.358V11.092ZM126.136 11.492V16.28H126.936V11.492H126.136ZM126.136 16.28C126.136 16.3961 126.099 16.4821 126.012 16.5629L126.557 17.1491C126.806 16.9179 126.936 16.6199 126.936 16.28H126.136ZM126.002 16.5732C125.923 16.6514 125.834 16.69 125.708 16.69V17.49C126.039 17.49 126.334 17.3726 126.567 17.1388L126.002 16.5732Z" fill="#323232" mask="url(#path-1-outside-1_2844_166)"/>
<path d="M2.272 37C2.06933 37 1.89867 36.9307 1.76 36.792C1.62133 36.6533 1.552 36.4827 1.552 36.28V26.568C1.552 26.3653 1.62133 26.1947 1.76 26.056C1.89867 25.9067 2.06933 25.832 2.272 25.832H5.488C6.704 25.832 7.73333 26.104 8.576 26.648C9.42933 27.1813 10.0693 27.8747 10.496 28.728C10.9227 29.5813 11.136 30.4773 11.136 31.416C11.136 32.3547 10.9227 33.2507 10.496 34.104C10.0693 34.9573 9.42933 35.656 8.576 36.2C7.73333 36.7333 6.704 37 5.488 37H2.272ZM5.312 35.64C6.18667 35.64 6.95467 35.464 7.616 35.112C8.27733 34.7493 8.78933 34.2533 9.152 33.624C9.51467 32.984 9.696 32.248 9.696 31.416C9.696 30.584 9.51467 29.8533 9.152 29.224C8.78933 28.584 8.27733 28.088 7.616 27.736C6.95467 27.3733 6.18667 27.192 5.312 27.192H3.008V35.64H5.312ZM16.9028 37.16C15.6014 37.16 14.5828 36.792 13.8468 36.056C13.1214 35.3093 12.7588 34.264 12.7588 32.92C12.7588 32.1627 12.8974 31.464 13.1748 30.824C13.4521 30.184 13.8788 29.6667 14.4548 29.272C15.0308 28.8773 15.7401 28.68 16.5828 28.68C17.3721 28.68 18.0548 28.8667 18.6308 29.24C19.2068 29.6027 19.6441 30.0933 19.9428 30.712C20.2414 31.32 20.3908 31.9867 20.3908 32.712C20.3908 32.9147 20.3214 33.0853 20.1828 33.224C20.0548 33.3627 19.8788 33.432 19.6548 33.432H14.2308C14.3161 34.1787 14.5934 34.76 15.0628 35.176C15.5321 35.592 16.1881 35.8 17.0308 35.8C17.4788 35.8 17.8681 35.7573 18.1988 35.672C18.5401 35.5867 18.8708 35.464 19.1908 35.304C19.2761 35.2613 19.3721 35.24 19.4788 35.24C19.6494 35.24 19.7988 35.2987 19.9268 35.416C20.0548 35.5333 20.1188 35.6827 20.1188 35.864C20.1188 36.0987 19.9801 36.296 19.7028 36.456C19.2868 36.6907 18.8761 36.8667 18.4708 36.984C18.0654 37.1013 17.5428 37.16 16.9028 37.16ZM18.9508 32.248C18.9188 31.7253 18.7801 31.288 18.5348 30.936C18.3001 30.584 18.0068 30.328 17.6548 30.168C17.3028 29.9973 16.9454 29.912 16.5828 29.912C16.2201 29.912 15.8628 29.9973 15.5108 30.168C15.1588 30.328 14.8654 30.584 14.6308 30.936C14.3961 31.288 14.2628 31.7253 14.2308 32.248H18.9508ZM25.2293 37.16C24.1626 37.16 23.1919 36.92 22.3173 36.44C22.1359 36.312 22.0453 36.136 22.0453 35.912C22.0453 35.7413 22.1039 35.592 22.2213 35.464C22.3386 35.336 22.4879 35.272 22.6693 35.272C22.7653 35.272 22.8613 35.2933 22.9573 35.336C23.2986 35.4853 23.6399 35.6027 23.9813 35.688C24.3226 35.7733 24.7066 35.816 25.1333 35.816C26.3173 35.816 26.9093 35.4373 26.9093 34.68C26.9093 34.4347 26.7706 34.248 26.4933 34.12C26.2266 33.992 25.7839 33.848 25.1653 33.688C24.5359 33.5387 24.0133 33.384 23.5973 33.224C23.1919 33.064 22.8399 32.824 22.5413 32.504C22.2533 32.1733 22.1093 31.7413 22.1093 31.208C22.1093 30.4613 22.3759 29.8533 22.9093 29.384C23.4533 28.9147 24.2266 28.68 25.2293 28.68C26.0506 28.68 26.8239 28.8133 27.5493 29.08C27.6986 29.1227 27.8106 29.2027 27.8853 29.32C27.9706 29.4373 28.0133 29.56 28.0133 29.688C28.0133 29.8587 27.9493 30.008 27.8213 30.136C27.7039 30.264 27.5546 30.328 27.3733 30.328C27.3199 30.328 27.2506 30.3173 27.1653 30.296C26.5466 30.104 25.9386 30.008 25.3413 30.008C24.7653 30.008 24.3119 30.1147 23.9813 30.328C23.6613 30.5307 23.5013 30.7973 23.5013 31.128C23.5013 31.448 23.6506 31.6827 23.9493 31.832C24.2479 31.9813 24.7119 32.1253 25.3413 32.264C25.9706 32.424 26.4826 32.584 26.8773 32.744C27.2719 32.8933 27.6079 33.1333 27.8853 33.464C28.1733 33.7947 28.3173 34.2373 28.3173 34.792C28.3173 35.4747 28.0453 36.04 27.5013 36.488C26.9679 36.936 26.2106 37.16 25.2293 37.16ZM31.2368 27.176C31.0128 27.176 30.8208 27.096 30.6608 26.936C30.5008 26.776 30.4208 26.584 30.4208 26.36V26.296C30.4208 26.072 30.5008 25.88 30.6608 25.72C30.8208 25.56 31.0128 25.48 31.2368 25.48H31.3328C31.5568 25.48 31.7488 25.56 31.9088 25.72C32.0688 25.88 32.1488 26.072 32.1488 26.296V26.36C32.1488 26.584 32.0688 26.776 31.9088 26.936C31.7488 27.096 31.5568 27.176 31.3328 27.176H31.2368ZM31.2688 37.08C31.0661 37.08 30.8954 37.0107 30.7568 36.872C30.6181 36.7333 30.5488 36.5627 30.5488 36.36V29.496C30.5488 29.2933 30.6181 29.1227 30.7568 28.984C30.8954 28.8347 31.0661 28.76 31.2688 28.76C31.4821 28.76 31.6581 28.8293 31.7968 28.968C31.9354 29.1067 32.0048 29.2827 32.0048 29.496V36.36C32.0048 36.5627 31.9301 36.7333 31.7808 36.872C31.6421 37.0107 31.4714 37.08 31.2688 37.08ZM38.6131 40.84C37.9945 40.84 37.3705 40.76 36.7411 40.6C36.1118 40.44 35.5945 40.2427 35.1891 40.008C34.9971 39.8907 34.9011 39.704 34.9011 39.448C34.9011 39.2773 34.9598 39.1227 35.0771 38.984C35.2051 38.856 35.3598 38.792 35.5411 38.792C35.6265 38.792 35.7225 38.8133 35.8291 38.856C36.6398 39.2613 37.5198 39.464 38.4691 39.464C40.1011 39.464 40.9171 38.5947 40.9171 36.856V35.784C40.1598 36.5947 39.2478 37 38.1811 37C37.5518 37 36.9385 36.8453 36.3411 36.536C35.7545 36.216 35.2691 35.7467 34.8851 35.128C34.5011 34.4987 34.3091 33.736 34.3091 32.84C34.3091 31.944 34.5011 31.1867 34.8851 30.568C35.2691 29.9387 35.7545 29.4693 36.3411 29.16C36.9385 28.84 37.5518 28.68 38.1811 28.68C39.2478 28.68 40.1598 29.0853 40.9171 29.896V29.496C40.9171 29.2933 40.9865 29.1227 41.1251 28.984C41.2638 28.8347 41.4345 28.76 41.6371 28.76C41.8398 28.76 42.0105 28.8347 42.1491 28.984C42.2985 29.1227 42.3731 29.2933 42.3731 29.496V36.648C42.3731 37.992 42.0478 39.0267 41.3971 39.752C40.7465 40.4773 39.8185 40.84 38.6131 40.84ZM38.4851 35.672C38.9865 35.672 39.4291 35.5653 39.8131 35.352C40.1971 35.1387 40.5651 34.8507 40.9171 34.488V31.192C40.5651 30.8293 40.1971 30.5413 39.8131 30.328C39.4291 30.1147 38.9865 30.008 38.4851 30.008C37.6851 30.008 37.0291 30.2533 36.5171 30.744C36.0158 31.224 35.7651 31.9227 35.7651 32.84C35.7651 33.7573 36.0158 34.4613 36.5171 34.952C37.0291 35.432 37.6851 35.672 38.4851 35.672ZM45.8909 37.08C45.6882 37.08 45.5175 37.0107 45.3789 36.872C45.2402 36.7333 45.1709 36.5627 45.1709 36.36V29.496C45.1709 29.2933 45.2402 29.1227 45.3789 28.984C45.5175 28.8347 45.6882 28.76 45.8909 28.76C46.0935 28.76 46.2642 28.8347 46.4029 28.984C46.5522 29.1227 46.6269 29.2933 46.6269 29.496V30.152C47.0322 29.704 47.4695 29.3467 47.9389 29.08C48.4082 28.8133 48.9629 28.68 49.6029 28.68C50.1895 28.68 50.6962 28.8187 51.1229 29.096C51.5602 29.3733 51.8909 29.752 52.1149 30.232C52.3495 30.712 52.4669 31.24 52.4669 31.816V36.36C52.4669 36.5627 52.3922 36.7333 52.2429 36.872C52.1042 37.0107 51.9335 37.08 51.7309 37.08C51.5282 37.08 51.3575 37.0107 51.2189 36.872C51.0802 36.7333 51.0109 36.5627 51.0109 36.36V31.976C51.0109 30.6747 50.4242 30.024 49.2509 30.024C48.7175 30.024 48.2375 30.1627 47.8109 30.44C47.3949 30.7173 47.0002 31.0907 46.6269 31.56V36.36C46.6269 36.5627 46.5522 36.7333 46.4029 36.872C46.2642 37.0107 46.0935 37.08 45.8909 37.08ZM63.4291 37.16C62.0745 37.16 60.8051 36.904 59.6211 36.392C59.4931 36.3387 59.3865 36.2533 59.3011 36.136C59.2158 36.008 59.1731 35.8747 59.1731 35.736C59.1731 35.5547 59.2318 35.4 59.3491 35.272C59.4771 35.1333 59.6371 35.064 59.8291 35.064C59.9358 35.064 60.0371 35.0853 60.1331 35.128C61.1145 35.5653 62.1651 35.784 63.2851 35.784C65.1518 35.784 66.0851 35.1707 66.0851 33.944C66.0851 33.624 65.9625 33.3573 65.7171 33.144C65.4825 32.9307 65.1891 32.7653 64.8371 32.648C64.4851 32.52 63.9838 32.3707 63.3331 32.2C62.4691 31.976 61.7705 31.7627 61.2371 31.56C60.7038 31.3467 60.2451 31.032 59.8611 30.616C59.4771 30.2 59.2851 29.6453 59.2851 28.952C59.2851 28.344 59.4451 27.7947 59.7651 27.304C60.0851 26.8027 60.5545 26.408 61.1731 26.12C61.8025 25.8213 62.5545 25.672 63.4291 25.672C64.6025 25.672 65.6638 25.848 66.6131 26.2C66.9118 26.3067 67.0611 26.52 67.0611 26.84C67.0611 27.0107 67.0025 27.1653 66.8851 27.304C66.7678 27.4427 66.6131 27.512 66.4211 27.512C66.3571 27.512 66.2718 27.4907 66.1651 27.448C65.3331 27.16 64.4745 27.016 63.5891 27.016C62.7465 27.016 62.0585 27.176 61.5251 27.496C61.0025 27.816 60.7411 28.264 60.7411 28.84C60.7411 29.224 60.8638 29.5387 61.1091 29.784C61.3651 30.0187 61.6798 30.2053 62.0531 30.344C62.4371 30.472 62.9545 30.6107 63.6051 30.76C64.4478 30.9627 65.1251 31.1653 65.6371 31.368C66.1598 31.5707 66.6025 31.8853 66.9651 32.312C67.3385 32.7387 67.5251 33.3147 67.5251 34.04C67.5251 34.6373 67.3545 35.176 67.0131 35.656C66.6718 36.1253 66.1918 36.4933 65.5731 36.76C64.9545 37.0267 64.2398 37.16 63.4291 37.16ZM71.0609 40.76C70.8689 40.76 70.7035 40.6907 70.5649 40.552C70.4369 40.4133 70.3729 40.248 70.3729 40.056C70.3729 39.9707 70.3889 39.8853 70.4209 39.8L71.4609 37.128L68.4529 29.8C68.4102 29.6933 68.3889 29.592 68.3889 29.496C68.3889 29.2933 68.4582 29.1227 68.5969 28.984C68.7355 28.8347 68.9062 28.76 69.1089 28.76C69.2582 28.76 69.3915 28.8027 69.5089 28.888C69.6369 28.9733 69.7275 29.08 69.7809 29.208L72.2449 35.32L74.7569 29.24C74.8955 28.92 75.1195 28.76 75.4289 28.76C75.6315 28.76 75.8022 28.8347 75.9409 28.984C76.0795 29.1227 76.1489 29.2933 76.1489 29.496C76.1489 29.592 76.1329 29.6827 76.1009 29.768L71.7329 40.264C71.5835 40.5947 71.3595 40.76 71.0609 40.76ZM80.7426 37.16C79.676 37.16 78.7053 36.92 77.8306 36.44C77.6493 36.312 77.5586 36.136 77.5586 35.912C77.5586 35.7413 77.6173 35.592 77.7346 35.464C77.852 35.336 78.0013 35.272 78.1826 35.272C78.2786 35.272 78.3746 35.2933 78.4706 35.336C78.812 35.4853 79.1533 35.6027 79.4946 35.688C79.836 35.7733 80.22 35.816 80.6466 35.816C81.8306 35.816 82.4226 35.4373 82.4226 34.68C82.4226 34.4347 82.284 34.248 82.0066 34.12C81.74 33.992 81.2973 33.848 80.6786 33.688C80.0493 33.5387 79.5266 33.384 79.1106 33.224C78.7053 33.064 78.3533 32.824 78.0546 32.504C77.7666 32.1733 77.6226 31.7413 77.6226 31.208C77.6226 30.4613 77.8893 29.8533 78.4226 29.384C78.9666 28.9147 79.74 28.68 80.7426 28.68C81.564 28.68 82.3373 28.8133 83.0626 29.08C83.212 29.1227 83.324 29.2027 83.3986 29.32C83.484 29.4373 83.5266 29.56 83.5266 29.688C83.5266 29.8587 83.4626 30.008 83.3346 30.136C83.2173 30.264 83.068 30.328 82.8866 30.328C82.8333 30.328 82.764 30.3173 82.6786 30.296C82.06 30.104 81.452 30.008 80.8546 30.008C80.2786 30.008 79.8253 30.1147 79.4946 30.328C79.1746 30.5307 79.0146 30.7973 79.0146 31.128C79.0146 31.448 79.164 31.6827 79.4626 31.832C79.7613 31.9813 80.2253 32.1253 80.8546 32.264C81.484 32.424 81.996 32.584 82.3906 32.744C82.7853 32.8933 83.1213 33.1333 83.3986 33.464C83.6866 33.7947 83.8306 34.2373 83.8306 34.792C83.8306 35.4747 83.5586 36.04 83.0146 36.488C82.4813 36.936 81.724 37.16 80.7426 37.16ZM88.8156 37.16C87.2583 37.16 86.4796 36.456 86.4796 35.048V30.088H85.3436C85.2583 30.088 85.1836 30.0613 85.1196 30.008C85.0663 29.944 85.0396 29.8693 85.0396 29.784C85.0396 29.6773 85.0876 29.5867 85.1836 29.512L87.3596 27.384C87.4556 27.288 87.5463 27.24 87.6316 27.24C87.717 27.24 87.7863 27.272 87.8396 27.336C87.9036 27.4 87.9356 27.4747 87.9356 27.56V28.84H89.7436C89.925 28.84 90.0743 28.8987 90.1916 29.016C90.309 29.1333 90.3676 29.2827 90.3676 29.464C90.3676 29.6347 90.309 29.784 90.1916 29.912C90.0743 30.0293 89.925 30.088 89.7436 30.088H87.9356V34.92C87.9356 35.336 88.0316 35.6027 88.2236 35.72C88.4263 35.8267 88.677 35.88 88.9756 35.88C89.189 35.88 89.4023 35.848 89.6156 35.784C89.6583 35.7733 89.701 35.7627 89.7436 35.752C89.797 35.7413 89.861 35.736 89.9356 35.736C90.085 35.736 90.2183 35.7947 90.3356 35.912C90.453 36.0187 90.5116 36.152 90.5116 36.312C90.5116 36.5573 90.389 36.744 90.1436 36.872C89.7276 37.064 89.285 37.16 88.8156 37.16ZM95.9196 37.16C94.6183 37.16 93.5996 36.792 92.8636 36.056C92.1383 35.3093 91.7756 34.264 91.7756 32.92C91.7756 32.1627 91.9143 31.464 92.1916 30.824C92.469 30.184 92.8956 29.6667 93.4716 29.272C94.0476 28.8773 94.757 28.68 95.5996 28.68C96.389 28.68 97.0716 28.8667 97.6476 29.24C98.2236 29.6027 98.661 30.0933 98.9596 30.712C99.2583 31.32 99.4076 31.9867 99.4076 32.712C99.4076 32.9147 99.3383 33.0853 99.1996 33.224C99.0716 33.3627 98.8956 33.432 98.6716 33.432H93.2476C93.333 34.1787 93.6103 34.76 94.0796 35.176C94.549 35.592 95.205 35.8 96.0476 35.8C96.4956 35.8 96.885 35.7573 97.2156 35.672C97.557 35.5867 97.8876 35.464 98.2076 35.304C98.293 35.2613 98.389 35.24 98.4956 35.24C98.6663 35.24 98.8156 35.2987 98.9436 35.416C99.0716 35.5333 99.1356 35.6827 99.1356 35.864C99.1356 36.0987 98.997 36.296 98.7196 36.456C98.3036 36.6907 97.893 36.8667 97.4876 36.984C97.0823 37.1013 96.5596 37.16 95.9196 37.16ZM97.9676 32.248C97.9356 31.7253 97.797 31.288 97.5516 30.936C97.317 30.584 97.0236 30.328 96.6716 30.168C96.3196 29.9973 95.9623 29.912 95.5996 29.912C95.237 29.912 94.8796 29.9973 94.5276 30.168C94.1756 30.328 93.8823 30.584 93.6476 30.936C93.413 31.288 93.2796 31.7253 93.2476 32.248H97.9676ZM102.326 37.08C102.123 37.08 101.953 37.0107 101.814 36.872C101.675 36.7333 101.606 36.5627 101.606 36.36V29.496C101.606 29.2933 101.675 29.1227 101.814 28.984C101.953 28.8347 102.123 28.76 102.326 28.76C102.529 28.76 102.699 28.8347 102.838 28.984C102.987 29.1227 103.062 29.2933 103.062 29.496V30.152C103.361 29.7253 103.718 29.3733 104.134 29.096C104.561 28.8187 105.11 28.68 105.782 28.68C106.379 28.68 106.891 28.84 107.318 29.16C107.745 29.48 108.049 29.8693 108.23 30.328C108.891 29.2293 109.873 28.68 111.174 28.68C111.771 28.68 112.267 28.8293 112.662 29.128C113.067 29.4267 113.366 29.8107 113.558 30.28C113.75 30.7493 113.846 31.24 113.846 31.752V36.36C113.846 36.5627 113.771 36.7333 113.622 36.872C113.483 37.0107 113.313 37.08 113.11 37.08C112.907 37.08 112.737 37.0107 112.598 36.872C112.459 36.7333 112.39 36.5627 112.39 36.36V32.04C112.39 31.3467 112.267 30.84 112.022 30.52C111.777 30.1893 111.355 30.024 110.758 30.024C110.214 30.024 109.761 30.168 109.398 30.456C109.046 30.7333 108.731 31.1013 108.454 31.56V36.36C108.454 36.5627 108.379 36.7333 108.23 36.872C108.091 37.0107 107.921 37.08 107.718 37.08C107.515 37.08 107.345 37.0107 107.206 36.872C107.067 36.7333 106.998 36.5627 106.998 36.36V32.04C106.998 31.3467 106.875 30.84 106.63 30.52C106.385 30.1893 105.963 30.024 105.366 30.024C104.822 30.024 104.369 30.168 104.006 30.456C103.654 30.7333 103.339 31.1013 103.062 31.56V36.36C103.062 36.5627 102.987 36.7333 102.838 36.872C102.699 37.0107 102.529 37.08 102.326 37.08ZM124.306 37.08C124.093 37.08 123.901 37.0213 123.73 36.904C123.57 36.776 123.447 36.5947 123.362 36.36L120.226 26.728C120.194 26.6107 120.178 26.52 120.178 26.456C120.167 26.2533 120.226 26.088 120.354 25.96C120.493 25.8213 120.669 25.752 120.882 25.752C121.053 25.752 121.202 25.8053 121.33 25.912C121.458 26.0187 121.549 26.1573 121.602 26.328L124.29 35.16L126.994 26.36C127.047 26.1787 127.149 26.0347 127.298 25.928C127.458 25.8107 127.634 25.752 127.826 25.752C128.018 25.752 128.189 25.8107 128.338 25.928C128.498 26.0347 128.605 26.1787 128.658 26.36L131.362 35.16L134.05 26.328C134.103 26.1573 134.194 26.0187 134.322 25.912C134.45 25.8053 134.599 25.752 134.77 25.752C134.983 25.752 135.154 25.8213 135.282 25.96C135.421 26.088 135.485 26.2533 135.474 26.456C135.474 26.52 135.458 26.6107 135.426 26.728L132.29 36.36C132.205 36.5947 132.077 36.776 131.906 36.904C131.746 37.0213 131.559 37.08 131.346 37.08C131.133 37.08 130.935 37.016 130.754 36.888C130.583 36.7493 130.466 36.5733 130.402 36.36L127.826 28.2L125.25 36.36C125.186 36.5733 125.063 36.7493 124.882 36.888C124.711 37.016 124.519 37.08 124.306 37.08ZM140.367 37.16C139.066 37.16 138.047 36.792 137.311 36.056C136.586 35.3093 136.223 34.264 136.223 32.92C136.223 32.1627 136.362 31.464 136.639 30.824C136.916 30.184 137.343 29.6667 137.919 29.272C138.495 28.8773 139.204 28.68 140.047 28.68C140.836 28.68 141.519 28.8667 142.095 29.24C142.671 29.6027 143.108 30.0933 143.407 30.712C143.706 31.32 143.855 31.9867 143.855 32.712C143.855 32.9147 143.786 33.0853 143.647 33.224C143.519 33.3627 143.343 33.432 143.119 33.432H137.695C137.78 34.1787 138.058 34.76 138.527 35.176C138.996 35.592 139.652 35.8 140.495 35.8C140.943 35.8 141.332 35.7573 141.663 35.672C142.004 35.5867 142.335 35.464 142.655 35.304C142.74 35.2613 142.836 35.24 142.943 35.24C143.114 35.24 143.263 35.2987 143.391 35.416C143.519 35.5333 143.583 35.6827 143.583 35.864C143.583 36.0987 143.444 36.296 143.167 36.456C142.751 36.6907 142.34 36.8667 141.935 36.984C141.53 37.1013 141.007 37.16 140.367 37.16ZM142.415 32.248C142.383 31.7253 142.244 31.288 141.999 30.936C141.764 30.584 141.471 30.328 141.119 30.168C140.767 29.9973 140.41 29.912 140.047 29.912C139.684 29.912 139.327 29.9973 138.975 30.168C138.623 30.328 138.33 30.584 138.095 30.936C137.86 31.288 137.727 31.7253 137.695 32.248H142.415ZM150.246 37.16C149.2 37.16 148.288 36.7547 147.51 35.944V36.36C147.51 36.5627 147.435 36.7333 147.286 36.872C147.147 37.0107 146.976 37.08 146.774 37.08C146.571 37.08 146.4 37.0107 146.262 36.872C146.123 36.7333 146.054 36.5627 146.054 36.36V25.976C146.054 25.7733 146.123 25.6027 146.262 25.464C146.4 25.3147 146.571 25.24 146.774 25.24C146.987 25.24 147.163 25.3093 147.302 25.448C147.44 25.5867 147.51 25.7627 147.51 25.976V29.896C148.288 29.0853 149.2 28.68 150.246 28.68C150.907 28.68 151.531 28.8507 152.118 29.192C152.715 29.5227 153.195 30.0133 153.558 30.664C153.931 31.304 154.118 32.056 154.118 32.92C154.118 33.784 153.931 34.5413 153.558 35.192C153.195 35.832 152.715 36.3227 152.118 36.664C151.531 36.9947 150.907 37.16 150.246 37.16ZM150.038 35.8C150.827 35.8 151.462 35.5493 151.942 35.048C152.422 34.5467 152.662 33.8373 152.662 32.92C152.662 32.0027 152.422 31.2933 151.942 30.792C151.462 30.2907 150.827 30.04 150.038 30.04C149.547 30.04 149.083 30.152 148.646 30.376C148.219 30.5893 147.84 30.8773 147.51 31.24V34.6C147.84 34.9627 148.219 35.256 148.646 35.48C149.083 35.6933 149.547 35.8 150.038 35.8Z" fill="#BBBBBB"/>
</svg>
