<svg width="155" height="41" viewBox="0 0 155 41" fill="none" xmlns="http://www.w3.org/2000/svg">
<path d="M17.556 17.09C17.328 17.09 17.136 17.012 16.98 16.856C16.824 16.7 16.746 16.508 16.746 16.28V5.174C16.746 4.946 16.824 4.754 16.98 4.598C17.136 4.43 17.328 4.346 17.556 4.346C17.784 4.346 17.976 4.43 18.132 4.598C18.3 4.754 18.384 4.946 18.384 5.174V16.28C18.384 16.508 18.3 16.7 18.132 16.856C17.976 17.012 17.784 17.09 17.556 17.09ZM22.9948 17.09C22.7668 17.09 22.5748 17.012 22.4188 16.856C22.2628 16.7 22.1848 16.508 22.1848 16.28V5.534C22.1848 5.21 22.2988 4.934 22.5268 4.706C22.7548 4.466 23.0308 4.346 23.3548 4.346H23.5888C23.9728 4.346 24.3028 4.526 24.5788 4.886L31.5088 14.894V5.174C31.5088 4.946 31.5868 4.754 31.7428 4.598C31.8988 4.43 32.0908 4.346 32.3188 4.346C32.5468 4.346 32.7388 4.43 32.8948 4.598C33.0628 4.754 33.1468 4.946 33.1468 5.174V15.92C33.1468 16.244 33.0268 16.52 32.7868 16.748C32.5588 16.976 32.2828 17.09 31.9588 17.09H31.7428C31.5508 17.09 31.3708 17.048 31.2028 16.964C31.0348 16.868 30.8968 16.748 30.7888 16.604L23.8228 6.542V16.28C23.8228 16.508 23.7388 16.7 23.5708 16.856C23.4148 17.012 23.2228 17.09 22.9948 17.09ZM42.502 17.18C41.242 17.18 40.138 16.904 39.19 16.352C38.242 15.8 37.51 15.038 36.994 14.066C36.478 13.094 36.208 11.978 36.184 10.718C36.208 9.458 36.478 8.342 36.994 7.37C37.51 6.398 38.242 5.636 39.19 5.084C40.138 4.532 41.242 4.256 42.502 4.256C43.762 4.256 44.86 4.532 45.796 5.084C46.744 5.636 47.476 6.404 47.992 7.388C48.52 8.36 48.796 9.47 48.82 10.718C48.796 11.966 48.52 13.082 47.992 14.066C47.476 15.038 46.744 15.8 45.796 16.352C44.86 16.904 43.762 17.18 42.502 17.18ZM42.502 15.65C43.462 15.65 44.296 15.434 45.004 15.002C45.712 14.57 46.252 13.982 46.624 13.238C46.996 12.494 47.182 11.654 47.182 10.718C47.182 9.782 46.996 8.942 46.624 8.198C46.252 7.454 45.712 6.866 45.004 6.434C44.296 6.002 43.462 5.786 42.502 5.786C41.53 5.786 40.69 6.002 39.982 6.434C39.286 6.866 38.752 7.454 38.38 8.198C38.008 8.942 37.822 9.782 37.822 10.718C37.822 11.654 38.008 12.494 38.38 13.238C38.752 13.982 39.286 14.57 39.982 15.002C40.69 15.434 41.53 15.65 42.502 15.65ZM55.9094 17.09C55.4174 17.09 55.0454 16.814 54.7934 16.262L50.3474 5.48C50.3114 5.384 50.2934 5.282 50.2934 5.174C50.2934 4.922 50.3654 4.724 50.5094 4.58C50.6534 4.424 50.8514 4.346 51.1034 4.346C51.2714 4.346 51.4214 4.4 51.5534 4.508C51.6974 4.604 51.8054 4.736 51.8774 4.904L56.1074 15.452L60.3374 4.904C60.4094 4.736 60.5114 4.604 60.6434 4.508C60.7874 4.4 60.9434 4.346 61.1114 4.346C61.3634 4.346 61.5614 4.424 61.7054 4.58C61.8494 4.724 61.9214 4.922 61.9214 5.174C61.9214 5.282 61.9034 5.384 61.8674 5.48L57.4214 16.262C57.1694 16.814 56.7974 17.09 56.3054 17.09H55.9094ZM63.5844 17.09C63.3444 17.09 63.1464 17.012 62.9904 16.856C62.8464 16.7 62.7744 16.508 62.7744 16.28C62.7744 16.184 62.8044 16.064 62.8644 15.92L67.4544 5.084C67.5504 4.868 67.6824 4.694 67.8504 4.562C68.0304 4.418 68.2464 4.346 68.4984 4.346H68.6784C68.9304 4.346 69.1404 4.418 69.3084 4.562C69.4884 4.694 69.6264 4.868 69.7224 5.084L74.3124 15.92C74.3724 16.064 74.4024 16.184 74.4024 16.28C74.4024 16.508 74.3244 16.7 74.1684 16.856C74.0244 17.012 73.8324 17.09 73.5924 17.09C73.4244 17.09 73.2684 17.048 73.1244 16.964C72.9924 16.868 72.8904 16.742 72.8184 16.586L71.6484 13.778H65.5284L64.3584 16.586C64.2864 16.742 64.1784 16.868 64.0344 16.964C63.9024 17.048 63.7524 17.09 63.5844 17.09ZM66.1584 12.284H71.0184L68.5884 6.434L66.1584 12.284ZM78.1661 17C77.9381 17 77.7461 16.922 77.5901 16.766C77.4341 16.61 77.3561 16.418 77.3561 16.19V5.264C77.3561 5.036 77.4341 4.844 77.5901 4.688C77.7461 4.52 77.9381 4.436 78.1661 4.436H85.3841C85.6001 4.436 85.7801 4.514 85.9241 4.67C86.0801 4.814 86.1581 4.994 86.1581 5.21C86.1581 5.426 86.0801 5.606 85.9241 5.75C85.7801 5.894 85.6001 5.966 85.3841 5.966H78.9941V9.944H84.7361C84.9521 9.944 85.1321 10.022 85.2761 10.178C85.4321 10.322 85.5101 10.502 85.5101 10.718C85.5101 10.934 85.4321 11.114 85.2761 11.258C85.1321 11.402 84.9521 11.474 84.7361 11.474H78.9941V15.47H85.3841C85.6001 15.47 85.7801 15.548 85.9241 15.704C86.0801 15.848 86.1581 16.028 86.1581 16.244C86.1581 16.46 86.0801 16.64 85.9241 16.784C85.7801 16.928 85.6001 17 85.3841 17H78.1661ZM92.8666 17.09C92.6386 17.09 92.4466 17.012 92.2906 16.856C92.1346 16.7 92.0566 16.508 92.0566 16.28V5.966H88.3846C88.1686 5.966 87.9886 5.894 87.8446 5.75C87.7006 5.606 87.6286 5.426 87.6286 5.21C87.6286 4.994 87.7006 4.814 87.8446 4.67C87.9886 4.514 88.1686 4.436 88.3846 4.436H97.3486C97.5646 4.436 97.7446 4.514 97.8886 4.67C98.0446 4.814 98.1226 4.994 98.1226 5.21C98.1226 5.426 98.0446 5.606 97.8886 5.75C97.7446 5.894 97.5646 5.966 97.3486 5.966H93.6946V16.28C93.6946 16.508 93.6106 16.7 93.4426 16.856C93.2866 17.012 93.0946 17.09 92.8666 17.09ZM101.225 17C100.997 17 100.805 16.922 100.649 16.766C100.493 16.61 100.415 16.418 100.415 16.19V5.264C100.415 5.036 100.493 4.844 100.649 4.688C100.805 4.52 100.997 4.436 101.225 4.436H108.443C108.659 4.436 108.839 4.514 108.983 4.67C109.139 4.814 109.217 4.994 109.217 5.21C109.217 5.426 109.139 5.606 108.983 5.75C108.839 5.894 108.659 5.966 108.443 5.966H102.053V9.944H107.795C108.011 9.944 108.191 10.022 108.335 10.178C108.491 10.322 108.569 10.502 108.569 10.718C108.569 10.934 108.491 11.114 108.335 11.258C108.191 11.402 108.011 11.474 107.795 11.474H102.053V15.47H108.443C108.659 15.47 108.839 15.548 108.983 15.704C109.139 15.848 109.217 16.028 109.217 16.244C109.217 16.46 109.139 16.64 108.983 16.784C108.839 16.928 108.659 17 108.443 17H101.225ZM117.621 17.18C116.421 17.18 115.341 16.922 114.381 16.406C113.433 15.878 112.683 15.128 112.131 14.156C111.591 13.172 111.321 12.026 111.321 10.718C111.321 9.41 111.591 8.27 112.131 7.298C112.683 6.314 113.433 5.564 114.381 5.048C115.341 4.52 116.421 4.256 117.621 4.256C118.437 4.256 119.163 4.352 119.799 4.544C120.447 4.736 121.089 5.012 121.725 5.372C121.989 5.516 122.121 5.744 122.121 6.056C122.121 6.236 122.055 6.398 121.923 6.542C121.791 6.674 121.617 6.74 121.401 6.74C121.281 6.74 121.173 6.716 121.077 6.668C120.549 6.392 120.033 6.182 119.529 6.038C119.025 5.894 118.443 5.822 117.783 5.822C116.751 5.822 115.869 6.038 115.137 6.47C114.417 6.89 113.871 7.472 113.499 8.216C113.139 8.948 112.959 9.782 112.959 10.718C112.959 11.654 113.139 12.494 113.499 13.238C113.871 13.97 114.417 14.552 115.137 14.984C115.869 15.404 116.751 15.614 117.783 15.614C118.443 15.614 119.025 15.542 119.529 15.398C120.033 15.254 120.549 15.044 121.077 14.768C121.173 14.72 121.281 14.696 121.401 14.696C121.617 14.696 121.791 14.762 121.923 14.894C122.055 15.026 122.121 15.188 122.121 15.38C122.121 15.692 121.989 15.92 121.725 16.064C121.089 16.424 120.447 16.7 119.799 16.892C119.163 17.084 118.437 17.18 117.621 17.18ZM125.708 17.09C125.48 17.09 125.288 17.012 125.132 16.856C124.976 16.7 124.898 16.508 124.898 16.28V5.174C124.898 4.946 124.976 4.754 125.132 4.598C125.288 4.43 125.48 4.346 125.708 4.346C125.936 4.346 126.128 4.43 126.284 4.598C126.452 4.754 126.536 4.946 126.536 5.174V9.962H133.358V5.174C133.358 4.946 133.436 4.754 133.592 4.598C133.748 4.43 133.94 4.346 134.168 4.346C134.396 4.346 134.588 4.43 134.744 4.598C134.912 4.754 134.996 4.946 134.996 5.174V16.28C134.996 16.508 134.912 16.7 134.744 16.856C134.588 17.012 134.396 17.09 134.168 17.09C133.94 17.09 133.748 17.012 133.592 16.856C133.436 16.7 133.358 16.508 133.358 16.28V11.492H126.536V16.28C126.536 16.508 126.452 16.7 126.284 16.856C126.128 17.012 125.936 17.09 125.708 17.09Z" fill="#5A81FA"/>
<path d="M2.272 37C2.06933 37 1.89867 36.9307 1.76 36.792C1.62133 36.6533 1.552 36.4827 1.552 36.28V26.568C1.552 26.3653 1.62133 26.1947 1.76 26.056C1.89867 25.9067 2.06933 25.832 2.272 25.832H5.488C6.704 25.832 7.73333 26.104 8.576 26.648C9.42933 27.1813 10.0693 27.8747 10.496 28.728C10.9227 29.5813 11.136 30.4773 11.136 31.416C11.136 32.3547 10.9227 33.2507 10.496 34.104C10.0693 34.9573 9.42933 35.656 8.576 36.2C7.73333 36.7333 6.704 37 5.488 37H2.272ZM5.312 35.64C6.18667 35.64 6.95467 35.464 7.616 35.112C8.27733 34.7493 8.78933 34.2533 9.152 33.624C9.51467 32.984 9.696 32.248 9.696 31.416C9.696 30.584 9.51467 29.8533 9.152 29.224C8.78933 28.584 8.27733 28.088 7.616 27.736C6.95467 27.3733 6.18667 27.192 5.312 27.192H3.008V35.64H5.312ZM16.9028 37.16C15.6014 37.16 14.5828 36.792 13.8468 36.056C13.1214 35.3093 12.7588 34.264 12.7588 32.92C12.7588 32.1627 12.8974 31.464 13.1748 30.824C13.4521 30.184 13.8788 29.6667 14.4548 29.272C15.0308 28.8773 15.7401 28.68 16.5828 28.68C17.3721 28.68 18.0548 28.8667 18.6308 29.24C19.2068 29.6027 19.6441 30.0933 19.9428 30.712C20.2414 31.32 20.3908 31.9867 20.3908 32.712C20.3908 32.9147 20.3214 33.0853 20.1828 33.224C20.0548 33.3627 19.8788 33.432 19.6548 33.432H14.2308C14.3161 34.1787 14.5934 34.76 15.0628 35.176C15.5321 35.592 16.1881 35.8 17.0308 35.8C17.4788 35.8 17.8681 35.7573 18.1988 35.672C18.5401 35.5867 18.8708 35.464 19.1908 35.304C19.2761 35.2613 19.3721 35.24 19.4788 35.24C19.6494 35.24 19.7988 35.2987 19.9268 35.416C20.0548 35.5333 20.1188 35.6827 20.1188 35.864C20.1188 36.0987 19.9801 36.296 19.7028 36.456C19.2868 36.6907 18.8761 36.8667 18.4708 36.984C18.0654 37.1013 17.5428 37.16 16.9028 37.16ZM18.9508 32.248C18.9188 31.7253 18.7801 31.288 18.5348 30.936C18.3001 30.584 18.0068 30.328 17.6548 30.168C17.3028 29.9973 16.9454 29.912 16.5828 29.912C16.2201 29.912 15.8628 29.9973 15.5108 30.168C15.1588 30.328 14.8654 30.584 14.6308 30.936C14.3961 31.288 14.2628 31.7253 14.2308 32.248H18.9508ZM25.2293 37.16C24.1626 37.16 23.1919 36.92 22.3173 36.44C22.1359 36.312 22.0453 36.136 22.0453 35.912C22.0453 35.7413 22.1039 35.592 22.2213 35.464C22.3386 35.336 22.4879 35.272 22.6693 35.272C22.7653 35.272 22.8613 35.2933 22.9573 35.336C23.2986 35.4853 23.6399 35.6027 23.9813 35.688C24.3226 35.7733 24.7066 35.816 25.1333 35.816C26.3173 35.816 26.9093 35.4373 26.9093 34.68C26.9093 34.4347 26.7706 34.248 26.4933 34.12C26.2266 33.992 25.7839 33.848 25.1653 33.688C24.5359 33.5387 24.0133 33.384 23.5973 33.224C23.1919 33.064 22.8399 32.824 22.5413 32.504C22.2533 32.1733 22.1093 31.7413 22.1093 31.208C22.1093 30.4613 22.3759 29.8533 22.9093 29.384C23.4533 28.9147 24.2266 28.68 25.2293 28.68C26.0506 28.68 26.8239 28.8133 27.5493 29.08C27.6986 29.1227 27.8106 29.2027 27.8853 29.32C27.9706 29.4373 28.0133 29.56 28.0133 29.688C28.0133 29.8587 27.9493 30.008 27.8213 30.136C27.7039 30.264 27.5546 30.328 27.3733 30.328C27.3199 30.328 27.2506 30.3173 27.1653 30.296C26.5466 30.104 25.9386 30.008 25.3413 30.008C24.7653 30.008 24.3119 30.1147 23.9813 30.328C23.6613 30.5307 23.5013 30.7973 23.5013 31.128C23.5013 31.448 23.6506 31.6827 23.9493 31.832C24.2479 31.9813 24.7119 32.1253 25.3413 32.264C25.9706 32.424 26.4826 32.584 26.8773 32.744C27.2719 32.8933 27.6079 33.1333 27.8853 33.464C28.1733 33.7947 28.3173 34.2373 28.3173 34.792C28.3173 35.4747 28.0453 36.04 27.5013 36.488C26.9679 36.936 26.2106 37.16 25.2293 37.16ZM31.2368 27.176C31.0128 27.176 30.8208 27.096 30.6608 26.936C30.5008 26.776 30.4208 26.584 30.4208 26.36V26.296C30.4208 26.072 30.5008 25.88 30.6608 25.72C30.8208 25.56 31.0128 25.48 31.2368 25.48H31.3328C31.5568 25.48 31.7488 25.56 31.9088 25.72C32.0688 25.88 32.1488 26.072 32.1488 26.296V26.36C32.1488 26.584 32.0688 26.776 31.9088 26.936C31.7488 27.096 31.5568 27.176 31.3328 27.176H31.2368ZM31.2688 37.08C31.0661 37.08 30.8954 37.0107 30.7568 36.872C30.6181 36.7333 30.5488 36.5627 30.5488 36.36V29.496C30.5488 29.2933 30.6181 29.1227 30.7568 28.984C30.8954 28.8347 31.0661 28.76 31.2688 28.76C31.4821 28.76 31.6581 28.8293 31.7968 28.968C31.9354 29.1067 32.0048 29.2827 32.0048 29.496V36.36C32.0048 36.5627 31.9301 36.7333 31.7808 36.872C31.6421 37.0107 31.4714 37.08 31.2688 37.08ZM38.6131 40.84C37.9945 40.84 37.3705 40.76 36.7411 40.6C36.1118 40.44 35.5945 40.2427 35.1891 40.008C34.9971 39.8907 34.9011 39.704 34.9011 39.448C34.9011 39.2773 34.9598 39.1227 35.0771 38.984C35.2051 38.856 35.3598 38.792 35.5411 38.792C35.6265 38.792 35.7225 38.8133 35.8291 38.856C36.6398 39.2613 37.5198 39.464 38.4691 39.464C40.1011 39.464 40.9171 38.5947 40.9171 36.856V35.784C40.1598 36.5947 39.2478 37 38.1811 37C37.5518 37 36.9385 36.8453 36.3411 36.536C35.7545 36.216 35.2691 35.7467 34.8851 35.128C34.5011 34.4987 34.3091 33.736 34.3091 32.84C34.3091 31.944 34.5011 31.1867 34.8851 30.568C35.2691 29.9387 35.7545 29.4693 36.3411 29.16C36.9385 28.84 37.5518 28.68 38.1811 28.68C39.2478 28.68 40.1598 29.0853 40.9171 29.896V29.496C40.9171 29.2933 40.9865 29.1227 41.1251 28.984C41.2638 28.8347 41.4345 28.76 41.6371 28.76C41.8398 28.76 42.0105 28.8347 42.1491 28.984C42.2985 29.1227 42.3731 29.2933 42.3731 29.496V36.648C42.3731 37.992 42.0478 39.0267 41.3971 39.752C40.7465 40.4773 39.8185 40.84 38.6131 40.84ZM38.4851 35.672C38.9865 35.672 39.4291 35.5653 39.8131 35.352C40.1971 35.1387 40.5651 34.8507 40.9171 34.488V31.192C40.5651 30.8293 40.1971 30.5413 39.8131 30.328C39.4291 30.1147 38.9865 30.008 38.4851 30.008C37.6851 30.008 37.0291 30.2533 36.5171 30.744C36.0158 31.224 35.7651 31.9227 35.7651 32.84C35.7651 33.7573 36.0158 34.4613 36.5171 34.952C37.0291 35.432 37.6851 35.672 38.4851 35.672ZM45.8909 37.08C45.6882 37.08 45.5175 37.0107 45.3789 36.872C45.2402 36.7333 45.1709 36.5627 45.1709 36.36V29.496C45.1709 29.2933 45.2402 29.1227 45.3789 28.984C45.5175 28.8347 45.6882 28.76 45.8909 28.76C46.0935 28.76 46.2642 28.8347 46.4029 28.984C46.5522 29.1227 46.6269 29.2933 46.6269 29.496V30.152C47.0322 29.704 47.4695 29.3467 47.9389 29.08C48.4082 28.8133 48.9629 28.68 49.6029 28.68C50.1895 28.68 50.6962 28.8187 51.1229 29.096C51.5602 29.3733 51.8909 29.752 52.1149 30.232C52.3495 30.712 52.4669 31.24 52.4669 31.816V36.36C52.4669 36.5627 52.3922 36.7333 52.2429 36.872C52.1042 37.0107 51.9335 37.08 51.7309 37.08C51.5282 37.08 51.3575 37.0107 51.2189 36.872C51.0802 36.7333 51.0109 36.5627 51.0109 36.36V31.976C51.0109 30.6747 50.4242 30.024 49.2509 30.024C48.7175 30.024 48.2375 30.1627 47.8109 30.44C47.3949 30.7173 47.0002 31.0907 46.6269 31.56V36.36C46.6269 36.5627 46.5522 36.7333 46.4029 36.872C46.2642 37.0107 46.0935 37.08 45.8909 37.08ZM63.4291 37.16C62.0745 37.16 60.8051 36.904 59.6211 36.392C59.4931 36.3387 59.3865 36.2533 59.3011 36.136C59.2158 36.008 59.1731 35.8747 59.1731 35.736C59.1731 35.5547 59.2318 35.4 59.3491 35.272C59.4771 35.1333 59.6371 35.064 59.8291 35.064C59.9358 35.064 60.0371 35.0853 60.1331 35.128C61.1145 35.5653 62.1651 35.784 63.2851 35.784C65.1518 35.784 66.0851 35.1707 66.0851 33.944C66.0851 33.624 65.9625 33.3573 65.7171 33.144C65.4825 32.9307 65.1891 32.7653 64.8371 32.648C64.4851 32.52 63.9838 32.3707 63.3331 32.2C62.4691 31.976 61.7705 31.7627 61.2371 31.56C60.7038 31.3467 60.2451 31.032 59.8611 30.616C59.4771 30.2 59.2851 29.6453 59.2851 28.952C59.2851 28.344 59.4451 27.7947 59.7651 27.304C60.0851 26.8027 60.5545 26.408 61.1731 26.12C61.8025 25.8213 62.5545 25.672 63.4291 25.672C64.6025 25.672 65.6638 25.848 66.6131 26.2C66.9118 26.3067 67.0611 26.52 67.0611 26.84C67.0611 27.0107 67.0025 27.1653 66.8851 27.304C66.7678 27.4427 66.6131 27.512 66.4211 27.512C66.3571 27.512 66.2718 27.4907 66.1651 27.448C65.3331 27.16 64.4745 27.016 63.5891 27.016C62.7465 27.016 62.0585 27.176 61.5251 27.496C61.0025 27.816 60.7411 28.264 60.7411 28.84C60.7411 29.224 60.8638 29.5387 61.1091 29.784C61.3651 30.0187 61.6798 30.2053 62.0531 30.344C62.4371 30.472 62.9545 30.6107 63.6051 30.76C64.4478 30.9627 65.1251 31.1653 65.6371 31.368C66.1598 31.5707 66.6025 31.8853 66.9651 32.312C67.3385 32.7387 67.5251 33.3147 67.5251 34.04C67.5251 34.6373 67.3545 35.176 67.0131 35.656C66.6718 36.1253 66.1918 36.4933 65.5731 36.76C64.9545 37.0267 64.2398 37.16 63.4291 37.16ZM71.0609 40.76C70.8689 40.76 70.7035 40.6907 70.5649 40.552C70.4369 40.4133 70.3729 40.248 70.3729 40.056C70.3729 39.9707 70.3889 39.8853 70.4209 39.8L71.4609 37.128L68.4529 29.8C68.4102 29.6933 68.3889 29.592 68.3889 29.496C68.3889 29.2933 68.4582 29.1227 68.5969 28.984C68.7355 28.8347 68.9062 28.76 69.1089 28.76C69.2582 28.76 69.3915 28.8027 69.5089 28.888C69.6369 28.9733 69.7275 29.08 69.7809 29.208L72.2449 35.32L74.7569 29.24C74.8955 28.92 75.1195 28.76 75.4289 28.76C75.6315 28.76 75.8022 28.8347 75.9409 28.984C76.0795 29.1227 76.1489 29.2933 76.1489 29.496C76.1489 29.592 76.1329 29.6827 76.1009 29.768L71.7329 40.264C71.5835 40.5947 71.3595 40.76 71.0609 40.76ZM80.7426 37.16C79.676 37.16 78.7053 36.92 77.8306 36.44C77.6493 36.312 77.5586 36.136 77.5586 35.912C77.5586 35.7413 77.6173 35.592 77.7346 35.464C77.852 35.336 78.0013 35.272 78.1826 35.272C78.2786 35.272 78.3746 35.2933 78.4706 35.336C78.812 35.4853 79.1533 35.6027 79.4946 35.688C79.836 35.7733 80.22 35.816 80.6466 35.816C81.8306 35.816 82.4226 35.4373 82.4226 34.68C82.4226 34.4347 82.284 34.248 82.0066 34.12C81.74 33.992 81.2973 33.848 80.6786 33.688C80.0493 33.5387 79.5266 33.384 79.1106 33.224C78.7053 33.064 78.3533 32.824 78.0546 32.504C77.7666 32.1733 77.6226 31.7413 77.6226 31.208C77.6226 30.4613 77.8893 29.8533 78.4226 29.384C78.9666 28.9147 79.74 28.68 80.7426 28.68C81.564 28.68 82.3373 28.8133 83.0626 29.08C83.212 29.1227 83.324 29.2027 83.3986 29.32C83.484 29.4373 83.5266 29.56 83.5266 29.688C83.5266 29.8587 83.4626 30.008 83.3346 30.136C83.2173 30.264 83.068 30.328 82.8866 30.328C82.8333 30.328 82.764 30.3173 82.6786 30.296C82.06 30.104 81.452 30.008 80.8546 30.008C80.2786 30.008 79.8253 30.1147 79.4946 30.328C79.1746 30.5307 79.0146 30.7973 79.0146 31.128C79.0146 31.448 79.164 31.6827 79.4626 31.832C79.7613 31.9813 80.2253 32.1253 80.8546 32.264C81.484 32.424 81.996 32.584 82.3906 32.744C82.7853 32.8933 83.1213 33.1333 83.3986 33.464C83.6866 33.7947 83.8306 34.2373 83.8306 34.792C83.8306 35.4747 83.5586 36.04 83.0146 36.488C82.4813 36.936 81.724 37.16 80.7426 37.16ZM88.8156 37.16C87.2583 37.16 86.4796 36.456 86.4796 35.048V30.088H85.3436C85.2583 30.088 85.1836 30.0613 85.1196 30.008C85.0663 29.944 85.0396 29.8693 85.0396 29.784C85.0396 29.6773 85.0876 29.5867 85.1836 29.512L87.3596 27.384C87.4556 27.288 87.5463 27.24 87.6316 27.24C87.717 27.24 87.7863 27.272 87.8396 27.336C87.9036 27.4 87.9356 27.4747 87.9356 27.56V28.84H89.7436C89.925 28.84 90.0743 28.8987 90.1916 29.016C90.309 29.1333 90.3676 29.2827 90.3676 29.464C90.3676 29.6347 90.309 29.784 90.1916 29.912C90.0743 30.0293 89.925 30.088 89.7436 30.088H87.9356V34.92C87.9356 35.336 88.0316 35.6027 88.2236 35.72C88.4263 35.8267 88.677 35.88 88.9756 35.88C89.189 35.88 89.4023 35.848 89.6156 35.784C89.6583 35.7733 89.701 35.7627 89.7436 35.752C89.797 35.7413 89.861 35.736 89.9356 35.736C90.085 35.736 90.2183 35.7947 90.3356 35.912C90.453 36.0187 90.5116 36.152 90.5116 36.312C90.5116 36.5573 90.389 36.744 90.1436 36.872C89.7276 37.064 89.285 37.16 88.8156 37.16ZM95.9196 37.16C94.6183 37.16 93.5996 36.792 92.8636 36.056C92.1383 35.3093 91.7756 34.264 91.7756 32.92C91.7756 32.1627 91.9143 31.464 92.1916 30.824C92.469 30.184 92.8956 29.6667 93.4716 29.272C94.0476 28.8773 94.757 28.68 95.5996 28.68C96.389 28.68 97.0716 28.8667 97.6476 29.24C98.2236 29.6027 98.661 30.0933 98.9596 30.712C99.2583 31.32 99.4076 31.9867 99.4076 32.712C99.4076 32.9147 99.3383 33.0853 99.1996 33.224C99.0716 33.3627 98.8956 33.432 98.6716 33.432H93.2476C93.333 34.1787 93.6103 34.76 94.0796 35.176C94.549 35.592 95.205 35.8 96.0476 35.8C96.4956 35.8 96.885 35.7573 97.2156 35.672C97.557 35.5867 97.8876 35.464 98.2076 35.304C98.293 35.2613 98.389 35.24 98.4956 35.24C98.6663 35.24 98.8156 35.2987 98.9436 35.416C99.0716 35.5333 99.1356 35.6827 99.1356 35.864C99.1356 36.0987 98.997 36.296 98.7196 36.456C98.3036 36.6907 97.893 36.8667 97.4876 36.984C97.0823 37.1013 96.5596 37.16 95.9196 37.16ZM97.9676 32.248C97.9356 31.7253 97.797 31.288 97.5516 30.936C97.317 30.584 97.0236 30.328 96.6716 30.168C96.3196 29.9973 95.9623 29.912 95.5996 29.912C95.237 29.912 94.8796 29.9973 94.5276 30.168C94.1756 30.328 93.8823 30.584 93.6476 30.936C93.413 31.288 93.2796 31.7253 93.2476 32.248H97.9676ZM102.326 37.08C102.123 37.08 101.953 37.0107 101.814 36.872C101.675 36.7333 101.606 36.5627 101.606 36.36V29.496C101.606 29.2933 101.675 29.1227 101.814 28.984C101.953 28.8347 102.123 28.76 102.326 28.76C102.529 28.76 102.699 28.8347 102.838 28.984C102.987 29.1227 103.062 29.2933 103.062 29.496V30.152C103.361 29.7253 103.718 29.3733 104.134 29.096C104.561 28.8187 105.11 28.68 105.782 28.68C106.379 28.68 106.891 28.84 107.318 29.16C107.745 29.48 108.049 29.8693 108.23 30.328C108.891 29.2293 109.873 28.68 111.174 28.68C111.771 28.68 112.267 28.8293 112.662 29.128C113.067 29.4267 113.366 29.8107 113.558 30.28C113.75 30.7493 113.846 31.24 113.846 31.752V36.36C113.846 36.5627 113.771 36.7333 113.622 36.872C113.483 37.0107 113.313 37.08 113.11 37.08C112.907 37.08 112.737 37.0107 112.598 36.872C112.459 36.7333 112.39 36.5627 112.39 36.36V32.04C112.39 31.3467 112.267 30.84 112.022 30.52C111.777 30.1893 111.355 30.024 110.758 30.024C110.214 30.024 109.761 30.168 109.398 30.456C109.046 30.7333 108.731 31.1013 108.454 31.56V36.36C108.454 36.5627 108.379 36.7333 108.23 36.872C108.091 37.0107 107.921 37.08 107.718 37.08C107.515 37.08 107.345 37.0107 107.206 36.872C107.067 36.7333 106.998 36.5627 106.998 36.36V32.04C106.998 31.3467 106.875 30.84 106.63 30.52C106.385 30.1893 105.963 30.024 105.366 30.024C104.822 30.024 104.369 30.168 104.006 30.456C103.654 30.7333 103.339 31.1013 103.062 31.56V36.36C103.062 36.5627 102.987 36.7333 102.838 36.872C102.699 37.0107 102.529 37.08 102.326 37.08ZM124.306 37.08C124.093 37.08 123.901 37.0213 123.73 36.904C123.57 36.776 123.447 36.5947 123.362 36.36L120.226 26.728C120.194 26.6107 120.178 26.52 120.178 26.456C120.167 26.2533 120.226 26.088 120.354 25.96C120.493 25.8213 120.669 25.752 120.882 25.752C121.053 25.752 121.202 25.8053 121.33 25.912C121.458 26.0187 121.549 26.1573 121.602 26.328L124.29 35.16L126.994 26.36C127.047 26.1787 127.149 26.0347 127.298 25.928C127.458 25.8107 127.634 25.752 127.826 25.752C128.018 25.752 128.189 25.8107 128.338 25.928C128.498 26.0347 128.605 26.1787 128.658 26.36L131.362 35.16L134.05 26.328C134.103 26.1573 134.194 26.0187 134.322 25.912C134.45 25.8053 134.599 25.752 134.77 25.752C134.983 25.752 135.154 25.8213 135.282 25.96C135.421 26.088 135.485 26.2533 135.474 26.456C135.474 26.52 135.458 26.6107 135.426 26.728L132.29 36.36C132.205 36.5947 132.077 36.776 131.906 36.904C131.746 37.0213 131.559 37.08 131.346 37.08C131.133 37.08 130.935 37.016 130.754 36.888C130.583 36.7493 130.466 36.5733 130.402 36.36L127.826 28.2L125.25 36.36C125.186 36.5733 125.063 36.7493 124.882 36.888C124.711 37.016 124.519 37.08 124.306 37.08ZM140.367 37.16C139.066 37.16 138.047 36.792 137.311 36.056C136.586 35.3093 136.223 34.264 136.223 32.92C136.223 32.1627 136.362 31.464 136.639 30.824C136.916 30.184 137.343 29.6667 137.919 29.272C138.495 28.8773 139.204 28.68 140.047 28.68C140.836 28.68 141.519 28.8667 142.095 29.24C142.671 29.6027 143.108 30.0933 143.407 30.712C143.706 31.32 143.855 31.9867 143.855 32.712C143.855 32.9147 143.786 33.0853 143.647 33.224C143.519 33.3627 143.343 33.432 143.119 33.432H137.695C137.78 34.1787 138.058 34.76 138.527 35.176C138.996 35.592 139.652 35.8 140.495 35.8C140.943 35.8 141.332 35.7573 141.663 35.672C142.004 35.5867 142.335 35.464 142.655 35.304C142.74 35.2613 142.836 35.24 142.943 35.24C143.114 35.24 143.263 35.2987 143.391 35.416C143.519 35.5333 143.583 35.6827 143.583 35.864C143.583 36.0987 143.444 36.296 143.167 36.456C142.751 36.6907 142.34 36.8667 141.935 36.984C141.53 37.1013 141.007 37.16 140.367 37.16ZM142.415 32.248C142.383 31.7253 142.244 31.288 141.999 30.936C141.764 30.584 141.471 30.328 141.119 30.168C140.767 29.9973 140.41 29.912 140.047 29.912C139.684 29.912 139.327 29.9973 138.975 30.168C138.623 30.328 138.33 30.584 138.095 30.936C137.86 31.288 137.727 31.7253 137.695 32.248H142.415ZM150.246 37.16C149.2 37.16 148.288 36.7547 147.51 35.944V36.36C147.51 36.5627 147.435 36.7333 147.286 36.872C147.147 37.0107 146.976 37.08 146.774 37.08C146.571 37.08 146.4 37.0107 146.262 36.872C146.123 36.7333 146.054 36.5627 146.054 36.36V25.976C146.054 25.7733 146.123 25.6027 146.262 25.464C146.4 25.3147 146.571 25.24 146.774 25.24C146.987 25.24 147.163 25.3093 147.302 25.448C147.44 25.5867 147.51 25.7627 147.51 25.976V29.896C148.288 29.0853 149.2 28.68 150.246 28.68C150.907 28.68 151.531 28.8507 152.118 29.192C152.715 29.5227 153.195 30.0133 153.558 30.664C153.931 31.304 154.118 32.056 154.118 32.92C154.118 33.784 153.931 34.5413 153.558 35.192C153.195 35.832 152.715 36.3227 152.118 36.664C151.531 36.9947 150.907 37.16 150.246 37.16ZM150.038 35.8C150.827 35.8 151.462 35.5493 151.942 35.048C152.422 34.5467 152.662 33.8373 152.662 32.92C152.662 32.0027 152.422 31.2933 151.942 30.792C151.462 30.2907 150.827 30.04 150.038 30.04C149.547 30.04 149.083 30.152 148.646 30.376C148.219 30.5893 147.84 30.8773 147.51 31.24V34.6C147.84 34.9627 148.219 35.256 148.646 35.48C149.083 35.6933 149.547 35.8 150.038 35.8Z" fill="#454545"/>
</svg>
